<?xml version="1.0" encoding="UTF-8" standalone="no"?>
<!-- Created with Inkscape (http://www.inkscape.org/) -->

<svg
   xmlns:dc="http://purl.org/dc/elements/1.1/"
   xmlns:cc="http://creativecommons.org/ns#"
   xmlns:rdf="http://www.w3.org/1999/02/22-rdf-syntax-ns#"
   xmlns:svg="http://www.w3.org/2000/svg"
   xmlns="http://www.w3.org/2000/svg"
   xmlns:sodipodi="http://sodipodi.sourceforge.net/DTD/sodipodi-0.dtd"
   xmlns:inkscape="http://www.inkscape.org/namespaces/inkscape"
   width="400"
   height="400"
   viewBox="0 0 105.83333 105.83333"
   version="1.1"
   id="svg8"
   inkscape:version="0.92.3 (2405546, 2018-03-11)"
   sodipodi:docname="beetroot.svg">
  <defs
     id="defs2" />
  <sodipodi:namedview
     id="base"
     pagecolor="#ffffff"
     bordercolor="#666666"
     borderopacity="1.0"
     inkscape:pageopacity="0.0"
     inkscape:pageshadow="2"
     inkscape:zoom="1.4"
     inkscape:cx="38.571429"
     inkscape:cy="168.29196"
     inkscape:document-units="mm"
     inkscape:current-layer="layer1"
     showgrid="true"
     units="px"
     showguides="true"
     inkscape:guide-bbox="true"
     inkscape:window-width="1920"
     inkscape:window-height="1006"
     inkscape:window-x="0"
     inkscape:window-y="0"
     inkscape:window-maximized="1"
     inkscape:measure-start="0,0"
     inkscape:measure-end="0,0"
     inkscape:snap-grids="true"
     inkscape:snap-to-guides="false">
    <inkscape:grid
       type="xygrid"
       id="grid4530" />
  </sodipodi:namedview>
  <metadata
     id="metadata5">
    <rdf:RDF>
      <cc:Work
         rdf:about="">
        <dc:format>image/svg+xml</dc:format>
        <dc:type
           rdf:resource="http://purl.org/dc/dcmitype/StillImage" />
        <dc:title></dc:title>
      </cc:Work>
    </rdf:RDF>
  </metadata>
  <g
     inkscape:label="Layer 1"
     inkscape:groupmode="layer"
     id="layer1"
     transform="translate(0,-191.16667)">
    <g
       id="g903"
       transform="translate(-1.2580003)"
       style="fill:#ffffff;fill-opacity:1;stroke:none">
      <path
         inkscape:connector-curvature="0"
         id="path853-0"
         d="m 65.329765,236.66776 c -0.221438,-1.22983 -0.332026,-2.30732 -0.370313,-3.61013 -0.1116,-3.79827 0.762076,-6.8722 2.776426,-9.76829 0.692435,-0.99565 2.48551,-2.86385 3.534016,-3.68208 2.141636,-1.67148 4.692367,-3.13323 7.651531,-4.38479 2.096706,-0.88682 7.642842,-2.90594 10.757532,-3.91636 0.88833,-0.28817 0.846551,-0.42952 0.371706,1.25733 -1.246772,4.42909 -2.662986,8.9441 -3.527647,11.24641 -2.111191,5.62128 -4.501308,9.07525 -7.829598,11.31456 -2.288581,1.53979 -5.319975,2.44959 -8.554742,2.56754 -1.704688,0.0617 -4.438345,-0.0832 -4.601713,-0.24475 -0.04459,-0.0443 -0.138019,-0.39489 -0.207178,-0.77942 z"
         style="opacity:1;fill:#ffffff;fill-opacity:1;fill-rule:nonzero;stroke:none;stroke-width:0.06766415;stroke-opacity:0" />
      <path
         inkscape:connector-curvature="0"
         id="path853-3-3-0"
         d="m 43.172708,237.39986 c -1.213998,0.22756 -2.277185,0.34375 -3.562167,0.38898 -3.746322,0.13183 -6.772962,-0.72346 -9.618109,-2.71795 -0.978203,-0.68563 -2.810829,-2.46485 -3.61211,-3.50675 -1.636795,-2.12814 -3.064531,-4.66567 -4.282853,-7.61188 -0.863226,-2.08753 -2.82449,-7.61115 -3.804166,-10.71385 -0.279406,-0.88491 -0.419023,-0.84245 1.24192,-0.3777 4.36103,1.22037 8.805945,2.60921 11.07173,3.4596 5.532121,2.07648 8.925414,4.44297 11.115807,7.75223 1.506125,2.27545 2.386997,5.29558 2.485861,8.52294 0.05165,1.70077 -0.105993,4.42946 -0.266138,4.59338 -0.04363,0.045 -0.390185,0.13987 -0.769763,0.21097 z"
         style="opacity:1;fill:#ffffff;fill-opacity:1;fill-rule:nonzero;stroke:none;stroke-width:0.06712274;stroke-opacity:0" />
      <path
         inkscape:connector-curvature="0"
         id="path853-3-8"
         d="m 54.952177,236.9988 c 1.008631,-0.84105 1.831785,-1.64283 2.758017,-2.68644 2.700443,-3.04267 4.187756,-6.25485 4.726358,-10.20761 0.185248,-1.35894 0.175158,-4.29271 -0.01984,-5.78236 -0.398172,-3.04283 -1.237281,-6.23104 -2.517094,-9.56374 -0.906815,-2.3614 -3.53075,-8.3385 -5.089518,-11.59348 -0.444574,-0.92835 -0.316834,-1.01229 -1.136347,0.74685 -2.151759,4.61884 -4.240049,9.44028 -5.201709,12.00968 -2.348011,6.27347 -2.999222,10.97815 -2.133309,15.4118 0.595419,3.04859 2.163247,6.15588 4.424533,8.76893 1.191647,1.377 3.271606,3.38336 3.501333,3.37738 0.06292,-0.002 0.372267,-0.21803 0.687579,-0.48101 z"
         style="opacity:1;fill:#ffffff;fill-opacity:1;fill-rule:nonzero;stroke:none;stroke-width:0.0720259;stroke-opacity:0" />
      <path
         id="path861"
         transform="matrix(0.26458333,0,0,0.26458333,0,191.16667)"
         d="m 205,190 v 0.0391 C 166.57458,190.53948 96.361457,186.15881 95.259766,260 h -0.01758 c 0.0011,0.12378 0.0082,0.24189 0.0098,0.36523 -0.0012,0.0984 -0.0069,0.19239 -0.0078,0.29102 h 0.01367 C 96.19007,323.1385 146.61423,329.61484 185.38871,330.42969 203.4186,349.871 200.03633,378.01452 205,380 c 4.96123,-1.9845 0.0905,-29.56329 19.55273,-49.5293 38.82159,-0.79344 89.4761,-7.16934 90.3711,-69.85156 h 0.0137 c -9.1e-4,-0.0986 -0.007,-0.19266 -0.008,-0.29102 10e-4,-0.0984 0.007,-0.19233 0.008,-0.29101 h -0.0137 C 313.86707,186.01093 243.40156,190.51567 205,190 Z"
         style="fill:#ffffff;fill-opacity:1;stroke:none;stroke-width:1.4129225px;stroke-linecap:butt;stroke-linejoin:miter;stroke-opacity:1"
         inkscape:connector-curvature="0" />
    </g>
  </g>
</svg>
