<?xml version="1.0" encoding="UTF-8" standalone="no"?>
<!-- Created with Inkscape (http://www.inkscape.org/) -->

<svg
   xmlns:dc="http://purl.org/dc/elements/1.1/"
   xmlns:cc="http://creativecommons.org/ns#"
   xmlns:rdf="http://www.w3.org/1999/02/22-rdf-syntax-ns#"
   xmlns:svg="http://www.w3.org/2000/svg"
   xmlns="http://www.w3.org/2000/svg"
   xmlns:sodipodi="http://sodipodi.sourceforge.net/DTD/sodipodi-0.dtd"
   xmlns:inkscape="http://www.inkscape.org/namespaces/inkscape"
   width="800"
   height="800"
   viewBox="0 0 211.66666 211.66666"
   version="1.1"
   id="svg8"
   inkscape:version="0.92.3 (2405546, 2018-03-11)"
   sodipodi:docname="icons-group.svg">
  <defs
     id="defs2" />
  <sodipodi:namedview
     id="base"
     pagecolor="#ffffff"
     bordercolor="#666666"
     borderopacity="1.0"
     inkscape:pageopacity="0.0"
     inkscape:pageshadow="2"
     inkscape:zoom="0.49497475"
     inkscape:cx="-317.22871"
     inkscape:cy="182.10913"
     inkscape:document-units="mm"
     inkscape:current-layer="layer1"
     showgrid="true"
     units="px"
     showguides="true"
     inkscape:guide-bbox="true"
     inkscape:window-width="1920"
     inkscape:window-height="1006"
     inkscape:window-x="0"
     inkscape:window-y="0"
     inkscape:window-maximized="1"
     inkscape:snap-to-guides="false"
     inkscape:snap-grids="true">
    <inkscape:grid
       type="xygrid"
       id="grid4530" />
  </sodipodi:namedview>
  <metadata
     id="metadata5">
    <rdf:RDF>
      <cc:Work
         rdf:about="">
        <dc:format>image/svg+xml</dc:format>
        <dc:type
           rdf:resource="http://purl.org/dc/dcmitype/StillImage" />
        <dc:title></dc:title>
      </cc:Work>
    </rdf:RDF>
  </metadata>
  <g
     inkscape:label="Layer 1"
     inkscape:groupmode="layer"
     id="layer1"
     transform="translate(0,-85.333337)">
    <g
       id="g1020"
       style="fill:#00ffff;fill-opacity:1;stroke:none">
      <path
         inkscape:connector-curvature="0"
         id="path853-0"
         d="m 56.785895,223.44584 c 0.202368,-0.78962 0.42489,-1.45669 0.745672,-2.23496 0.935237,-2.26902 2.214728,-3.81962 4.06596,-4.92744 0.636425,-0.38091 2.098229,-0.94921 2.881157,-1.12013 1.599218,-0.34922 3.365218,-0.4537 5.297551,-0.31342 1.369145,0.0994 4.905133,0.55458 6.858563,0.88291 0.55713,0.0936 0.571534,-0.001 -0.128105,0.85033 -1.837008,2.23777 -3.788413,4.47589 -4.86073,5.57493 -2.618171,2.68338 -4.819391,4.00826 -7.210772,4.34003 -1.644344,0.22812 -3.526232,-0.13476 -5.310781,-1.02406 -0.940322,-0.46893 -2.384289,-1.36447 -2.430528,-1.50795 -0.0126,-0.0392 0.0287,-0.27337 0.09201,-0.52023 z"
         style="opacity:1;fill:#00ffff;fill-opacity:1;fill-rule:nonzero;stroke:none;stroke-width:0.04262472;stroke-opacity:0" />
      <path
         inkscape:connector-curvature="0"
         id="path853-3-3-0"
         d="m 49.033137,224.34183 c -0.619415,0.4627 -1.1822,0.81738 -1.885666,1.18822 -2.050935,1.08115 -3.943021,1.3701 -6.012698,0.91822 -0.711564,-0.15531 -2.165595,-0.7469 -2.865881,-1.166 -1.430442,-0.85598 -2.844727,-2.01661 -4.242484,-3.48156 -0.990369,-1.03799 -3.431379,-3.87081 -4.734692,-5.49466 -0.371713,-0.46313 -0.438968,-0.40001 0.598236,-0.56138 2.723333,-0.42367 5.534507,-0.76729 7.002322,-0.85587 3.583832,-0.21627 6.049262,0.31522 8.076302,1.74108 1.3938,0.98042 2.621985,2.58046 3.465995,4.51542 0.444531,1.0198 1.023995,2.72024 0.97502,2.86266 -0.01326,0.0389 -0.182768,0.18924 -0.376454,0.33387 z"
         style="opacity:1;fill:#00ffff;fill-opacity:1;fill-rule:nonzero;stroke:none;stroke-width:0.04262472;stroke-opacity:0" />
      <path
         inkscape:connector-curvature="0"
         id="path853-3-8"
         d="m 53.328666,220.05552 c 0.609718,-0.47787 1.10712,-0.93458 1.666555,-1.53023 1.63103,-1.73656 2.526605,-3.58095 2.84595,-5.8611 0.10984,-0.7839 0.09848,-2.47956 -0.02234,-3.34211 -0.246718,-1.76186 -0.7609,-3.61131 -1.542403,-5.54788 -0.553737,-1.37214 -2.154488,-4.84798 -3.104895,-6.74189 -0.271067,-0.54016 -0.193802,-0.58764 -0.687288,0.4224 -1.295721,2.652 -2.552624,5.4216 -3.130804,6.89879 -1.411697,3.60668 -1.797946,6.32051 -1.265297,8.88998 0.366257,1.76679 1.3219,3.5754 2.696886,5.10401 0.724584,0.80555 1.988613,1.98204 2.127813,1.98045 0.03808,-4.5e-4 0.225202,-0.12298 0.415818,-0.27242 z"
         style="opacity:1;fill:#00ffff;fill-opacity:1;fill-rule:nonzero;stroke:none;stroke-width:0.04262472;stroke-opacity:0" />
      <path
         id="path834-0-8-1"
         transform="matrix(0.26458333,0,0,0.26458333,0,191.16667)"
         d="m 195.71484,130 -11.99609,184.55664 c -11.95504,-42.29463 -37.04039,-59.18759 -63.42578,-75.87109 l -1.97266,11.77148 c 31.072,37.20276 46.53488,55.29963 49.31055,129.54297 H 179.46484 191 216 v -0.0137 l 12.81055,-0.0156 c 2.77567,-74.24337 18.23855,-92.34216 49.31054,-129.54492 l -1.97265,-11.77148 c -26.35672,16.66537 -51.13404,33.55508 -62.94141,75.75781 L 205.35742,130 Z"
         style="fill:#00ffff;fill-opacity:1;stroke:none;stroke-width:0.68157244px;stroke-linecap:butt;stroke-linejoin:miter;stroke-opacity:1"
         inkscape:connector-curvature="0" />
      <path
         inkscape:connector-curvature="0"
         id="path853-0-0"
         d="m 30.257438,250.54487 c -0.40975,-0.70467 -0.719163,-1.33614 -1.036566,-2.11579 -0.925374,-2.27307 -1.101415,-4.27568 -0.559391,-6.36386 0.186298,-0.71794 0.829311,-2.14846 1.267328,-2.81952 0.894633,-1.3708 2.079817,-2.68419 3.555243,-3.93987 1.045408,-0.88969 3.884546,-3.04601 5.506936,-4.18247 0.462685,-0.32415 0.406587,-0.40167 0.505265,0.69583 0.26083,2.88343 0.440386,5.84738 0.447274,7.38285 0.01678,3.74902 -0.622373,6.23742 -2.093763,8.15152 -1.01174,1.31616 -2.607393,2.37781 -4.502976,2.99605 -0.999069,0.32551 -2.656333,0.70036 -2.789948,0.63055 -0.03647,-0.0191 -0.171332,-0.21494 -0.299396,-0.43527 z"
         style="opacity:1;fill:#00ffff;fill-opacity:1;fill-rule:nonzero;stroke:none;stroke-width:0.04262472;stroke-opacity:0" />
      <path
         inkscape:connector-curvature="0"
         id="path853-3-3-0-3"
         d="m 25.361279,256.62235 c -0.116798,0.76427 -0.26902,1.41185 -0.510157,2.16964 -0.703046,2.20929 -1.848665,3.7426 -3.64057,4.87256 -0.61603,0.38853 -2.06723,0.98703 -2.860286,1.17967 -1.619881,0.3935 -3.441961,0.55865 -5.465766,0.4953 -1.433958,-0.0449 -5.1608377,-0.3511 -7.2288184,-0.59394 -0.5897996,-0.0693 -0.5934433,0.0229 0.032474,-0.81975 1.6434656,-2.21248 3.4056886,-4.42953 4.3895344,-5.5224 2.402173,-2.66837 4.531949,-4.01925 6.976769,-4.42524 1.681063,-0.27915 3.678802,-5.8e-4 5.637734,0.78618 1.032225,0.41487 2.63811,1.2201 2.703125,1.35595 0.01783,0.0371 0.0025,0.26308 -0.03404,0.50203 z"
         style="opacity:1;fill:#00ffff;fill-opacity:1;fill-rule:nonzero;stroke:none;stroke-width:0.04262472;stroke-opacity:0" />
      <path
         inkscape:connector-curvature="0"
         id="path853-3-8-4"
         d="m 25.415268,250.55431 c 0.09924,-0.76829 0.133293,-1.44271 0.114077,-2.25965 -0.05599,-2.38176 -0.711727,-4.32439 -2.083804,-6.1733 -0.471674,-0.63568 -1.669367,-1.83607 -2.360582,-2.36598 -1.41186,-1.08243 -3.075765,-2.03966 -4.991292,-2.87144 -1.357231,-0.58933 -4.936434,-1.94325 -6.9423947,-2.62612 -0.57212,-0.19477 -0.550367,-0.2828 -0.193437,0.78317 0.937174,2.79888 1.9845007,5.65433 2.6088137,7.11263 1.524281,3.56056 3.152929,5.76545 5.335126,7.22282 1.500498,1.00209 3.450342,1.6205 5.502581,1.74519 1.081488,0.0657 2.807627,0.0173 2.905708,-0.0815 0.02682,-0.0271 0.07421,-0.24563 0.105201,-0.48585 z"
         style="opacity:1;fill:#00ffff;fill-opacity:1;fill-rule:nonzero;stroke:none;stroke-width:0.04262472;stroke-opacity:0" />
      <path
         inkscape:connector-curvature="0"
         id="path853-0-0-9"
         d="m 75.510412,250.60623 c 0.40975,-0.70467 0.71916,-1.33614 1.03657,-2.11579 0.92537,-2.27307 1.10141,-4.27568 0.55939,-6.36386 -0.1863,-0.71794 -0.82931,-2.14846 -1.26733,-2.81952 -0.89463,-1.3708 -2.07982,-2.68419 -3.55524,-3.93987 -1.04541,-0.88969 -3.88455,-3.04601 -5.50694,-4.18247 -0.46269,-0.32415 -0.40659,-0.40167 -0.50526,0.69583 -0.26084,2.88343 -0.44039,5.84738 -0.44728,7.38285 -0.0168,3.74902 0.62237,6.23742 2.09376,8.15152 1.01174,1.31616 2.6074,2.37781 4.50298,2.99605 0.99907,0.32551 2.65633,0.70036 2.78995,0.63055 0.0365,-0.0191 0.17133,-0.21494 0.29939,-0.43527 z"
         style="opacity:1;fill:#00ffff;fill-opacity:1;fill-rule:nonzero;stroke:none;stroke-width:0.04262472;stroke-opacity:0" />
      <path
         inkscape:connector-curvature="0"
         id="path853-3-3-0-3-6"
         d="m 80.406544,256.68368 c 0.1168,0.76427 0.26902,1.41185 0.51015,2.16964 0.70305,2.20929 1.84867,3.7426 3.64057,4.87256 0.61603,0.38853 2.06723,0.98703 2.86029,1.17967 1.61988,0.3935 3.44196,0.55865 5.46577,0.4953 1.43395,-0.0449 5.16083,-0.3511 7.228806,-0.59394 0.5898,-0.0693 0.59345,0.0229 -0.0325,-0.81975 -1.643456,-2.21248 -3.405676,-4.42953 -4.389526,-5.5224 -2.40217,-2.66837 -4.53195,-4.01925 -6.97677,-4.42524 -1.68106,-0.27915 -3.6788,-5.8e-4 -5.63773,0.78618 -1.03223,0.41487 -2.63811,1.2201 -2.70313,1.35595 -0.0178,0.0371 -0.002,0.26308 0.034,0.50203 z"
         style="opacity:1;fill:#00ffff;fill-opacity:1;fill-rule:nonzero;stroke:none;stroke-width:0.04262472;stroke-opacity:0" />
      <path
         inkscape:connector-curvature="0"
         id="path853-3-8-4-9"
         d="m 80.352575,250.61567 c -0.0992,-0.76829 -0.13329,-1.44271 -0.11407,-2.25965 0.056,-2.38176 0.71172,-4.32439 2.0838,-6.1733 0.47167,-0.63568 1.66937,-1.83607 2.36058,-2.36598 1.41186,-1.08243 3.07577,-2.03966 4.99129,-2.87144 1.35723,-0.58933 4.93644,-1.94325 6.9424,-2.62612 0.57212,-0.19477 0.55037,-0.2828 0.19344,0.78317 -0.93718,2.79888 -1.98451,5.65433 -2.60882,7.11263 -1.52428,3.56056 -3.15293,5.76545 -5.33512,7.22282 -1.5005,1.00209 -3.45035,1.6205 -5.50259,1.74519 -1.08148,0.0657 -2.80762,0.0173 -2.9057,-0.0815 -0.0268,-0.0271 -0.0742,-0.24563 -0.1052,-0.48585 z"
         style="opacity:1;fill:#00ffff;fill-opacity:1;fill-rule:nonzero;stroke:none;stroke-width:0.04262472;stroke-opacity:0" />
    </g>
    <path
       style="fill:none;stroke:#00ffff;stroke-width:3.33987355;stroke-linecap:butt;stroke-linejoin:miter;stroke-miterlimit:4;stroke-dasharray:none;stroke-opacity:1"
       d="m -210.91542,133.43446 h 67.22104 c 7.68241,0 9.60301,3.88115 9.60301,9.70288 v 65.97958 c 0,7.7623 -1.9206,11.64345 -11.52361,11.64345 h -19.20601 c -3.23575,0.0234 -3.61983,-1.87407 -3.8412,-3.88115 v -24.2572 c 0.0297,-1.21507 1.78351,-3.43978 3.8412,-3.21107 h 9.60301 l 4.03737,-15.2244 h -15.56098 c 4e-4,-8.04747 0.95757,-9.89445 5.7618,-10.08352 h 9.60301 v -14.058 h -13.44421 c -21.12661,-0.11568 -16.32511,12.49807 -17.28541,24.14152 h -9.60301 l 0.0323,15.5246 h 7.65011 c 2.46333,0.0315 2.24036,2.02965 2.21772,3.88116 v 23.28691 c -0.42012,3.0147 -1.97994,3.74946 -3.8412,3.88115 h -25.26494 c -5.7618,0 -9.60301,-3.88115 -9.60301,-9.70288 v -67.92015 c 0,-7.76231 4.93535,-10.45363 9.60301,-9.70288 z"
       id="path885"
       inkscape:connector-curvature="0"
       sodipodi:nodetypes="ccccccccccccccccccccccccccc" />
    <path
       style="display:inline;fill:#ffffff;stroke:#00ffff;stroke-width:2.01277137;stroke-linecap:butt;stroke-linejoin:miter;stroke-miterlimit:4;stroke-dasharray:none;stroke-opacity:1"
       d="m -220.88183,143.07701 12.46457,-9.47314"
       id="path886"
       inkscape:connector-curvature="0" />
    <path
       style="display:inline;fill:#ffffff;stroke:#00ffff;stroke-width:2.01277137;stroke-linecap:butt;stroke-linejoin:miter;stroke-miterlimit:4;stroke-dasharray:none;stroke-opacity:1"
       d="m -221.05112,148.37998 19.96779,-15.42164"
       id="path886-0-6-11"
       inkscape:connector-curvature="0" />
    <path
       style="display:inline;fill:#ffffff;stroke:#00ffff;stroke-width:2.01277137;stroke-linecap:butt;stroke-linejoin:miter;stroke-miterlimit:4;stroke-dasharray:none;stroke-opacity:1"
       d="m -220.10572,153.21157 25.48751,-19.8357"
       id="path886-0-6-11-0"
       inkscape:connector-curvature="0" />
    <path
       style="display:inline;fill:#ffffff;stroke:#00ffff;stroke-width:2.01277137;stroke-linecap:butt;stroke-linejoin:miter;stroke-miterlimit:4;stroke-dasharray:none;stroke-opacity:1"
       d="m -220.52786,159.17454 33.51074,-26.12657"
       id="path886-0-6-11-0-3"
       inkscape:connector-curvature="0" />
    <path
       style="display:inline;fill:#ffffff;stroke:#00ffff;stroke-width:2.01277137;stroke-linecap:butt;stroke-linejoin:miter;stroke-miterlimit:4;stroke-dasharray:none;stroke-opacity:1"
       d="m -219.64383,164.2475 38.42528,-29.90948"
       id="path886-0-6-11-0-3-4"
       inkscape:connector-curvature="0" />
    <path
       style="display:inline;fill:#ffffff;stroke:#00ffff;stroke-width:2.01277137;stroke-linecap:butt;stroke-linejoin:miter;stroke-miterlimit:4;stroke-dasharray:none;stroke-opacity:1"
       d="m -219.48934,170.13541 46.87227,-36.65694"
       id="path886-0-6-11-0-3-4-0"
       inkscape:connector-curvature="0" />
    <path
       style="display:inline;fill:#ffffff;stroke:#00ffff;stroke-width:2.01277137;stroke-linecap:butt;stroke-linejoin:miter;stroke-miterlimit:4;stroke-dasharray:none;stroke-opacity:1"
       d="m -220.04436,176.58418 54.23495,-42.8055"
       id="path886-0-6-11-0-3-4-0-3"
       inkscape:connector-curvature="0" />
    <path
       style="display:inline;fill:#ffffff;stroke:#00ffff;stroke-width:2.01277137;stroke-linecap:butt;stroke-linejoin:miter;stroke-miterlimit:4;stroke-dasharray:none;stroke-opacity:1"
       d="m -220.41483,182.83517 62.23202,-49.20924"
       id="path886-0-6-11-0-3-4-0-3-9"
       inkscape:connector-curvature="0" />
    <path
       style="display:inline;fill:#ffffff;stroke:#00ffff;stroke-width:2.05908346;stroke-linecap:butt;stroke-linejoin:miter;stroke-miterlimit:4;stroke-dasharray:none;stroke-opacity:1"
       d="m -219.83016,188.60386 39.60304,-31.68891"
       id="path886-0-6-11-0-3-4-1"
       inkscape:connector-curvature="0" />
    <path
       style="display:inline;fill:#ffffff;stroke:#00ffff;stroke-width:2.01277137;stroke-linecap:butt;stroke-linejoin:miter;stroke-miterlimit:4;stroke-dasharray:none;stroke-opacity:1"
       d="m -174.22026,151.91827 23.87791,-18.25262"
       id="path886-0-6-11-0-9"
       inkscape:connector-curvature="0" />
    <path
       style="display:inline;fill:#ffffff;stroke:#00ffff;stroke-width:2.02460384;stroke-linecap:butt;stroke-linejoin:miter;stroke-miterlimit:4;stroke-dasharray:none;stroke-opacity:1"
       d="m -220.93472,195.64241 38.10691,-30.51498"
       id="path886-0-6-11-0-3-4-6"
       inkscape:connector-curvature="0" />
    <path
       style="display:inline;fill:#ffffff;stroke:#00ffff;stroke-width:2.01277137;stroke-linecap:butt;stroke-linejoin:miter;stroke-miterlimit:4;stroke-dasharray:none;stroke-opacity:1"
       d="m -164.46871,149.96244 19.96778,-15.42165"
       id="path886-0-6-11-9"
       inkscape:connector-curvature="0" />
    <path
       style="display:inline;fill:#ffffff;stroke:#00ffff;stroke-width:2.01277137;stroke-linecap:butt;stroke-linejoin:miter;stroke-miterlimit:4;stroke-dasharray:none;stroke-opacity:1"
       d="m -187.08711,174.26051 5.33606,-3.61974"
       id="path886-3"
       inkscape:connector-curvature="0" />
    <path
       style="display:inline;fill:#ffffff;stroke:#00ffff;stroke-width:2.01277137;stroke-linecap:butt;stroke-linejoin:miter;stroke-miterlimit:4;stroke-dasharray:none;stroke-opacity:1"
       d="m -156.44065,149.65366 19.96778,-15.42164"
       id="path886-0-6-11-3"
       inkscape:connector-curvature="0" />
    <path
       style="display:inline;fill:#ffffff;stroke:#00ffff;stroke-width:2.01277137;stroke-linecap:butt;stroke-linejoin:miter;stroke-miterlimit:4;stroke-dasharray:none;stroke-opacity:1"
       d="m -221.00596,201.69942 30.22132,-24.10271"
       id="path886-0-6-11-0-3-8"
       inkscape:connector-curvature="0" />
    <path
       style="display:inline;fill:#ffffff;stroke:#00ffff;stroke-width:2.01277137;stroke-linecap:butt;stroke-linejoin:miter;stroke-miterlimit:4;stroke-dasharray:none;stroke-opacity:1"
       d="m -221.6235,208.4924 30.22131,-24.10271"
       id="path886-0-6-11-0-3-8-0"
       inkscape:connector-curvature="0" />
    <path
       style="display:inline;fill:#ffffff;stroke:#00ffff;stroke-width:2.01277137;stroke-linecap:butt;stroke-linejoin:miter;stroke-miterlimit:4;stroke-dasharray:none;stroke-opacity:1"
       d="m -152.32395,152.49962 18.2186,-14.16619"
       id="path886-0-6-11-3-5"
       inkscape:connector-curvature="0" />
    <path
       style="display:inline;fill:#ffffff;stroke:#00ffff;stroke-width:2.01277137;stroke-linecap:butt;stroke-linejoin:miter;stroke-miterlimit:4;stroke-dasharray:none;stroke-opacity:1"
       d="M -221.09331,214.61898 -190.872,190.51627"
       id="path886-0-6-11-0-3-8-0-6"
       inkscape:connector-curvature="0" />
    <path
       style="display:inline;fill:#ffffff;stroke:#00ffff;stroke-width:2.01277137;stroke-linecap:butt;stroke-linejoin:miter;stroke-miterlimit:4;stroke-dasharray:none;stroke-opacity:1"
       d="m -151.55203,158.28909 18.2186,-14.16619"
       id="path886-0-6-11-3-5-6"
       inkscape:connector-curvature="0" />
    <path
       style="display:inline;fill:#ffffff;stroke:#00ffff;stroke-width:2.01277137;stroke-linecap:butt;stroke-linejoin:miter;stroke-miterlimit:4;stroke-dasharray:none;stroke-opacity:1"
       d="m -151.37678,164.10303 18.2186,-14.16619"
       id="path886-0-6-11-3-5-6-4"
       inkscape:connector-curvature="0" />
    <path
       style="display:inline;fill:#ffffff;stroke:#00ffff;stroke-width:2.01277137;stroke-linecap:butt;stroke-linejoin:miter;stroke-miterlimit:4;stroke-dasharray:none;stroke-opacity:1"
       d="m -163.84135,173.57615 12.46457,-9.47312"
       id="path886-0"
       inkscape:connector-curvature="0" />
    <path
       style="display:inline;fill:#ffffff;stroke:#00ffff;stroke-width:2.44115782;stroke-linecap:butt;stroke-linejoin:miter;stroke-miterlimit:4;stroke-dasharray:none;stroke-opacity:1"
       d="m -165.92079,168.64438 6.31948,-4.49594"
       id="path886-3-0"
       inkscape:connector-curvature="0" />
    <path
       style="display:inline;fill:#ffffff;stroke:#00ffff;stroke-width:2.01277137;stroke-linecap:butt;stroke-linejoin:miter;stroke-miterlimit:4;stroke-dasharray:none;stroke-opacity:1"
       d="m -157.08923,174.77451 23.42635,-18.26688"
       id="path886-0-6-11-0-4"
       inkscape:connector-curvature="0" />
    <path
       style="display:inline;fill:#ffffff;stroke:#00ffff;stroke-width:2.01277137;stroke-linecap:butt;stroke-linejoin:miter;stroke-miterlimit:4;stroke-dasharray:none;stroke-opacity:1"
       d="m -216.90597,218.11101 34.06343,-27.59258"
       id="path886-0-6-11-0-3-8-0-6-6"
       inkscape:connector-curvature="0" />
    <path
       style="display:inline;fill:#ffffff;stroke:#00ffff;stroke-width:2.01277137;stroke-linecap:butt;stroke-linejoin:miter;stroke-miterlimit:4;stroke-dasharray:none;stroke-opacity:1"
       d="m -211.58842,220.38011 30.22131,-24.10272"
       id="path886-0-6-11-0-3-8-0-6-2"
       inkscape:connector-curvature="0" />
    <path
       style="display:inline;fill:#ffffff;stroke:#00ffff;stroke-width:2.01277137;stroke-linecap:butt;stroke-linejoin:miter;stroke-miterlimit:4;stroke-dasharray:none;stroke-opacity:1"
       d="M -203.58924,220.51089 -181.647,203.09398"
       id="path886-0-6-11-0-6"
       inkscape:connector-curvature="0" />
    <path
       style="display:inline;fill:#ffffff;stroke:#00ffff;stroke-width:2.01277137;stroke-linecap:butt;stroke-linejoin:miter;stroke-miterlimit:4;stroke-dasharray:none;stroke-opacity:1"
       d="m -196.61245,220.91186 13.85532,-10.80834"
       id="path886-0-6-11-7"
       inkscape:connector-curvature="0" />
    <path
       style="display:inline;fill:#ffffff;stroke:#00ffff;stroke-width:2.44115782;stroke-linecap:butt;stroke-linejoin:miter;stroke-miterlimit:4;stroke-dasharray:none;stroke-opacity:1"
       d="m -188.53132,220.9726 6.31948,-4.49593"
       id="path886-3-0-5"
       inkscape:connector-curvature="0" />
    <path
       style="display:inline;fill:#ffffff;stroke:#00ffff;stroke-width:2.01277137;stroke-linecap:butt;stroke-linejoin:miter;stroke-miterlimit:4;stroke-dasharray:none;stroke-opacity:1"
       d="m -152.14676,178.33019 18.32738,-15.03439"
       id="path886-0-6-11-3-5-6-4-6"
       inkscape:connector-curvature="0" />
    <path
       style="display:inline;fill:#ffffff;stroke:#00ffff;stroke-width:2.01277137;stroke-linecap:butt;stroke-linejoin:miter;stroke-miterlimit:4;stroke-dasharray:none;stroke-opacity:1"
       d="m -153.69191,185.89667 18.48433,-14.88316"
       id="path886-0-6-11-3-5-6-4-9"
       inkscape:connector-curvature="0" />
    <path
       style="display:inline;fill:#ffffff;stroke:#00ffff;stroke-width:2.01277137;stroke-linecap:butt;stroke-linejoin:miter;stroke-miterlimit:4;stroke-dasharray:none;stroke-opacity:1"
       d="m -168.12005,204.21628 34.06343,-27.59258"
       id="path886-0-6-11-0-3-8-0-6-6-8"
       inkscape:connector-curvature="0" />
    <path
       style="display:inline;fill:#ffffff;stroke:#00ffff;stroke-width:2.01277137;stroke-linecap:butt;stroke-linejoin:miter;stroke-miterlimit:4;stroke-dasharray:none;stroke-opacity:1"
       d="m -168.65138,198.49244 12.46457,-9.47312"
       id="path886-0-7"
       inkscape:connector-curvature="0" />
    <path
       style="display:inline;fill:#ffffff;stroke:#00ffff;stroke-width:2.01277137;stroke-linecap:butt;stroke-linejoin:miter;stroke-miterlimit:4;stroke-dasharray:none;stroke-opacity:1"
       d="m -167.81127,210.85488 34.06342,-27.59259"
       id="path886-0-6-11-0-3-8-0-6-6-8-2"
       inkscape:connector-curvature="0" />
    <path
       style="display:inline;fill:#ffffff;stroke:#00ffff;stroke-width:2.01277137;stroke-linecap:butt;stroke-linejoin:miter;stroke-miterlimit:4;stroke-dasharray:none;stroke-opacity:1"
       d="m -168.25964,217.68433 34.06343,-27.59259"
       id="path886-0-6-11-0-3-8-0-6-6-8-8"
       inkscape:connector-curvature="0" />
    <path
       style="display:inline;fill:#ffffff;stroke:#00ffff;stroke-width:2.01277137;stroke-linecap:butt;stroke-linejoin:miter;stroke-miterlimit:4;stroke-dasharray:none;stroke-opacity:1"
       d="m -163.72881,220.84326 30.22131,-24.1027"
       id="path886-0-6-11-0-3-8-0-6-2-2"
       inkscape:connector-curvature="0" />
    <path
       style="display:inline;fill:#ffffff;stroke:#00ffff;stroke-width:2.01277137;stroke-linecap:butt;stroke-linejoin:miter;stroke-miterlimit:4;stroke-dasharray:none;stroke-opacity:1"
       d="m -155.32708,221.29942 21.94224,-17.41693"
       id="path886-0-6-11-0-6-9"
       inkscape:connector-curvature="0" />
    <path
       style="display:inline;fill:#ffffff;stroke:#00ffff;stroke-width:2.01277137;stroke-linecap:butt;stroke-linejoin:miter;stroke-miterlimit:4;stroke-dasharray:none;stroke-opacity:1"
       d="m -147.82653,221.60659 13.85533,-10.80833"
       id="path886-0-6-11-7-9"
       inkscape:connector-curvature="0" />
    <g
       transform="translate(99.760321,-100.21972)"
       id="g840"
       style="fill:#00ffff;fill-opacity:1;stroke:none">
      <path
         inkscape:connector-curvature="0"
         id="path853-0-6"
         d="m 16.31033,265.56064 c -0.752841,-0.53718 -1.36742,-1.05067 -2.059017,-1.72052 -2.016322,-1.95295 -3.127964,-4.02857 -3.532577,-6.59587 -0.139167,-0.88263 -0.133788,-2.79228 0.01056,-3.76383 0.294729,-1.98457 0.918221,-4.06823 1.870316,-6.25044 0.674606,-1.54617 2.627263,-5.46321 3.787472,-7.59768 0.330898,-0.60875 0.23556,-0.66211 0.848076,0.47453 1.608262,2.98447 3.169333,6.10145 3.888474,7.76405 1.755823,4.05939 2.244989,7.115 1.602403,10.00953 -0.441853,1.99032 -1.608927,4.02874 -3.293558,5.75249 -0.886971,0.90918 -2.437647,2.23541 -2.608947,2.23387 -0.04697,-6.2e-4 -0.277848,-0.13814 -0.513192,-0.30614 z"
         style="opacity:1;fill:#00ffff;fill-opacity:1;fill-rule:nonzero;stroke:none;stroke-width:0.05018407;stroke-opacity:0" />
      <path
         inkscape:connector-curvature="0"
         id="path853-0-6-7"
         d="m 88.570716,265.77903 c -0.752839,-0.53719 -1.36742,-1.05068 -2.059016,-1.72053 -2.016323,-1.95295 -3.127965,-4.02857 -3.532579,-6.59587 -0.139166,-0.88263 -0.133787,-2.79227 0.01056,-3.76383 0.294732,-1.98457 0.918223,-4.06822 1.870318,-6.25045 0.674607,-1.54616 2.627263,-5.4632 3.787473,-7.59767 0.330898,-0.60876 0.235562,-0.66211 0.848076,0.47453 1.608264,2.98447 3.169334,6.10145 3.88847,7.76404 1.755801,4.05941 2.244978,7.11502 1.602381,10.00954 -0.441837,1.99032 -1.608911,4.02874 -3.293531,5.75248 -0.886972,0.9092 -2.437646,2.23541 -2.608948,2.23388 -0.04697,-6.2e-4 -0.277848,-0.13814 -0.513192,-0.30614 z"
         style="opacity:1;fill:#00ffff;fill-opacity:1;fill-rule:nonzero;stroke:none;stroke-width:0.05018407;stroke-opacity:0" />
      <path
         inkscape:connector-curvature="0"
         id="path853-0-6-2"
         d="m 52.472475,265.59453 c -0.752844,-0.53715 -1.367426,-1.05065 -2.059022,-1.72051 -2.016322,-1.95295 -3.127968,-4.02855 -3.532579,-6.59587 -0.139159,-0.88264 -0.133789,-2.79226 0.01056,-3.76384 0.294732,-1.98456 0.918216,-4.06821 1.870312,-6.25043 0.674609,-1.54617 2.62727,-5.46322 3.787472,-7.59768 0.330905,-0.60876 0.235561,-0.66211 0.848078,0.47455 1.608268,2.98445 3.169337,6.10143 3.888475,7.76403 1.755823,4.0594 2.244992,7.11501 1.602401,10.00953 -0.441849,1.99032 -1.608926,4.02873 -3.293558,5.75249 -0.886968,0.90919 -2.437644,2.23541 -2.608942,2.23387 -0.04693,-6.4e-4 -0.277839,-0.13815 -0.513195,-0.30614 z"
         style="opacity:1;fill:#00ffff;fill-opacity:1;fill-rule:nonzero;stroke:none;stroke-width:0.05018407;stroke-opacity:0" />
      <path
         inkscape:connector-curvature="0"
         id="path853-0-6-08"
         d="m 33.966688,291.17934 c -0.752845,-0.53718 -1.367425,-1.05067 -2.059021,-1.72052 -2.016325,-1.95295 -3.127958,-4.02857 -3.532574,-6.59587 -0.139164,-0.88263 -0.133788,-2.79228 0.0108,-3.76383 0.294732,-1.98457 0.918216,-4.06823 1.870309,-6.25044 0.674617,-1.54617 2.627269,-5.46321 3.787478,-7.59768 0.3309,-0.60875 0.23556,-0.66211 0.848076,0.47453 1.608264,2.98447 3.169332,6.10145 3.88848,7.76405 1.755816,4.05939 2.244984,7.115 1.602396,10.00953 -0.441852,1.99032 -1.608924,4.02874 -3.293556,5.75249 -0.886968,0.90918 -2.437644,2.23541 -2.608944,2.23387 -0.04692,-6.4e-4 -0.277849,-0.13814 -0.513192,-0.30614 z"
         style="opacity:1;fill:#00ffff;fill-opacity:1;fill-rule:nonzero;stroke:none;stroke-width:0.05018407;stroke-opacity:0" />
      <path
         inkscape:connector-curvature="0"
         id="path853-0-6-7-1"
         d="m 70.908077,291.17935 c -0.752844,-0.53719 -1.367424,-1.05068 -2.05902,-1.72053 -2.016324,-1.95295 -3.127956,-4.02857 -3.532572,-6.59587 -0.139164,-0.88263 -0.133788,-2.79227 0.0108,-3.76383 0.294732,-1.98457 0.918216,-4.06822 1.87032,-6.25045 0.674604,-1.54616 2.627256,-5.4632 3.787464,-7.59767 0.3309,-0.60876 0.23556,-0.66211 0.848076,0.47453 1.608264,2.98447 3.169344,6.10145 3.88848,7.76404 1.755798,4.05941 2.24498,7.11502 1.602393,10.00954 -0.441854,1.99032 -1.608921,4.02874 -3.293553,5.75248 -0.886968,0.9092 -2.437644,2.23541 -2.608944,2.23388 -0.04692,-6.4e-4 -0.277848,-0.13814 -0.513192,-0.30614 z"
         style="opacity:1;fill:#00ffff;fill-opacity:1;fill-rule:nonzero;stroke:none;stroke-width:0.05018407;stroke-opacity:0" />
      <path
         id="path830"
         d="m 5.2916666,196.45834 c 0,18.76053 12.9645804,37.52122 37.0416664,37.52122 11.842332,0 20.99433,-4.54011 27.239679,-11.38484 1.436833,0.21049 2.940153,0.32195 4.51032,0.32195 17.197919,0 26.458338,-13.22916 26.458338,-26.45833 h -21.166671 -31.75 z"
         style="fill:#00ffff;fill-opacity:1;stroke:none;stroke-width:0.37280586px;stroke-linecap:butt;stroke-linejoin:miter;stroke-opacity:1"
         inkscape:connector-curvature="0" />
    </g>
    <g
       transform="translate(0.60409233,-105.51827)"
       id="g843"
       style="fill:#00ffff;fill-opacity:1;stroke:none">
      <ellipse
         ry="26.33849"
         rx="26.338488"
         cy="244.08334"
         cx="52.916664"
         id="path4540"
         style="opacity:1;fill:#00ffff;fill-opacity:1;fill-rule:nonzero;stroke:none;stroke-width:0.23968853;stroke-opacity:1" />
      <path
         inkscape:connector-curvature="0"
         id="path853-3"
         d="m 53.251731,274.15498 c 0.4996,0.35827 0.90717,0.70068 1.36557,1.14725 1.33646,1.30194 2.07029,2.68473 2.33196,4.39421 0.09,0.58771 0.0807,1.85899 -0.0183,2.50566 -0.20216,1.32091 -0.62348,2.70749 -1.26384,4.15938 -0.45373,1.02873 -1.76538,3.63465 -2.54414,5.05456 -0.22211,0.40497 -0.1588,0.44057 -0.56316,-0.31668 -1.06171,-1.98827 -2.09161,-4.06471 -2.56537,-5.17219 -1.15674,-2.70402 -1.47323,-4.73864 -1.03678,-6.66504 0.30011,-1.3246 1.08316,-2.68056 2.20982,-3.8266 0.59372,-0.60394 1.62946,-1.48598 1.74352,-1.48479 0.0312,3.4e-4 0.18453,0.0922 0.34072,0.20424 z"
         style="opacity:1;fill:#00ffff;fill-opacity:1;fill-rule:nonzero;stroke:none;stroke-width:0.03340869;stroke-opacity:0" />
      <path
         inkscape:connector-curvature="0"
         id="path853-1"
         d="m 22.845023,244.4174 c -0.35827,0.4996 -0.70068,0.90717 -1.14725,1.36557 -1.30194,1.33645 -2.68473,2.07029 -4.39421,2.33195 -0.58771,0.09 -1.85899,0.0807 -2.50566,-0.0183 -1.32091,-0.20216 -2.70749,-0.62347 -4.15938,-1.26383 -1.0287307,-0.45373 -3.6346507,-1.76538 -5.0545607,-2.54414 -0.40497,-0.22211 -0.44057,-0.1588 0.31668,-0.56316 1.98827,-1.06171 4.0647107,-2.09161 5.1721907,-2.56537 2.70402,-1.15674 4.73864,-1.47323 6.66504,-1.03678 1.3246,0.30011 2.68056,1.08316 3.8266,2.20981 0.60394,0.59373 1.48598,1.62947 1.48479,1.74352 -3.4e-4,0.0312 -0.0922,0.18454 -0.20424,0.34072 z"
         style="opacity:1;fill:#00ffff;fill-opacity:1;fill-rule:nonzero;stroke:none;stroke-width:0.03340869;stroke-opacity:0" />
      <path
         inkscape:connector-curvature="0"
         id="path853-3-1"
         d="m 83.004241,243.76827 c 0.35827,-0.4996 0.70068,-0.90717 1.14725,-1.36557 1.30194,-1.33646 2.68473,-2.07029 4.39421,-2.33196 0.58771,-0.09 1.85899,-0.0807 2.50566,0.0183 1.32091,0.20216 2.70749,0.62348 4.15938,1.26384 1.02873,0.45373 3.63465,1.76538 5.054559,2.54414 0.40497,0.22211 0.44057,0.1588 -0.316676,0.56316 -1.988273,1.06171 -4.064713,2.09161 -5.172193,2.56537 -2.70402,1.15674 -4.73864,1.47323 -6.66504,1.03678 -1.3246,-0.30011 -2.68056,-1.08316 -3.8266,-2.20982 -0.60394,-0.59372 -1.48598,-1.62946 -1.48479,-1.74352 2.7e-4,-0.0312 0.0922,-0.18453 0.20424,-0.34072 z"
         style="opacity:1;fill:#00ffff;fill-opacity:1;fill-rule:nonzero;stroke:none;stroke-width:0.03340869;stroke-opacity:0" />
      <path
         inkscape:connector-curvature="0"
         id="path853-0-5"
         d="m 73.71074,222.89165 c -0.0999,-0.6066 -0.14601,-1.13692 -0.154384,-1.77683 -0.0244,-1.86562 0.434478,-3.3623 1.45824,-4.75611 0.351934,-0.47921 1.257441,-1.37157 1.784709,-1.75883 1.076971,-0.79108 2.355342,-1.47363 3.83479,-2.04746 1.048253,-0.40659 3.818393,-1.32178 5.373091,-1.77514 0.443411,-0.1293 0.423819,-0.19924 0.174288,0.62214 -0.655178,2.15666 -1.395196,4.35318 -1.843299,5.47129 -1.094097,2.72996 -2.308997,4.39245 -3.979776,5.446 -1.14885,0.72443 -2.661366,1.12954 -4.268391,1.14325 -0.846884,0.007 -2.202961,-0.10147 -2.282761,-0.18295 -0.0218,-0.0223 -0.0653,-0.19569 -0.0965,-0.38535 z"
         style="opacity:1;fill:#00ffff;fill-opacity:1;fill-rule:nonzero;stroke:none;stroke-width:0.03340869;stroke-opacity:0" />
      <path
         inkscape:connector-curvature="0"
         id="path853-3-3"
         d="m 31.846723,265.74438 c 0.0999,0.6066 0.146017,1.13692 0.154385,1.77683 0.0244,1.86563 -0.434482,3.3623 -1.458231,4.75612 -0.351942,0.47921 -1.257441,1.37157 -1.78471,1.75883 -1.076967,0.79107 -2.355348,1.47361 -3.834801,2.04745 -1.048252,0.40659 -3.818391,1.32178 -5.373089,1.77514 -0.443412,0.1293 -0.42382,0.19924 -0.174288,-0.62214 0.65518,-2.15666 1.395194,-4.35318 1.843301,-5.47128 1.094095,-2.72997 2.308994,-4.39246 3.97978,-5.44601 1.148843,-0.72443 2.661359,-1.12954 4.268395,-1.14324 0.846872,-0.007 2.202951,0.10146 2.28276,0.18295 0.0219,0.0222 0.06529,0.19569 0.0965,0.38535 z"
         style="opacity:1;fill:#00ffff;fill-opacity:1;fill-rule:nonzero;stroke:none;stroke-width:0.03340869;stroke-opacity:0" />
      <path
         inkscape:connector-curvature="0"
         id="path853-0-4"
         d="m 74.545815,265.25007 c 0.606601,-0.0999 1.136918,-0.14601 1.776825,-0.15437 1.865608,-0.0244 3.362269,0.43447 4.756083,1.45824 0.479197,0.35193 1.371561,1.25744 1.758808,1.7847 0.791077,1.07698 1.473624,2.35536 2.047448,3.83479 0.4066,1.04827 1.321774,3.81841 1.775131,5.37309 0.12931,0.44342 0.19924,0.42382 -0.622137,0.1743 -2.156648,-0.65518 -4.353156,-1.3952 -5.471247,-1.84331 -2.729955,-1.09408 -4.392426,-2.30898 -5.44598,-3.97976 -0.724427,-1.14886 -1.129536,-2.66137 -1.143247,-4.26839 -0.007,-0.8469 0.101463,-2.20297 0.18295,-2.28278 0.02232,-0.0218 0.195685,-0.0653 0.385352,-0.0965 z"
         style="opacity:1;fill:#00ffff;fill-opacity:1;fill-rule:nonzero;stroke:none;stroke-width:0.03340869;stroke-opacity:0" />
      <path
         inkscape:connector-curvature="0"
         id="path853-3-3-0-0"
         d="m 31.693084,223.38606 c -0.6066,0.0999 -1.136918,0.14601 -1.776827,0.15438 -1.865635,0.0244 -3.362299,-0.43448 -4.75612,-1.45823 -0.479215,-0.35194 -1.371569,-1.25744 -1.758829,-1.78471 -0.79107,-1.07697 -1.473612,-2.35535 -2.047456,-3.83479 -0.406585,-1.04826 -1.321773,-3.8184 -1.775135,-5.3731 -0.129301,-0.44341 -0.199242,-0.42382 0.62214,-0.17429 2.156655,0.65519 4.353178,1.3952 5.471281,1.8433 2.729971,1.0941 4.392457,2.309 5.446009,3.97979 0.724427,1.14884 1.12954,2.66135 1.143238,4.26839 0.007,0.84687 -0.101456,2.20295 -0.182949,2.28276 -0.02221,0.0219 -0.195692,0.0653 -0.385352,0.0965 z"
         style="opacity:1;fill:#00ffff;fill-opacity:1;fill-rule:nonzero;stroke:none;stroke-width:0.03340869;stroke-opacity:0" />
      <path
         inkscape:connector-curvature="0"
         id="path853-3-8-9"
         d="m 53.239731,214.01576 c 0.4996,-0.35827 0.90717,-0.70068 1.36557,-1.14725 1.33646,-1.30194 2.07029,-2.68473 2.33196,-4.39421 0.09,-0.58771 0.0807,-1.85899 -0.0183,-2.50566 -0.20216,-1.32091 -0.62348,-2.70749 -1.26384,-4.15938 -0.45373,-1.02873 -1.76538,-3.63465 -2.54414,-5.05456 -0.22211,-0.40497 -0.1588,-0.44057 -0.56316,0.31668 -1.06171,1.98827 -2.09161,4.06471 -2.56537,5.17219 -1.15674,2.70402 -1.47323,4.73864 -1.03678,6.66504 0.30011,1.3246 1.08316,2.68056 2.20982,3.8266 0.59372,0.60394 1.62946,1.48598 1.74352,1.48479 0.0312,-3.4e-4 0.18453,-0.0922 0.34072,-0.20424 z"
         style="opacity:1;fill:#00ffff;fill-opacity:1;fill-rule:nonzero;stroke:none;stroke-width:0.03340869;stroke-opacity:0" />
    </g>
    <g
       transform="translate(100.54167,-9.6666666e-6)"
       id="g855"
       style="fill:#00ffff;fill-opacity:1;stroke:none">
      <path
         inkscape:connector-curvature="0"
         id="path853-1-1"
         d="m 48.791502,227.24038 c -0.403701,0.4996 -0.789531,0.90717 -1.292729,1.36557 -1.467036,1.33645 -3.025174,2.07029 -4.951428,2.33195 -0.662236,0.09 -2.094724,0.0807 -2.823396,-0.0183 -1.488411,-0.20216 -3.050819,-0.62347 -4.68682,-1.26383 -1.159181,-0.45373 -4.095551,-1.76538 -5.695516,-2.54414 -0.456323,-0.22211 -0.496437,-0.1588 0.356838,-0.56316 2.240397,-1.06171 4.580146,-2.09161 5.828062,-2.56537 3.046909,-1.15674 5.339534,-1.47323 7.510216,-1.03678 1.492568,0.30011 3.020474,1.08316 4.31184,2.20981 0.680524,0.59373 1.674413,1.62947 1.673072,1.74352 -3.83e-4,0.0312 -0.103891,0.18454 -0.230139,0.34072 z"
         style="opacity:1;fill:#00ffff;fill-opacity:1;fill-rule:nonzero;stroke:none;stroke-width:0.03546372;stroke-opacity:0" />
      <path
         inkscape:connector-curvature="0"
         id="path853-3-1-3"
         d="m 57.175898,226.51827 c 0.403702,-0.4996 0.789532,-0.90717 1.29273,-1.36557 1.467036,-1.33646 3.025174,-2.07029 4.951428,-2.33196 0.662236,-0.09 2.094724,-0.0807 2.823396,0.0183 1.488411,0.20216 3.05082,0.62348 4.68682,1.26384 1.159181,0.45373 4.095551,1.76538 5.695515,2.54414 0.456323,0.22211 0.496437,0.1588 -0.356833,0.56316 -2.240401,1.06171 -4.580149,2.09161 -5.828065,2.56537 -3.04691,1.15674 -5.339535,1.47323 -7.510217,1.03678 -1.492569,-0.30011 -3.020474,-1.08316 -4.311841,-2.20982 -0.680524,-0.59372 -1.674413,-1.62946 -1.673072,-1.74352 3.04e-4,-0.0312 0.103892,-0.18453 0.230139,-0.34072 z"
         style="opacity:1;fill:#00ffff;fill-opacity:1;fill-rule:nonzero;stroke:none;stroke-width:0.03546372;stroke-opacity:0" />
      <path
         inkscape:connector-curvature="0"
         id="path853-0-1"
         d="m 56.072572,216.55756 c 0.16582,-0.59199 0.348153,-1.09211 0.611001,-1.6756 0.766331,-1.70114 1.81474,-2.86366 3.331634,-3.69422 0.521483,-0.28558 1.719279,-0.71165 2.360809,-0.83979 1.310392,-0.26182 2.757448,-0.34015 4.340794,-0.23498 1.121872,0.0745 4.019248,0.41578 5.619881,0.66194 0.456511,0.0702 0.468313,-0.001 -0.104969,0.63751 -1.505237,1.67771 -3.104211,3.35569 -3.982864,4.17966 -2.145319,2.0118 -3.948991,3.00509 -5.908481,3.25383 -1.347369,0.17103 -2.889381,-0.10103 -4.351634,-0.76776 -0.770496,-0.35157 -1.953678,-1.02298 -1.991566,-1.13055 -0.01033,-0.0294 0.02352,-0.20495 0.0754,-0.39003 z"
         style="opacity:1;fill:#00ffff;fill-opacity:1;fill-rule:nonzero;stroke:none;stroke-width:0.03340869;stroke-opacity:0" />
      <path
         inkscape:connector-curvature="0"
         id="path853-3-3-0-1"
         d="m 49.719991,217.22931 c -0.507546,0.3469 -0.968691,0.61281 -1.545108,0.89084 -1.680528,0.81056 -3.230897,1.02719 -4.926783,0.68841 -0.583053,-0.11644 -1.774481,-0.55997 -2.348292,-0.87418 -1.1721,-0.64175 -2.33096,-1.5119 -3.476277,-2.61021 -0.811505,-0.77821 -2.811659,-2.90204 -3.879589,-4.11948 -0.30458,-0.34722 -0.359689,-0.2999 0.490192,-0.42088 2.231489,-0.31764 4.534956,-0.57526 5.737677,-0.64167 2.93658,-0.16214 4.956743,0.23633 6.617692,1.30533 1.142075,0.73505 2.148446,1.93464 2.840025,3.38532 0.364247,0.76457 0.839057,2.03943 0.798928,2.14621 -0.01087,0.0292 -0.14976,0.14188 -0.308465,0.25031 z"
         style="opacity:1;fill:#00ffff;fill-opacity:1;fill-rule:nonzero;stroke:none;stroke-width:0.03340869;stroke-opacity:0" />
      <path
         inkscape:connector-curvature="0"
         id="path853-3-8-0"
         d="m 53.239731,214.01576 c 0.4996,-0.35827 0.90717,-0.70068 1.36557,-1.14725 1.33646,-1.30194 2.07029,-2.68473 2.33196,-4.39421 0.09,-0.58771 0.0807,-1.85899 -0.0183,-2.50566 -0.20216,-1.32091 -0.62348,-2.70749 -1.26384,-4.15938 -0.45373,-1.02873 -1.76538,-3.63465 -2.54414,-5.05456 -0.22211,-0.40497 -0.1588,-0.44057 -0.56316,0.31668 -1.06171,1.98827 -2.09161,4.06471 -2.56537,5.17219 -1.15674,2.70402 -1.47323,4.73864 -1.03678,6.66504 0.30011,1.3246 1.08316,2.68056 2.20982,3.8266 0.59372,0.60394 1.62946,1.48598 1.74352,1.48479 0.0312,-3.4e-4 0.18453,-0.0922 0.34072,-0.20424 z"
         style="opacity:1;fill:#00ffff;fill-opacity:1;fill-rule:nonzero;stroke:none;stroke-width:0.03340869;stroke-opacity:0" />
      <path
         sodipodi:nodetypes="ccccc"
         inkscape:connector-curvature="0"
         id="path849"
         d="m 51.59375,214.97917 -1.322917,76.72917 h 5.291666 l -1.322916,-76.72917 z"
         style="fill:#00ffff;fill-opacity:1;stroke:none;stroke-width:0.26926658px;stroke-linecap:butt;stroke-linejoin:miter;stroke-opacity:1" />
      <path
         inkscape:connector-curvature="0"
         id="path853-1-2"
         d="m 48.683335,238.79168 c -0.504626,0.4996 -0.986914,0.90717 -1.615912,1.36557 -1.833794,1.33645 -3.781466,2.07029 -6.189285,2.33195 -0.827794,0.09 -2.618404,0.0807 -3.529244,-0.0183 -1.860514,-0.20216 -3.813525,-0.62347 -5.858525,-1.26383 -1.448977,-0.45373 -5.119439,-1.76538 -7.119395,-2.54414 -0.570404,-0.22211 -0.620547,-0.1588 0.446047,-0.56316 2.800496,-1.06171 5.725182,-2.09161 7.285078,-2.56537 3.808636,-1.15674 6.674417,-1.47323 9.387769,-1.03678 1.865711,0.30011 3.775593,1.08316 5.389801,2.20981 0.850655,0.59373 2.093016,1.62947 2.09134,1.74352 -4.79e-4,0.0312 -0.129865,0.18454 -0.287674,0.34072 z"
         style="opacity:1;fill:#00ffff;fill-opacity:1;fill-rule:nonzero;stroke:none;stroke-width:0.03964964;stroke-opacity:0" />
      <path
         inkscape:connector-curvature="0"
         id="path853-1-2-4"
         d="m 57.15,238.79168 c 0.504626,0.4996 0.986914,0.90717 1.615912,1.36557 1.833794,1.33645 3.781466,2.07029 6.189285,2.33195 0.827794,0.09 2.618404,0.0807 3.529244,-0.0183 1.860514,-0.20216 3.813525,-0.62347 5.858525,-1.26383 1.448977,-0.45373 5.119439,-1.76538 7.119395,-2.54414 0.570404,-0.22211 0.620547,-0.1588 -0.446047,-0.56316 -2.800496,-1.06171 -5.725182,-2.09161 -7.285078,-2.56537 -3.808636,-1.15674 -6.674417,-1.47323 -9.387769,-1.03678 -1.865711,0.30011 -3.775593,1.08316 -5.389801,2.20981 -0.850655,0.59373 -2.093016,1.62947 -2.09134,1.74352 4.76e-4,0.0312 0.129865,0.18454 0.287674,0.34072 z"
         style="opacity:1;fill:#00ffff;fill-opacity:1;fill-rule:nonzero;stroke:none;stroke-width:0.03964964;stroke-opacity:0" />
      <path
         inkscape:connector-curvature="0"
         id="path853-1-2-0"
         d="m 48.618803,251.1273 c -0.565182,0.54559 -1.105344,0.99068 -1.809821,1.49128 -2.053849,1.45947 -4.235243,2.26087 -6.931999,2.54661 -0.927129,0.0983 -2.932612,0.0881 -3.952754,-0.02 -2.083775,-0.22077 -4.271147,-0.68086 -6.561547,-1.38017 -1.622854,-0.4955 -5.733772,-1.92789 -7.973722,-2.77834 -0.638853,-0.24255 -0.695013,-0.17342 0.499572,-0.615 3.136556,-1.15944 6.412204,-2.28415 8.159288,-2.80152 4.265672,-1.26322 7.475345,-1.60885 10.5143,-1.13222 2.089597,0.32774 4.228664,1.18287 6.036578,2.41323 0.952733,0.64839 2.344177,1.77947 2.342301,1.90402 -5.34e-4,0.0341 -0.14545,0.20153 -0.322196,0.37208 z"
         style="opacity:1;fill:#00ffff;fill-opacity:1;fill-rule:nonzero;stroke:none;stroke-width:0.04385006;stroke-opacity:0" />
      <path
         inkscape:connector-curvature="0"
         id="path853-1-2-0-6"
         d="m 57.214199,251.1273 c 0.565182,0.54559 1.105344,0.99068 1.809821,1.49128 2.053849,1.45947 4.235243,2.26087 6.931999,2.54661 0.927129,0.0983 2.932612,0.0881 3.952754,-0.02 2.083775,-0.22077 4.271147,-0.68086 6.561547,-1.38017 1.622854,-0.4955 5.733772,-1.92789 7.973722,-2.77834 0.638853,-0.24255 0.695013,-0.17342 -0.499572,-0.615 -3.136556,-1.15944 -6.412204,-2.28415 -8.159288,-2.80152 -4.265672,-1.26322 -7.475345,-1.60885 -10.5143,-1.13222 -2.089597,0.32774 -4.228664,1.18287 -6.036578,2.41323 -0.952734,0.64839 -2.344177,1.77947 -2.342302,1.90402 5.3e-4,0.0341 0.14545,0.20153 0.322197,0.37208 z"
         style="opacity:1;fill:#00ffff;fill-opacity:1;fill-rule:nonzero;stroke:none;stroke-width:0.04385006;stroke-opacity:0" />
      <path
         inkscape:connector-curvature="0"
         id="path853-1-2-0-2"
         d="m 48.518266,264.39211 c -0.666107,0.60621 -1.302727,1.10075 -2.133003,1.65697 -2.420608,1.62163 -4.991536,2.51208 -8.169855,2.82957 -1.092688,0.10922 -3.456293,0.0979 -4.658603,-0.0222 -2.455877,-0.2453 -5.033851,-0.75651 -7.733252,-1.53352 -1.912649,-0.55055 -6.757659,-2.14209 -9.3976,-3.08704 -0.752934,-0.2695 -0.819123,-0.19269 0.588781,-0.68333 3.696655,-1.28827 7.55724,-2.53794 9.616303,-3.1128 5.0274,-1.40357 8.810228,-1.78761 12.391853,-1.25802 2.46274,0.36416 4.983783,1.3143 7.114538,2.68137 1.122865,0.72043 2.76278,1.97718 2.76057,2.11557 -6.24e-4,0.0379 -0.171423,0.22392 -0.379732,0.41342 z"
         style="opacity:1;fill:#00ffff;fill-opacity:1;fill-rule:nonzero;stroke:none;stroke-width:0.05017953;stroke-opacity:0" />
      <path
         inkscape:connector-curvature="0"
         id="path853-1-2-0-2-9"
         d="m 57.278734,264.39211 c 0.666107,0.60621 1.302726,1.10075 2.133002,1.65697 2.420607,1.62163 4.991536,2.51208 8.169855,2.82957 1.092688,0.10922 3.456293,0.0979 4.658603,-0.0222 2.455877,-0.2453 5.033851,-0.75651 7.733253,-1.53352 1.912649,-0.55055 6.757659,-2.14209 9.3976,-3.08704 0.752934,-0.2695 0.819123,-0.19269 -0.588781,-0.68333 -3.696655,-1.28827 -7.55724,-2.53794 -9.616304,-3.1128 -5.0274,-1.40357 -8.810228,-1.78761 -12.391853,-1.25802 -2.46274,0.36416 -4.983782,1.3143 -7.114538,2.68137 -1.122865,0.72043 -2.762779,1.97718 -2.760569,2.11557 5.29e-4,0.0379 0.171423,0.22392 0.379732,0.41342 z"
         style="opacity:1;fill:#00ffff;fill-opacity:1;fill-rule:nonzero;stroke:none;stroke-width:0.05017953;stroke-opacity:0" />
      <path
         inkscape:connector-curvature="0"
         id="path853-1-2-0-2-90"
         d="m 48.059249,275.84104 c -0.590476,0.71968 -1.169545,1.32395 -1.940173,2.02464 -2.246717,2.0428 -4.777409,3.39321 -8.042009,4.29124 -1.122346,0.30879 -3.593074,0.73296 -4.869734,0.83612 -2.607744,0.21073 -5.389188,0.18209 -8.343619,-0.086 -2.093354,-0.18994 -7.430299,-0.86497 -10.35179,-1.30937 -0.833233,-0.12674 -0.889026,-0.0389 0.496321,-0.78138 3.637422,-1.94953 7.452775,-3.89123 9.503627,-4.83658 5.007361,-2.30814 8.891808,-3.38305 12.724753,-3.52114 2.635551,-0.0949 5.433751,0.37646 7.896703,1.33034 1.297923,0.50268 3.229037,1.43832 3.25076,1.57501 0.0061,0.0374 -0.140169,0.25208 -0.32484,0.47707 z"
         style="opacity:1;fill:#00ffff;fill-opacity:1;fill-rule:nonzero;stroke:none;stroke-width:0.05167776;stroke-opacity:0" />
      <path
         inkscape:connector-curvature="0"
         id="path853-1-2-0-2-90-8"
         d="m 57.679166,275.73304 c 0.590476,0.71968 1.169543,1.32395 1.940171,2.02464 2.246717,2.0428 4.777409,3.39321 8.04201,4.29124 1.122346,0.30879 3.593074,0.73296 4.869734,0.83612 2.607744,0.21073 5.389188,0.18209 8.343619,-0.086 2.093354,-0.18994 7.430299,-0.86497 10.35179,-1.30937 0.833233,-0.12674 0.889026,-0.0389 -0.496321,-0.78138 -3.637422,-1.94953 -7.452775,-3.89123 -9.503627,-4.83658 -5.007361,-2.30814 -8.891808,-3.38305 -12.724753,-3.52114 -2.635551,-0.0949 -5.433751,0.37646 -7.896702,1.33034 -1.297924,0.50268 -3.229038,1.43832 -3.250761,1.57501 -0.0061,0.0374 0.140169,0.25208 0.32484,0.47707 z"
         style="opacity:1;fill:#00ffff;fill-opacity:1;fill-rule:nonzero;stroke:none;stroke-width:0.05167776;stroke-opacity:0" />
    </g>
  </g>
</svg>
