<?xml version="1.0" encoding="UTF-8" standalone="no"?>
<!-- Created with Inkscape (http://www.inkscape.org/) -->

<svg
   xmlns:dc="http://purl.org/dc/elements/1.1/"
   xmlns:cc="http://creativecommons.org/ns#"
   xmlns:rdf="http://www.w3.org/1999/02/22-rdf-syntax-ns#"
   xmlns:svg="http://www.w3.org/2000/svg"
   xmlns="http://www.w3.org/2000/svg"
   xmlns:sodipodi="http://sodipodi.sourceforge.net/DTD/sodipodi-0.dtd"
   xmlns:inkscape="http://www.inkscape.org/namespaces/inkscape"
   width="512"
   height="512"
   viewBox="0 0 135.46666 135.46667"
   version="1.1"
   id="svg8"
   inkscape:version="0.92.3 (2405546, 2018-03-11)"
   sodipodi:docname="drawn-heart-pink.svg"
   inkscape:export-filename="D:\PROGRAMOWANIE\UX Design\PRO Z Pasją Wypiekane\gree-sweet-color.png"
   inkscape:export-xdpi="96"
   inkscape:export-ydpi="96">
  <defs
     id="defs2" />
  <sodipodi:namedview
     id="base"
     pagecolor="#ffffff"
     bordercolor="#666666"
     borderopacity="1.0"
     inkscape:pageopacity="0.0"
     inkscape:pageshadow="2"
     inkscape:zoom="0.94434698"
     inkscape:cx="-49.228402"
     inkscape:cy="327.16482"
     inkscape:document-units="mm"
     inkscape:current-layer="layer1"
     showgrid="true"
     units="px"
     inkscape:snap-grids="true"
     showguides="true"
     inkscape:guide-bbox="true"
     inkscape:window-width="1920"
     inkscape:window-height="1006"
     inkscape:window-x="0"
     inkscape:window-y="0"
     inkscape:window-maximized="1">
    <inkscape:grid
       type="xygrid"
       id="grid817" />
    <sodipodi:guide
       position="116.41666,124.35417"
       orientation="0,1"
       id="guide4524"
       inkscape:locked="false" />
    <sodipodi:guide
       position="7.9374996,89.958336"
       orientation="1,0"
       id="guide4526"
       inkscape:locked="false" />
    <sodipodi:guide
       position="82.020829,7.9375002"
       orientation="0,1"
       id="guide4528"
       inkscape:locked="false" />
    <sodipodi:guide
       position="126.99999,63.500002"
       orientation="1,0"
       id="guide4530"
       inkscape:locked="false" />
    <sodipodi:guide
       position="68.791666,145.52083"
       orientation="1,0"
       id="guide4532"
       inkscape:locked="false" />
    <sodipodi:guide
       position="18.520832,95.250002"
       orientation="1,0"
       id="guide7100"
       inkscape:locked="false" />
    <sodipodi:guide
       position="116.41666,84.666669"
       orientation="1,0"
       id="guide7102"
       inkscape:locked="false" />
    <sodipodi:guide
       position="50.270833,103.1875"
       orientation="0,1"
       id="guide7104"
       inkscape:locked="false" />
    <sodipodi:guide
       position="60.854166,29.104166"
       orientation="0,1"
       id="guide7106"
       inkscape:locked="false" />
  </sodipodi:namedview>
  <metadata
     id="metadata5">
    <rdf:RDF>
      <cc:Work
         rdf:about="">
        <dc:format>image/svg+xml</dc:format>
        <dc:type
           rdf:resource="http://purl.org/dc/dcmitype/StillImage" />
        <dc:title></dc:title>
      </cc:Work>
    </rdf:RDF>
  </metadata>
  <g
     inkscape:label="Layer 1"
     inkscape:groupmode="layer"
     id="layer1"
     transform="translate(0,-161.53332)">
    <g
       id="g1179"
       transform="translate(0,4.2333335)"
       style="fill:#e65679;fill-opacity:1">
      <path
         inkscape:connector-curvature="0"
         d="m 62.339153,200.38486 c 4.2e-5,-0.37592 -0.02418,-0.77941 -0.143796,-1.12906 0.213567,0.55408 -0.475906,-0.87931 -0.130778,-0.16755 -0.268383,-0.38861 -0.560411,-0.75906 -0.877543,-1.10875 -0.336744,-0.49201 -0.605047,-0.72379 -1.021401,-1.11458 -0.566623,-0.48732 -1.144669,-0.95307 -1.671166,-1.48844 -0.349782,-0.25508 -0.633383,-0.60362 -1.015611,-0.84299 -0.449096,-0.39309 -0.958231,-0.8779 -1.339064,-1.25458 -0.425464,-0.37635 -0.820873,-0.79019 -1.22083,-1.18636 -0.353777,-0.36527 -0.549728,-0.55495 -0.857758,-0.81401 -0.464278,-0.41741 -0.449035,-0.39463 -0.816565,-0.65836 -0.672068,-0.51854 -0.854054,-0.67924 -1.232495,-0.98212 0.01757,0.0166 0.07118,0.0655 0.05268,0.0499 -0.511003,-0.43071 -0.745505,-0.64134 -1.192045,-1.08125 0.02103,0.0239 0.08575,0.0942 0.06312,0.0718 -0.461415,-0.45714 -0.510818,-0.50236 -0.949918,-0.95621 0.02519,0.0291 0.103018,0.0604 0.07553,0.0873 -0.02755,0.027 -0.05878,-0.0499 -0.08822,-0.0748 -0.03996,-0.0338 -0.08026,-0.0672 -0.120007,-0.10127 -0.746877,-0.64001 0.787519,0.63404 -0.516903,-0.41597 -0.455888,-0.33254 -0.202647,-0.14929 -0.671595,-0.43943 -0.52945,-0.3505 -0.878297,-0.62729 -1.316336,-0.96526 0.478594,0.42827 -1.383115,-1.20294 -0.949606,-0.77774 -0.25908,-0.22703 -0.545153,-0.41367 -0.816927,-0.62394 -0.269227,-0.20829 -0.348713,-0.30147 -0.242438,-0.1819 -0.01696,-0.009 -0.06715,-0.0386 -0.05088,-0.0281 0.79992,0.51627 -0.348962,-0.11438 -0.540973,-0.21449 0.04724,0.0254 0.09293,0.0539 0.141711,0.0763 0.946261,0.43304 -1.092076,-0.436 -0.298799,-0.11764 -0.552072,-0.0792 -1.0507,-0.46268 -1.592276,-0.55058 -0.130209,-0.0426 -1.254175,-0.44836 -0.815917,-0.29064 -0.367702,-0.07 -0.703122,-0.22912 -1.053137,-0.34987 -0.05548,-0.0191 0.109482,0.043 0.166066,0.0586 -0.05146,0.11581 -1.561835,-0.49945 -1.030787,-0.28127 -0.608452,-0.18916 -1.21552,-0.35963 -1.804615,-0.60596 -0.01003,-0.003 -0.03938,-0.0126 -0.03005,-0.008 0.820275,0.3994 -1.2944,-0.54328 -0.734906,-0.2891 0.01929,0.0431 0.271436,0.0586 0.38732,0.0713 -2.354064,-0.70611 -0.906716,-0.0837 -2.372378,-1.02589 -0.140063,-0.09 0.253418,0.21796 0.394377,0.30659 0.263618,0.16577 0.502918,0.28887 0.786442,0.37987 0.965275,0.20239 -0.637669,-0.0763 -0.960995,-0.1671 -0.231643,-0.0932 -0.299228,-0.076 -0.160541,-0.0431 -0.344356,0.1351 -0.928024,-0.27693 -1.278994,-0.26168 -0.246247,-0.0209 -0.493858,-0.0211 -0.740844,-0.0231 -0.651256,0.0252 -1.264822,-0.16783 -1.871334,-0.36456 -0.04171,-0.0135 0.08312,0.028 0.12468,0.042 0.178321,0.0458 0.256722,0.0476 0.0401,0.0438 -0.5413,0.009 0.926806,-0.13467 0.700691,-0.0715 -0.09775,0.0273 -0.196093,0.0525 -0.294439,0.0776 -0.07499,0.0191 -0.297921,0.0825 -0.225552,0.0551 0.0816,-0.0309 0.168952,-0.0438 0.253431,-0.0656 -0.458483,0.15803 -0.569508,0.26107 -1.331137,0.51564 0.02837,-0.007 0.111797,-0.0345 0.0851,-0.0224 -0.535035,0.24313 -1.105276,0.39302 -1.677699,0.5146 1.316786,-0.31818 -0.718098,0.24892 -0.891233,0.28609 1.576527,-0.38083 -0.699527,0.21673 -0.905899,0.26081 -0.02643,0.006 0.05382,-0.005 0.08074,-0.007 -0.249092,0.0884 -0.510132,0.14495 -0.766836,0.20509 -0.08894,0.0208 0.17512,-0.0587 0.266263,-0.0648 0.05252,-0.004 -0.09768,0.0393 -0.147304,0.0569 -0.125846,0.0445 -0.25268,0.0862 -0.379018,0.1293 -0.09367,0.0285 -0.187918,0.0553 -0.281009,0.0856 -0.05259,0.0172 0.207471,-0.0735 0.15947,-0.046 -0.350578,0.20087 -0.802384,0.29562 -1.186538,0.40152 -0.269886,0.0812 -1.105384,0.23385 0.21635,-0.0958 0.07079,-0.0177 -0.133214,0.0597 -0.201497,0.0854 -0.410987,0.15458 -0.390152,0.14266 -0.74702,0.2475 -0.0722,0.0191 -0.286705,0.0832 -0.216583,0.0575 1.036552,-0.38024 0.04564,0.038 -0.309429,0.16916 -0.04855,0.0169 -0.192373,0.0722 -0.145641,0.0508 0.172789,-0.0793 0.341885,-0.17087 0.524271,-0.22449 0.117877,-0.0346 -0.218257,0.11296 -0.328612,0.16697 -0.332352,0.16268 -0.681768,0.27679 -1.035816,0.38068 -0.07747,0.0195 -0.307496,0.0857 -0.232404,0.0585 0.155799,-0.0565 0.318145,-0.0934 0.475123,-0.14656 0.235014,-0.0796 0.968785,-0.4802 -0.410612,0.21499 -0.124918,0.0448 -0.248704,0.093 -0.374754,0.13452 -0.08591,0.0283 -0.344274,0.10986 -0.260806,0.075 0.210454,-0.0879 0.430748,-0.15051 0.642777,-0.23456 0.179109,-0.071 1.000837,-0.54191 -0.397617,0.21514 0.02859,-0.0126 0.113844,-0.0514 0.08577,-0.0377 -0.417127,0.2033 -0.831731,0.40957 -1.251074,0.61002 -0.609954,0.33704 -1.268935,0.57151 -1.933465,0.7745 0.319768,-0.0818 0.559434,-0.21704 0.816841,-0.41793 -0.191433,0.20705 -0.373004,0.31319 -0.62555,0.52951 -0.05883,0.0504 0.123752,-0.0932 0.185628,-0.13977 -0.128802,0.10304 -0.258812,0.2046 -0.386407,0.30913 -0.06507,0.0533 0.132538,-0.10362 0.198807,-0.15543 0.373605,-0.33103 -0.774276,0.68127 -0.598911,0.49164 0.08897,-0.0962 0.354468,-0.37097 0.303019,-0.25045 -0.03014,0.0706 -1.138789,1.01826 -0.199749,0.16616 0.05039,-0.0591 0.107744,-0.11284 0.151173,-0.17719 0.330179,-0.4893 0.559012,-0.96899 0.02476,0.0111 -0.01321,0.0242 0.03264,-0.0447 0.04595,-0.0689 0.138973,-0.25242 0.115586,-0.21451 0.212589,-0.46174 -0.207074,0.61352 -0.413732,1.10571 -0.688654,1.69357 0.261985,-0.56256 -0.774199,1.55056 -0.552117,0.93894 0.04744,-0.13066 0.172338,-0.27339 0.233186,-0.40986 -0.183522,0.7532 0.219617,-0.7051 0.157292,-0.53126 -0.142877,0.39854 -0.268207,0.80321 -0.410241,1.20205 -0.02679,0.0752 -0.142457,0.28577 -0.109998,0.21281 0.04675,-0.10507 0.09759,-0.20827 0.146378,-0.31241 0.08968,-0.39002 0.422893,-1.0166 -0.174058,0.52278 -0.193707,0.49952 -0.33662,0.64824 -0.171396,0.35657 -0.23212,0.45424 -0.190569,0.4017 -0.409654,0.75255 -0.03935,0.063 -0.156251,0.25245 -0.12166,0.18671 0.167729,-0.31876 0.257956,-0.46195 0.378845,-0.80484 0.210532,-0.9928 -0.155686,0.80332 -0.357189,1.26119 -0.404559,0.84916 0.01002,-0.004 0.09831,-0.40207 0.08984,-0.66347 0.155039,-0.38899 -0.215765,0.9675 -0.0626,0.229 -0.24969,0.553 -0.371235,0.77608 -0.04096,0.067 -0.156762,0.27198 -0.122873,0.20111 0.225983,-0.47259 0.369005,-0.73025 0.458511,-1.22372 0.01984,-0.27238 0.01245,0.0741 0.01262,0.15695 6.62e-4,0.15252 0.0012,0.30505 0.0015,0.45757 3.17e-4,0.13962 2.64e-4,0.27925 2.64e-4,0.41887 4e-6,0.18132 -4e-6,0.36264 -7e-6,0.54396 -4e-6,0.16035 -5e-6,0.3207 -5e-6,0.48105 0,0.14053 0,0.28105 0,0.42157 0.02927,0.7422 -0.205553,1.39545 -0.529823,2.02384 -0.04855,0.0941 -0.20307,0.37091 -0.160946,0.27379 0.226979,-0.41559 0.14897,-0.24421 0.259088,-0.50196 0.04986,0.0458 0.153741,-0.75615 0.149962,-0.56495 0.02087,0.63377 -0.154972,1.1037 -0.296134,1.81071 -0.198342,0.51552 -0.468197,0.99537 -0.791843,1.44277 0.124995,-0.17204 -0.308198,0.40337 -0.239551,0.29646 0.448429,-0.69836 0.559376,-0.79216 0.739513,-1.53394 0.03012,-0.15732 0.02604,-0.30739 0.02661,-0.0476 8.99e-4,0.21274 0.0017,0.42546 0.0022,0.6382 4.24e-4,0.2062 4.24e-4,0.41241 4.5e-4,0.61863 1.1e-5,0.32599 -2e-6,0.65199 -6e-6,0.97799 -6e-6,0.36167 -7e-6,0.72334 -8e-6,1.08501 0,0.24391 0,0.48782 0,0.73174 0,0.22885 0,0.45769 0,0.68654 0,0.21261 0,0.42522 0,0.63783 0,0.29459 0,0.58918 0,0.88377 0,0.29007 0,0.58014 0,0.87021 0,0.23267 0,0.46534 0,0.69801 0,0.0465 0.0056,0.18567 0,0.13951 -0.07723,-0.63598 -0.177046,-1.18768 0.0335,-0.42198 0.02209,0.0803 0.04061,0.16162 0.06091,0.24243 0.12507,0.48632 0.166322,0.98696 0.183377,1.487 1.403703,0.10594 -0.595278,-0.99916 -0.238293,-1.18823 0.09478,-0.0502 0.08098,0.19864 0.119477,0.29874 0.106029,0.27568 0.177009,0.54538 0.255168,0.83307 0.118426,0.50935 0.140381,1.03226 0.147213,1.55283 0.002,0.3596 4.5e-4,0.71921 -1.55e-4,1.07882 -0.01478,-0.20231 -0.02741,-0.40478 -0.04432,-0.60692 -0.03252,-0.3887 0.363179,1.26468 0.03723,0.12371 -0.01238,-0.0325 -0.05141,-0.12911 -0.03714,-0.0974 0.3029,0.67294 0.459328,1.36369 0.550041,2.09207 0.0094,0.11921 0.0716,0.4691 0.02823,0.35765 -0.04862,-0.12493 -0.0329,-0.26615 -0.04459,-0.3997 -0.001,-0.0115 0.0095,0.0213 0.01244,0.0324 0.07755,0.29061 0.140209,0.58108 0.198937,0.87607 -0.388939,-1.40553 0.310415,0.7652 -0.292206,-0.82738 -0.03367,-0.089 0.273996,0.47898 0.179534,0.28274 0.15798,0.20165 -0.02651,-0.0369 0.339067,0.51558 0.05169,0.0781 -0.21274,-0.30703 -0.149479,-0.23795 0.08948,0.0977 0.152499,0.21672 0.229061,0.32486 0.02578,0.0364 0.10475,0.14443 0.07795,0.10877 -0.05851,-0.0778 -0.115381,-0.15687 -0.173071,-0.23531 0.454961,0.48491 0.845833,1.02005 1.212783,1.57308 0.345587,0.38587 0.453466,0.93248 0.739475,1.35142 0.328264,0.5115 0.444303,1.17152 0.630571,1.69316 0.03283,0.1071 0.0687,0.21332 0.09849,0.3213 0.06115,0.22164 0.132253,0.51229 0.175211,0.74546 0.02382,0.1293 0.153454,0.48521 0.06357,0.38927 -0.09434,-0.10071 -0.04665,-0.27226 -0.07951,-0.40628 -0.01862,-0.076 -0.04976,-0.14832 -0.07464,-0.22249 0.03198,0.0789 0.137139,0.31106 0.09594,0.2366 -0.09763,-0.17642 -0.167889,-0.36711 -0.26572,-0.54342 -0.04871,-0.0878 -0.234252,-0.32609 -0.172725,-0.24675 0.682034,0.87948 0.109468,0.13726 -0.09245,-0.0753 0.444954,0.48842 0.577443,0.54896 1.222061,1.51423 0.431806,0.81226 0.507415,1.05246 0.723335,1.61774 -0.01783,-0.0487 -0.07834,-0.1914 -0.05349,-0.14594 0.296407,0.5424 0.150887,0.32871 0.431834,0.87328 -0.05003,-0.0948 -0.223648,-0.20644 -0.150092,-0.28442 0.07191,-0.0762 0.116171,0.1747 0.16731,0.26617 0.09754,0.17445 0.182602,0.35564 0.278408,0.53105 0.03416,0.0625 -0.136342,-0.24915 -0.09339,-0.1923 0.120514,0.1595 0.365741,0.70025 0.418782,0.81013 0.07023,0.19467 0.140469,0.38934 0.210703,0.58401 -0.01653,-0.0536 -0.08069,-0.20742 -0.04959,-0.16075 0.04758,0.0714 0.06719,0.15787 0.10039,0.23697 0.289076,0.68873 -0.29208,-0.59555 0.181176,0.37622 0.158607,0.30729 0.369964,0.75431 0.568946,1.24118 0.06674,0.20388 0.24961,0.52573 0.444316,0.88333 0.243507,0.38863 0.427449,0.81002 0.658879,1.20557 0.296082,0.55778 0.534137,1.14383 0.772302,1.72796 0.211214,0.43822 0.364752,0.8998 0.524758,1.33216 0.114094,0.39213 0.222028,0.58904 0.490779,1.26314 0.165242,0.53096 0.393033,1.0364 0.599511,1.55169 0.143343,0.31015 0.280985,0.62985 0.49153,0.90915 0.434046,0.65041 0.813993,1.33438 1.211183,2.00726 0.223544,0.41063 0.443161,0.76299 0.672203,1.1984 0.03148,0.0598 0.113974,0.24435 0.0941,0.17971 -0.02138,-0.0695 -0.0658,-0.12979 -0.09871,-0.19468 0.368668,0.51505 0.740757,1.02457 1.079347,1.56082 0.408495,0.67094 0.694314,1.38901 0.979003,2.11777 0.221697,0.74119 0.190598,0.61042 0.439814,1.14245 -0.02392,-0.0544 -0.111535,-0.20742 -0.07172,-0.16328 0.06395,0.0709 0.09617,0.16501 0.146481,0.24617 0.156982,0.25323 0.342585,0.49288 0.509947,0.74049 0.451382,0.73929 0.102889,0.14325 0.553733,0.99851 0.01265,0.024 0.04381,0.0152 0.129583,0.1141 0.206637,0.2037 0.38195,0.43462 0.575135,0.65057 0.0543,0.0607 -0.225806,-0.22601 -0.152231,-0.1911 0.01691,0.008 0.490054,0.46701 0.504169,0.48064 0.579123,0.54877 1.118296,1.13626 1.64591,1.73386 0.293766,0.36423 0.694803,0.74613 0.973362,1.02806 0.539528,0.54061 1.034201,1.12255 1.495404,1.73074 0.348586,0.41739 0.664564,0.86446 1.043424,1.25514 0.350536,0.37962 0.772893,0.67509 1.171083,1.00451 0.711403,0.59403 1.346769,1.27053 2.012997,1.91375 0.503563,0.50891 1.001406,1.02117 1.520934,1.51421 0.374912,0.43129 0.802608,0.81094 1.214935,1.20538 0.538662,0.45863 0.95265,1.03844 1.462733,1.52299 0.414112,0.44784 0.81865,0.8952 1.272444,1.30411 0.4395,0.33454 0.782085,0.80201 1.233633,1.11816 0.560909,0.46385 1.137952,0.90654 1.707867,1.35912 0.538914,0.34127 1.003494,0.78867 1.54926,1.11793 0.852276,0.51796 1.627865,1.14371 2.374056,1.80204 0.403016,0.28205 0.750186,0.65763 1.191062,0.88403 0.419417,0.25201 0.798023,0.59132 1.2476,0.7923 0.549368,0.32217 1.129755,0.55611 1.698567,0.84181 0.709266,0.40391 1.425022,0.78991 2.153372,1.15758 0.747795,0.38856 1.469276,0.82188 2.185051,1.26583 0.333661,0.17445 0.627081,0.31903 1.010235,0.50761 0.654431,0.37651 0.718978,0.40218 1.378561,0.85119 -0.135258,-0.0888 0.01894,-0.007 0.01408,-0.01 -0.496541,-0.29172 0.38817,0.18873 0.575905,0.28129 -0.114483,-0.0654 -0.226558,-0.11628 -0.353475,-0.14377 -1.386708,-0.25137 0.345537,0.0492 2.928725,2.57244 0.117354,0.11463 0.09231,0.31507 0.12827,0.47513 0.0274,0.12197 0.1211,0.47988 0.06159,0.36994 -0.374382,-0.6917 -0.582652,-1.47297 -1.014428,-2.13038 -0.183452,-0.27932 -0.526722,-0.41142 -0.790086,-0.61713 -0.297227,-0.15352 -0.607242,-0.30724 -0.940207,-0.36851 -0.162748,-0.03 -0.646012,-0.13186 -0.490836,-0.0744 2.253215,0.8347 1.001514,0.0694 2.208572,0.88683 0.364096,0.28801 0.671063,0.6341 0.938988,1.01091 0.736213,1.09705 1.227108,2.89761 -2.828343,-1.62005 -0.416195,-0.46363 1.215271,0.30496 1.782146,0.56346 0.774988,0.35341 1.151022,1.17056 1.59412,1.8206 2.199219,4.87608 -4.696603,7.98625 -6.89582,3.11017 v 0 c 0.383283,0.53489 0.757851,1.28022 1.425797,1.5656 0.5318,0.22722 2.076945,0.89702 1.663494,0.49268 -4.290192,-4.19569 -3.730773,-2.81147 -2.981145,-1.65567 0.175278,0.24432 0.371025,0.47024 0.614431,0.65063 1.113216,0.72129 -0.354716,-0.16648 1.961047,0.72192 0.19077,0.0732 -0.40603,-0.0478 -0.607423,-0.0823 -0.414803,-0.0711 -0.804166,-0.25627 -1.17648,-0.44156 -0.293973,-0.22307 -0.673375,-0.36476 -0.88192,-0.66921 -0.462595,-0.67533 -0.698034,-1.48171 -1.085403,-2.20283 -0.04393,-0.0818 0.02759,0.18384 0.04933,0.2741 0.02886,0.11985 0.01135,0.27216 0.10228,0.35542 2.638919,2.41648 4.233428,2.66675 2.819254,2.42364 -0.551913,-0.11024 -1.092721,-0.27248 -1.60234,-0.51493 -0.509374,-0.25462 -0.681768,-0.32052 -1.51097,-0.81439 -0.11829,-0.0849 -0.380486,-0.0993 -0.362463,-0.24382 0.01394,-0.11174 0.39229,0.22139 0.293389,0.16753 -0.143439,-0.0781 -0.285356,-0.159 -0.427011,-0.24029 -0.0085,-0.005 -0.03258,-0.0206 -0.02313,-0.0181 0.02529,0.007 0.04808,0.0208 0.07212,0.0312 -0.546073,-0.2717 -0.962829,-0.46937 -1.649947,-0.86424 -0.5232,-0.32796 -1.049829,-0.64744 -1.596614,-0.93485 -0.743183,-0.37566 -1.478116,-0.76536 -2.199521,-1.18109 -0.589947,-0.32605 -1.239036,-0.54068 -1.812227,-0.90143 -0.567825,-0.31246 -1.130342,-0.64113 -1.652651,-1.02553 -0.784833,-0.49908 -1.527204,-1.05593 -2.234747,-1.66015 -0.451102,-0.40346 -0.918343,-0.78821 -1.441829,-1.09612 -0.747186,-0.48918 -1.445593,-1.04282 -2.17117,-1.56316 -0.611437,-0.48729 -1.23126,-0.96359 -1.834052,-1.46172 -0.554705,-0.47373 -1.082231,-0.97708 -1.623772,-1.46587 -0.45361,-0.44068 -0.92066,-0.87301 -1.328338,-1.35805 -0.486447,-0.47943 -0.912246,-1.00813 -1.411264,-1.47327 -0.41919,-0.40114 -0.858073,-0.78889 -1.245362,-1.22163 -0.01421,-0.0159 0.03478,0.0247 0.05218,0.037 -0.535056,-0.50796 -1.050144,-1.0342 -1.567627,-1.55892 -0.529627,-0.51144 -1.033029,-1.04849 -1.586722,-1.53221 -0.641734,-0.53371 -1.312759,-1.03651 -1.870072,-1.66326 -0.546519,-0.59261 -1.049462,-1.22311 -1.548879,-1.85573 -0.185481,-0.24599 -0.491943,-0.6039 -0.623927,-0.76435 -0.52614,-0.50929 -1.040318,-1.03334 -1.51664,-1.59034 -0.374681,-0.44621 -0.78328,-0.85875 -1.20088,-1.26493 -0.508855,-0.49335 -1.014479,-0.98472 -1.47193,-1.52604 -0.427196,-0.51743 -0.954336,-1.21684 -1.149802,-1.73282 -0.410102,-0.60864 -0.841055,-1.20464 -1.172247,-1.86259 -0.259988,-0.5656 -0.527064,-1.12888 -0.685098,-1.73369 -0.04523,-0.12608 -0.09634,-0.25021 -0.135697,-0.37824 -0.01549,-0.0504 0.09915,0.1856 0.07928,0.13678 -0.01816,-0.0446 -0.04319,-0.0862 -0.06619,-0.12853 -0.07929,-0.14596 -0.164858,-0.28855 -0.240655,-0.43635 -0.008,-0.0156 0.02424,0.0253 0.03635,0.038 -0.207038,-0.44567 -0.621334,-0.77498 -0.85035,-1.2091 -0.427353,-0.67519 -0.573912,-0.9854 -0.969377,-1.65656 -0.308221,-0.52725 -0.608977,-1.05923 -0.93713,-1.57451 -0.497429,-0.74771 -0.919651,-1.53105 -1.264724,-2.36055 -0.210011,-0.52602 -0.444275,-1.04484 -0.612864,-1.58531 -0.184361,-0.47843 -0.40087,-0.95012 -0.557142,-1.43762 -0.179935,-0.50289 -0.224056,-0.64651 -0.463276,-1.17008 -0.156598,-0.36474 -0.230561,-0.56497 -0.341615,-0.81501 -0.234714,-0.4285 -0.451869,-0.86623 -0.702717,-1.28552 -0.302716,-0.56955 -0.454745,-0.85559 -0.743065,-1.50161 -0.193137,-0.46826 -0.0851,-0.26105 -0.438252,-0.95289 -0.209842,-0.47267 -0.427908,-0.91369 -0.609313,-1.39962 -0.02163,-0.0579 0.0513,0.11257 0.07695,0.16885 0.02769,0.0475 0.05397,0.0958 0.08308,0.14237 0.0098,0.0157 -0.01604,-0.0335 -0.02514,-0.0496 -0.09735,-0.17284 -0.199189,-0.34316 -0.294159,-0.51732 -0.03416,-0.0627 0.07368,0.12221 0.111645,0.18262 0.0093,0.0148 -0.01706,-0.0305 -0.02559,-0.0457 -0.116376,-0.19419 -0.23275,-0.38838 -0.349126,-0.58257 0.223936,0.34447 -0.29918,-0.57741 -0.435623,-0.88101 -0.07419,-0.16508 -0.149397,-0.3297 -0.224096,-0.49454 -0.115724,-0.30873 -0.452686,-1.04653 -0.08784,-0.32848 0.04273,0.0561 0.173961,0.2218 0.128176,0.1682 -0.04954,-0.058 -0.09462,-0.11972 -0.139468,-0.18142 -0.06253,-0.086 0.293552,0.30788 0.222033,0.22915 -0.26926,-0.29638 -0.716769,-0.74659 -0.107719,-0.12785 -0.829601,-0.80498 -0.785274,-0.77426 -1.399141,-1.95067 -0.179298,-0.46128 -0.337034,-0.95194 -0.410491,-1.42182 -0.105991,-0.32261 -0.149955,-0.44052 -0.239168,-0.79581 -0.0316,-0.12584 0.216792,0.47147 0.158707,0.35544 -0.04079,-0.0815 -0.08519,-0.16111 -0.127789,-0.24166 -1.96e-4,-5.3e-4 -0.338779,-0.6619 -0.338769,-0.6621 0.0041,-0.0845 0.09268,0.1416 0.135381,0.21461 0.02756,0.0471 -0.05994,-0.0912 -0.08991,-0.13687 -0.314551,-0.47477 0.0037,-0.0557 -0.437473,-0.59105 -0.468767,-0.55204 -0.59272,-0.72859 -0.954022,-1.25127 -0.04076,-0.059 0.169879,0.23098 0.126473,0.17393 -0.05613,-0.0738 -0.109762,-0.1494 -0.164644,-0.2241 -0.498935,-0.7382 -0.951451,-1.51436 -1.125147,-2.40189 -0.09458,-0.46844 -0.271297,-0.93212 -0.277246,-1.41805 0.01875,0.0442 0.367495,0.85979 -0.02118,-0.0308 -0.2587273,-0.76732 -0.5050541,-1.50173 -0.5312788,-2.33241 5.556e-4,-0.32668 0.00175,-0.65335 6.35e-4,-0.98002 -0.00254,-0.33384 -0.00172,-0.0782 0.045511,0.06 0.026154,0.0848 0.05271,0.16957 0.078463,0.25454 0.0035,0.0116 -0.026932,-0.0818 -0.026715,-0.0815 0.3981258,0.51411 -1.414977,-2.57263 -0.3775442,-1.57669 -0.0059,-0.25468 0.040548,0.26927 0.030101,0.0741 -0.072671,-0.35604 -0.4137274,-1.22985 -0.3116599,-1.75985 0,-0.23267 0,-0.46534 0,-0.69801 0,-0.29007 0,-0.58013 0,-0.8702 0,-0.29459 0,-0.58918 0,-0.88377 0,-0.21262 0,-0.42522 0,-0.63784 0,-0.22884 0,-0.45769 0,-0.68654 0,-0.24392 0,-0.48784 3e-7,-0.73176 8e-7,-0.3617 1.8e-6,-0.7234 7.1e-6,-1.0851 4.8e-6,-0.32572 1.75e-5,-0.65144 6.6e-6,-0.97716 -1.87e-5,-0.20099 -2.27e-5,-0.40198 -4.233e-4,-0.60296 -4.762e-4,-0.21488 -0.00132,-0.42976 -0.00217,-0.64463 -2.91e-4,-0.37819 0.00579,-0.75736 0.064348,-1.13195 0.2130611,-0.98338 0.3758563,-1.28175 0.9482752,-2.1696 0.0056,-0.009 -0.06047,0.0996 -0.01719,0.0258 -0.1371202,0.20569 -0.4239,0.7938 -0.2041929,0.33666 -0.4259035,2.43682 -0.1913781,1.32053 -0.2257568,0.71209 0.021698,-0.6033 0.088034,-1.20707 0.3032374,-1.77662 0.2139503,-0.549 0.044629,-0.14534 0.4114063,-0.88156 0.02057,-0.0413 -0.04703,0.0795 -0.06674,0.12119 -0.04976,0.10526 -0.115548,0.20585 -0.141522,0.31935 -0.2323949,1.01551 -0.2287492,1.75273 -0.2287495,1.23561 0,-0.14053 0,-0.28106 3e-7,-0.42159 5e-7,-0.16039 1.1e-6,-0.32079 4.8e-6,-0.48118 3.4e-6,-0.18108 1.13e-5,-0.36217 7.4e-6,-0.54325 -1.01e-5,-0.13348 3.04e-5,-0.26695 -2.53e-4,-0.40043 -3.968e-4,-0.1542 -8.996e-4,-0.30841 -0.00156,-0.46261 -5.821e-4,-0.33658 -0.00169,-0.67399 0.033952,-1.00915 0.124789,-0.78318 0.300587,-1.24009 0.659997,-1.97164 0.01166,-0.0237 -0.02633,0.0459 -0.0395,0.0688 -0.254427,0.50235 -0.242326,0.83535 -0.369427,1.46176 -0.01027,0.0506 0.0037,-0.10321 0.0067,-0.15476 0.01778,-0.30407 0.01901,-0.25042 0.0677,-0.63298 0.09421,-0.47822 0.224384,-0.95097 0.459254,-1.38268 -0.152268,0.41646 0.110545,-0.3085 -0.2502,1.1764 -0.01745,0.0718 0.0068,-0.14772 0.01317,-0.22136 0.02805,-0.32241 0.07183,-0.64206 0.150963,-0.95641 0.0626,-0.2003 0.117451,-0.40319 0.187801,-0.60091 0.06186,-0.17385 0.706515,-1.41796 0.342095,-0.64429 0.0702,-0.15961 0.192794,-0.44847 0.27511,-0.57849 0.0529,-0.0836 -0.09234,0.17585 -0.123958,0.26956 -0.06711,0.19891 -0.07853,0.41776 -0.171447,0.606 -0.124824,0.25287 0.24081,-0.89621 0.222122,-0.81634 0.07744,-0.18167 0.152861,-0.36421 0.232315,-0.54501 0.368029,-0.83745 -0.482945,1.76018 -0.163361,0.49894 0.05083,-0.20058 0.116094,-0.39722 0.174141,-0.59584 0.03141,-0.079 0.693503,-1.49208 0.536292,-1.04213 0.0083,-0.0177 0.181699,-0.38885 0.182062,-0.38714 0.0047,0.022 -0.355943,0.95751 0.05944,-0.16789 0.02592,-0.0702 0.06444,-0.28039 0.0842,-0.20819 0.02278,0.0832 -0.0488,0.16558 -0.07321,0.24837 0.05328,-0.16668 0.50603,-1.46532 0.633344,-1.48151 0.122186,-0.0155 -0.232309,0.43417 -0.16809,0.32906 0.69547,-1.13822 0.168285,-0.43257 0.743411,-1.15981 0.179711,-0.1764 0.359421,-0.3528 0.539132,-0.52921 -0.02837,0.0306 -0.116397,0.11933 -0.08511,0.0917 0.182166,-0.16066 0.700011,-0.6713 0.542812,-0.48614 -0.02039,0.024 -0.04414,0.045 -0.06621,0.0674 0.151455,-0.13274 0.302911,-0.26547 0.454366,-0.39821 -0.03853,0.0349 -0.156039,0.13745 -0.115595,0.10477 0.142585,-0.11524 0.269835,-0.2505 0.422156,-0.35253 0.114286,-0.0765 -0.201171,0.1879 -0.307195,0.27553 -0.12087,0.0999 0.553313,-0.51865 0.339432,-0.32572 0.60506,-0.52769 1.275481,-0.93778 2.043507,-1.18736 0.315281,-0.0914 0.613399,-0.19813 0.895642,-0.37623 0.53998,-0.24286 0.852055,-0.42336 1.224508,-0.59991 -0.136611,0.0792 -0.269324,0.16555 -0.409832,0.23761 -0.07365,0.0378 0.13769,-0.092 0.208733,-0.13447 0.53221,-0.31811 0.359419,-0.18981 1.163691,-0.51962 0.104214,-0.0427 -0.60399,0.20495 -0.317771,0.1149 -0.156577,0.0841 -0.309955,0.17445 -0.46973,0.25231 -0.06461,0.0315 0.121661,-0.0766 0.18369,-0.11293 0.08207,-0.048 0.164131,-0.0963 0.248543,-0.1401 0.383596,-0.1991 0.660914,-0.30282 1.091148,-0.4322 -0.508289,0.19232 -0.390524,0.23744 0.420966,-0.1931 0.03665,-0.0121 0.121934,-0.0406 -0.03774,0.0302 0.351303,-0.16261 0.693243,-0.34939 1.079984,-0.42403 -0.3782,0.18254 0.567434,-0.24501 0.857139,-0.27157 -0.100497,0.0731 0.186704,-0.0622 0.267489,-0.0925 0.177693,-0.0669 0.355022,-0.13475 0.533643,-0.19909 0.02955,-0.0106 0.06042,-0.0172 0.09063,-0.0258 0.129138,-0.0239 -0.05764,0.0127 0.27878,-0.10003 0.399508,-0.13387 0.793982,-0.24218 1.197138,-0.35881 0.182728,-0.043 0.364942,-0.0884 0.548184,-0.12917 0.07399,-0.0165 -0.281826,0.11178 -0.21083,0.0852 0.66027,-0.24698 -0.765313,0.21437 1.011888,-0.32721 -0.09262,0.025 -0.362326,0.12628 -0.272428,0.0928 0.378145,-0.14089 0.735684,-0.31165 1.143754,-0.37513 -0.411842,0.12128 0.657569,-0.19481 0.657577,-0.25225 0.184081,-0.0522 0.686718,-0.3 1.022538,-0.40762 0.769665,-0.25171 1.549016,-0.50154 2.374127,-0.47433 0.570804,0.0127 1.143328,0.0481 1.697942,0.1954 0.129109,0.0366 0.25853,0.0722 0.387327,0.10987 0.569825,0.16681 -1.131472,-0.0687 -0.468175,-0.0278 0.528643,0.005 1.058203,0.0157 1.583827,0.0776 0.392531,0.0522 0.77469,0.11647 1.158926,0.21324 0.09399,0.0237 0.377097,0.0836 0.28041,0.0769 -0.137308,-0.01 -0.272883,-0.0363 -0.409326,-0.0544 0.552548,0.0556 1.103596,0.14113 1.631431,0.32055 -1.631775,-0.17422 0.458788,-0.01 0.688981,0.0927 0.5159,0.13768 0.960432,0.30285 1.43388,0.58222 0.193614,0.11425 0.749734,0.48745 0.542126,0.4012 -0.2442,-0.10146 -0.436481,-0.29865 -0.65472,-0.44797 -0.492193,-0.13687 -0.984384,-0.27374 -1.476576,-0.41061 0.534647,0.0443 1.057741,0.14919 1.56549,0.32411 0.478131,0.1781 0.3039,0.10423 0.607131,0.23657 0.06415,0.028 0.262107,0.0902 0.192368,0.0842 -0.100266,-0.009 -0.383196,-0.12332 -0.287427,-0.0924 0.596659,0.19268 0.318891,0.0907 0.801147,0.28194 -0.778346,-0.17961 1.503662,0.41186 0.442138,0.16229 0.359402,0.0839 0.719039,0.17294 1.060923,0.31492 0.0455,0.0189 -0.09292,-0.0335 -0.140967,-0.0445 -0.147696,-0.0335 -0.299839,-0.0477 -0.445617,-0.0888 -0.09457,-0.0267 0.194181,0.0302 0.291272,0.0453 0.382836,0.0808 0.73937,0.17172 1.110168,0.2972 0.09945,0.0336 0.399547,0.12028 0.295045,0.11022 -0.09682,-0.009 -0.18909,-0.0457 -0.283634,-0.0686 0.642546,0.15643 1.231906,0.3756 1.618361,0.51349 0.657498,0.2317 0.560909,0.22666 1.123532,0.40886 0.548302,0.16234 0.46541,0.12196 0.97458,0.33158 0.07238,0.0298 0.290425,0.11252 0.213579,0.0976 -0.122708,-0.0238 -0.471162,-0.16726 -0.35361,-0.12478 0.746556,0.26982 0.364527,0.10504 0.979541,0.39762 -0.102884,-0.0456 -0.422323,-0.15512 -0.314878,-0.1217 0.554759,0.17261 1.078023,0.44508 1.561377,0.76408 0.412457,0.29383 0.827257,0.59456 1.222179,0.91206 0.01828,0.0147 -0.04054,-0.0236 -0.06081,-0.0354 0.42111,0.31302 0.856916,0.63498 1.243658,0.99112 0.03984,0.0367 -0.08776,-0.0635 -0.131636,-0.0953 0.317807,0.24384 0.360736,0.28095 0.766972,0.59101 0.538242,0.33304 1.068829,0.67688 1.557747,1.08072 -0.223271,-0.12677 -0.01347,-0.0107 0.403982,0.31732 0.199424,0.15669 0.397118,0.3318 0.582107,0.50447 0.124632,0.11632 0.244753,0.23739 0.367131,0.35608 -0.240798,-0.2094 -0.01627,-0.0169 0.27596,0.27587 0.02951,0.0296 -0.124169,-0.11167 -0.09452,-0.0823 1.162298,1.15327 -0.531424,-0.53192 0.609414,0.58835 -0.329713,-0.28107 0.06304,0.0517 0.215683,0.20105 0.0492,0.0481 -0.212209,-0.17543 -0.160067,-0.13048 1.087456,0.93733 -0.6223,-0.51501 0.506357,0.41572 -0.512956,-0.3539 0.673208,0.51626 0.748538,0.60385 0.445151,0.31992 0.881038,0.6515 1.284629,1.02317 0.452429,0.38305 0.774025,0.69042 1.105527,1.0327 0.406333,0.38675 0.781158,0.80036 1.164756,1.13517 0.331211,0.31129 0.661191,0.63939 0.984417,0.95332 0.590431,0.48386 1.187109,0.96264 1.734211,1.49604 0.421024,0.45871 0.984756,0.77412 1.413341,1.23442 0.523682,0.49204 1.073793,0.98276 1.477529,1.58159 0.443047,0.49774 0.871315,1.00981 1.250317,1.55875 0.607293,0.83817 1.095037,1.74243 1.409962,2.73278 0.275286,1.03061 0.435179,2.09161 0.421831,3.1611 0,5.34908 -7.564753,5.34908 -7.564753,0 z"
         id="path1107"
         style="opacity:1;fill:#e65679;fill-opacity:1;fill-rule:nonzero;stroke:none;stroke-width:0.26458332;stroke-opacity:1" />
      <path
         inkscape:connector-curvature="0"
         d="m 65.353472,199.06558 c 0.202946,-0.84898 0.499962,-1.66363 0.8481,-2.46272 0.338852,-0.73831 0.818653,-1.39302 1.313138,-2.03205 0.04368,-0.0555 0.08644,-0.11172 0.13103,-0.16649 0.0669,-0.0822 0.134836,-0.1635 0.203432,-0.24426 0.05158,-0.0607 0.20165,-0.24623 0.157081,-0.18018 -0.03597,0.0533 -0.507987,0.73068 -0.09842,0.0697 0.16895,-0.2508 0.332285,-0.51183 0.534776,-0.73777 0.05313,-0.0593 -0.192495,0.25365 -0.145947,0.18906 0.318548,-0.44201 0.495104,-0.63541 0.311761,-0.43133 0.186198,-0.27534 0.342665,-0.51786 0.651156,-0.95876 0.494281,-0.67146 1.08113,-1.27527 1.704596,-1.8267 0.116459,-0.10594 0.66484,-0.66051 0.683443,-0.68873 0.411721,-0.52828 0.889807,-0.99124 1.405348,-1.4174 0.589139,-0.47785 1.220507,-0.90214 1.852744,-1.32037 0.396497,-0.26772 0.711052,-0.47762 1.035601,-0.71915 0.03861,-0.0287 -0.0804,0.053 -0.120608,0.0794 0.143388,-0.14839 0.329832,-0.2458 0.481764,-0.38394 0.04512,-0.041 -0.187008,0.15557 -0.1455,0.11089 0.09136,-0.0983 0.199351,-0.17985 0.296045,-0.27294 0.02236,-0.0215 -0.09445,0.0802 -0.07279,0.058 0.10903,-0.11178 0.223531,-0.21809 0.335296,-0.32714 0.470845,-0.44075 0.93653,-0.80626 1.380165,-1.15151 0.418306,-0.313 0.819446,-0.64595 1.241017,-0.95498 -0.02125,0.0115 -0.05955,0.0584 -0.06372,0.0346 -0.01021,-0.0583 0.973661,-0.86564 1.114324,-0.98646 0.3912,-0.37306 0.827331,-0.68998 1.257858,-1.01478 0.622052,-0.43091 1.265381,-0.82759 1.919312,-1.20777 0.461578,-0.3345 1.052671,-0.45207 1.53239,-0.74905 0.380161,-0.17103 0.757462,-0.35035 1.123751,-0.55015 0.534331,-0.25885 1.06602,-0.52162 1.606666,-0.76746 0.612265,-0.29936 1.226413,-0.59353 1.852708,-0.86243 0.749067,-0.25832 0.446183,-0.20162 1.365845,-0.5184 -0.02966,0.008 -0.11793,0.0342 -0.08899,0.024 0.665419,-0.23648 1.319927,-0.45777 2.008365,-0.62306 0.598921,-0.15489 1.191376,-0.33033 1.7898,-0.48713 0.502021,-0.18183 1.01499,-0.33473 1.53506,-0.45599 -0.430811,0.0687 0.921398,-0.16465 0.694124,-0.10824 -0.281972,0.07 -0.533308,0.0777 -0.794317,0.19217 -0.01699,0.008 -0.06844,0.0328 -0.05094,0.0254 0.855548,-0.35914 1.331637,-0.49349 2.228627,-0.5328 0.188037,-7.2e-4 1.536637,-0.0279 0.447429,0.005 0.623583,-0.15043 1.259838,-0.22535 1.898818,-0.26634 0.42963,-0.0373 0.86203,-0.008 1.29199,-0.0264 0.0824,-0.004 -0.16496,3.2e-4 -0.24744,5e-4 0.70365,-0.12496 1.41469,-0.19434 2.12731,-0.24038 0.61032,-0.0335 1.22168,-0.0385 1.83277,-0.0403 -1.18664,0.10444 0.56076,-0.17593 0.69687,-0.19557 0.63339,-0.075 1.27199,-0.0793 1.90891,-0.0839 0.38734,-0.002 0.77468,-6e-4 1.16202,2.4e-4 0.27102,5.8e-4 0.54203,7.1e-4 0.81305,8.2e-4 0.65338,-0.0228 1.30087,0.0316 1.94571,0.13723 0.59139,0.0976 1.18139,0.18008 1.76255,0.33309 0.42942,0.0958 0.82382,0.29686 1.23397,0.44842 0.0535,0.0198 -0.10474,-0.0456 -0.1583,-0.0653 0.6318,0.20854 1.07235,0.31771 1.67575,0.53876 0.41236,0.0872 1.10082,0.40382 1.57137,0.63368 0.81334,0.4106 1.42932,1.04283 1.97984,1.67738 0.79362,1.0134 -0.65475,-0.76941 0.26916,0.32539 0.0883,0.10469 -0.37474,-0.39957 -0.27709,-0.30349 0.16186,0.15925 0.32407,0.31815 0.4861,0.47722 0.32094,0.34397 0.55148,0.73425 0.81383,1.12266 0.0585,0.0867 -0.23649,-0.34318 -0.16514,-0.26675 0.0937,0.10038 0.15547,0.22643 0.2332,0.33965 0.17725,0.28598 0.29307,0.43107 0.48841,0.77131 0.11153,0.19427 0.22831,0.46588 0.14034,0.26397 0.11502,0.17363 0.0693,0.10197 0.2655,0.49021 0.0787,0.15584 -0.3646,-0.59506 -0.26345,-0.45273 0.34624,0.48732 0.22589,0.3021 0.4767,0.72291 0.7907,1.72979 0.12046,0.26779 0.11114,0.23498 -0.0278,-0.0978 0.10099,0.17684 0.1444,0.26883 0.78908,1.67211 -0.27041,-0.47848 0.23794,0.48485 0.2737,0.45422 -0.0867,-0.0744 0.13499,0.18355 0.28468,0.27029 0.52255,0.57767 0.77181,0.88162 -0.59847,-0.8122 0.43128,0.54918 0.53419,0.69381 0.28479,0.47656 0.27911,0.43241 0.4743,0.85756 0.0375,0.0817 0.15692,0.32179 0.10552,0.24808 -0.002,-0.003 -0.5878,-1.14369 0.0964,0.13445 0.30662,0.82375 0.29858,0.64723 0.58055,1.58363 0.17578,0.87193 0.0948,0.38382 0.31536,1.27416 0.14606,0.63305 0.19231,1.28077 0.21173,1.92815 0.008,0.42671 0.006,0.85353 0.005,1.2803 -8e-4,0.372 -0.001,0.74401 -0.002,1.11601 -1.5e-4,0.33112 -1.5e-4,0.66224 -1.5e-4,0.99336 0,0.0513 0.006,0.20484 0,0.15391 -0.0299,-0.24762 -0.0444,-0.49688 -0.0713,-0.74484 -0.0246,-0.22674 0.0339,0.0648 0.0946,0.27685 0.0227,0.0793 0.0417,0.1595 0.0626,0.23925 0.0968,0.3855 0.1399,0.78043 0.167,1.17596 0.006,0.0864 0.0273,0.34516 0.0135,0.25961 -0.10896,-0.67835 -0.0582,-0.47897 -0.0157,-0.32593 0.0922,0.35156 0.42845,1.78201 0.0604,0.36391 -0.0311,-0.0734 -0.12892,-0.2914 -0.0932,-0.22015 0.29179,0.58256 0.45199,1.19553 0.55727,1.83516 0.0563,0.45243 0.0656,0.90841 0.0676,1.36368 4e-5,0.27913 -0.001,0.55826 -0.002,0.83739 -5.3e-4,0.36928 -5.3e-4,0.73856 -5.3e-4,1.10784 0.0791,0.48899 -0.21637,1.17686 -0.27126,1.61561 -0.0823,0.62985 -0.25165,1.24524 -0.42751,1.85562 -0.0727,0.13451 -0.14745,0.52341 -0.14774,0.52803 0.097,0.11881 -0.18333,0.97979 -0.2418,1.29426 -0.1451,0.64928 -0.39759,1.26385 -0.6328,1.88344 -0.22885,0.61589 -0.28794,0.7803 -0.49245,1.32335 -0.2105,0.69361 0.18363,-0.85055 -0.15366,0.6254 -0.13609,0.56458 -0.34795,1.10651 -0.53669,1.65449 -0.16575,0.64279 -0.4937,1.22903 -0.69746,1.85727 -0.28264,0.8101 -0.67256,1.57132 -1.09353,2.31668 -0.29265,0.49962 -0.50122,1.03532 -0.74318,1.5624 -0.32873,0.63482 -0.66194,1.26688 -1.01093,1.89066 -0.29072,0.48993 -0.62218,0.95976 -0.87222,1.47285 -0.27552,0.50238 -0.51727,1.02195 -0.78346,1.52945 -0.25845,0.52471 -0.52282,1.0468 -0.7764,1.57414 -0.21312,0.45259 -0.49276,0.89989 -0.62089,1.38834 -0.24844,0.75164 -0.67555,1.41418 -1.05127,2.1034 -0.34345,0.59178 -0.66393,1.19774 -0.9636,1.81297 -0.0722,0.13624 -0.14574,0.27175 -0.21655,0.4087 -0.12407,0.23997 -0.23235,0.48209 -0.36237,0.7205 -0.14051,0.25766 -0.23569,0.38304 -0.13841,0.25188 -0.2206,0.43215 -0.45392,0.85958 -0.65526,1.30213 -0.39363,0.87179 -0.88901,1.69274 -1.4366,2.47475 -0.25961,0.45807 -0.71911,0.8031 -0.94403,1.28145 -0.32232,0.52319 -0.5925,1.07481 -0.90675,1.60366 -0.35492,0.5824 -0.8539,1.05777 -1.23361,1.61973 -0.35119,0.54945 -0.73942,1.10985 -1.1623,1.63611 -0.55933,0.69996 -1.234,1.29106 -1.8971,1.88819 -0.091,0.0786 -0.18204,0.15715 -0.27306,0.23572 0.005,5.3e-4 0.0188,-0.002 0.0152,0.002 -0.2327,0.23174 -0.83204,0.76509 -0.59473,0.5929 -0.01,-5.3e-4 -0.21175,0.29095 -0.46996,0.65175 -0.42899,0.59616 -0.92489,1.13765 -1.43072,1.66836 -0.44484,0.52523 -1.02213,0.94143 -1.44587,1.48358 -0.28931,0.3854 -0.63733,0.72952 -0.89462,1.13718 -0.19203,0.29847 -0.44286,0.64809 -0.65105,1.02276 -0.37971,0.58304 -0.79843,1.13887 -1.201644,1.70589 -0.590095,0.6903 -0.664798,0.80578 -1.002737,1.27753 -0.633452,0.86082 -1.378534,1.63009 -2.149631,2.36673 -0.556138,0.63411 -1.270762,1.14985 -1.778883,1.82545 -0.218274,0.2966 -0.441812,0.63548 -0.630735,0.9892 -0.512842,0.89271 -1.239774,1.62405 -1.883069,2.41818 -0.383749,0.57196 -0.398476,0.48771 -0.665485,0.99397 -0.06006,0.0955 -0.124198,0.18855 -0.180176,0.2865 -0.02777,0.0486 0.111477,-0.19178 0.0954,-0.13817 -0.207772,0.69297 -0.86442,1.45923 -1.31749,2.00165 -0.487989,0.55684 -0.939183,1.14446 -1.37042,1.74616 -0.679992,0.85631 -1.393632,1.6844 -2.084012,2.53214 -0.730959,0.87084 -1.484222,1.72361 -2.250188,2.56359 -0.530926,0.54126 -1.005819,1.13333 -1.511729,1.69776 -0.677566,0.68794 -1.348226,1.38646 -2.051918,2.04849 -0.291044,0.27574 -0.699037,0.58876 -0.942276,0.83706 -0.237874,0.24282 -0.409869,0.36586 -0.244872,0.24483 -0.224263,0.30553 -0.483081,0.59983 -0.739023,0.88521 -0.597715,0.60449 -1.285203,1.09211 -2.035869,1.48604 1.147699,-0.74065 0.110265,-0.0227 0.150146,-0.0587 0.109932,-0.0993 0.208987,-0.26207 0.357092,-0.26449 0.134469,-0.002 -0.323421,0.27189 -0.617032,0.50925 -0.434202,0.25637 -0.44586,0.41033 -1.271008,0.90876 -0.414369,0.22748 -0.831792,0.37412 -1.298789,0.48023 -0.178747,0.0406 -0.718923,0.13145 -0.544949,0.0737 0.243943,-0.081 0.50415,-0.10073 0.757467,-0.14424 0.02548,-0.004 -0.04854,0.0177 -0.07281,0.0266 -0.294547,0.10618 0.120664,-0.0376 0.232503,-0.0985 0.04672,-0.0255 0.181864,-0.11038 0.138136,-0.08 -0.255026,0.17693 -0.373618,0.24249 -0.623064,0.39049 -0.11022,0.0817 -0.224433,0.15813 -0.334264,0.24056 -0.796211,0.5246 -1.507273,0.77665 -2.419374,0.80841 -0.732481,-0.0151 -0.647388,0.29388 1.474181,-0.37887 0.195824,-0.0621 0.349968,-0.21525 0.52495,-0.32288 -4.245481,3.25402 -8.847355,-2.75 -4.601874,-6.00402 v 0 c 0.214566,-0.13796 0.402838,-0.32988 0.643702,-0.4139 0.588822,-0.2054 1.210947,-0.29872 1.817275,-0.44456 0.0095,-0.002 0.03901,-8e-5 0.02927,5.2e-4 -0.01945,10e-4 -0.03894,8e-4 -0.05842,10e-4 -0.180816,0.009 -0.432893,0.0146 -0.588751,0.0795 -2.113431,0.88077 -1.82105,0.9888 -1.33268,0.60282 0.331669,-0.24566 0.670857,-0.48164 1.023483,-0.69643 0.38323,-0.21214 0.988965,-0.6736 1.530651,-0.80802 0.577803,-0.2045 -0.146581,0.0429 1.189906,-0.29339 0.104449,-0.0263 -0.21454,0.026 -0.318641,0.0536 -0.30871,0.082 -0.578715,0.16288 -0.847243,0.31782 -0.06754,0.0439 -0.13889,0.0824 -0.202621,0.1316 -1.289121,0.99594 1.196383,-0.95559 0.397145,-0.31351 0.433957,-0.35082 0.841555,-0.71866 1.475354,-1.06577 -0.804024,0.50775 0.594752,-0.4481 -0.18574,0.20376 0.26112,-0.28265 0.485735,-0.59546 0.738918,-0.88509 0.523562,-0.5545 1.075348,-1.07881 1.66426,-1.56436 0.548767,-0.48221 1.028849,-1.04501 1.557904,-1.54726 0.526828,-0.58545 1.018254,-1.20286 1.571768,-1.76384 0.672269,-0.72036 1.310468,-1.47426 1.953456,-2.22077 0.600194,-0.7369 1.211273,-1.46491 1.822788,-2.19215 0.562079,-0.77136 1.138907,-1.53297 1.76928,-2.25033 0.214045,-0.2029 -0.04619,0.0239 0.01987,0.0642 0.04229,0.0258 0.05232,-0.0843 0.07509,-0.12827 0.179057,-0.3461 0.323813,-0.71323 0.547243,-1.03458 0.394409,-0.64435 0.810268,-1.27398 1.278504,-1.86958 0.367165,-0.45215 0.73964,-0.91431 1.145992,-1.32775 0.440151,-0.78016 0.925748,-1.54095 1.495854,-2.23328 0.740323,-0.84273 1.544598,-1.6265 2.341605,-2.41531 0.43085,-0.39193 0.829611,-0.8213 1.19358,-1.27615 0.312248,-0.43054 0.960028,-1.2689 0.978109,-1.24309 0.316045,-0.44441 0.641522,-0.88211 0.951119,-1.33037 0.317738,-0.49781 0.622448,-1.00504 0.965454,-1.48677 0.423286,-0.56504 0.852916,-1.12679 1.316445,-1.6619 0.531924,-0.58954 1.099484,-1.14331 1.654434,-1.71109 0.261922,-0.27348 0.52577,-0.54612 0.752597,-0.85027 0.354528,-0.49378 0.544658,-0.7742 1.028746,-1.34196 0.45605,-0.48052 0.92195,-0.95477 1.42329,-1.39317 0.37114,-0.31289 0.73022,-0.63924 1.04893,-1.00326 0.3135,-0.37267 0.55123,-0.79274 0.82791,-1.19292 0.25738,-0.36425 0.70547,-1.0233 1.033,-1.33921 0.0328,-0.0316 -0.0412,0.0812 -0.0618,0.12184 0.35901,-0.53912 0.57912,-1.16555 0.96148,-1.69232 0.39425,-0.60941 0.83004,-1.18506 1.27087,-1.76094 -0.0151,0.12436 -0.0124,0.0602 0.13459,-0.19367 0.12922,-0.22313 0.28223,-0.45959 0.39655,-0.69426 0.0546,-0.11202 0.10468,-0.22616 0.15702,-0.33924 0.23085,-0.47786 0.47001,-0.95191 0.71403,-1.42288 0.23184,-0.44575 0.47076,-0.88589 0.69501,-1.33587 0.35626,-0.72556 0.73264,-1.44258 1.13545,-2.14326 0.20565,-0.37004 0.35332,-0.59823 0.51703,-0.92814 0.005,-0.0109 -10e-4,0.0243 -0.002,0.0364 0.27363,-0.77099 0.58881,-1.53045 0.97656,-2.25177 0.29901,-0.61116 0.60098,-1.2206 0.90614,-1.82871 0.27381,-0.48286 0.47465,-1.00402 0.75835,-1.482 0.30705,-0.5736 0.62875,-1.14164 0.98746,-1.68424 0.25764,-0.44225 0.4786,-0.90405 0.7322,-1.34825 0.33924,-0.71602 0.63352,-1.45462 1.04038,-2.13726 0.21308,-0.35954 0.40443,-0.71444 0.5383,-1.11309 0.21921,-0.5949 0.48699,-1.17016 0.66951,-1.77796 0.29285,-0.83832 0.20603,-0.50061 0.36318,-1.08098 -0.006,0.0462 -0.0276,0.18436 -0.0184,0.13867 0.12679,-0.62407 0.25582,-1.24727 0.53411,-1.82667 -0.0254,0.0835 -0.10316,0.3336 -0.0763,0.25054 0.15513,-0.47949 0.31381,-0.87666 0.45797,-1.29903 0.0395,-0.10355 0.38538,-1.05128 0.29036,-0.70205 0.0373,-0.17241 0.36049,-1.40941 0.10815,-0.17633 -0.0447,0.2186 0.0849,-0.91443 0.056,-0.66702 0.0905,-0.60684 0.22949,-1.20314 0.43523,-1.78198 -0.0808,0.43547 0.0712,-0.28257 0.093,-0.36984 0.0134,-0.0538 0.0296,-0.21594 0.0398,-0.16146 0.0147,0.0784 -0.0352,0.31713 -0.0255,0.23796 0.0153,-0.12424 0.028,-0.24877 0.0421,-0.37316 0.0541,-0.33158 0.11618,-0.65347 0.19811,-0.9795 0.0143,-0.057 -0.003,-0.20137 0.0471,-0.17002 0.18546,0.11689 -0.67292,0.69063 -0.0577,0.65513 5e-5,-0.37366 9e-5,-0.74733 5.3e-4,-1.12099 5.3e-4,-0.2654 0.002,-0.53079 0.002,-0.79618 -9e-5,-0.0347 -0.0124,-0.50008 0.004,-0.35136 0.0566,0.26292 0.39537,1.06464 -0.004,0.13104 -0.23222,-0.7832 -0.22845,-0.77199 -0.37449,-1.34864 -0.0451,-0.18972 -0.31327,-1.72012 -0.14797,-1.04205 -0.0647,-0.32227 -0.43153,-1.26504 -0.32022,-1.79346 0,-0.33267 0,-0.66536 1.6e-4,-0.99804 2.3e-4,-0.37575 7.9e-4,-0.75151 0.002,-1.12726 8e-4,-0.35244 0.003,-0.70491 -0.002,-1.05734 -0.003,-0.12402 -0.01,-0.28553 -0.0101,-0.38835 -0.0209,-0.15039 -0.37073,-1.2508 -0.2543,-1.0344 0.27753,0.71391 -0.56592,-1.46118 -0.0792,-0.25151 0.0416,0.0703 0.1683,0.28017 0.1248,0.21099 -0.21496,-0.34186 -0.20306,-0.35022 -0.4184,-0.7843 -0.006,-0.0114 0.0114,0.0229 0.0174,0.0341 0.0838,0.15457 0.0682,0.11676 0.2149,0.33884 -0.0576,-0.082 -0.2267,-0.32067 -0.2661,-0.38857 -0.0281,-0.0485 0.0632,0.0929 0.0996,0.13556 0.0845,0.0989 0.19957,0.17476 0.26274,0.28843 0.14547,0.26174 -0.98031,-1.17911 -0.59222,-0.67546 0.80617,0.90471 -0.30989,-0.3009 -0.42161,-0.43083 -0.39961,-0.47966 -0.77506,-0.98287 -1.04746,-1.54777 -0.87531,-1.74575 0.28631,0.61338 -0.55128,-1.12546 -0.0642,-0.13325 0.1331,0.26415 0.19965,0.39623 0.0593,0.0884 0.25445,0.34151 0.19073,0.25622 -0.4389,-0.5875 -0.14433,-0.148 -0.62745,-0.94696 -0.0321,-0.0531 0.12837,0.21264 0.0963,0.15946 -0.0464,-0.0769 -0.0928,-0.1538 -0.13926,-0.23071 -0.0647,-0.11806 -0.1306,-0.2355 -0.19418,-0.35418 -0.0468,-0.0873 0.23354,0.3192 0.16609,0.24659 -0.13966,-0.15031 -0.22664,-0.36672 -0.3523,-0.52354 0.19308,0.23684 -0.0317,-0.0355 -0.30369,-0.45486 -0.0653,-0.10073 0.14199,0.19371 0.20904,0.2933 0.056,0.0832 -0.27279,-0.28485 -0.18406,-0.23807 0.0538,0.0284 0.0808,0.091 0.12125,0.13652 0.0972,0.0878 0.41098,0.20996 0.29145,0.26345 -0.12085,0.0541 -0.20567,-0.16729 -0.30098,-0.25919 -0.15172,-0.14627 -0.29313,-0.30285 -0.43937,-0.4546 -0.0287,-0.0298 0.11321,0.12054 0.0868,0.0887 -0.14914,-0.17935 -0.30368,-0.35413 -0.45504,-0.53161 -0.0127,-0.0149 0.0261,0.0293 0.0391,0.0439 0.43448,0.44498 -0.10908,-0.11135 -0.10482,-0.10918 0.81792,0.41478 0.10275,0.23666 0.4844,0.37743 0.0535,0.0216 0.10293,0.0679 0.16059,0.0649 0.0776,-0.004 -0.42689,-0.13613 -0.33182,-0.13568 0.0883,4.2e-4 0.33991,0.0954 0.25508,0.0711 -0.61292,-0.17629 -0.2647,-0.0635 -0.77614,-0.23896 -0.0463,-0.0192 -0.78012,-0.1678 -0.85429,-0.27652 -0.0102,-0.0149 0.0359,0.004 0.0538,0.007 -0.38277,-0.10318 -0.74787,-0.21215 -1.11449,-0.36244 -0.0721,-0.0296 -0.24319,-0.0157 -0.21626,-0.0889 0.027,-0.0733 0.15014,0.043 0.22502,0.0651 0.0483,0.0143 -0.0969,-0.0277 -0.14533,-0.0415 -0.0424,-0.0118 -0.1711,-0.0316 -0.12724,-0.0354 0.0764,-0.007 0.30456,0.0357 0.22845,0.0265 -0.40898,-0.0493 -0.81808,-0.0996 -1.22203,-0.18217 -0.0186,-0.005 -0.0747,-0.012 -0.0557,-0.0157 0.0556,-0.0109 0.22636,-0.002 0.16989,-0.007 -0.24799,-0.0213 -0.50091,0.0148 -0.74945,-5e-5 -0.27567,-9e-5 -0.55134,-2.5e-4 -0.82701,-8.2e-4 -0.36431,-7.9e-4 -0.72862,-0.002 -1.09293,-4e-4 -0.32357,0.002 -0.64718,0.005 -0.97048,0.0189 -0.55211,0.0109 -1.09647,0.3816 -1.66597,0.26073 -0.46126,0.001 -0.92273,0.004 -1.38356,0.0256 -0.53162,0.0312 -1.05969,0.0934 -1.58423,0.18677 -0.53925,0.0491 -1.07234,0.0805 -1.6132,0.0811 -0.23158,0.01 -0.46093,0.036 -0.68594,0.0954 -0.596087,0.12468 -1.199316,0.1932 -1.808551,0.17296 -0.01437,2.4e-4 -0.05607,0.007 -0.04306,7.4e-4 0.04794,-0.0224 0.105357,-0.0126 0.156639,-0.0256 0.152349,-0.0386 0.307718,-0.0686 0.455184,-0.12298 0.298629,-0.1101 0.816158,-0.39132 0.363886,-0.14991 -0.572756,0.28015 -1.113361,0.43082 -1.741868,0.56843 -0.0026,5.8e-4 0.0048,-0.002 0.0071,-0.004 0.02968,-0.007 0.05937,-0.0149 0.08906,-0.0224 -0.441087,0.0697 -0.864582,0.32203 -1.308442,0.40129 -0.685292,0.1706 -1.358201,0.38778 -2.046261,0.54849 -0.368514,-0.0171 -0.926197,0.36905 -1.270984,0.42536 0.03998,-0.0169 0.08445,-0.0257 0.119928,-0.0507 0.0016,-0.001 -0.187952,0.0761 -0.200676,0.0814 -0.227319,0.0939 -0.442778,0.19477 -0.675629,0.26586 -0.545796,0.13749 -1.080233,0.56728 -1.61371,0.75879 -0.384905,0.17464 -0.839343,0.39653 -1.155729,0.54423 -0.468903,0.2501 -0.946682,0.48261 -1.428999,0.70532 -0.365141,0.17046 -0.756256,0.34237 -1.035814,0.48751 -0.455843,0.25546 -0.739577,0.43722 -1.18127,0.72399 -0.09129,0.0673 -0.182052,0.13528 -0.273865,0.20184 -0.03828,0.0277 -0.141808,0.12094 -0.116379,0.0811 0.03744,-0.0587 0.205348,-0.18808 0.154389,-0.14065 -0.198368,0.18462 -0.401256,0.36444 -0.606779,0.54104 -0.506106,0.43345 -1.00402,0.87131 -1.504003,1.31153 -0.390149,0.28568 -0.759873,0.60247 -1.153731,0.89006 -0.423752,0.33779 -0.328039,0.24093 -0.748269,0.61776 -0.316383,0.31472 -0.734044,0.74303 -1.152562,1.04726 -0.537212,0.43413 -1.095266,0.837 -1.674368,1.21375 -0.422298,0.27923 -0.850053,0.55398 -1.242655,0.87143 -0.190952,0.14962 -0.06896,0.0641 0.01984,-0.0587 0.02843,-0.0393 -0.06609,0.071 -0.09856,0.10709 -0.124513,0.13822 -0.238998,0.28496 -0.360974,0.42538 -0.453461,0.51928 -0.953825,0.9885 -1.451435,1.46531 -0.08217,0.0698 -0.904872,1.01252 -0.392666,0.33867 0.03614,-0.0476 -0.06969,0.097 -0.104536,0.14554 -0.363493,0.51202 -0.233191,0.33224 -0.654892,0.96407 -0.247827,0.33824 -0.250147,0.33758 -0.490392,0.6652 -0.242985,0.39126 -0.506666,0.76726 -0.809466,1.11486 -0.10182,0.13092 -0.257117,0.41324 -0.377447,0.50332 -0.05814,0.0435 0.145759,-0.25124 0.107254,-0.18966 -0.131931,0.21102 -0.165798,0.32844 -0.08602,0.10452 -0.214357,0.492 -0.398727,0.98811 -0.509545,1.51943 -1.469506,5.14328 -8.743196,3.06508 -7.273689,-2.0782 z"
         id="path1109"
         style="opacity:1;fill:#e65679;fill-opacity:1;fill-rule:nonzero;stroke:none;stroke-width:0.26458332;stroke-opacity:1" />
      <path
         inkscape:connector-curvature="0"
         d="m 28.03725,181.19674 c 0.176472,-0.27298 0.365474,-0.53793 0.541009,-0.81151 0.02098,-0.0327 0.07317,-0.13689 0.05845,-0.10091 -0.05812,0.14204 -0.23617,0.27383 -0.188955,0.41986 0.233571,0.72239 0.658807,1.36807 0.988213,2.0521 0.313799,0.0487 0.639911,0.0464 0.941401,0.14617 0.05885,0.0195 -0.09112,0.0853 -0.144013,0.11763 -0.256968,0.15698 -0.522528,0.29943 -0.783796,0.44914 -1.697866,0.97291 -3.380982,1.96918 -5.063834,2.96785 -3.729213,2.26628 -7.546553,4.41288 -11.050875,7.02324 -2.067382,1.53592 -4.2395064,-1.38779 -2.172124,-2.92372 v 0 c 3.611636,-2.67682 7.519854,-4.91141 11.364214,-7.2318 1.700173,-1.00891 3.399755,-2.01726 5.116168,-2.99832 0.192805,-0.1102 1.453111,-0.85796 1.7344,-0.90638 0.481375,-0.0829 0.976905,-0.002 1.465357,-0.003 0.384985,0.70731 0.902095,1.35736 1.154957,2.12192 0.103132,0.31185 -0.750313,1.39392 -0.930003,1.69852 -1.428623,2.14293 -4.459189,0.12256 -3.030566,-2.02038 z"
         id="path1111"
         style="opacity:1;fill:#e65679;fill-opacity:1;fill-rule:nonzero;stroke:none;stroke-width:0.26458332;stroke-opacity:1" />
      <path
         inkscape:connector-curvature="0"
         d="m 38.437113,183.29691 c -1.579025,0.7078 -3.096972,1.53078 -4.612915,2.3634 -5.223703,2.8109 -10.386739,5.73117 -15.506709,8.72626 -2.464223,1.4392 -4.865783,2.9747 -7.134822,4.70512 -2.0501659,1.55883 -4.2546835,-1.34054 -2.2045175,-2.89937 v 0 c 2.3905765,-1.8128 4.9057435,-3.44154 7.5002765,-4.94965 5.148463,-3.01155 10.339949,-5.94836 15.592585,-8.77495 1.556914,-0.85482 3.116289,-1.70046 4.737221,-2.42857 2.303584,-1.1518 3.932465,2.10597 1.628881,3.25776 z"
         id="path1113"
         style="opacity:1;fill:#e65679;fill-opacity:1;fill-rule:nonzero;stroke:none;stroke-width:0.26458332;stroke-opacity:1" />
      <path
         inkscape:connector-curvature="0"
         d="m 40.328733,185.45839 c -2.138029,1.42048 -4.348583,2.72797 -6.536981,4.06856 -4.399256,2.67696 -8.847676,5.27443 -13.169639,8.07574 -1.622486,1.00938 -3.111511,2.17745 -4.475774,3.50967 -1.849707,1.79213 -4.384156,-0.82375 -2.534449,-2.61588 v 0 c 1.543631,-1.48603 3.203824,-2.8188 5.029626,-3.95051 4.34857,-2.81678 8.820948,-5.4338 13.247633,-8.12488 2.11536,-1.29583 4.250661,-2.56164 6.322547,-3.92655 2.095759,-1.49697 4.212796,1.46688 2.117037,2.96385 z"
         id="path1115"
         style="opacity:1;fill:#e65679;fill-opacity:1;fill-rule:nonzero;stroke:none;stroke-width:0.26458332;stroke-opacity:1" />
      <path
         inkscape:connector-curvature="0"
         d="m 46.213082,186.86777 c -2.654226,1.80122 -5.180356,3.7778 -7.702404,5.75713 -3.643387,2.87626 -7.272637,5.76944 -10.801009,8.7863 -1.418287,1.20275 -2.789069,2.4547 -4.076332,3.79634 -1.785846,1.85577 -4.410302,-0.6698 -2.624456,-2.52557 v 0 c 1.372945,-1.423 2.823042,-2.76282 4.334026,-4.0393 3.567582,-3.04937 7.235342,-5.97592 10.91922,-8.88313 2.542969,-1.99537 5.088501,-3.99094 7.765582,-5.8056 2.060389,-1.54529 4.245763,1.36854 2.185373,2.91383 z"
         id="path1117"
         style="opacity:1;fill:#e65679;fill-opacity:1;fill-rule:nonzero;stroke:none;stroke-width:0.26458332;stroke-opacity:1" />
      <path
         inkscape:connector-curvature="0"
         d="m 49.739359,189.44772 c -3.080123,2.05352 -6.171155,4.09118 -9.253998,6.14085 -5.31096,3.49481 -10.632564,6.97476 -15.821157,10.64993 -3.196518,2.36173 -6.272274,4.9114 -8.918681,7.88537 -0.514398,0.55216 -0.943834,1.15712 -1.295229,1.82108 -1.252311,2.25052 -4.435029,0.47948 -3.182717,-1.77104 v 0 c 0.505933,-0.88475 1.058137,-1.732 1.762458,-2.47746 2.841686,-3.16649 6.099965,-5.91869 9.529211,-8.43039 5.218527,-3.69474 10.56787,-7.19738 15.90954,-10.71059 3.081589,-2.0488 6.171512,-4.08537 9.250196,-6.13831 2.142932,-1.42863 4.163311,1.60194 2.020377,3.03056 z"
         id="path1119"
         style="opacity:1;fill:#e65679;fill-opacity:1;fill-rule:nonzero;stroke:none;stroke-width:0.26458332;stroke-opacity:1" />
      <path
         inkscape:connector-curvature="0"
         d="m 52.445911,191.42201 c -1.28116,0.61582 -2.350415,1.57759 -3.417006,2.49852 -2.305764,2.00032 -4.622998,3.98752 -6.944632,5.96944 -2.99061,2.58173 -5.973451,5.17153 -9.08925,7.60223 -2.423483,1.92901 -4.993317,3.66076 -7.524678,5.44233 -1.030457,0.72814 -2.072305,1.44315 -3.066117,2.22161 -0.49907,0.39092 -0.984454,0.76378 -1.329847,1.29801 -1.541071,2.06355 -4.459369,-0.11585 -2.918298,-2.1794 v 0 c 0.18101,-0.23035 0.346056,-0.47419 0.543029,-0.69104 1.329664,-1.46389 3.124873,-2.43281 4.674946,-3.62774 2.482806,-1.74735 5.004285,-3.44458 7.381505,-5.33624 3.074789,-2.39559 6.012368,-4.95562 8.963901,-7.49995 2.317324,-1.9782 4.63024,-3.96169 6.931668,-5.95832 1.296937,-1.1158 2.60945,-2.2538 4.165899,-2.99721 2.303584,-1.15179 3.932465,2.10597 1.62888,3.25776 z"
         id="path1121"
         style="opacity:1;fill:#e65679;fill-opacity:1;fill-rule:nonzero;stroke:none;stroke-width:0.26458332;stroke-opacity:1" />
      <path
         inkscape:connector-curvature="0"
         d="m 56.732288,193.92607 c -1.724474,1.24621 -3.416453,2.53637 -5.130789,3.79655 -3.323653,2.45065 -6.493264,5.09984 -9.64692,7.76298 -2.188056,1.76513 -4.224798,3.70277 -6.22835,5.67126 -1.608375,1.51825 -3.149137,3.10588 -4.699576,4.68266 -1.167189,1.16177 -2.266461,2.3876 -3.470749,3.51166 -0.737767,0.65546 -1.400579,1.36912 -2.006868,2.14332 -0.105037,0.18106 -0.08192,0.13989 0.07476,-0.12029 -0.849264,2.43143 -4.287834,1.23039 -3.43857,-1.20104 v 0 c 0.314577,-0.69982 0.139181,-0.39672 0.497121,-0.92552 0.724931,-0.92403 1.516551,-1.77861 2.393226,-2.56372 1.168955,-1.08209 2.218636,-2.28158 3.353992,-3.39811 1.56517,-1.59176 3.120814,-3.19425 4.744167,-4.72723 2.068968,-2.03229 4.173189,-4.03164 6.430958,-5.85584 3.216296,-2.71576 6.449642,-5.41628 9.839621,-7.91489 1.78789,-1.31413 3.546932,-2.66783 5.357569,-3.95044 2.184008,-1.36501 4.114416,1.72364 1.93041,3.08865 z"
         id="path1123"
         style="opacity:1;fill:#e65679;fill-opacity:1;fill-rule:nonzero;stroke:none;stroke-width:0.26458332;stroke-opacity:1" />
      <path
         inkscape:connector-curvature="0"
         d="m 59.396775,197.31177 c -2.03512,1.65369 -4.050853,3.33188 -6.058159,5.0197 -3.679767,3.127 -7.211002,6.41966 -10.677864,9.77921 -2.704507,2.61437 -5.290354,5.34766 -7.855588,8.09766 -1.339312,1.43633 -2.693669,2.85494 -3.924741,4.38606 -0.339879,0.48233 -0.189072,0.25483 -0.457804,0.67891 -1.392367,2.16666 -4.456495,0.19756 -3.064126,-1.96911 v 0 c 0.408125,-0.62928 0.182248,-0.29672 0.684239,-0.99317 1.28792,-1.59944 2.696567,-3.08848 4.099179,-4.58731 2.607358,-2.79446 5.235403,-5.57211 7.984241,-8.22877 3.52856,-3.41888 7.122959,-6.76941 10.868446,-9.95128 1.926992,-1.62019 3.84892,-3.2495 5.826691,-4.80738 1.821143,-1.82115 4.396631,0.75434 2.575486,2.57548 z"
         id="path1125"
         style="opacity:1;fill:#e65679;fill-opacity:1;fill-rule:nonzero;stroke:none;stroke-width:0.26458332;stroke-opacity:1" />
      <path
         inkscape:connector-curvature="0"
         d="m 66.370281,198.06615 c -2.130798,1.28864 -4.130881,2.77691 -6.121326,4.2688 -3.946961,2.96943 -7.665045,6.22206 -11.338835,9.51847 -3.190623,2.83435 -6.296675,5.76108 -9.366649,8.72501 -2.108356,1.95959 -4.03646,4.09436 -5.97956,6.21392 -1.687366,1.83084 -3.216304,3.79757 -4.751633,5.75512 -1.178526,1.50278 -2.296906,3.05074 -3.407117,4.60434 -0.525299,0.72851 -0.274636,0.38202 -0.751692,1.03968 -1.512278,2.08474 -4.460547,-0.0539 -2.948269,-2.13868 v 0 c 0.468079,-0.64525 0.222358,-0.30562 0.736882,-1.01911 1.142109,-1.59723 2.292266,-3.18898 3.504342,-4.73415 1.593079,-2.03084 3.181354,-4.06962 4.93267,-5.96851 1.993138,-2.17413 3.973187,-4.36175 6.134582,-6.37299 3.101988,-2.99466 6.240433,-5.95173 9.464101,-8.81571 3.7539,-3.36761 7.55406,-6.68926 11.587313,-9.72235 2.044335,-1.53095 4.097462,-3.06056 6.284814,-4.38441 2.142935,-1.42862 4.163312,1.60195 2.020377,3.03057 z"
         id="path1127"
         style="opacity:1;fill:#e65679;fill-opacity:1;fill-rule:nonzero;stroke:none;stroke-width:0.26458332;stroke-opacity:1" />
      <path
         inkscape:connector-curvature="0"
         d="m 68.207016,201.06536 c -1.600097,1.6023 -3.19142,3.21282 -4.807696,4.7989 -3.647517,3.47778 -7.371612,6.87408 -11.023396,10.34742 -2.812706,2.69255 -5.62351,5.38979 -8.383598,8.13653 -1.920748,1.8883 -3.811289,3.80926 -5.656704,5.77139 -1.295998,1.28428 -2.498665,2.65343 -3.620151,4.09111 -0.456327,0.66328 -0.945431,1.30723 -1.340321,2.01025 -0.175109,0.35047 -0.286094,0.7214 -0.479769,1.06638 -0.01971,0.0349 -0.03941,0.0699 -0.05911,0.1048 -1.265269,2.24326 -4.437721,0.4539 -3.172449,-1.78936 v 0 c 0.01855,-0.0329 0.03712,-0.0658 0.05568,-0.0987 0.02069,-0.0368 0.06943,-0.1521 0.06206,-0.1105 -0.01407,0.0795 -0.0199,0.27839 -0.08282,0.22773 -0.06381,-0.0514 0.04791,-0.15674 0.07494,-0.23408 0.118496,-0.33908 0.261887,-0.66966 0.443074,-0.98033 0.491733,-0.84534 1.056,-1.64417 1.627449,-2.43718 1.191091,-1.52528 2.464597,-2.98166 3.838769,-4.34605 1.87372,-1.99053 3.790775,-3.94154 5.740508,-5.85756 2.780302,-2.76518 5.609286,-5.48284 8.442349,-8.19367 3.638383,-3.46001 7.347217,-6.84491 10.982594,-10.30801 1.686746,-1.65472 3.334377,-3.34864 5.026848,-4.99713 1.978544,-1.64879 4.31028,1.14929 2.331736,2.79808 z"
         id="path1129"
         style="opacity:1;fill:#e65679;fill-opacity:1;fill-rule:nonzero;stroke:none;stroke-width:0.26458332;stroke-opacity:1" />
      <path
         inkscape:connector-curvature="0"
         d="m 72.759228,200.79186 c -1.587818,2.18419 -3.407212,4.19226 -5.211104,6.19789 -3.007122,3.21782 -6.106562,6.34713 -9.109429,9.5688 -2.615436,2.86169 -5.284737,5.67168 -8.081068,8.35732 -1.835105,1.78632 -3.72223,3.51781 -5.571615,5.28927 -1.328719,1.30184 -2.595832,2.65846 -3.760107,4.10884 -0.486852,0.79226 -1.07455,1.53146 -1.502794,2.35853 -0.115067,0.38274 -0.301622,0.74598 -0.37901,1.13983 -0.07436,0.29042 -0.175861,0.5723 -0.27871,0.85343 -0.88982,2.41689 -4.307816,1.15849 -3.417995,-1.25839 v 0 c 0.05279,-0.142 0.104655,-0.28433 0.151074,-0.42857 0.1724,-0.69645 0.428286,-1.37265 0.715484,-2.02896 0.5544,-1.01371 1.227063,-1.96051 1.872577,-2.91715 1.26445,-1.57252 2.636769,-3.04729 4.080074,-4.45793 1.84849,-1.77043 3.734295,-3.50132 5.568656,-5.28643 2.748997,-2.63769 5.368219,-5.40244 7.939217,-8.21338 2.988614,-3.20557 6.070703,-6.32169 9.065869,-9.52123 1.713076,-1.90371 3.444073,-3.808 4.955029,-5.8789 1.496973,-2.09576 4.460825,0.0213 2.963852,2.11703 z"
         id="path1131"
         style="opacity:1;fill:#e65679;fill-opacity:1;fill-rule:nonzero;stroke:none;stroke-width:0.26458332;stroke-opacity:1" />
      <path
         inkscape:connector-curvature="0"
         d="m 101.25212,183.28274 c -0.86466,0.56322 -1.774299,1.04833 -2.664752,1.56783 -0.976939,0.56237 -1.892924,1.2234 -2.809322,1.87825 -1.731785,1.2995 -3.382878,2.70251 -5.007671,4.13225 -1.801211,1.63143 -3.451473,3.41478 -5.103653,5.19355 -1.729137,1.81361 -3.549415,3.53558 -5.412595,5.20998 -1.86092,1.65888 -3.767209,3.26531 -5.560785,4.99796 -1.539613,1.50265 -2.861331,3.19538 -4.075361,4.96567 -1.343967,2.0019 -2.852867,3.88214 -4.434554,5.69919 -1.487495,1.71529 -3.031974,3.37766 -4.462825,5.14129 -1.352671,1.57563 -2.65971,3.18935 -3.979505,4.79238 -1.271151,1.4969 -2.540574,2.99538 -3.780748,4.51811 -1.173543,1.43874 -2.317083,2.89891 -3.560569,4.27842 -1.215102,1.35096 -2.491446,2.64516 -3.734914,3.97027 -0.859938,0.91497 -1.613508,1.92083 -2.438508,2.86494 -0.757365,0.85522 -1.648886,1.57208 -2.504731,2.32357 -0.585846,0.51551 -1.156774,1.0474 -1.716982,1.59055 -0.373409,0.49684 -0.776798,0.96663 -1.216247,1.40563 -0.188831,0.20403 -0.377637,0.41278 -0.537205,0.64177 -0.08735,0.12535 -0.111607,0.1396 -0.05003,0.0922 -0.22335,0.33884 -0.304017,0.48355 -0.506103,0.79994 -1.50894,2.08716 -4.460626,-0.0468 -2.951686,-2.13396 v 0 c -0.270534,0.46885 0.161941,-0.3378 0.233976,-0.36106 0.345771,-0.60753 0.779341,-1.15614 1.273345,-1.65161 0.463409,-0.41554 0.777597,-0.97085 1.219052,-1.40836 0.603371,-0.5846 1.218019,-1.15735 1.84891,-1.71226 0.739408,-0.64903 1.513261,-1.26406 2.175418,-1.99492 0.859687,-0.96286 1.616578,-2.01778 2.514785,-2.9488 1.227362,-1.30794 2.4873,-2.58525 3.687064,-3.91828 1.204111,-1.33224 2.302724,-2.7501 3.440615,-4.13856 1.244582,-1.52725 2.516622,-3.03176 3.792717,-4.53273 1.314654,-1.59665 2.616023,-3.20446 3.963961,-4.77336 1.458961,-1.79493 3.025868,-3.49325 4.543899,-5.23767 1.49197,-1.71114 2.913647,-3.48328 4.179551,-5.37027 1.356538,-1.96847 2.830283,-3.85288 4.547923,-5.52348 1.827014,-1.76018 3.758952,-3.40233 5.655546,-5.08618 1.782278,-1.60025 3.522554,-3.24691 5.177895,-4.97916 1.735503,-1.86846 3.471778,-3.73926 5.366822,-5.44968 1.717477,-1.50999 3.462327,-2.99247 5.295799,-4.36094 1.008536,-0.72045 2.019618,-1.44359 3.094593,-2.0626 0.899952,-0.52271 1.81546,-1.01596 2.689794,-1.58227 2.236141,-1.2778 4.043221,1.88459 1.807081,3.16239 z"
         id="path1133"
         style="opacity:1;fill:#e65679;fill-opacity:1;fill-rule:nonzero;stroke:none;stroke-width:0.26458332;stroke-opacity:1" />
      <path
         inkscape:connector-curvature="0"
         d="m 41.185337,234.295 c -0.950047,0.78209 -1.778359,1.67637 -2.532062,2.6455 -0.573937,0.75041 -1.002231,1.57228 -1.34598,2.44709 -0.967378,2.3869 -4.342969,1.01882 -3.375592,-1.36808 v 0 c 0.488445,-1.18099 1.063758,-2.3089 1.852872,-3.3233 0.848387,-1.07924 1.757865,-2.10605 2.825277,-2.9767 1.821143,-1.82114 4.396628,0.75435 2.575485,2.57549 z"
         id="path1135"
         style="opacity:1;fill:#e65679;fill-opacity:1;fill-rule:nonzero;stroke:none;stroke-width:0.26458332;stroke-opacity:1" />
      <path
         inkscape:connector-curvature="0"
         d="m 109.32163,181.0555 c -0.92188,0.62536 -1.77754,1.34163 -2.63226,2.05513 -1.72675,1.38925 -3.33571,2.91369 -4.97006,4.40791 -2.031606,1.77193 -4.089792,3.51123 -6.103731,5.30349 -1.850033,1.63427 -3.635457,3.33756 -5.434296,5.02705 -1.466014,1.34615 -2.905709,2.71958 -4.357843,4.08043 -1.208937,1.15764 -2.375538,2.35735 -3.456091,3.63595 -1.022911,1.24873 -2.069856,2.47338 -3.15482,3.66832 -1.177023,1.25844 -2.337454,2.53135 -3.49482,3.80784 -1.135875,1.28682 -2.274996,2.56852 -3.397338,3.8674 -1.035547,1.31954 -2.034556,2.66752 -3.137312,3.93215 -1.209421,1.43594 -2.608215,2.68939 -3.996772,3.94615 -1.216891,1.09395 -2.395667,2.2289 -3.564819,3.37337 -1.071607,1.10529 -2.104906,2.24634 -3.077845,3.43943 -0.949357,1.16659 -1.84545,2.37466 -2.796706,3.53981 -1.116669,1.34331 -2.296933,2.63154 -3.479597,3.91667 -1.066366,1.06436 -2.043403,2.19713 -2.937105,3.4082 -0.547931,0.74503 -1.117637,1.47645 -1.628222,2.24812 -0.393867,0.70198 -0.874723,1.34777 -1.332934,2.00775 -0.316738,0.38416 -0.536874,0.82589 -0.775549,1.25439 -0.206946,0.42135 -0.46392,0.80731 -0.761349,1.16966 -0.147976,0.23702 -0.362323,0.43807 -0.480505,0.68766 -0.120657,0.23958 -0.294343,0.45236 -0.439515,0.67901 0.01331,0.11884 0.191918,-0.42295 0.212982,-0.56141 -0.141856,2.57158 -3.778615,2.37096 -3.636759,-0.20061 v 0 c 0.0339,-0.42797 0.109863,-0.84556 0.362493,-1.2115 0.125946,-0.19471 0.383516,-0.7329 0.339076,-0.4878 -0.0043,0.0238 -0.309562,0.54523 -0.04574,0.0565 0.261641,-0.4732 0.587301,-0.90229 0.919152,-1.32826 0.0776,-0.0672 0.289097,-0.45585 0.399095,-0.66407 0.234635,-0.45316 0.564795,-1.01928 0.914834,-1.47094 0.446751,-0.64334 0.913643,-1.27299 1.298334,-1.95702 0.548997,-0.8134 1.136878,-1.59985 1.724784,-2.38537 0.972286,-1.31542 2.029638,-2.55295 3.186938,-3.71086 1.134449,-1.23248 2.267323,-2.46718 3.339195,-3.75482 0.95231,-1.16425 1.844763,-2.37527 2.796699,-3.5398 1.060482,-1.29546 2.180534,-2.53984 3.350456,-3.73763 1.203142,-1.1776 2.416389,-2.34518 3.668493,-3.47096 1.28433,-1.16239 2.583934,-2.31612 3.701208,-3.64576 1.103688,-1.2527 2.074905,-2.61331 3.121073,-3.91349 1.141325,-1.32076 2.300332,-2.62362 3.454971,-3.9325 1.157962,-1.27708 2.318843,-2.55076 3.496522,-3.80972 1.057029,-1.16417 2.075987,-2.35803 3.072659,-3.57465 1.174168,-1.38235 2.431738,-2.68825 3.744862,-3.93947 1.451705,-1.35912 2.889435,-2.73255 4.354624,-4.07741 1.8229,-1.71121 3.63161,-3.43713 5.506111,-5.09269 2.00183,-1.78147 4.045971,-3.51221 6.067576,-5.27088 1.675171,-1.53123 3.325181,-3.09241 5.094531,-4.51662 1.06983,-0.89174 2.1374,-1.79932 3.33644,-2.51591 2.30359,-1.15179 3.93247,2.10597 1.62888,3.25776 z"
         id="path1137"
         style="opacity:1;fill:#e65679;fill-opacity:1;fill-rule:nonzero;stroke:none;stroke-width:0.26458332;stroke-opacity:1" />
      <path
         inkscape:connector-curvature="0"
         d="m 114.03109,182.46245 c -0.68392,0.80415 -1.39654,1.58242 -2.12133,2.34969 -1.17917,1.24894 -2.39419,2.46001 -3.67193,3.60782 -1.87677,1.65725 -3.85403,3.19495 -5.75684,4.82212 -1.78334,1.54541 -3.318195,3.34482 -4.767236,5.19967 -1.544934,1.9646 -3.260479,3.78354 -4.993206,5.58122 -1.835571,1.8647 -3.76028,3.63835 -5.611151,5.48721 -1.570339,1.58227 -3.048974,3.25223 -4.521592,4.92481 -1.41578,1.57605 -2.846475,3.13893 -4.280566,4.69844 -1.460627,1.5791 -2.931385,3.15077 -4.319366,4.79464 -1.217874,1.52699 -2.551554,2.94903 -3.907501,4.35187 -1.314403,1.34304 -2.744544,2.56306 -4.137366,3.82224 -1.241902,1.18141 -2.527507,2.3133 -3.830307,3.42661 -1.240724,1.10432 -2.506946,2.18319 -3.710371,3.32835 -1.022395,0.99542 -1.868906,2.14374 -2.766576,3.24656 -0.759166,0.98194 -1.586786,1.90797 -2.352434,2.88424 -0.621983,0.82254 -1.289135,1.60862 -1.929816,2.41627 -0.480152,0.51773 -0.865624,1.09187 -1.228606,1.69304 -0.282744,0.42182 -0.490444,0.88464 -0.743135,1.32503 -0.224118,0.45939 -0.446944,0.92299 -0.614489,1.40659 -0.09585,0.46776 -0.219612,0.9286 -0.330777,1.39314 -0.06154,0.37252 -0.317,0.70657 -0.394322,1.06616 -0.167166,0.54711 -0.471133,1.03174 -0.789964,1.50095 -0.254738,0.26654 -0.474771,0.78633 -0.831363,0.93842 -0.423801,0.18076 -0.885227,0.25593 -1.32784,0.38389 -2.568692,-0.18696 -2.304291,-3.81963 0.2644,-3.63267 v 0 c -0.399237,0.13112 -0.811355,0.2281 -1.197715,0.39336 -0.08346,0.0357 -0.120039,0.13658 -0.186307,0.19862 -0.07281,0.0682 0.281062,-0.31566 0.189283,-0.2317 0.02691,-0.0342 0.05382,-0.0684 0.08073,-0.10255 0.07801,-0.11368 0.181443,-0.33842 0.274124,-0.4292 0.03172,-0.0311 -0.06397,0.16557 -0.04563,0.12514 0.07773,-0.1714 0.103089,-0.29802 0.05641,-0.10288 0.09358,-0.32993 0.217832,-0.68355 0.369769,-0.97114 0.145605,-0.58931 0.278915,-1.17966 0.4426,-1.7643 0.252024,-0.68538 0.547732,-1.35655 0.891471,-2.00108 0.270044,-0.45428 0.472824,-0.94458 0.775515,-1.37967 0.442553,-0.73169 0.918104,-1.43598 1.492374,-2.07277 0.637816,-0.804 1.301719,-1.58669 1.921161,-2.40531 0.78214,-0.99084 1.617639,-1.93786 2.392847,-2.93466 0.998537,-1.21939 1.937215,-2.4925 3.081303,-3.58569 1.252442,-1.18538 2.560161,-2.31209 3.851135,-3.45512 1.277109,-1.09133 2.536885,-2.20124 3.754067,-3.3596 1.332275,-1.2042 2.700737,-2.37033 3.960987,-3.65166 1.299723,-1.34459 2.579166,-2.70634 3.744637,-4.17173 1.422479,-1.68123 2.923326,-3.29396 4.420121,-4.90891 1.416399,-1.54005 2.829176,-3.08369 4.227809,-4.6398 1.524241,-1.73121 3.05589,-3.45863 4.682029,-5.09563 1.83555,-1.83131 3.740174,-3.59206 5.562185,-5.43738 1.64633,-1.70752 3.278648,-3.43323 4.747535,-5.29864 1.602097,-2.04241 3.297312,-4.02325 5.268414,-5.72292 1.88141,-1.60786 3.83354,-3.13062 5.69174,-4.76513 1.20499,-1.0787 2.3447,-2.22338 3.45645,-3.39786 0.74879,-0.79212 1.47532,-1.60341 2.19315,-2.42359 1.82115,-1.82114 4.39663,0.75434 2.57549,2.57549 z"
         id="path1139"
         style="opacity:1;fill:#e65679;fill-opacity:1;fill-rule:nonzero;stroke:none;stroke-width:0.26458332;stroke-opacity:1" />
      <path
         inkscape:connector-curvature="0"
         d="m 117.09695,185.73856 c -1.0995,0.97038 -2.1661,1.97942 -3.15922,3.05848 -1.97211,2.27971 -4.00189,4.50532 -6.07449,6.69397 -2.49592,2.6104 -5.02274,5.19075 -7.62698,7.69324 -1.78775,1.67651 -3.523245,3.40771 -5.306045,5.0892 -1.644583,1.46403 -3.172256,3.04538 -4.658113,4.66775 -1.422308,1.65278 -2.879318,3.27406 -4.373404,4.86211 -1.379667,1.50223 -2.91927,2.84085 -4.444638,4.19005 -1.231762,1.0852 -2.415503,2.22272 -3.588874,3.37024 -1.069663,1.12811 -2.04625,2.33966 -3.083301,3.49787 -1.004813,1.076 -2.016482,2.14547 -2.915936,3.31248 -0.832577,1.0963 -1.649057,2.20519 -2.458929,3.31842 -0.847431,1.16641 -1.735939,2.301 -2.636033,3.427 -0.913013,1.14862 -1.926558,2.21056 -2.946812,3.26303 -0.940189,1.01552 -1.840707,2.06646 -2.748791,3.11066 -0.786485,0.9128 -1.613696,1.78885 -2.452844,2.65304 -0.796467,0.80043 -1.570474,1.62244 -2.327814,2.45999 -0.635209,0.65223 -1.152867,1.39938 -1.686809,2.13254 -0.566211,0.65022 -1.157941,1.28238 -1.765334,1.89505 -0.478243,0.48267 -1.039461,0.9134 -1.421488,1.48364 -0.190621,0.46654 0.18364,-0.59526 -0.175013,0.54059 -0.110273,0.19384 -0.202841,0.42691 -0.104326,0.23049 -0.05733,0.53069 -0.263956,1.04287 -0.5061,1.51271 -0.819817,1.4359 -0.288962,0.4081 -2.973567,-1.95235 1.76522,-1.8754 4.417438,0.62099 2.652217,2.49639 v 0 c -3.408965,-2.36326 -3.611141,-1.04855 -2.898007,-2.24757 0.11262,-0.19196 -0.04961,0.23871 0.07775,-0.16531 0.0146,-0.0464 0.03092,-0.18612 0.04347,-0.13917 0.0013,0.005 -0.06507,0.51964 -0.0062,0.0145 0.06493,-0.41895 0.165632,-0.82671 0.372443,-1.20108 0.01818,-0.0329 -0.02794,0.0698 -0.0419,0.10476 -0.01741,0.0756 -0.06747,0.30278 -0.05221,0.22673 0.114876,-0.57259 0.333036,-1.11315 0.682521,-1.58581 0.527045,-0.69156 1.130329,-1.31679 1.777892,-1.89697 0.480568,-0.47094 0.9198,-0.98411 1.394116,-1.46152 0.609825,-0.83644 1.20804,-1.68362 1.929273,-2.43086 0.786458,-0.86927 1.590018,-1.72285 2.416283,-2.55438 0.7928,-0.81608 1.574554,-1.64318 2.317255,-2.50552 0.951222,-1.09378 1.894425,-2.19486 2.882223,-3.25595 0.939805,-0.96906 1.875777,-1.94482 2.717101,-3.0023 0.866064,-1.08269 1.720935,-2.1736 2.535767,-3.29561 0.831596,-1.14218 1.668981,-2.28061 2.524109,-3.40522 0.957596,-1.23176 2.011913,-2.37877 3.082674,-3.51259 1.091036,-1.21745 2.112555,-2.49666 3.249763,-3.67178 1.216895,-1.18989 2.444951,-2.36897 3.722293,-3.49433 1.442046,-1.27549 2.901143,-2.53731 4.205179,-3.95786 1.483204,-1.57598 2.927033,-3.18712 4.340162,-4.82631 1.546169,-1.68769 3.136069,-3.33289 4.845449,-4.85779 1.775203,-1.67272 3.50085,-3.3976 5.280999,-5.06536 2.563229,-2.46254 5.049219,-5.00276 7.505999,-7.57138 2.06326,-2.17834 4.08136,-4.39554 6.04586,-6.66339 1.16605,-1.25415 2.39907,-2.45151 3.71531,-3.54835 2.09576,-1.49697 4.2128,1.46688 2.11705,2.96385 z"
         id="path1141"
         style="opacity:1;fill:#e65679;fill-opacity:1;fill-rule:nonzero;stroke:none;stroke-width:0.26458332;stroke-opacity:1" />
      <path
         inkscape:connector-curvature="0"
         d="m 119.83891,186.95786 c -0.59247,1.36405 -1.20967,2.71665 -1.8688,4.04981 -0.84958,1.7002 -1.97845,3.22241 -3.1798,4.68566 -1.83085,2.07005 -3.79012,4.02503 -5.7271,5.99561 -1.92413,1.90209 -3.77141,3.87857 -5.63726,5.83715 -1.69364,1.80522 -3.451826,3.54531 -5.274697,5.21944 -1.68356,1.42117 -3.367283,2.83167 -4.926319,4.39027 -1.261986,1.29604 -2.445108,2.66579 -3.675235,3.99203 -1.163024,1.29018 -2.31984,2.58552 -3.433799,3.91846 -1.137217,1.37069 -2.352085,2.6706 -3.479594,4.04921 -1.013476,1.27413 -2.145572,2.44543 -3.179942,3.70148 -0.877073,1.13353 -1.672974,2.32804 -2.421321,3.54969 -0.806501,1.32186 -1.618663,2.63868 -2.500509,3.91215 -0.771104,1.09516 -1.681366,2.08037 -2.555713,3.09192 -0.824259,0.95028 -1.628394,1.91841 -2.497458,2.82856 -0.852649,0.87575 -1.781273,1.6752 -2.619375,2.56486 -0.70997,0.68647 -1.373634,1.41766 -2.070264,2.11698 -0.84595,0.87236 -1.793721,1.62569 -2.758913,2.35982 -0.96074,0.7301 -1.923106,1.46425 -2.719457,2.37636 -0.468664,0.4475 -0.765013,1.02113 -1.133205,1.54634 -0.614177,0.84093 -1.359884,1.56823 -2.129054,2.26485 -0.372912,0.33133 -0.745361,0.66315 -1.114671,0.99849 -0.152874,0.13882 -0.377629,0.29959 -0.472165,0.49793 -0.02278,0.006 -0.36204,0.50666 -0.344183,0.52465 0.02749,0.0277 0.04005,-0.067 0.06008,-0.10047 0.02447,-0.0299 0.02469,-0.19938 0.02685,-0.0906 1.61e-4,0.0201 0.0013,0.0401 0.0021,0.0602 0.131958,2.5721 -3.505544,2.75872 -3.637505,0.18662 v 0 c -0.0035,-0.0713 -0.0061,-0.14261 -0.0069,-0.21398 -0.0019,-0.32405 0.02545,-0.6465 0.11775,-0.95883 0.180065,-0.57132 0.464347,-1.0931 0.842841,-1.55924 0.600776,-0.77578 1.348547,-1.40006 2.083051,-2.0466 0.571606,-0.51566 1.132242,-1.04671 1.59657,-1.66424 0.451469,-0.63185 0.816735,-1.32877 1.388886,-1.86815 0.968351,-1.07309 2.072584,-1.99636 3.235303,-2.85343 0.836314,-0.63471 1.660475,-1.27907 2.389812,-2.03802 0.678355,-0.67106 1.310516,-1.38788 2.001687,-2.04669 0.849135,-0.88897 1.765215,-1.70972 2.633591,-2.57974 0.830813,-0.85853 1.580711,-1.79059 2.368912,-2.68749 0.790104,-0.91406 1.614927,-1.80248 2.318864,-2.78656 0.845945,-1.21615 1.616223,-2.47958 2.389585,-3.7424 0.839824,-1.36334 1.726599,-2.70049 2.715405,-3.96124 1.033576,-1.25018 2.154798,-2.42365 3.170129,-3.68954 1.136288,-1.38847 2.356051,-2.7013 3.504634,-4.07948 1.154869,-1.38006 2.351444,-2.72355 3.557555,-4.05894 1.261822,-1.36003 2.473749,-2.76631 3.771734,-4.09215 1.596739,-1.59305 3.308003,-3.05 5.037206,-4.49643 1.763974,-1.61795 3.462168,-3.30289 5.100424,-5.04839 1.87897,-1.9723 3.7395,-3.96241 5.67688,-5.87809 1.862,-1.89426 3.7441,-3.7744 5.51223,-5.7568 1.02783,-1.24562 1.99861,-2.53764 2.72748,-3.98612 0.60561,-1.22366 1.16863,-2.46623 1.72313,-3.71379 0.90431,-2.41151 4.31469,-1.13261 3.41038,1.27889 z"
         id="path1143"
         style="opacity:1;fill:#e65679;fill-opacity:1;fill-rule:nonzero;stroke:none;stroke-width:0.26458332;stroke-opacity:1" />
      <path
         inkscape:connector-curvature="0"
         d="m 124.08653,195.54457 c -0.67497,0.44287 -1.25635,1.00868 -1.79103,1.60973 -0.78638,1.05024 -1.62713,2.05483 -2.48453,3.04711 -1.25662,1.39943 -2.44849,2.85591 -3.60057,4.34212 -1.20161,1.43506 -2.39348,2.87611 -3.55551,4.34333 -1.11074,1.47961 -2.30736,2.89031 -3.59588,4.21734 -1.33865,1.35404 -2.84588,2.52323 -4.28276,3.76877 -1.22248,1.11391 -2.47363,2.19568 -3.69669,3.30895 -1.181922,1.06168 -2.27345,2.21558 -3.39958,3.33463 -1.368748,1.34952 -2.734702,2.70185 -4.09765,4.05722 -1.368684,1.36943 -2.729759,2.74508 -4.150132,4.0611 -1.086245,1.10026 -2.258285,2.10805 -3.416242,3.13054 -1.251609,1.11949 -2.513203,2.22948 -3.714753,3.40314 -1.167675,1.11749 -2.152509,2.40232 -3.146996,3.67081 -1.003316,1.19347 -1.958584,2.42447 -2.864358,3.6936 -0.87675,1.2295 -1.772129,2.44536 -2.659899,3.66686 -0.864621,1.09382 -1.591609,2.28463 -2.355286,3.44876 -0.656019,1.10232 -1.409068,2.13698 -2.241198,3.112 -0.744686,0.85723 -1.558629,1.64673 -2.376787,2.43266 -0.693433,0.61618 -1.291799,1.32369 -1.905804,2.01598 -0.486235,0.5302 -0.970642,1.06692 -1.383051,1.65785 -0.4353,0.62805 -0.887547,1.23995 -1.399826,1.80723 -0.660416,0.65061 -1.287184,1.32932 -1.900383,2.02419 -0.429889,0.4934 -0.760854,1.05337 -1.087585,1.61647 -0.149657,0.33852 -0.319281,0.66586 -0.489702,0.99465 -0.01442,0.0278 0.04306,-0.0491 0.05013,-0.0796 0.05182,-0.2237 0.08349,-0.45159 0.125238,-0.67739 0.188034,2.56861 -3.444534,2.83453 -3.632568,0.26592 v 0 c 0.03634,-0.2997 0.04534,-0.604 0.109006,-0.89912 0.08427,-0.39059 0.576318,-1.046 0.687617,-1.43258 0.446977,-0.77017 0.917782,-1.52602 1.506937,-2.1984 0.62566,-0.70893 1.262383,-1.40542 1.938597,-2.0668 0.421836,-0.45692 0.770903,-0.96894 1.1313,-1.47526 0.497586,-0.68523 1.038699,-1.33736 1.619388,-1.95401 0.678357,-0.76479 1.344715,-1.54202 2.107525,-2.22588 0.735592,-0.70656 1.471271,-1.41221 2.140524,-2.18325 0.739622,-0.84673 1.37546,-1.77051 1.955366,-2.7328 0.795764,-1.21253 1.555554,-2.45165 2.454508,-3.59236 0.882261,-1.21328 1.771502,-2.42138 2.64256,-3.6428 0.938533,-1.31182 1.922524,-2.58911 2.961357,-3.82315 1.094439,-1.39598 2.185763,-2.80307 3.471334,-4.03206 1.246912,-1.21271 2.547924,-2.36778 3.84607,-3.52498 1.136378,-1.0033 2.286439,-1.99206 3.351885,-3.07233 1.389144,-1.28634 2.717815,-2.63357 4.05693,-3.97164 1.363308,-1.35573 2.729595,-2.70845 4.098726,-4.05829 1.164022,-1.15646 2.293022,-2.34833 3.515389,-3.44476 1.245124,-1.13279 2.517793,-2.23468 3.762763,-3.36763 1.35986,-1.17815 2.78521,-2.28511 4.05932,-3.55801 1.20649,-1.23326 2.31097,-2.5594 3.34941,-3.93694 1.15439,-1.45756 2.33567,-2.8915 3.53275,-4.3143 1.1923,-1.53626 2.42331,-3.04372 3.72262,-4.49115 0.87512,-1.01278 1.72153,-2.04616 2.53775,-3.10734 0.74531,-0.81674 1.54248,-1.59306 2.47339,-2.1987 2.14294,-1.42862 4.16332,1.60194 2.02038,3.03057 z"
         id="path1145"
         style="opacity:1;fill:#e65679;fill-opacity:1;fill-rule:nonzero;stroke:none;stroke-width:0.26458332;stroke-opacity:1" />
      <path
         inkscape:connector-curvature="0"
         d="m 122.71655,203.47564 c -0.92201,0.88948 -1.74459,1.87331 -2.59009,2.83424 -1.33511,1.69213 -2.69038,3.368 -4.03648,5.05136 -1.76043,2.16312 -3.63084,4.23455 -5.513,6.2917 -1.74086,1.99689 -3.57369,3.90493 -5.45954,5.76411 -1.65243,1.52999 -3.28933,3.07725 -4.95055,4.59767 -1.658968,1.44019 -3.334439,2.8613 -5.024791,4.26473 -1.351523,1.14788 -2.679814,2.32344 -4.0034,3.50347 -1.23403,1.14756 -2.433092,2.3336 -3.640426,3.50967 -1.105262,1.08598 -2.233414,2.14656 -3.325468,3.24602 -1.082445,1.02134 -2.178349,2.02795 -3.25278,3.05783 -0.994716,0.92627 -1.898459,1.93975 -2.684539,3.04771 -0.641651,0.91614 -1.250151,1.85494 -1.811562,2.82231 -0.574667,1.01821 -1.099124,2.0636 -1.625031,3.10749 -0.571273,1.169 -1.155465,2.32827 -1.809229,3.4534 -0.603329,1.09734 -1.312063,2.1254 -2.078262,3.11339 -0.654632,0.87801 -1.397593,1.68131 -2.111762,2.50991 -0.553598,0.68646 -1.201727,1.29088 -1.766551,1.96647 -0.378161,0.4306 -0.768628,0.84871 -1.168927,1.25674 -0.262501,0.3075 -0.560207,0.58457 -0.871741,0.84599 -0.229867,0.18829 -0.448995,0.38916 -0.664099,0.59399 -0.203014,0.26052 -0.615079,0.65472 -0.97473,0.94273 -0.303083,0.2899 -0.667568,0.50193 -1.036677,0.6937 -2.361877,1.02697 -3.814231,-2.31322 -1.452354,-3.34019 v 0 c -0.54729,0.31393 0.29767,-0.1814 0.303903,-0.26752 0.185307,-0.15009 0.440397,-0.44675 0.649529,-0.66775 0.270213,-0.25682 0.545647,-0.50839 0.833546,-0.74539 0.241218,-0.20229 0.458078,-0.40828 0.658275,-0.65202 0.370988,-0.27043 0.601543,-0.72682 0.949987,-1.02145 0.579654,-0.67346 1.21177,-1.30015 1.780995,-1.98333 0.673412,-0.78119 1.377068,-1.53536 1.992749,-2.36441 0.667496,-0.86014 1.28566,-1.75382 1.807604,-2.71201 0.617984,-1.06151 1.163989,-2.15842 1.704962,-3.26105 0.558694,-1.10889 1.116512,-2.21904 1.729094,-3.29948 0.620093,-1.06474 1.287904,-2.10059 1.996543,-3.10871 0.924399,-1.2871 1.965584,-2.48052 3.128015,-3.56007 1.053026,-1.00916 2.124665,-1.99812 3.189023,-2.99521 1.106258,-1.11349 2.248189,-2.18853 3.368016,-3.28815 1.245786,-1.2135 2.482983,-2.43738 3.75825,-3.61947 1.355591,-1.20823 2.715647,-2.41228 4.100404,-3.58693 1.645471,-1.36616 3.276256,-2.74968 4.892831,-4.1497 1.628445,-1.48928 3.230723,-3.00739 4.852213,-4.50427 1.84154,-1.81511 3.63022,-3.67863 5.32937,-5.62901 1.82787,-1.99739 3.64464,-4.00838 5.35551,-6.10767 1.38189,-1.72801 2.76986,-3.45099 4.14685,-5.18289 0.89676,-1.01877 1.77144,-2.05992 2.74883,-3.00343 1.82114,-1.82115 4.39663,0.75434 2.57549,2.57548 z"
         id="path1147"
         style="opacity:1;fill:#e65679;fill-opacity:1;fill-rule:nonzero;stroke:none;stroke-width:0.26458332;stroke-opacity:1" />
      <path
         inkscape:connector-curvature="0"
         d="m 113.8757,221.23803 c -0.9278,0.74531 -1.8385,1.50817 -2.71937,2.30878 -1.62143,1.50119 -3.22101,3.02579 -4.81994,4.55104 -1.99083,1.83083 -3.96747,3.67766 -5.98281,5.48158 -2.098634,1.82398 -4.19795,3.64645 -6.311692,5.45288 -1.799387,1.53597 -3.521959,3.15788 -5.220402,4.80376 -1.3726,1.28953 -2.596546,2.72152 -3.837185,4.13475 -1.096788,1.2561 -2.128632,2.5658 -3.172122,3.8658 -1.033679,1.31406 -2.107528,2.59455 -3.054387,3.97363 -0.725754,1.1111 -1.37459,2.26954 -2.049264,3.41165 -0.55894,0.94024 -1.134377,1.87063 -1.705742,2.80339 -0.609846,1.06303 -1.317839,2.0625 -2.037284,3.05268 -0.641593,0.82132 -1.080193,1.75838 -1.498854,2.70444 -0.393411,0.89653 -0.850868,1.76298 -1.325279,2.6186 -0.202869,0.4368 -0.460634,0.80409 -0.754822,1.18421 -1.849017,1.79284 -4.384474,-0.82206 -2.535457,-2.6149 v 0 c -0.705263,0.96626 0.02754,-0.0969 0.10509,-0.33589 0.42178,-0.76028 0.830485,-1.52906 1.179798,-2.32609 0.522663,-1.18085 1.092496,-2.34127 1.88291,-3.37133 0.663287,-0.91288 1.318614,-1.8325 1.878076,-2.81438 0.561435,-0.91638 1.126926,-1.8304 1.676101,-2.75414 0.718148,-1.21405 1.406739,-2.4469 2.185096,-3.62427 1.001241,-1.44975 2.119548,-2.80775 3.213692,-4.18769 1.077077,-1.34159 2.142702,-2.69276 3.275259,-3.98863 1.305316,-1.48688 2.596375,-2.9903 4.03983,-4.34762 1.75309,-1.69846 3.531455,-3.37176 5.388626,-4.95686 2.092719,-1.78844 4.171082,-3.59281 6.249186,-5.39822 1.987034,-1.77757 3.934306,-3.59922 5.897606,-5.40286 1.62058,-1.54586 3.24199,-3.09087 4.88558,-4.61214 0.91982,-0.83436 1.86808,-1.63271 2.83602,-2.41026 1.97855,-1.64878 4.31028,1.1493 2.33174,2.79809 z"
         id="path1149"
         style="opacity:1;fill:#e65679;fill-opacity:1;fill-rule:nonzero;stroke:none;stroke-width:0.26458332;stroke-opacity:1" />
      <path
         inkscape:connector-curvature="0"
         d="m 103.29841,237.77509 c -0.96151,1.33169 -2.02953,2.57635 -3.12929,3.79435 -1.693382,1.80195 -3.461426,3.53382 -5.230112,5.26175 -1.812529,1.83301 -3.638138,3.65436 -5.410724,5.5262 -1.443522,1.6208 -2.888962,3.23982 -4.321543,4.8703 -1.239552,1.38453 -2.512068,2.74022 -3.66277,4.20078 -0.47,0.68616 -1.007046,1.34609 -1.377495,2.09557 -0.131392,0.26582 -0.229804,0.54672 -0.34408,0.82034 -0.377378,1.10055 -0.843682,2.13436 -1.487741,3.10552 -0.14332,0.18647 -0.286642,0.37294 -0.429961,0.55942 -1.581087,2.03305 -4.456256,-0.20294 -2.875169,-2.23599 v 0 c 0.09592,-0.12116 0.191841,-0.24231 0.287761,-0.36347 0.531312,-0.75979 0.822549,-1.60827 1.145574,-2.47252 0.57314,-1.36518 1.303914,-2.60143 2.223153,-3.76682 1.19379,-1.50737 2.497207,-2.91972 3.78455,-4.34691 1.462651,-1.6647 2.937679,-3.31842 4.413689,-4.97128 1.80585,-1.90514 3.662765,-3.76162 5.509736,-5.62674 1.714892,-1.67466 3.428347,-3.35393 5.072637,-5.09803 1.007417,-1.11407 1.987129,-2.25109 2.867935,-3.46951 1.49697,-2.09575 4.46082,0.0213 2.96385,2.11704 z"
         id="path1151"
         style="opacity:1;fill:#e65679;fill-opacity:1;fill-rule:nonzero;stroke:none;stroke-width:0.26458332;stroke-opacity:1" />
      <path
         inkscape:connector-curvature="0"
         d="m 44.971287,230.30364 c -0.143428,-0.502 -0.286856,-1.00399 -0.430281,-1.50599 0.569436,1.02697 0.395287,1.11837 2.112428,1.21233 0.430569,0.0235 1.116216,-0.86394 0.567298,-0.14219 -0.103264,0.13578 -0.210264,0.26867 -0.315397,0.40301 -0.905716,1.20392 -1.99263,2.25812 -3.050087,3.3266 -1.371679,1.31305 -2.603643,2.75028 -3.775707,4.24052 -1.137367,1.55272 -2.27832,3.09384 -3.613235,4.48382 -0.681334,0.65848 -0.349557,0.34558 -0.993677,0.94046 -1.893229,1.74608 -4.362567,-0.93135 -2.46934,-2.67743 v 0 c 0.554664,-0.51076 0.273206,-0.24642 0.8436,-0.79382 1.258564,-1.2926 2.290648,-2.76448 3.370151,-4.20522 1.257895,-1.59819 2.580947,-3.1395 4.04953,-4.55055 0.960091,-0.96991 1.953937,-1.92209 2.775476,-3.01556 0.392346,-0.49595 0.924388,-1.49869 1.640065,-1.52003 1.800199,-0.0537 1.695209,0.21987 2.361041,1.29745 0.143426,0.50199 0.286853,1.00399 0.430281,1.50598 0.707539,2.4764 -2.794608,3.47701 -3.502146,1.00062 z"
         id="path1153"
         style="opacity:1;fill:#e65679;fill-opacity:1;fill-rule:nonzero;stroke:none;stroke-width:0.26458332;stroke-opacity:1" />
    </g>
  </g>
</svg>
