<?xml version="1.0" encoding="UTF-8" standalone="no"?>
<svg
   xmlns:dc="http://purl.org/dc/elements/1.1/"
   xmlns:cc="http://creativecommons.org/ns#"
   xmlns:rdf="http://www.w3.org/1999/02/22-rdf-syntax-ns#"
   xmlns:svg="http://www.w3.org/2000/svg"
   xmlns="http://www.w3.org/2000/svg"
   xmlns:sodipodi="http://sodipodi.sourceforge.net/DTD/sodipodi-0.dtd"
   xmlns:inkscape="http://www.inkscape.org/namespaces/inkscape"
   width="219"
   height="238"
   viewBox="0 0 219 238"
   fill="none"
   version="1.1"
   id="svg52"
   sodipodi:docname="dzieci_1.svg"
   inkscape:version="0.92.3 (2405546, 2018-03-11)">
  <metadata
     id="metadata58">
    <rdf:RDF>
      <cc:Work
         rdf:about="">
        <dc:format>image/svg+xml</dc:format>
        <dc:type
           rdf:resource="http://purl.org/dc/dcmitype/StillImage" />
        <dc:title></dc:title>
      </cc:Work>
    </rdf:RDF>
  </metadata>
  <defs
     id="defs56" />
  <sodipodi:namedview
     pagecolor="#ffffff"
     bordercolor="#666666"
     borderopacity="1"
     objecttolerance="10"
     gridtolerance="10"
     guidetolerance="10"
     inkscape:pageopacity="0"
     inkscape:pageshadow="2"
     inkscape:window-width="1920"
     inkscape:window-height="1052"
     id="namedview54"
     showgrid="false"
     inkscape:zoom="1.9831933"
     inkscape:cx="53.825804"
     inkscape:cy="105.98713"
     inkscape:window-x="1920"
     inkscape:window-y="0"
     inkscape:window-maximized="1"
     inkscape:current-layer="svg52"
     showguides="false"
     inkscape:lockguides="false" />
  <path
     d="m 256.37214,83.200663 c 0.011,0.1169 0.104,0.2043 0.213,0.2043 0.008,0 0.015,-5e-4 0.022,-9e-4 0.118,-0.0128 0.205,-0.1247 0.192,-0.2493 l -0.332,-3.4384 c -0.061,-0.6378 -0.003,-1.2702 0.173,-1.8807 0.245,-0.8493 0.922,-1.5213 1.767,-1.7537 l 0.597,-0.1643 c 0.115,-0.0318 0.184,-0.156 0.153,-0.2775 -0.029,-0.1214 -0.146,-0.1947 -0.261,-0.1628 l -0.597,0.1642 c -0.989,0.272 -1.782,1.0618 -2.07,2.0613 -0.193,0.6683 -0.257,1.3611 -0.189,2.0595 z"
     id="path2"
     inkscape:connector-curvature="0"
     style="fill:#0041c4" />
  <path
     d="m 325.70327,57.021629 c -3.56,-0.8867 -6.767,-1.0607 -6.798,-1.0625 -0.134,-0.0059 -0.22,0.0911 -0.225,0.2163 -0.006,0.1257 0.085,0.2323 0.204,0.2387 0.031,0.0013 3.199,0.1735 6.721,1.051 0.017,0.0041 0.033,0.006 0.049,0.006 0.098,0 0.187,-0.0706 0.209,-0.1758 0.027,-0.1221 -0.045,-0.2446 -0.16,-0.2737 z"
     id="path4"
     inkscape:connector-curvature="0"
     style="fill:#0041c4" />
  <path
     d="m 57.078361,52.951137 c -0.02567,0.0042 -2.607781,0.413109 -5.420059,1.407986 -0.124159,0.04377 -0.18978,0.181469 -0.146512,0.308497 0.03375,0.10034 0.12604,0.162254 0.224526,0.162254 0.02567,0 0.0519,-0.0042 0.07802,-0.01281 2.76901,-0.979932 5.310618,-1.382366 5.335848,-1.386636 0.129802,-0.02028 0.218772,-0.144108 0.198853,-0.276474 -0.01903,-0.131298 -0.139872,-0.224167 -0.270671,-0.202818 z"
     id="path6"
     inkscape:connector-curvature="0"
     style="fill:#0041c4;stroke-width:1.08684897" />
  <path
     d="m 81.470945,54.014103 c 2.211513,-0.11742 4.085184,0.239113 4.103775,0.242315 0.01472,0.0032 0.02999,0.0042 0.04471,0.0042 0.111765,0 0.21169,-0.08006 0.233601,-0.196413 0.02468,-0.132367 -0.05998,-0.259394 -0.188895,-0.283946 -0.07846,-0.01495 -1.946927,-0.372545 -4.217421,-0.250854 -0.131352,0.0075 -0.232162,0.121691 -0.225522,0.255124 0.0077,0.133432 0.115085,0.236977 0.249756,0.229504 z"
     id="path8"
     inkscape:connector-curvature="0"
     style="fill:#0041c4;stroke-width:1.08684897" />
  <path
     d="m 308.97427,55.569029 c -0.126,-0.0014 -3.194,-0.0373 -4.814,1.5012 -0.088,0.0841 -0.095,0.2273 -0.016,0.321 0.043,0.05 0.101,0.0755 0.16,0.0755 0.051,0 0.102,-0.0191 0.144,-0.0582 1.495,-1.4199 4.487,-1.384 4.52,-1.3849 0.134,-0.0027 0.216,-0.0977 0.218,-0.2237 0.001,-0.1254 -0.093,-0.2286 -0.212,-0.2309 z"
     id="path10"
     inkscape:connector-curvature="0"
     style="fill:#0041c4" />
  <path
     d="m 314.01127,68.813229 c -1.429,-0.7328 -2.413,-2.1518 -2.65,-2.5177 l 2.116,-6.7211 c 0.037,-0.1192 -0.024,-0.248 -0.136,-0.2876 -0.112,-0.0392 -0.234,0.0246 -0.272,0.1438 l -2.149,6.8267 c -0.021,0.0646 -0.012,0.1356 0.022,0.1934 0.045,0.076 1.128,1.8723 2.882,2.7725 0.03,0.0155 0.063,0.0228 0.094,0.0228 0.08,0 0.156,-0.0474 0.193,-0.1284 0.052,-0.1138 0.007,-0.2494 -0.1,-0.3044 z"
     id="path12"
     inkscape:connector-curvature="0"
     style="fill:#0041c4" />
  <path
     d="m 318.75127,71.804129 c -1.38,1.2887 -4.388,1.3309 -4.419,1.3309 -0.118,9e-4 -0.214,0.1034 -0.213,0.2287 0.001,0.1243 0.097,0.225 0.215,0.225 10e-4,0 10e-4,0 0.002,0 0.13,-9e-4 3.199,-0.0435 4.7,-1.4447 0.089,-0.083 0.098,-0.2264 0.019,-0.3204 -0.08,-0.0943 -0.216,-0.1025 -0.304,-0.0195 z"
     id="path14"
     inkscape:connector-curvature="0"
     style="fill:#0041c4" />
  <path
     d="m 66.295087,70.665754 c 0.506595,0.347992 1.132148,0.435525 1.636309,0.435525 0.497078,0 0.876748,-0.08539 0.907622,-0.09287 0.128032,-0.02989 0.20837,-0.159053 0.178935,-0.290351 -0.02955,-0.131297 -0.157467,-0.213492 -0.284946,-0.182536 -0.01284,0.0032 -1.334322,0.30316 -2.173003,-0.27327 -0.352448,-0.241247 -0.571331,-0.613792 -0.650673,-1.10696 -0.02102,-0.131299 -0.143192,-0.222032 -0.273106,-0.199616 -0.12936,0.02241 -0.217333,0.146242 -0.195976,0.278608 0.101806,0.630871 0.389076,1.112297 0.854838,1.43147 z"
     id="path16"
     inkscape:connector-curvature="0"
     style="fill:#0041c4;stroke-width:1.08684897" />
  <path
     d="m 307.17327,60.880729 c 0.624,0 1.129,-0.5347 1.129,-1.1943 0,-0.6596 -0.505,-1.1943 -1.129,-1.1943 -0.623,0 -1.128,0.5347 -1.128,1.1943 0,0.6596 0.505,1.1943 1.128,1.1943 z"
     id="path18"
     inkscape:connector-curvature="0"
     style="fill:#0041c4" />
  <path
     d="m 250.87647,105.29873 c 0.6232,0 1.1284,-0.534 1.1284,-1.194 0,-0.659 -0.5052,-1.194 -1.1284,-1.194 -0.6232,0 -1.1284,0.535 -1.1284,1.194 0,0.66 0.5052,1.194 1.1284,1.194 z"
     id="path20"
     inkscape:connector-curvature="0"
     style="fill:#0041c4" />
  <path
     d="m 236.16847,110.37187 c 0.6232,0 1.1284,-0.534 1.1284,-1.194 0,-0.659 -0.5052,-1.194 -1.1284,-1.194 -0.6232,0 -1.1284,0.535 -1.1284,1.194 0,0.66 0.5052,1.194 1.1284,1.194 z"
     id="path22"
     inkscape:connector-curvature="0"
     style="fill:#0041c4;stroke:none;fill-opacity:1" />
  <path
     d="m 320.57927,60.880729 c 0.623,0 1.128,-0.5347 1.128,-1.1943 0,-0.6596 -0.505,-1.1943 -1.128,-1.1943 -0.623,0 -1.128,0.5347 -1.128,1.1943 0,0.6596 0.505,1.1943 1.128,1.1943 z"
     id="path24"
     inkscape:connector-curvature="0"
     style="fill:#0041c4" />
  <path
     d="m 256.40507,21.034629 c -0.1062,-0.0569 -0.2352,-0.011 -0.2885,0.1014 -0.0533,0.1124 -0.0103,0.2489 0.0959,0.3053 0.0271,0.0141 2.6948,1.4505 3.3988,3.4434 0.032,0.0915 0.114,0.1479 0.201,0.1479 0.025,0 0.05,-0.0046 0.075,-0.0146 0.112,-0.0441 0.168,-0.1747 0.126,-0.2925 -0.761,-2.159 -3.4922,-3.6295 -3.6082,-3.6909 z"
     id="path26"
     inkscape:connector-curvature="0"
     style="fill:#0041c4" />
  <path
     d="m 243.40927,20.852229 c -0.0112,-0.1246 -0.1161,-0.2133 -0.2348,-0.2042 -2.1669,0.222 -4.2144,2.6347 -4.3004,2.7371 -0.0787,0.0941 -0.0709,0.2374 0.0181,0.3211 0.0408,0.0382 0.092,0.0573 0.1427,0.0573 0.0593,0 0.1182,-0.0259 0.1608,-0.0764 0.0197,-0.0236 2.0195,-2.3814 4.0205,-2.5865 0.1178,-0.0118 0.2042,-0.1233 0.1931,-0.2484 z"
     id="path28"
     inkscape:connector-curvature="0"
     style="fill:#0041c4" />
  <path
     d="m 56.993158,61.399869 c 1.231123,0 2.229337,-0.929828 2.229337,-2.076895 0,-1.147066 -0.998214,-2.076894 -2.229337,-2.076894 -1.231124,0 -2.22914,0.929828 -2.22914,2.076894 0,1.147067 0.998016,2.076895 2.22914,2.076895 z"
     id="path32"
     inkscape:connector-curvature="0"
     style="fill:#0041c4;stroke-width:1.85363448" />
  <path
     d="m 244.93221,42.4166 -1.5763,-5.6341 c -0.034,-0.1206 -0.1526,-0.1893 -0.2674,-0.1533 -0.1139,0.0359 -0.1788,0.1619 -0.1449,0.2829 l 1.5674,5.6019 c -0.008,0.1847 -0.1544,1.4882 -2.7151,2.3365 -0.1135,0.0378 -0.1763,0.1651 -0.141,0.2848 0.0288,0.0973 0.1135,0.1596 0.205,0.1596 0.0211,0 0.043,-0.0032 0.0641,-0.0104 3.0602,-1.0134 3.0194,-2.7405 3.0164,-2.8137 -4e-4,-0.0182 -0.003,-0.0364 -0.008,-0.0542 z"
     id="path44"
     inkscape:connector-curvature="0"
     style="fill:#0041c4" />
  <path
     d="m 224.35387,26.037529 c -0.4109,-0.231 -0.8511,-0.2192 -1.3094,0.0377 -0.1049,0.0587 -0.1453,0.196 -0.0894,0.3069 0.055,0.111 0.1853,0.1541 0.2902,0.0946 0.3292,-0.1842 0.6259,-0.1964 0.9061,-0.0382 1.2385,0.6984 1.8704,4.4635 2.0097,5.8552 0.0116,0.1164 0.1049,0.2032 0.2136,0.2032 0.008,0 0.0151,-4e-4 0.0228,-0.0013 0.1178,-0.0132 0.2038,-0.1251 0.1909,-0.2496 -0.0211,-0.2137 -0.5421,-5.2542 -2.2345,-6.2085 z"
     id="path46"
     inkscape:connector-curvature="0"
     style="fill:#0041c4" />
  <path
     style="fill:none;stroke:#0041c4;stroke-width:0.56733519;stroke-linecap:butt;stroke-linejoin:miter;stroke-miterlimit:4;stroke-dasharray:none;stroke-opacity:1"
     d="m 40.575511,46.513108 c 0.07845,25.869621 0.733593,51.227921 29.430373,51.723171"
     id="path889"
     inkscape:connector-curvature="0"
     sodipodi:nodetypes="cc" />
  <path
     style="fill:none;stroke:#0041c4;stroke-width:0.56733519;stroke-linecap:butt;stroke-linejoin:miter;stroke-miterlimit:4;stroke-dasharray:none;stroke-opacity:1"
     d="M 70.005884,98.236279 C 92.094611,99.637592 100.09939,70.382029 100.93272,44.890291"
     id="path891"
     inkscape:connector-curvature="0"
     sodipodi:nodetypes="cc" />
  <path
     d="m 72.5047,81.574835 c -1.527089,1.375641 -4.8557,1.420688 -4.890005,1.420688 -0.130577,9.6e-4 -0.236809,0.110375 -0.235703,0.244129 0.0011,0.132686 0.107339,0.240179 0.237917,0.240179 0.0011,0 0.0011,0 0.0022,0 0.143856,-9.61e-4 3.539969,-0.04644 5.200955,-1.542165 0.09849,-0.0886 0.108445,-0.241673 0.02103,-0.342015 -0.08853,-0.100663 -0.239023,-0.109415 -0.336402,-0.02082 z"
     id="path14-8"
     inkscape:connector-curvature="0"
     style="fill:#0041c4;stroke-width:1.08684897" />
  <path
     style="fill:#0041c4;fill-opacity:1;stroke:#0041c4;stroke-width:0.92550218;stroke-linecap:butt;stroke-linejoin:miter;stroke-miterlimit:4;stroke-dasharray:none;stroke-opacity:1"
     d="m 38.139299,44.324337 c 13.008566,11.987837 50.383965,-2.313771 50.383965,-2.313771 0.70199,2.624324 7.232175,11.166656 15.375926,2.872423 5.64127,-5.042029 7.9888,-31.551762 -5.004702,-19.740744 C 109.35274,15.051146 94.195663,0.4909249 82.661427,16.188463 81.308728,3.1942726 67.638635,1.2795448 62.857351,16.406595 56.333482,5.351018 41.02359,8.7593326 45.528302,23.632012 34.44203,8.8886569 27.985206,36.534836 38.139299,44.324337 Z"
     id="path914"
     inkscape:connector-curvature="0"
     sodipodi:nodetypes="cccccccc" />
  <path
     style="fill:none;stroke:#0041c4;stroke-width:0.54342449;stroke-linecap:butt;stroke-linejoin:miter;stroke-miterlimit:4;stroke-dasharray:none;stroke-opacity:1"
     d="m 40.566833,58.006229 c -11.694955,3.658129 -6.413469,8.271113 1.115964,12.918122"
     id="path943"
     inkscape:connector-curvature="0"
     sodipodi:nodetypes="cc" />
  <path
     style="fill:none;stroke:#0041c4;stroke-width:0.54342449;stroke-linecap:butt;stroke-linejoin:miter;stroke-miterlimit:4;stroke-dasharray:none;stroke-opacity:1"
     d="m 99.712928,58.813612 c 7.076992,0.288404 11.030942,6.102776 -2.510916,12.11074"
     id="path945"
     inkscape:connector-curvature="0"
     sodipodi:nodetypes="cc" />
  <path
     style="fill:none;stroke:#0041c4;stroke-width:0.54342449;stroke-linecap:butt;stroke-linejoin:miter;stroke-miterlimit:4;stroke-dasharray:none;stroke-opacity:1"
     d="M 63.723087,97.837101 V 119.63643"
     id="path947"
     inkscape:connector-curvature="0" />
  <path
     style="fill:none;stroke:#0041c4;stroke-width:0.54342449;stroke-linecap:butt;stroke-linejoin:miter;stroke-miterlimit:4;stroke-dasharray:none;stroke-opacity:1"
     d="m 73.487773,98.375359 0.557983,20.722811"
     id="path949"
     inkscape:connector-curvature="0" />
  <path
     style="fill:none;stroke:#0041c4;stroke-width:0.54342449;stroke-linecap:butt;stroke-linejoin:miter;stroke-miterlimit:4;stroke-dasharray:none;stroke-opacity:1"
     d="M 63.723087,119.63643 C 47.95585,121.11254 30.256978,120.7253 26.617283,133.90019 -2.1163707,217.78514 42.715316,236.69271 79.346585,212.2163"
     id="path951"
     inkscape:connector-curvature="0"
     sodipodi:nodetypes="ccc" />
  <path
     style="opacity:1;fill:#0041c4;fill-opacity:1;fill-rule:nonzero;stroke:#0041c4;stroke-width:0.54342449;stroke-miterlimit:4;stroke-dasharray:none;stroke-opacity:1"
     id="path953"
     sodipodi:type="arc"
     sodipodi:cx="53.539913"
     sodipodi:cy="182.07402"
     sodipodi:rx="24.969696"
     sodipodi:ry="23.683222"
     sodipodi:start="0"
     sodipodi:end="6.2711949"
     sodipodi:open="true"
     d="m 78.509609,182.07402 a 24.969696,23.683222 0 0 1 -24.894847,23.68312 24.969696,23.683222 0 0 1 -25.044096,-23.54113 24.969696,23.683222 0 0 1 24.744703,-23.82425 24.969696,23.683222 0 0 1 25.192445,23.3983" />
  <path
     style="fill:none;stroke:#0041c4;stroke-width:0.54342449;stroke-linecap:butt;stroke-linejoin:miter;stroke-miterlimit:4;stroke-dasharray:none;stroke-opacity:1"
     d="M 79.346585,212.2163 C 100.96714,198.59586 96.497168,182.50998 94.970081,177.22971"
     id="path955"
     inkscape:connector-curvature="0"
     sodipodi:nodetypes="cc" />
  <path
     style="fill:none;stroke:#0041c4;stroke-width:0.54342449;stroke-linecap:butt;stroke-linejoin:miter;stroke-miterlimit:4;stroke-dasharray:none;stroke-opacity:1"
     d="m 94.970081,177.22971 c -0.552082,-5.49161 -6.916198,-2.67617 -4.463856,1.88391"
     id="path957"
     inkscape:connector-curvature="0"
     sodipodi:nodetypes="cc" />
  <path
     style="fill:none;stroke:#0041c4;stroke-width:0.54342449;stroke-linecap:butt;stroke-linejoin:miter;stroke-miterlimit:4;stroke-dasharray:none;stroke-opacity:1"
     d="m 90.506225,179.11362 c 2.447534,7.16217 -1.923132,15.57804 -2.789909,14.53288"
     id="path959"
     inkscape:connector-curvature="0"
     sodipodi:nodetypes="cc" />
  <path
     style="fill:none;stroke:#0041c4;stroke-width:0.54342449;stroke-linecap:butt;stroke-linejoin:miter;stroke-miterlimit:4;stroke-dasharray:none;stroke-opacity:1"
     d="m 90.506225,179.11362 c -0.701164,-5.1179 -5.395103,-9.48326 -8.090739,-3.22954 2.444887,7.31112 1.74493,11.67029 -1.394956,18.56979 2.832261,-5.23083 4.004456,-12.12758 1.394956,-18.56979 -1.673946,-1.50965 -3.347892,-1.6301 -5.021839,-0.26913 l 0.278992,12.91813"
     id="path961"
     inkscape:connector-curvature="0"
     sodipodi:nodetypes="cccccc" />
  <path
     style="fill:none;stroke:#0041c4;stroke-width:0.5113495;stroke-linecap:butt;stroke-linejoin:miter;stroke-miterlimit:4;stroke-dasharray:none;stroke-opacity:1"
     d="m 144.33274,117.72582 c 17.2753,0.0687 32.52286,-17.24282 28.89233,-33.914754"
     id="path891-8"
     inkscape:connector-curvature="0"
     sodipodi:nodetypes="cc" />
  <path
     style="fill:none;stroke:#0041c4;stroke-width:0.46590999;stroke-linecap:butt;stroke-linejoin:miter;stroke-miterlimit:4;stroke-dasharray:none;stroke-opacity:1"
     d="m 144.33274,117.72582 c -11.56302,0.78185 -30.28364,-16.9764 -24.00068,-33.917456"
     id="path891-8-4"
     inkscape:connector-curvature="0"
     sodipodi:nodetypes="cc" />
  <path
     d="m 139.19031,106.20166 c 1.52709,1.37564 4.8557,1.42069 4.89,1.42069 0.13058,9.6e-4 0.23681,0.11038 0.2357,0.24413 -0.001,0.13268 -0.10733,0.24018 -0.23791,0.24018 -0.001,0 -0.001,0 -0.002,0 -0.14386,-9.6e-4 -3.53997,-0.0465 -5.20096,-1.54217 -0.0985,-0.0886 -0.10845,-0.24167 -0.021,-0.34201 0.0885,-0.10065 0.23903,-0.10942 0.33641,-0.0208 z"
     id="path14-8-7"
     inkscape:connector-curvature="0"
     style="fill:#0041c4;stroke-width:1.08684897" />
  <path
     d="m 139.36627,84.416733 c -0.0257,0.0042 -2.60779,0.413108 -5.42006,1.407985 -0.12416,0.04377 -0.18978,0.181468 -0.14652,0.308497 0.0338,0.100339 0.12604,0.162255 0.22453,0.162255 0.0257,0 0.0519,-0.0042 0.078,-0.01281 2.76902,-0.979932 5.31062,-1.382366 5.33585,-1.386635 0.12981,-0.02028 0.21877,-0.144109 0.19886,-0.276474 -0.019,-0.131298 -0.13988,-0.224167 -0.27067,-0.202818 z"
     id="path6-4"
     inkscape:connector-curvature="0"
     style="fill:#0041c4;stroke-width:1.08684897" />
  <path
     d="m 154.90616,85.479692 c 2.21151,-0.117421 4.08518,0.239113 4.10377,0.242314 0.0147,0.0032 0.03,0.0042 0.0447,0.0042 0.11176,0 0.21169,-0.08006 0.2336,-0.196415 0.0247,-0.132365 -0.06,-0.259392 -0.1889,-0.283944 -0.0785,-0.01495 -1.94693,-0.372546 -4.21742,-0.250855 -0.13135,0.0075 -0.23216,0.121692 -0.22552,0.255124 0.008,0.133433 0.11508,0.236977 0.24976,0.229505 z"
     id="path8-0"
     inkscape:connector-curvature="0"
     style="fill:#0041c4;stroke-width:1.08684897" />
  <path
     style="fill:none;stroke:#0041c4;stroke-width:0.5727694;stroke-linecap:butt;stroke-linejoin:miter;stroke-miterlimit:4;stroke-dasharray:none;stroke-opacity:1"
     d="m 146.77766,65.887159 c 0.88768,13.694568 -13.23748,22.616082 -26.44741,17.923907"
     id="path891-8-4-9"
     inkscape:connector-curvature="0"
     sodipodi:nodetypes="cc" />
  <path
     style="fill:none;stroke:#0041c4;stroke-width:0.5727694;stroke-linecap:butt;stroke-linejoin:miter;stroke-miterlimit:4;stroke-dasharray:none;stroke-opacity:1"
     d="m 146.77766,65.887159 c -0.88768,13.694568 13.23748,22.616082 26.44741,17.923907"
     id="path891-8-4-9-9"
     inkscape:connector-curvature="0"
     sodipodi:nodetypes="cc" />
  <path
     style="fill:none;stroke:#0041c4;stroke-width:0.56733519;stroke-linecap:butt;stroke-linejoin:miter;stroke-miterlimit:4;stroke-dasharray:none;stroke-opacity:1"
     d="M 144.01258,55.867563 C 97.927021,37.509479 89.003516,204.10022 104.28521,192.5573"
     id="path891-0"
     inkscape:connector-curvature="0"
     sodipodi:nodetypes="cc" />
  <path
     style="fill:none;stroke:#0041c4;stroke-width:0.56733519;stroke-linecap:butt;stroke-linejoin:miter;stroke-miterlimit:4;stroke-dasharray:none;stroke-opacity:1"
     d="m 144.01258,55.867563 c 43.68596,-18.74644 72.20349,132.297547 50.91996,133.164517"
     id="path891-0-8"
     inkscape:connector-curvature="0"
     sodipodi:nodetypes="cc" />
  <path
     style="fill:none;stroke:#0041c4;stroke-width:0.50717556;stroke-linecap:butt;stroke-linejoin:miter;stroke-miterlimit:4;stroke-dasharray:none;stroke-opacity:1"
     d="m 140.54118,117.50317 v 18.9881"
     id="path947-1"
     inkscape:connector-curvature="0" />
  <path
     style="fill:none;stroke:#0041c4;stroke-width:0.50717556;stroke-linecap:butt;stroke-linejoin:miter;stroke-miterlimit:4;stroke-dasharray:none;stroke-opacity:1"
     d="m 147.37959,117.43719 1.27109,18.58523"
     id="path949-3"
     inkscape:connector-curvature="0"
     sodipodi:nodetypes="cc" />
  <path
     style="fill:none;stroke:#0041c4;stroke-width:0.54342449;stroke-linecap:butt;stroke-linejoin:miter;stroke-miterlimit:4;stroke-dasharray:none;stroke-opacity:1"
     d="m 101.12771,123.69247 c -3.148773,-3.13548 -17.888985,-4.05016 -27.081954,-4.5943"
     id="path949-1"
     inkscape:connector-curvature="0"
     sodipodi:nodetypes="cc" />
  <path
     style="fill:none;stroke:#0041c4;stroke-width:0.54342449;stroke-linecap:butt;stroke-linejoin:miter;stroke-miterlimit:4;stroke-dasharray:none;stroke-opacity:1"
     d="m 180.73464,142.48148 c -5.45247,-2.10217 -8.24068,-3.17651 -13.7754,-4.20128 -6.46986,-1.19792 -13.71207,-1.98572 -18.30856,-2.25778"
     id="path949-1-1"
     inkscape:connector-curvature="0"
     sodipodi:nodetypes="csc" />
  <path
     style="fill:none;stroke:#0041c4;stroke-width:0.54342449;stroke-linecap:butt;stroke-linejoin:miter;stroke-miterlimit:4;stroke-dasharray:none;stroke-opacity:1"
     d="m 114.59502,143.48858 c 3.14877,-3.13548 16.75319,-6.45318 25.94616,-6.99731"
     id="path949-1-1-0"
     inkscape:connector-curvature="0"
     sodipodi:nodetypes="cc" />
  <path
     style="fill:none;stroke:#0041c4;stroke-width:0.54342449;stroke-linecap:butt;stroke-linejoin:miter;stroke-miterlimit:4;stroke-dasharray:none;stroke-opacity:1"
     d="m 51.507899,120.92559 c 6.838524,36.04994 32.461892,23.2061 35.152864,-1.34563"
     id="path943-3"
     inkscape:connector-curvature="0"
     sodipodi:nodetypes="cc" />
  <path
     style="fill:none;stroke:#0041c4;stroke-width:0.54342449;stroke-linecap:butt;stroke-linejoin:miter;stroke-miterlimit:4;stroke-dasharray:none;stroke-opacity:1"
     d="m 20.364343,154.2314 c 8.750941,-2.672 14.378835,-3.85494 20.087356,8.07383"
     id="path945-4"
     inkscape:connector-curvature="0"
     sodipodi:nodetypes="cc" />
  <path
     style="fill:none;stroke:#0041c4;stroke-width:0.45733398;stroke-linecap:butt;stroke-linejoin:miter;stroke-miterlimit:4;stroke-dasharray:none;stroke-opacity:1"
     d="m 158.80733,136.83432 c -2.13517,3.27495 -8.84929,7.54761 -15.08296,8.11595"
     id="path949-1-1-0-0-3"
     inkscape:connector-curvature="0"
     sodipodi:nodetypes="cc" />
  <path
     style="fill:none;stroke:#0041c4;stroke-width:0.45733398;stroke-linecap:butt;stroke-linejoin:miter;stroke-miterlimit:4;stroke-dasharray:none;stroke-opacity:1"
     d="m 162.12072,137.79172 c -1.57703,6.30283 -7.4018,14.539 -16.60887,14.54967"
     id="path949-1-1-0-0-9-1"
     inkscape:connector-curvature="0"
     sodipodi:nodetypes="cc" />
  <path
     style="fill:none;stroke:#0041c4;stroke-width:0.50717556;stroke-linecap:butt;stroke-linejoin:miter;stroke-miterlimit:4;stroke-dasharray:none;stroke-opacity:1"
     d="m 143.72437,144.95027 1.78748,7.39112"
     id="path947-1-9-6"
     inkscape:connector-curvature="0"
     sodipodi:nodetypes="cc" />
  <g
     id="g1348"
     style="fill:#0041c4;fill-opacity:1"
     transform="matrix(1.1065862,0,0,1.0674638,-6.2764149,-48.588001)">
    <path
       inkscape:connector-curvature="0"
       id="path949-1-1-0-0"
       d="m 122.88086,174.79883 -0.35547,0.22461 c 1.98766,3.16045 7.09042,5.90177 12.7793,6.43945 l 0.041,-0.41797 c -5.57764,-0.52716 -10.5935,-3.27058 -12.46484,-6.24609 z"
       style="color:#000000;font-style:normal;font-variant:normal;font-weight:normal;font-stretch:normal;font-size:medium;line-height:normal;font-family:sans-serif;font-variant-ligatures:normal;font-variant-position:normal;font-variant-caps:normal;font-variant-numeric:normal;font-variant-alternates:normal;font-feature-settings:normal;text-indent:0;text-align:start;text-decoration:none;text-decoration-line:none;text-decoration-style:solid;text-decoration-color:#000000;letter-spacing:normal;word-spacing:normal;text-transform:none;writing-mode:lr-tb;direction:ltr;text-orientation:mixed;dominant-baseline:auto;baseline-shift:baseline;text-anchor:start;white-space:normal;shape-padding:0;clip-rule:nonzero;display:inline;overflow:visible;visibility:visible;opacity:1;isolation:auto;mix-blend-mode:normal;color-interpolation:sRGB;color-interpolation-filters:linearRGB;solid-color:#000000;solid-opacity:1;vector-effect:none;fill:#0041c4;fill-opacity:1;fill-rule:nonzero;stroke:none;stroke-width:0.42078891;stroke-linecap:butt;stroke-linejoin:miter;stroke-miterlimit:4;stroke-dasharray:none;stroke-dashoffset:0;stroke-opacity:1;color-rendering:auto;image-rendering:auto;shape-rendering:auto;text-rendering:auto;enable-background:accumulate" />
    <path
       inkscape:connector-curvature="0"
       id="path949-1-1-0-0-9"
       d="m 118.27148,176.00586 -0.41601,0.0605 c 0.34843,2.41946 2.51958,5.77152 5.49414,8.4082 2.97456,2.63668 6.77038,4.5525 10.39648,3.91016 l -0.0723,-0.41407 c -3.43356,0.60824 -7.12803,-1.22497 -10.04492,-3.81054 -2.9169,-2.58557 -5.03708,-5.92986 -5.35743,-8.1543 z"
       style="color:#000000;font-style:normal;font-variant:normal;font-weight:normal;font-stretch:normal;font-size:medium;line-height:normal;font-family:sans-serif;font-variant-ligatures:normal;font-variant-position:normal;font-variant-caps:normal;font-variant-numeric:normal;font-variant-alternates:normal;font-feature-settings:normal;text-indent:0;text-align:start;text-decoration:none;text-decoration-line:none;text-decoration-style:solid;text-decoration-color:#000000;letter-spacing:normal;word-spacing:normal;text-transform:none;writing-mode:lr-tb;direction:ltr;text-orientation:mixed;dominant-baseline:auto;baseline-shift:baseline;text-anchor:start;white-space:normal;shape-padding:0;clip-rule:nonzero;display:inline;overflow:visible;visibility:visible;opacity:1;isolation:auto;mix-blend-mode:normal;color-interpolation:sRGB;color-interpolation-filters:linearRGB;solid-color:#000000;solid-opacity:1;vector-effect:none;fill:#0041c4;fill-opacity:1;fill-rule:nonzero;stroke:none;stroke-width:0.42078891;stroke-linecap:butt;stroke-linejoin:miter;stroke-miterlimit:4;stroke-dasharray:none;stroke-dashoffset:0;stroke-opacity:1;color-rendering:auto;image-rendering:auto;shape-rendering:auto;text-rendering:auto;enable-background:accumulate" />
    <path
       inkscape:connector-curvature="0"
       id="path947-1-9"
       d="m 135.09766,181.20117 -1.61524,6.92383 0.45508,0.10547 1.61523,-6.92383 z"
       style="color:#000000;font-style:normal;font-variant:normal;font-weight:normal;font-stretch:normal;font-size:medium;line-height:normal;font-family:sans-serif;font-variant-ligatures:normal;font-variant-position:normal;font-variant-caps:normal;font-variant-numeric:normal;font-variant-alternates:normal;font-feature-settings:normal;text-indent:0;text-align:start;text-decoration:none;text-decoration-line:none;text-decoration-style:solid;text-decoration-color:#000000;letter-spacing:normal;word-spacing:normal;text-transform:none;writing-mode:lr-tb;direction:ltr;text-orientation:mixed;dominant-baseline:auto;baseline-shift:baseline;text-anchor:start;white-space:normal;shape-padding:0;clip-rule:nonzero;display:inline;overflow:visible;visibility:visible;opacity:1;isolation:auto;mix-blend-mode:normal;color-interpolation:sRGB;color-interpolation-filters:linearRGB;solid-color:#000000;solid-opacity:1;vector-effect:none;fill:#0041c4;fill-opacity:1;fill-rule:nonzero;stroke:none;stroke-width:0.46664771;stroke-linecap:butt;stroke-linejoin:miter;stroke-miterlimit:4;stroke-dasharray:none;stroke-dashoffset:0;stroke-opacity:1;color-rendering:auto;image-rendering:auto;shape-rendering:auto;text-rendering:auto;enable-background:accumulate" />
    <path
       inkscape:connector-curvature="0"
       id="path947-1-9-3"
       d="m 122.69922,174.67773 c -1.30876,0.0234 -3.28304,0.66034 -4.71094,1.13672 l 0.14844,0.44336 c 1.42168,-0.47431 3.41079,-1.09252 4.57031,-1.11328 z"
       style="color:#000000;font-style:normal;font-variant:normal;font-weight:normal;font-stretch:normal;font-size:medium;line-height:normal;font-family:sans-serif;font-variant-ligatures:normal;font-variant-position:normal;font-variant-caps:normal;font-variant-numeric:normal;font-variant-alternates:normal;font-feature-settings:normal;text-indent:0;text-align:start;text-decoration:none;text-decoration-line:none;text-decoration-style:solid;text-decoration-color:#000000;letter-spacing:normal;word-spacing:normal;text-transform:none;writing-mode:lr-tb;direction:ltr;text-orientation:mixed;dominant-baseline:auto;baseline-shift:baseline;text-anchor:start;white-space:normal;shape-padding:0;clip-rule:nonzero;display:inline;overflow:visible;visibility:visible;opacity:1;isolation:auto;mix-blend-mode:normal;color-interpolation:sRGB;color-interpolation-filters:linearRGB;solid-color:#000000;solid-opacity:1;vector-effect:none;fill:#0041c4;fill-opacity:1;fill-rule:nonzero;stroke:none;stroke-width:0.46664771;stroke-linecap:butt;stroke-linejoin:miter;stroke-miterlimit:4;stroke-dasharray:none;stroke-dashoffset:0;stroke-opacity:1;color-rendering:auto;image-rendering:auto;shape-rendering:auto;text-rendering:auto;enable-background:accumulate" />
  </g>
  <path
     style="opacity:1;fill:#0041c4;fill-opacity:1;fill-rule:nonzero;stroke:#0041c4;stroke-width:0.04843945;stroke-miterlimit:4;stroke-dasharray:none;stroke-opacity:1"
     d="m 138.68464,152.02418 c -2.74981,-0.43236 -5.59594,-1.90131 -8.4175,-4.34446 -2.51814,-2.18043 -5.10224,-5.86641 -5.48212,-7.81971 l -0.0661,-0.33958 0.54778,-0.15362 c 0.85672,-0.24026 3.74261,-0.90915 3.92816,-0.9105 0.0917,-6.4e-4 0.36398,0.24501 0.60493,0.54593 2.32152,2.89935 7.32699,5.31715 12.47039,6.02357 0.44757,0.0614 0.81378,0.12212 0.81378,0.13476 0,0.13729 -1.66391,6.82521 -1.70885,6.86857 -0.12426,0.11986 -1.91775,0.11655 -2.69054,-0.005 z"
     id="path1350"
     inkscape:connector-curvature="0" />
  <path
     style="opacity:1;fill:#0041c4;fill-opacity:1;fill-rule:nonzero;stroke:none;stroke-width:0.04843945;stroke-miterlimit:4;stroke-dasharray:none;stroke-opacity:1"
     d="m 145.71815,151.86017 c -0.69436,-2.7595 -1.55478,-6.49783 -1.51724,-6.59219 0.0282,-0.0709 0.29611,-0.15159 0.62524,-0.18825 0.80926,-0.0901 2.96543,-0.64872 4.07753,-1.05639 2.16923,-0.79519 4.68983,-2.141 6.52638,-3.48458 0.9092,-0.66514 2.63469,-2.24244 3.08267,-2.81791 l 0.28775,-0.36963 1.46208,0.20211 c 0.80416,0.11115 1.48806,0.22714 1.5198,0.25775 0.0318,0.0306 -0.15092,0.66038 -0.40587,1.39949 -0.81641,2.36668 -2.28063,4.96406 -3.87043,6.86573 -1.4464,1.73014 -3.81532,3.62456 -5.63243,4.50421 -1.59268,0.77103 -3.54597,1.30279 -5.29865,1.44254 -0.78498,0.0626 -0.80086,0.0595 -0.85683,-0.16288 z"
     id="path1352"
     inkscape:connector-curvature="0" />
  <path
     style="fill:none;stroke:#0041c4;stroke-width:0.56733519;stroke-linecap:butt;stroke-linejoin:miter;stroke-miterlimit:4;stroke-dasharray:none;stroke-opacity:1"
     d="m 103.94209,170.89205 c -7.047636,47.57962 51.23584,84.652 80.84621,38.70939"
     id="path891-0-3"
     inkscape:connector-curvature="0"
     sodipodi:nodetypes="cc" />
  <path
     style="fill:none;stroke:#0041c4;stroke-width:0.56733519;stroke-linecap:butt;stroke-linejoin:miter;stroke-miterlimit:4;stroke-dasharray:none;stroke-opacity:1"
     d="m 157.58883,172.13346 c -20.77655,13.21019 15.73778,36.2592 21.56754,6.94248"
     id="path891-0-3-8"
     inkscape:connector-curvature="0"
     sodipodi:nodetypes="cc" />
  <path
     style="fill:none;stroke:#0041c4;stroke-width:0.56733519;stroke-linecap:butt;stroke-linejoin:miter;stroke-miterlimit:4;stroke-dasharray:none;stroke-opacity:1"
     d="m 192.96578,171.02676 c 3.75075,15.06356 1.45131,30.11917 -8.27995,38.48861 -17.36889,14.93824 -46.19745,15.42286 -51.7425,-4.46346"
     id="path891-0-3-0"
     inkscape:connector-curvature="0"
     sodipodi:nodetypes="csc" />
  <path
     style="fill:none;stroke:#0041c4;stroke-width:0.50717556;stroke-linecap:butt;stroke-linejoin:miter;stroke-miterlimit:4;stroke-dasharray:none;stroke-opacity:1"
     d="m 150.85215,181.0661 -24.90342,5.11655"
     id="path947-1-5"
     inkscape:connector-curvature="0"
     sodipodi:nodetypes="cc" />
  <path
     style="fill:none;stroke:#0041c4;stroke-width:0.50717556;stroke-linecap:butt;stroke-linejoin:miter;stroke-miterlimit:4;stroke-dasharray:none;stroke-opacity:1"
     d="m 168.09048,193.33033 1.65538,16.14613"
     id="path947-1-5-6"
     inkscape:connector-curvature="0"
     sodipodi:nodetypes="cc" />
  <path
     style="fill:none;stroke:#0041c4;stroke-width:0.54342449;stroke-linecap:butt;stroke-linejoin:miter;stroke-miterlimit:4;stroke-dasharray:none;stroke-opacity:1"
     d="m 125.94873,186.18265 c -7.31403,2.14658 -4.6556,14.47226 6.155,8.456"
     id="path943-6"
     inkscape:connector-curvature="0"
     sodipodi:nodetypes="cc" />
  <path
     style="fill:none;stroke:#0041c4;stroke-width:0.54342449;stroke-linecap:butt;stroke-linejoin:miter;stroke-miterlimit:4;stroke-dasharray:none;stroke-opacity:1"
     d="m 132.10373,194.63865 c -7.31403,2.14658 -4.6556,14.47226 6.155,8.45601"
     id="path943-6-4"
     inkscape:connector-curvature="0"
     sodipodi:nodetypes="cc" />
  <path
     style="fill:none;stroke:#0041c4;stroke-width:0.54342449;stroke-linecap:butt;stroke-linejoin:miter;stroke-miterlimit:4;stroke-dasharray:none;stroke-opacity:1"
     d="m 138.25873,203.09466 c -6.00511,4.56403 1.11538,15.11481 8.92001,5.71984"
     id="path943-6-4-0"
     inkscape:connector-curvature="0"
     sodipodi:nodetypes="cc" />
  <path
     style="fill:none;stroke:#0041c4;stroke-width:0.54342449;stroke-linecap:butt;stroke-linejoin:miter;stroke-miterlimit:4;stroke-dasharray:none;stroke-opacity:1"
     d="m 147.17874,208.8145 c -3.47397,6.56938 7.57024,13.27732 10.58277,1.59392"
     id="path943-6-4-0-0"
     inkscape:connector-curvature="0"
     sodipodi:nodetypes="cc" />
  <path
     style="fill:none;stroke:#0041c4;stroke-width:0.54342449;stroke-linecap:butt;stroke-linejoin:miter;stroke-miterlimit:4;stroke-dasharray:none;stroke-opacity:1"
     d="m 157.76151,210.40842 c -0.12608,9.39231 12.87769,9.15159 11.98435,-0.93196"
     id="path943-6-4-0-0-4"
     inkscape:connector-curvature="0"
     sodipodi:nodetypes="cc" />
  <path
     style="fill:none;stroke:#0041c4;stroke-width:0.50717556;stroke-linecap:butt;stroke-linejoin:miter;stroke-miterlimit:4;stroke-dasharray:none;stroke-opacity:1"
     d="m 170.93295,170.26931 c -2.76393,2.20091 -4.04531,6.08924 -13.34412,1.86415"
     id="path947-1-6"
     inkscape:connector-curvature="0"
     sodipodi:nodetypes="cc" />
  <path
     style="fill:none;stroke:#0041c4;stroke-width:0.50717556;stroke-linecap:butt;stroke-linejoin:miter;stroke-miterlimit:4;stroke-dasharray:none;stroke-opacity:1"
     d="m 170.93295,170.26931 c 0.47935,1.30825 -4.2103,10.95921 7.66544,12.03616"
     id="path947-1-6-2"
     inkscape:connector-curvature="0"
     sodipodi:nodetypes="cc" />
  <path
     style="fill:none;stroke:#0041c4;stroke-width:0.56733519;stroke-linecap:butt;stroke-linejoin:miter;stroke-miterlimit:4;stroke-dasharray:none;stroke-opacity:1"
     d="m 179.43536,186.88064 c 16.03371,-15.36321 -17.9697,-42.71826 -34.12213,-5.05858"
     id="path891-0-3-8-6"
     inkscape:connector-curvature="0"
     sodipodi:nodetypes="cc" />
  <path
     style="fill:none;stroke:#0041c4;stroke-width:0.56733519;stroke-linecap:butt;stroke-linejoin:miter;stroke-miterlimit:4;stroke-dasharray:none;stroke-opacity:1"
     d="m 169.33484,204.45616 c 9.46019,2.14953 21.49147,-11.66412 10.10052,-17.57552"
     id="path891-0-3-8-6-7"
     inkscape:connector-curvature="0"
     sodipodi:nodetypes="cc" />
  <path
     style="fill:none;stroke:#0041c4;stroke-width:0.50717556;stroke-linecap:butt;stroke-linejoin:miter;stroke-miterlimit:4;stroke-dasharray:none;stroke-opacity:1"
     d="m 137.42217,183.76717 c -4.08635,-6.04537 4.48395,-13.12502 5.72102,-1.18391"
     id="path947-1-56-9"
     inkscape:connector-curvature="0"
     sodipodi:nodetypes="cc" />
  <path
     style="fill:none;stroke:#0041c4;stroke-width:0.50717556;stroke-linecap:butt;stroke-linejoin:miter;stroke-miterlimit:4;stroke-dasharray:none;stroke-opacity:1"
     d="m 168.89941,200.9134 c 7.07929,0.32103 11.94872,-7.50952 -0.59182,-5.18023"
     id="path947-1-56-9-8"
     inkscape:connector-curvature="0"
     sodipodi:nodetypes="cc" />
  <path
     d="m 167.31978,183.45288 c 0.68963,0 1.24868,-0.57067 1.24868,-1.27466 0,-0.70399 -0.55905,-1.27466 -1.24868,-1.27466 -0.68962,0 -1.24867,0.57067 -1.24867,1.27466 0,0.70399 0.55905,1.27466 1.24867,1.27466 z"
     id="path30-6-7"
     inkscape:connector-curvature="0"
     style="fill:#0041c4;stroke-width:1.08684897" />
  <path
     d="m 160.93426,179.64684 c 0.68963,0 1.24878,-0.57066 1.24878,-1.27465 0,-0.704 -0.55915,-1.27467 -1.24878,-1.27467 -0.68962,0 -1.24867,0.57067 -1.24867,1.27467 0,0.70399 0.55905,1.27465 1.24867,1.27465 z"
     id="path32-2-2"
     inkscape:connector-curvature="0"
     style="fill:#0041c4;stroke-width:1.08684897" />
  <path
     d="m 160.21072,184.85108 c 1.09063,0.70985 3.46788,0.73309 3.49238,0.73309 0.0933,5e-4 0.16913,0.057 0.16833,0.12598 -7.9e-4,0.0684 -0.0767,0.12394 -0.16992,0.12394 -7.8e-4,0 -7.8e-4,0 -0.001,0 -0.1027,-5e-4 -2.5282,-0.024 -3.71445,-0.79579 -0.0704,-0.0457 -0.0775,-0.1247 -0.0151,-0.17648 0.0632,-0.052 0.17071,-0.0565 0.24025,-0.0108 z"
     id="path14-8-7-8"
     inkscape:connector-curvature="0"
     style="fill:#0041c4;stroke-width:0.65979093" />
  <path
     style="fill:none;stroke:#0041c4;stroke-width:0.50717556;stroke-linecap:butt;stroke-linejoin:miter;stroke-miterlimit:4;stroke-dasharray:none;stroke-opacity:1"
     d="m 123.85767,220.43625 c -4.67407,10.80633 -16.81303,0.55435 -4.97554,-3.61575"
     id="path947-1-56-9-2"
     inkscape:connector-curvature="0"
     sodipodi:nodetypes="cc" />
  <path
     style="fill:none;stroke:#0041c4;stroke-width:0.54342449;stroke-linecap:butt;stroke-linejoin:miter;stroke-miterlimit:4;stroke-dasharray:none;stroke-opacity:1"
     d="m 99.550571,170.86288 c 4.259169,-1.47541 20.659809,2.38389 26.398159,15.31977"
     id="path949-1-1-0-9"
     inkscape:connector-curvature="0"
     sodipodi:nodetypes="cc" />
  <path
     style="fill:none;stroke:#0041c4;stroke-width:0.54342449;stroke-linecap:butt;stroke-linejoin:miter;stroke-miterlimit:4;stroke-dasharray:none;stroke-opacity:1"
     d="m 197.47138,171.33303 c -4.5056,-0.30627 -8.82322,0.48086 -14.16701,5.04346"
     id="path949-1-1-0-9-9"
     inkscape:connector-curvature="0"
     sodipodi:nodetypes="cc" />
  <path
     style="fill:none;stroke:#0041c4;stroke-width:0.54342449;stroke-linecap:butt;stroke-linejoin:miter;stroke-miterlimit:4;stroke-dasharray:none;stroke-opacity:1"
     d="m 99.550571,170.86288 c 2.359649,-8.08332 7.429689,-23.40471 15.044449,-27.3743"
     id="path949-1-1-0-6"
     inkscape:connector-curvature="0"
     sodipodi:nodetypes="cc" />
  <path
     style="fill:none;stroke:#0041c4;stroke-width:0.54342449;stroke-linecap:butt;stroke-linejoin:miter;stroke-miterlimit:4;stroke-dasharray:none;stroke-opacity:1"
     d="m 197.47138,171.33303 c -0.69513,-6.08229 -9.01521,-24.55084 -16.73674,-28.85155"
     id="path949-1-1-0-02"
     inkscape:connector-curvature="0"
     sodipodi:nodetypes="cc" />
  <path
     style="fill:none;stroke:#0041c4;stroke-width:0.50717556;stroke-linecap:butt;stroke-linejoin:miter;stroke-miterlimit:4;stroke-dasharray:none;stroke-opacity:1"
     d="m 130.96511,225.50888 c -4.67407,10.80633 -16.90217,1.08917 -5.06468,-3.08093"
     id="path947-1-56-9-2-7"
     inkscape:connector-curvature="0"
     sodipodi:nodetypes="cc" />
  <path
     style="opacity:1;fill:#0041c4;fill-opacity:1;fill-rule:nonzero;stroke:none;stroke-width:0.52700001;stroke-miterlimit:4;stroke-dasharray:none;stroke-opacity:1"
     id="path1732"
     sodipodi:type="arc"
     sodipodi:cx="51.504612"
     sodipodi:cy="73.369652"
     sodipodi:rx="0.75635594"
     sodipodi:ry="0.81938559"
     sodipodi:start="0"
     sodipodi:end="6.2711949"
     sodipodi:open="true"
     d="m 52.260968,73.369652 a 0.75635594,0.81938559 0 0 1 -0.754089,0.819382 0.75635594,0.81938559 0 0 1 -0.758609,-0.81447 0.75635594,0.81938559 0 0 1 0.74954,-0.824265 0.75635594,0.81938559 0 0 1 0.763104,0.809528" />
  <path
     style="opacity:1;fill:#0041c4;fill-opacity:1;fill-rule:nonzero;stroke:none;stroke-width:0.52700001;stroke-miterlimit:4;stroke-dasharray:none;stroke-opacity:1"
     id="path1732-6"
     sodipodi:type="arc"
     sodipodi:cx="54.373814"
     sodipodi:cy="75.591652"
     sodipodi:rx="0.75635594"
     sodipodi:ry="0.81938559"
     sodipodi:start="0"
     sodipodi:end="6.2711949"
     sodipodi:open="true"
     d="m 55.13017,75.591652 a 0.75635594,0.81938559 0 0 1 -0.754089,0.819382 0.75635594,0.81938559 0 0 1 -0.75861,-0.81447 0.75635594,0.81938559 0 0 1 0.749541,-0.824265 0.75635594,0.81938559 0 0 1 0.763103,0.809528" />
  <path
     style="opacity:1;fill:#0041c4;fill-opacity:1;fill-rule:nonzero;stroke:none;stroke-width:0.52700001;stroke-miterlimit:4;stroke-dasharray:none;stroke-opacity:1"
     id="path1732-1"
     sodipodi:type="arc"
     sodipodi:cx="51.52142"
     sodipodi:cy="76.661301"
     sodipodi:rx="0.75635594"
     sodipodi:ry="0.81938559"
     sodipodi:start="0"
     sodipodi:end="6.2711949"
     sodipodi:open="true"
     d="m 52.277775,76.661301 a 0.75635594,0.81938559 0 0 1 -0.754088,0.819382 0.75635594,0.81938559 0 0 1 -0.75861,-0.81447 0.75635594,0.81938559 0 0 1 0.749541,-0.824265 0.75635594,0.81938559 0 0 1 0.763103,0.809528" />
  <path
     style="opacity:1;fill:#0041c4;fill-opacity:1;fill-rule:nonzero;stroke:none;stroke-width:0.52700001;stroke-miterlimit:4;stroke-dasharray:none;stroke-opacity:1"
     id="path1732-3"
     sodipodi:type="arc"
     sodipodi:cx="-85.223755"
     sodipodi:cy="73.054451"
     sodipodi:rx="0.75635594"
     sodipodi:ry="0.81938559"
     sodipodi:start="0"
     sodipodi:end="6.2711949"
     sodipodi:open="true"
     d="m -84.467399,73.054451 a 0.75635594,0.81938559 0 0 1 -0.754089,0.819382 0.75635594,0.81938559 0 0 1 -0.758609,-0.81447 0.75635594,0.81938559 0 0 1 0.74954,-0.824264 0.75635594,0.81938559 0 0 1 0.763104,0.809527"
     transform="scale(-1,1)" />
  <path
     style="opacity:1;fill:#0041c4;fill-opacity:1;fill-rule:nonzero;stroke:none;stroke-width:0.52700001;stroke-miterlimit:4;stroke-dasharray:none;stroke-opacity:1"
     id="path1732-6-2"
     sodipodi:type="arc"
     sodipodi:cx="-82.354553"
     sodipodi:cy="75.276451"
     sodipodi:rx="0.75635594"
     sodipodi:ry="0.81938559"
     sodipodi:start="0"
     sodipodi:end="6.2711949"
     sodipodi:open="true"
     d="m -81.598197,75.276451 a 0.75635594,0.81938559 0 0 1 -0.754089,0.819382 0.75635594,0.81938559 0 0 1 -0.75861,-0.81447 0.75635594,0.81938559 0 0 1 0.749541,-0.824264 0.75635594,0.81938559 0 0 1 0.763103,0.809528"
     transform="scale(-1,1)" />
  <path
     style="opacity:1;fill:#0041c4;fill-opacity:1;fill-rule:nonzero;stroke:none;stroke-width:0.52700001;stroke-miterlimit:4;stroke-dasharray:none;stroke-opacity:1"
     id="path1732-1-1"
     sodipodi:type="arc"
     sodipodi:cx="-85.206947"
     sodipodi:cy="76.3461"
     sodipodi:rx="0.75635594"
     sodipodi:ry="0.81938559"
     sodipodi:start="0"
     sodipodi:end="6.2711949"
     sodipodi:open="true"
     d="m -84.450591,76.3461 a 0.75635594,0.81938559 0 0 1 -0.754089,0.819382 0.75635594,0.81938559 0 0 1 -0.75861,-0.81447 0.75635594,0.81938559 0 0 1 0.749541,-0.824265 0.75635594,0.81938559 0 0 1 0.763103,0.809528"
     transform="scale(-1,1)" />
  <path
     d="m 79.153914,61.445541 c 1.231123,0 2.229337,-0.929828 2.229337,-2.076895 0,-1.147066 -0.998214,-2.076894 -2.229337,-2.076894 -1.231124,0 -2.22914,0.929828 -2.22914,2.076894 0,1.147067 0.998016,2.076895 2.22914,2.076895 z"
     id="path32-5"
     inkscape:connector-curvature="0"
     style="fill:#0041c4;stroke-width:1.85363448" />
  <path
     d="m 137.21881,94.016408 c 1.23113,0 2.22934,-0.929828 2.22934,-2.076895 0,-1.147066 -0.99821,-2.076894 -2.22934,-2.076894 -1.23112,0 -2.22914,0.929828 -2.22914,2.076894 0,1.147067 0.99802,2.076895 2.22914,2.076895 z"
     id="path32-9"
     inkscape:connector-curvature="0"
     style="fill:#0041c4;stroke-width:1.85363448" />
  <path
     d="m 156.10421,94.06208 c 1.23112,0 2.22934,-0.929828 2.22934,-2.076895 0,-1.147066 -0.99822,-2.076894 -2.22934,-2.076894 -1.23112,0 -2.22914,0.929828 -2.22914,2.076894 0,1.147067 0.99802,2.076895 2.22914,2.076895 z"
     id="path32-5-9"
     inkscape:connector-curvature="0"
     style="fill:#0041c4;stroke-width:1.85363448" />
  <path
     d="m 147.66851,100.9822 c -0.5066,0.34799 -1.13215,0.43552 -1.63631,0.43552 -0.49708,0 -0.87675,-0.0854 -0.90763,-0.0929 -0.12803,-0.0299 -0.20837,-0.15905 -0.17893,-0.29035 0.0296,-0.13129 0.15747,-0.21349 0.28495,-0.18253 0.0128,0.003 1.33432,0.30316 2.173,-0.27327 0.35245,-0.24125 0.57133,-0.613795 0.65067,-1.106963 0.021,-0.131299 0.14319,-0.222032 0.27311,-0.199616 0.12936,0.02241 0.21733,0.146242 0.19597,0.278608 -0.1018,0.630871 -0.38907,1.112301 -0.85483,1.431471 z"
     id="path16-1"
     inkscape:connector-curvature="0"
     style="fill:#0041c4;stroke-width:1.08684897" />
</svg>
