<?xml version="1.0" encoding="UTF-8" standalone="no"?>
<!-- Created with Inkscape (http://www.inkscape.org/) -->

<svg
   xmlns:dc="http://purl.org/dc/elements/1.1/"
   xmlns:cc="http://creativecommons.org/ns#"
   xmlns:rdf="http://www.w3.org/1999/02/22-rdf-syntax-ns#"
   xmlns:svg="http://www.w3.org/2000/svg"
   xmlns="http://www.w3.org/2000/svg"
   xmlns:sodipodi="http://sodipodi.sourceforge.net/DTD/sodipodi-0.dtd"
   xmlns:inkscape="http://www.inkscape.org/namespaces/inkscape"
   width="400"
   height="400"
   viewBox="0 0 105.83333 105.83333"
   version="1.1"
   id="svg8"
   inkscape:version="0.92.3 (2405546, 2018-03-11)"
   sodipodi:docname="apple.svg">
  <defs
     id="defs2" />
  <sodipodi:namedview
     id="base"
     pagecolor="#ffffff"
     bordercolor="#666666"
     borderopacity="1.0"
     inkscape:pageopacity="0.0"
     inkscape:pageshadow="2"
     inkscape:zoom="1.1658423"
     inkscape:cx="-69.328553"
     inkscape:cy="91.461239"
     inkscape:document-units="mm"
     inkscape:current-layer="layer1"
     showgrid="true"
     units="px"
     showguides="true"
     inkscape:guide-bbox="true"
     inkscape:window-width="1920"
     inkscape:window-height="1006"
     inkscape:window-x="0"
     inkscape:window-y="0"
     inkscape:window-maximized="1"
     inkscape:snap-to-guides="false"
     inkscape:snap-grids="false">
    <inkscape:grid
       type="xygrid"
       id="grid4530" />
  </sodipodi:namedview>
  <metadata
     id="metadata5">
    <rdf:RDF>
      <cc:Work
         rdf:about="">
        <dc:format>image/svg+xml</dc:format>
        <dc:type
           rdf:resource="http://purl.org/dc/dcmitype/StillImage" />
        <dc:title />
      </cc:Work>
    </rdf:RDF>
  </metadata>
  <g
     inkscape:label="Layer 1"
     inkscape:groupmode="layer"
     id="layer1"
     transform="translate(0,-191.16667)">
    <g
       id="g931"
       style="fill:#000000;fill-opacity:1;fill-rule:nonzero;stroke:none">
      <circle
         r="33.845997"
         cy="252.51601"
         cx="52.850002"
         id="path4540"
         style="opacity:1;fill:#000000;fill-opacity:1;fill-rule:nonzero;stroke:none;stroke-width:0.30800921;stroke-opacity:1" />
      <path
         inkscape:connector-curvature="0"
         id="path853-3-3-0"
         d="m 50.71414,213.61201 c -0.783615,0.45229 -1.489166,0.78979 -2.363998,1.13071 -2.550547,0.99384 -4.834309,1.11929 -7.257372,0.39865 -0.833062,-0.2477 -2.508568,-1.06023 -3.302406,-1.60142 -1.621546,-1.10542 -3.194057,-2.54946 -4.717125,-4.33171 -1.079152,-1.26286 -3.712174,-4.68198 -5.107124,-6.63192 -0.39785,-0.5561 -0.484193,-0.49262 0.768012,-0.56472 3.28784,-0.18925 6.672574,-0.27991 8.430985,-0.22578 4.293357,0.13225 7.18041,0.98302 9.457451,2.78727 1.565706,1.24059 2.873426,3.15608 3.690445,5.40565 0.430249,1.18558 0.954827,3.14557 0.882525,3.29957 -0.01962,0.0422 -0.23637,0.19234 -0.481393,0.3337 z"
         style="opacity:1;fill:#000000;fill-opacity:1;fill-rule:nonzero;stroke:none;stroke-width:0.04937607;stroke-opacity:0" />
      <path
         inkscape:connector-curvature="0"
         id="path853-3-3-0-6"
         d="m 55.153135,213.61201 c 0.783616,0.45229 1.489166,0.78979 2.363999,1.13071 2.550547,0.99384 4.834309,1.11929 7.257372,0.39865 0.833062,-0.2477 2.508567,-1.06023 3.302406,-1.60142 1.621546,-1.10542 3.194057,-2.54946 4.717125,-4.33171 1.079152,-1.26286 3.712174,-4.68198 5.107124,-6.63192 0.39785,-0.5561 0.484193,-0.49262 -0.768012,-0.56472 -3.28784,-0.18925 -6.672574,-0.27991 -8.430985,-0.22578 -4.293357,0.13225 -7.18041,0.98302 -9.457452,2.78727 -1.565705,1.24059 -2.873425,3.15608 -3.690445,5.40565 -0.430249,1.18558 -0.954827,3.14557 -0.882524,3.29957 0.01961,0.0422 0.23637,0.19234 0.481392,0.3337 z"
         style="opacity:1;fill:#000000;fill-opacity:1;fill-rule:nonzero;stroke:none;stroke-width:0.04937607;stroke-opacity:0" />
    </g>
  </g>
</svg>
