<?xml version="1.0" encoding="UTF-8" standalone="no"?>
<!-- Created with Inkscape (http://www.inkscape.org/) -->

<svg
   xmlns:dc="http://purl.org/dc/elements/1.1/"
   xmlns:cc="http://creativecommons.org/ns#"
   xmlns:rdf="http://www.w3.org/1999/02/22-rdf-syntax-ns#"
   xmlns:svg="http://www.w3.org/2000/svg"
   xmlns="http://www.w3.org/2000/svg"
   xmlns:sodipodi="http://sodipodi.sourceforge.net/DTD/sodipodi-0.dtd"
   xmlns:inkscape="http://www.inkscape.org/namespaces/inkscape"
   width="400"
   height="400"
   viewBox="0 0 105.83333 105.83333"
   version="1.1"
   id="svg8"
   inkscape:version="0.92.3 (2405546, 2018-03-11)"
   sodipodi:docname="branch.svg">
  <defs
     id="defs2" />
  <sodipodi:namedview
     id="base"
     pagecolor="#ffffff"
     bordercolor="#666666"
     borderopacity="1.0"
     inkscape:pageopacity="0.0"
     inkscape:pageshadow="2"
     inkscape:zoom="1.4"
     inkscape:cx="108.81223"
     inkscape:cy="185.80617"
     inkscape:document-units="mm"
     inkscape:current-layer="layer1"
     showgrid="true"
     units="px"
     showguides="true"
     inkscape:guide-bbox="true"
     inkscape:window-width="1920"
     inkscape:window-height="1006"
     inkscape:window-x="0"
     inkscape:window-y="0"
     inkscape:window-maximized="1">
    <inkscape:grid
       type="xygrid"
       id="grid4530" />
  </sodipodi:namedview>
  <metadata
     id="metadata5">
    <rdf:RDF>
      <cc:Work
         rdf:about="">
        <dc:format>image/svg+xml</dc:format>
        <dc:type
           rdf:resource="http://purl.org/dc/dcmitype/StillImage" />
        <dc:title />
      </cc:Work>
    </rdf:RDF>
  </metadata>
  <g
     inkscape:label="Layer 1"
     inkscape:groupmode="layer"
     id="layer1"
     transform="translate(0,-191.16667)">
    <g
       id="g851"
       style="fill:#000000;fill-opacity:1;stroke:none">
      <path
         inkscape:connector-curvature="0"
         id="path853-0"
         d="m 38.893745,223.44584 c 0.202368,-0.78962 0.42489,-1.45669 0.745672,-2.23496 0.935237,-2.26902 2.214728,-3.81962 4.06596,-4.92744 0.636425,-0.38091 2.098229,-0.94921 2.881157,-1.12013 1.599218,-0.34922 3.365218,-0.4537 5.297551,-0.31342 1.369145,0.0994 4.905133,0.55458 6.858563,0.88291 0.55713,0.0936 0.571534,-0.001 -0.128105,0.85033 -1.837008,2.23777 -3.788413,4.47589 -4.86073,5.57493 -2.618171,2.68338 -4.819391,4.00826 -7.210772,4.34003 -1.644344,0.22812 -3.526232,-0.13476 -5.310781,-1.02406 -0.940322,-0.46893 -2.384289,-1.36447 -2.430528,-1.50795 -0.0126,-0.0392 0.0287,-0.27337 0.09201,-0.52023 z"
         style="opacity:1;fill:#000000;fill-opacity:1;fill-rule:nonzero;stroke:none;stroke-width:0.04262472;stroke-opacity:0" />
      <path
         inkscape:connector-curvature="0"
         id="path853-3-3-0"
         d="m 31.140987,224.34183 c -0.619415,0.4627 -1.1822,0.81738 -1.885666,1.18822 -2.050935,1.08115 -3.943021,1.3701 -6.012698,0.91822 -0.711564,-0.15531 -2.165595,-0.7469 -2.865881,-1.166 -1.430442,-0.85598 -2.844727,-2.01661 -4.242484,-3.48156 -0.990369,-1.03799 -3.431379,-3.87081 -4.734692,-5.49466 -0.371713,-0.46313 -0.438968,-0.40001 0.598236,-0.56138 2.723333,-0.42367 5.534507,-0.76729 7.002322,-0.85587 3.583832,-0.21627 6.049262,0.31522 8.076302,1.74108 1.3938,0.98042 2.621985,2.58046 3.465995,4.51542 0.444531,1.0198 1.023995,2.72024 0.97502,2.86266 -0.01326,0.0389 -0.182768,0.18924 -0.376454,0.33387 z"
         style="opacity:1;fill:#000000;fill-opacity:1;fill-rule:nonzero;stroke:none;stroke-width:0.04262472;stroke-opacity:0" />
      <path
         inkscape:connector-curvature="0"
         id="path853-3-8"
         d="m 35.436516,220.05552 c 0.609718,-0.47787 1.10712,-0.93458 1.666555,-1.53023 1.63103,-1.73656 2.526605,-3.58095 2.84595,-5.8611 0.10984,-0.7839 0.09848,-2.47956 -0.02234,-3.34211 -0.246718,-1.76186 -0.7609,-3.61131 -1.542403,-5.54788 -0.553737,-1.37214 -2.154488,-4.84798 -3.104895,-6.74189 -0.271067,-0.54016 -0.193802,-0.58764 -0.687288,0.4224 -1.295721,2.652 -2.552624,5.4216 -3.130804,6.89879 -1.411697,3.60668 -1.797946,6.32051 -1.265297,8.88998 0.366257,1.76679 1.3219,3.5754 2.696886,5.10401 0.724584,0.80555 1.988613,1.98204 2.127813,1.98045 0.03808,-4.5e-4 0.225202,-0.12298 0.415818,-0.27242 z"
         style="opacity:1;fill:#000000;fill-opacity:1;fill-rule:nonzero;stroke:none;stroke-width:0.04262472;stroke-opacity:0" />
      <path
         id="path849"
         transform="matrix(0.26458333,0,0,0.26458333,0,191.16667)"
         d="M 130.47852 132.54297 C 112.63733 184.0279 135.03296 244.79888 169.05664 298.50391 C 118.79552 318.18066 63.584863 325.74848 20 336.32422 L 20 380 C 131.3042 355.18366 259.098 326.73761 290 215 L 275 215 C 255.602 247.19183 228.55166 269.30961 198.1582 285.29102 C 166.89006 234.36373 130.10835 191.32149 146.02344 140 L 130.47852 132.54297 z "
         style="fill:#000000;fill-opacity:1;stroke:none;stroke-width:0.96733665px;stroke-linecap:butt;stroke-linejoin:miter;stroke-opacity:1" />
      <path
         inkscape:connector-curvature="0"
         id="path853-0-8"
         d="m 79.375,248.31665 c 0.580455,-0.57229 1.115007,-1.02919 1.791079,-1.53072 1.971076,-1.46218 3.866793,-2.1313 6.024174,-2.12627 0.741707,0.002 2.287275,0.26828 3.04626,0.52541 1.550378,0.52516 3.117508,1.346 4.700978,2.46232 1.12197,0.79098 3.91728,3.00382 5.421899,4.29216 0.42915,0.3674 0.49025,0.29376 -0.548119,0.66259 -2.72769,0.97055 -5.55357,1.88242 -7.03899,2.27139 -3.626762,0.9497 -6.19594,0.95024 -8.416111,0.002 -1.526622,-0.65218 -2.952123,-1.93325 -4.022855,-3.61521 -0.564018,-0.88656 -1.339688,-2.3983 -1.30534,-2.54509 0.0094,-0.0401 0.165515,-0.21945 0.347016,-0.39834 z"
         style="opacity:1;fill:#000000;fill-opacity:1;fill-rule:nonzero;stroke:none;stroke-width:0.04262472;stroke-opacity:0" />
      <path
         inkscape:connector-curvature="0"
         id="path853-3-3-0-0"
         d="m 72.269859,245.08787 c -0.769292,0.0772 -1.434374,0.091 -2.228335,0.0461 -2.314757,-0.13083 -4.08502,-0.85861 -5.62556,-2.31274 -0.529669,-0.49989 -1.470648,-1.75637 -1.854669,-2.47649 -0.784473,-1.47087 -1.398054,-3.19447 -1.840595,-5.17031 -0.313553,-1.39998 -0.944909,-5.08574 -1.224609,-7.14906 -0.07977,-0.58846 -0.169942,-0.56905 0.802014,-0.17265 2.551997,1.04085 5.137998,2.19556 6.441417,2.87632 3.182435,1.66214 5.021052,3.3885 6.02297,5.65525 0.688926,1.55861 0.916524,3.5628 0.642274,5.65593 -0.144793,1.10302 -0.524833,2.85882 -0.640217,2.95561 -0.03141,0.0265 -0.254165,0.0679 -0.49469,0.092 z"
         style="opacity:1;fill:#000000;fill-opacity:1;fill-rule:nonzero;stroke:none;stroke-width:0.04262472;stroke-opacity:0" />
      <path
         inkscape:connector-curvature="0"
         id="path853-3-8-5"
         d="m 78.160247,243.62932 c 0.768803,-0.0952 1.430455,-0.23011 2.216887,-0.45213 2.29281,-0.64724 4.011002,-1.76601 5.460063,-3.55523 0.49822,-0.61509 1.3626,-2.07394 1.703724,-2.87533 0.696822,-1.6369 1.209616,-3.48674 1.538262,-5.54904 0.232848,-1.46122 0.652972,-5.26481 0.814895,-7.37763 0.04618,-0.60259 0.136861,-0.60344 -0.806678,0.008 -2.477401,1.60453 -4.982152,3.32983 -6.239086,4.29758 -3.068912,2.36279 -4.798865,4.48913 -5.667006,6.96546 -0.596939,1.70275 -0.710398,3.74517 -0.320185,5.76382 0.205627,1.06379 0.682279,2.72352 0.802378,2.79392 0.03286,0.0192 0.256369,0.0107 0.496742,-0.0191 z"
         style="opacity:1;fill:#000000;fill-opacity:1;fill-rule:nonzero;stroke:none;stroke-width:0.04262472;stroke-opacity:0" />
    </g>
  </g>
</svg>
