<?xml version="1.0" encoding="UTF-8" standalone="no"?>
<!-- Created with Inkscape (http://www.inkscape.org/) -->

<svg
   xmlns:dc="http://purl.org/dc/elements/1.1/"
   xmlns:cc="http://creativecommons.org/ns#"
   xmlns:rdf="http://www.w3.org/1999/02/22-rdf-syntax-ns#"
   xmlns:svg="http://www.w3.org/2000/svg"
   xmlns="http://www.w3.org/2000/svg"
   xmlns:sodipodi="http://sodipodi.sourceforge.net/DTD/sodipodi-0.dtd"
   xmlns:inkscape="http://www.inkscape.org/namespaces/inkscape"
   width="400"
   height="400"
   viewBox="0 0 105.83333 105.83333"
   version="1.1"
   id="svg8"
   inkscape:version="0.92.3 (2405546, 2018-03-11)"
   sodipodi:docname="bush.svg">
  <defs
     id="defs2" />
  <sodipodi:namedview
     id="base"
     pagecolor="#ffffff"
     bordercolor="#666666"
     borderopacity="1.0"
     inkscape:pageopacity="0.0"
     inkscape:pageshadow="2"
     inkscape:zoom="1.979899"
     inkscape:cx="140.94416"
     inkscape:cy="191.1169"
     inkscape:document-units="mm"
     inkscape:current-layer="layer1"
     showgrid="true"
     units="px"
     showguides="true"
     inkscape:guide-bbox="true"
     inkscape:window-width="1920"
     inkscape:window-height="1052"
     inkscape:window-x="1920"
     inkscape:window-y="0"
     inkscape:window-maximized="1"
     inkscape:snap-to-guides="false"
     inkscape:snap-grids="true">
    <inkscape:grid
       type="xygrid"
       id="grid4530" />
  </sodipodi:namedview>
  <metadata
     id="metadata5">
    <rdf:RDF>
      <cc:Work
         rdf:about="">
        <dc:format>image/svg+xml</dc:format>
        <dc:type
           rdf:resource="http://purl.org/dc/dcmitype/StillImage" />
        <dc:title />
      </cc:Work>
    </rdf:RDF>
  </metadata>
  <g
     inkscape:label="Layer 1"
     inkscape:groupmode="layer"
     id="layer1"
     transform="translate(0,-191.16667)">
    <g
       id="g1020"
       style="fill:#000000;fill-opacity:1;stroke:none">
      <path
         inkscape:connector-curvature="0"
         id="path853-0"
         d="m 56.785895,223.44584 c 0.202368,-0.78962 0.42489,-1.45669 0.745672,-2.23496 0.935237,-2.26902 2.214728,-3.81962 4.06596,-4.92744 0.636425,-0.38091 2.098229,-0.94921 2.881157,-1.12013 1.599218,-0.34922 3.365218,-0.4537 5.297551,-0.31342 1.369145,0.0994 4.905133,0.55458 6.858563,0.88291 0.55713,0.0936 0.571534,-0.001 -0.128105,0.85033 -1.837008,2.23777 -3.788413,4.47589 -4.86073,5.57493 -2.618171,2.68338 -4.819391,4.00826 -7.210772,4.34003 -1.644344,0.22812 -3.526232,-0.13476 -5.310781,-1.02406 -0.940322,-0.46893 -2.384289,-1.36447 -2.430528,-1.50795 -0.0126,-0.0392 0.0287,-0.27337 0.09201,-0.52023 z"
         style="opacity:1;fill:#000000;fill-opacity:1;fill-rule:nonzero;stroke:none;stroke-width:0.04262472;stroke-opacity:0" />
      <path
         inkscape:connector-curvature="0"
         id="path853-3-3-0"
         d="m 49.033137,224.34183 c -0.619415,0.4627 -1.1822,0.81738 -1.885666,1.18822 -2.050935,1.08115 -3.943021,1.3701 -6.012698,0.91822 -0.711564,-0.15531 -2.165595,-0.7469 -2.865881,-1.166 -1.430442,-0.85598 -2.844727,-2.01661 -4.242484,-3.48156 -0.990369,-1.03799 -3.431379,-3.87081 -4.734692,-5.49466 -0.371713,-0.46313 -0.438968,-0.40001 0.598236,-0.56138 2.723333,-0.42367 5.534507,-0.76729 7.002322,-0.85587 3.583832,-0.21627 6.049262,0.31522 8.076302,1.74108 1.3938,0.98042 2.621985,2.58046 3.465995,4.51542 0.444531,1.0198 1.023995,2.72024 0.97502,2.86266 -0.01326,0.0389 -0.182768,0.18924 -0.376454,0.33387 z"
         style="opacity:1;fill:#000000;fill-opacity:1;fill-rule:nonzero;stroke:none;stroke-width:0.04262472;stroke-opacity:0" />
      <path
         inkscape:connector-curvature="0"
         id="path853-3-8"
         d="m 53.328666,220.05552 c 0.609718,-0.47787 1.10712,-0.93458 1.666555,-1.53023 1.63103,-1.73656 2.526605,-3.58095 2.84595,-5.8611 0.10984,-0.7839 0.09848,-2.47956 -0.02234,-3.34211 -0.246718,-1.76186 -0.7609,-3.61131 -1.542403,-5.54788 -0.553737,-1.37214 -2.154488,-4.84798 -3.104895,-6.74189 -0.271067,-0.54016 -0.193802,-0.58764 -0.687288,0.4224 -1.295721,2.652 -2.552624,5.4216 -3.130804,6.89879 -1.411697,3.60668 -1.797946,6.32051 -1.265297,8.88998 0.366257,1.76679 1.3219,3.5754 2.696886,5.10401 0.724584,0.80555 1.988613,1.98204 2.127813,1.98045 0.03808,-4.5e-4 0.225202,-0.12298 0.415818,-0.27242 z"
         style="opacity:1;fill:#000000;fill-opacity:1;fill-rule:nonzero;stroke:none;stroke-width:0.04262472;stroke-opacity:0" />
      <path
         id="path834-0-8-1"
         transform="matrix(0.26458333,0,0,0.26458333,0,191.16667)"
         d="M 195.71484 130 L 183.71875 314.55664 C 171.76371 272.26201 146.67836 255.36905 120.29297 238.68555 L 118.32031 250.45703 C 149.39231 287.65979 164.85519 305.75666 167.63086 380 L 179.46484 380 L 191 380 L 216 380 L 216 379.98633 L 228.81055 379.9707 C 231.58622 305.72733 247.0491 287.62854 278.12109 250.42578 L 276.14844 238.6543 C 249.79172 255.31967 225.0144 272.20938 213.20703 314.41211 L 205.35742 130 L 195.71484 130 z "
         style="fill:#000000;fill-opacity:1;stroke:none;stroke-width:0.68157244px;stroke-linecap:butt;stroke-linejoin:miter;stroke-opacity:1" />
      <path
         inkscape:connector-curvature="0"
         id="path853-0-0"
         d="m 30.257438,250.54487 c -0.40975,-0.70467 -0.719163,-1.33614 -1.036566,-2.11579 -0.925374,-2.27307 -1.101415,-4.27568 -0.559391,-6.36386 0.186298,-0.71794 0.829311,-2.14846 1.267328,-2.81952 0.894633,-1.3708 2.079817,-2.68419 3.555243,-3.93987 1.045408,-0.88969 3.884546,-3.04601 5.506936,-4.18247 0.462685,-0.32415 0.406587,-0.40167 0.505265,0.69583 0.26083,2.88343 0.440386,5.84738 0.447274,7.38285 0.01678,3.74902 -0.622373,6.23742 -2.093763,8.15152 -1.01174,1.31616 -2.607393,2.37781 -4.502976,2.99605 -0.999069,0.32551 -2.656333,0.70036 -2.789948,0.63055 -0.03647,-0.0191 -0.171332,-0.21494 -0.299396,-0.43527 z"
         style="opacity:1;fill:#000000;fill-opacity:1;fill-rule:nonzero;stroke:none;stroke-width:0.04262472;stroke-opacity:0" />
      <path
         inkscape:connector-curvature="0"
         id="path853-3-3-0-3"
         d="m 25.361279,256.62235 c -0.116798,0.76427 -0.26902,1.41185 -0.510157,2.16964 -0.703046,2.20929 -1.848665,3.7426 -3.64057,4.87256 -0.61603,0.38853 -2.06723,0.98703 -2.860286,1.17967 -1.619881,0.3935 -3.441961,0.55865 -5.465766,0.4953 -1.433958,-0.0449 -5.1608377,-0.3511 -7.2288184,-0.59394 -0.5897996,-0.0693 -0.5934433,0.0229 0.032474,-0.81975 1.6434656,-2.21248 3.4056886,-4.42953 4.3895344,-5.5224 2.402173,-2.66837 4.531949,-4.01925 6.976769,-4.42524 1.681063,-0.27915 3.678802,-5.8e-4 5.637734,0.78618 1.032225,0.41487 2.63811,1.2201 2.703125,1.35595 0.01783,0.0371 0.0025,0.26308 -0.03404,0.50203 z"
         style="opacity:1;fill:#000000;fill-opacity:1;fill-rule:nonzero;stroke:none;stroke-width:0.04262472;stroke-opacity:0" />
      <path
         inkscape:connector-curvature="0"
         id="path853-3-8-4"
         d="m 25.415268,250.55431 c 0.09924,-0.76829 0.133293,-1.44271 0.114077,-2.25965 -0.05599,-2.38176 -0.711727,-4.32439 -2.083804,-6.1733 -0.471674,-0.63568 -1.669367,-1.83607 -2.360582,-2.36598 -1.41186,-1.08243 -3.075765,-2.03966 -4.991292,-2.87144 -1.357231,-0.58933 -4.936434,-1.94325 -6.9423947,-2.62612 -0.57212,-0.19477 -0.550367,-0.2828 -0.193437,0.78317 0.937174,2.79888 1.9845007,5.65433 2.6088137,7.11263 1.524281,3.56056 3.152929,5.76545 5.335126,7.22282 1.500498,1.00209 3.450342,1.6205 5.502581,1.74519 1.081488,0.0657 2.807627,0.0173 2.905708,-0.0815 0.02682,-0.0271 0.07421,-0.24563 0.105201,-0.48585 z"
         style="opacity:1;fill:#000000;fill-opacity:1;fill-rule:nonzero;stroke:none;stroke-width:0.04262472;stroke-opacity:0" />
      <path
         inkscape:connector-curvature="0"
         id="path853-0-0-9"
         d="m 75.510412,250.60623 c 0.40975,-0.70467 0.71916,-1.33614 1.03657,-2.11579 0.92537,-2.27307 1.10141,-4.27568 0.55939,-6.36386 -0.1863,-0.71794 -0.82931,-2.14846 -1.26733,-2.81952 -0.89463,-1.3708 -2.07982,-2.68419 -3.55524,-3.93987 -1.04541,-0.88969 -3.88455,-3.04601 -5.50694,-4.18247 -0.46269,-0.32415 -0.40659,-0.40167 -0.50526,0.69583 -0.26084,2.88343 -0.44039,5.84738 -0.44728,7.38285 -0.0168,3.74902 0.62237,6.23742 2.09376,8.15152 1.01174,1.31616 2.6074,2.37781 4.50298,2.99605 0.99907,0.32551 2.65633,0.70036 2.78995,0.63055 0.0365,-0.0191 0.17133,-0.21494 0.29939,-0.43527 z"
         style="opacity:1;fill:#000000;fill-opacity:1;fill-rule:nonzero;stroke:none;stroke-width:0.04262472;stroke-opacity:0" />
      <path
         inkscape:connector-curvature="0"
         id="path853-3-3-0-3-6"
         d="m 80.406544,256.68368 c 0.1168,0.76427 0.26902,1.41185 0.51015,2.16964 0.70305,2.20929 1.84867,3.7426 3.64057,4.87256 0.61603,0.38853 2.06723,0.98703 2.86029,1.17967 1.61988,0.3935 3.44196,0.55865 5.46577,0.4953 1.43395,-0.0449 5.16083,-0.3511 7.228806,-0.59394 0.5898,-0.0693 0.59345,0.0229 -0.0325,-0.81975 -1.643456,-2.21248 -3.405676,-4.42953 -4.389526,-5.5224 -2.40217,-2.66837 -4.53195,-4.01925 -6.97677,-4.42524 -1.68106,-0.27915 -3.6788,-5.8e-4 -5.63773,0.78618 -1.03223,0.41487 -2.63811,1.2201 -2.70313,1.35595 -0.0178,0.0371 -0.002,0.26308 0.034,0.50203 z"
         style="opacity:1;fill:#000000;fill-opacity:1;fill-rule:nonzero;stroke:none;stroke-width:0.04262472;stroke-opacity:0" />
      <path
         inkscape:connector-curvature="0"
         id="path853-3-8-4-9"
         d="m 80.352575,250.61567 c -0.0992,-0.76829 -0.13329,-1.44271 -0.11407,-2.25965 0.056,-2.38176 0.71172,-4.32439 2.0838,-6.1733 0.47167,-0.63568 1.66937,-1.83607 2.36058,-2.36598 1.41186,-1.08243 3.07577,-2.03966 4.99129,-2.87144 1.35723,-0.58933 4.93644,-1.94325 6.9424,-2.62612 0.57212,-0.19477 0.55037,-0.2828 0.19344,0.78317 -0.93718,2.79888 -1.98451,5.65433 -2.60882,7.11263 -1.52428,3.56056 -3.15293,5.76545 -5.33512,7.22282 -1.5005,1.00209 -3.45035,1.6205 -5.50259,1.74519 -1.08148,0.0657 -2.80762,0.0173 -2.9057,-0.0815 -0.0268,-0.0271 -0.0742,-0.24563 -0.1052,-0.48585 z"
         style="opacity:1;fill:#000000;fill-opacity:1;fill-rule:nonzero;stroke:none;stroke-width:0.04262472;stroke-opacity:0" />
    </g>
  </g>
</svg>
