<?xml version="1.0" encoding="UTF-8" standalone="no"?>
<!-- Created with Inkscape (http://www.inkscape.org/) -->

<svg
   xmlns:dc="http://purl.org/dc/elements/1.1/"
   xmlns:cc="http://creativecommons.org/ns#"
   xmlns:rdf="http://www.w3.org/1999/02/22-rdf-syntax-ns#"
   xmlns:svg="http://www.w3.org/2000/svg"
   xmlns="http://www.w3.org/2000/svg"
   xmlns:sodipodi="http://sodipodi.sourceforge.net/DTD/sodipodi-0.dtd"
   xmlns:inkscape="http://www.inkscape.org/namespaces/inkscape"
   width="400"
   height="400"
   viewBox="0 0 105.83333 105.83333"
   version="1.1"
   id="svg8"
   inkscape:version="0.92.3 (2405546, 2018-03-11)"
   sodipodi:docname="clouds-rain.svg">
  <defs
     id="defs2" />
  <sodipodi:namedview
     id="base"
     pagecolor="#ffffff"
     bordercolor="#666666"
     borderopacity="1.0"
     inkscape:pageopacity="0.0"
     inkscape:pageshadow="2"
     inkscape:zoom="2.1525"
     inkscape:cx="143.93684"
     inkscape:cy="212.07543"
     inkscape:document-units="mm"
     inkscape:current-layer="layer1"
     showgrid="true"
     units="px"
     showguides="true"
     inkscape:guide-bbox="true"
     inkscape:window-width="1920"
     inkscape:window-height="1052"
     inkscape:window-x="1920"
     inkscape:window-y="0"
     inkscape:window-maximized="1"
     inkscape:measure-start="270,155"
     inkscape:measure-end="0,0">
    <inkscape:grid
       type="xygrid"
       id="grid4530" />
  </sodipodi:namedview>
  <metadata
     id="metadata5">
    <rdf:RDF>
      <cc:Work
         rdf:about="">
        <dc:format>image/svg+xml</dc:format>
        <dc:type
           rdf:resource="http://purl.org/dc/dcmitype/StillImage" />
        <dc:title />
      </cc:Work>
    </rdf:RDF>
  </metadata>
  <g
     inkscape:label="Layer 1"
     inkscape:groupmode="layer"
     id="layer1"
     transform="translate(0,-191.16667)">
    <g
       id="g840"
       style="fill:#000000;fill-opacity:1;stroke:none">
      <path
         inkscape:connector-curvature="0"
         id="path853-0-6"
         d="m 16.31033,265.56064 c -0.752841,-0.53718 -1.36742,-1.05067 -2.059017,-1.72052 -2.016322,-1.95295 -3.127964,-4.02857 -3.532577,-6.59587 -0.139167,-0.88263 -0.133788,-2.79228 0.01056,-3.76383 0.294729,-1.98457 0.918221,-4.06823 1.870316,-6.25044 0.674606,-1.54617 2.627263,-5.46321 3.787472,-7.59768 0.330898,-0.60875 0.23556,-0.66211 0.848076,0.47453 1.608262,2.98447 3.169333,6.10145 3.888474,7.76405 1.755823,4.05939 2.244989,7.115 1.602403,10.00953 -0.441853,1.99032 -1.608927,4.02874 -3.293558,5.75249 -0.886971,0.90918 -2.437647,2.23541 -2.608947,2.23387 -0.04697,-6.2e-4 -0.277848,-0.13814 -0.513192,-0.30614 z"
         style="opacity:1;fill:#000000;fill-opacity:1;fill-rule:nonzero;stroke:none;stroke-width:0.05018407;stroke-opacity:0" />
      <path
         inkscape:connector-curvature="0"
         id="path853-0-6-7"
         d="m 88.570716,265.77903 c -0.752839,-0.53719 -1.36742,-1.05068 -2.059016,-1.72053 -2.016323,-1.95295 -3.127965,-4.02857 -3.532579,-6.59587 -0.139166,-0.88263 -0.133787,-2.79227 0.01056,-3.76383 0.294732,-1.98457 0.918223,-4.06822 1.870318,-6.25045 0.674607,-1.54616 2.627263,-5.4632 3.787473,-7.59767 0.330898,-0.60876 0.235562,-0.66211 0.848076,0.47453 1.608264,2.98447 3.169334,6.10145 3.88847,7.76404 1.755801,4.05941 2.244978,7.11502 1.602381,10.00954 -0.441837,1.99032 -1.608911,4.02874 -3.293531,5.75248 -0.886972,0.9092 -2.437646,2.23541 -2.608948,2.23388 -0.04697,-6.2e-4 -0.277848,-0.13814 -0.513192,-0.30614 z"
         style="opacity:1;fill:#000000;fill-opacity:1;fill-rule:nonzero;stroke:none;stroke-width:0.05018407;stroke-opacity:0" />
      <path
         inkscape:connector-curvature="0"
         id="path853-0-6-2"
         d="m 52.472475,265.59453 c -0.752844,-0.53715 -1.367426,-1.05065 -2.059022,-1.72051 -2.016322,-1.95295 -3.127968,-4.02855 -3.532579,-6.59587 -0.139159,-0.88264 -0.133789,-2.79226 0.01056,-3.76384 0.294732,-1.98456 0.918216,-4.06821 1.870312,-6.25043 0.674609,-1.54617 2.62727,-5.46322 3.787472,-7.59768 0.330905,-0.60876 0.235561,-0.66211 0.848078,0.47455 1.608268,2.98445 3.169337,6.10143 3.888475,7.76403 1.755823,4.0594 2.244992,7.11501 1.602401,10.00953 -0.441849,1.99032 -1.608926,4.02873 -3.293558,5.75249 -0.886968,0.90919 -2.437644,2.23541 -2.608942,2.23387 -0.04693,-6.4e-4 -0.277839,-0.13815 -0.513195,-0.30614 z"
         style="opacity:1;fill:#000000;fill-opacity:1;fill-rule:nonzero;stroke:none;stroke-width:0.05018407;stroke-opacity:0" />
      <path
         inkscape:connector-curvature="0"
         id="path853-0-6-08"
         d="m 33.966688,291.17934 c -0.752845,-0.53718 -1.367425,-1.05067 -2.059021,-1.72052 -2.016325,-1.95295 -3.127958,-4.02857 -3.532574,-6.59587 -0.139164,-0.88263 -0.133788,-2.79228 0.0108,-3.76383 0.294732,-1.98457 0.918216,-4.06823 1.870309,-6.25044 0.674617,-1.54617 2.627269,-5.46321 3.787478,-7.59768 0.3309,-0.60875 0.23556,-0.66211 0.848076,0.47453 1.608264,2.98447 3.169332,6.10145 3.88848,7.76405 1.755816,4.05939 2.244984,7.115 1.602396,10.00953 -0.441852,1.99032 -1.608924,4.02874 -3.293556,5.75249 -0.886968,0.90918 -2.437644,2.23541 -2.608944,2.23387 -0.04692,-6.4e-4 -0.277849,-0.13814 -0.513192,-0.30614 z"
         style="opacity:1;fill:#000000;fill-opacity:1;fill-rule:nonzero;stroke:none;stroke-width:0.05018407;stroke-opacity:0" />
      <path
         inkscape:connector-curvature="0"
         id="path853-0-6-7-1"
         d="m 70.908077,291.17935 c -0.752844,-0.53719 -1.367424,-1.05068 -2.05902,-1.72053 -2.016324,-1.95295 -3.127956,-4.02857 -3.532572,-6.59587 -0.139164,-0.88263 -0.133788,-2.79227 0.0108,-3.76383 0.294732,-1.98457 0.918216,-4.06822 1.87032,-6.25045 0.674604,-1.54616 2.627256,-5.4632 3.787464,-7.59767 0.3309,-0.60876 0.23556,-0.66211 0.848076,0.47453 1.608264,2.98447 3.169344,6.10145 3.88848,7.76404 1.755798,4.05941 2.24498,7.11502 1.602393,10.00954 -0.441854,1.99032 -1.608921,4.02874 -3.293553,5.75248 -0.886968,0.9092 -2.437644,2.23541 -2.608944,2.23388 -0.04692,-6.4e-4 -0.277848,-0.13814 -0.513192,-0.30614 z"
         style="opacity:1;fill:#000000;fill-opacity:1;fill-rule:nonzero;stroke:none;stroke-width:0.05018407;stroke-opacity:0" />
      <path
         id="path830"
         d="m 5.2916666,196.45834 c 0,18.76053 12.9645804,37.52122 37.0416664,37.52122 11.842332,0 20.99433,-4.54011 27.239679,-11.38484 1.436833,0.21049 2.940153,0.32195 4.51032,0.32195 17.197919,0 26.458338,-13.22916 26.458338,-26.45833 h -21.166671 -31.75 z"
         style="fill:#000000;stroke:none;stroke-width:0.37280586px;stroke-linecap:butt;stroke-linejoin:miter;stroke-opacity:1;fill-opacity:1"
         inkscape:connector-curvature="0" />
    </g>
  </g>
</svg>
