<?xml version="1.0" encoding="UTF-8" standalone="no"?>
<!-- Created with Inkscape (http://www.inkscape.org/) -->

<svg
   xmlns:dc="http://purl.org/dc/elements/1.1/"
   xmlns:cc="http://creativecommons.org/ns#"
   xmlns:rdf="http://www.w3.org/1999/02/22-rdf-syntax-ns#"
   xmlns:svg="http://www.w3.org/2000/svg"
   xmlns="http://www.w3.org/2000/svg"
   xmlns:sodipodi="http://sodipodi.sourceforge.net/DTD/sodipodi-0.dtd"
   xmlns:inkscape="http://www.inkscape.org/namespaces/inkscape"
   width="400"
   height="400"
   viewBox="0 0 105.83333 105.83333"
   version="1.1"
   id="svg8"
   inkscape:version="0.92.3 (2405546, 2018-03-11)"
   sodipodi:docname="ear.svg">
  <defs
     id="defs2" />
  <sodipodi:namedview
     id="base"
     pagecolor="#ffffff"
     bordercolor="#666666"
     borderopacity="1.0"
     inkscape:pageopacity="0.0"
     inkscape:pageshadow="2"
     inkscape:zoom="0.98994949"
     inkscape:cx="26.174366"
     inkscape:cy="167.59252"
     inkscape:document-units="mm"
     inkscape:current-layer="layer1"
     showgrid="true"
     units="px"
     showguides="true"
     inkscape:guide-bbox="true"
     inkscape:window-width="1920"
     inkscape:window-height="1052"
     inkscape:window-x="1920"
     inkscape:window-y="0"
     inkscape:window-maximized="1"
     inkscape:snap-grids="false">
    <inkscape:grid
       type="xygrid"
       id="grid4530" />
  </sodipodi:namedview>
  <metadata
     id="metadata5">
    <rdf:RDF>
      <cc:Work
         rdf:about="">
        <dc:format>image/svg+xml</dc:format>
        <dc:type
           rdf:resource="http://purl.org/dc/dcmitype/StillImage" />
        <dc:title />
      </cc:Work>
    </rdf:RDF>
  </metadata>
  <g
     inkscape:label="Layer 1"
     inkscape:groupmode="layer"
     id="layer1"
     transform="translate(0,-191.16667)">
    <g
       id="g1018"
       transform="matrix(1,0,0,1.0136014,0,-3.9663603)"
       style="fill:#000000;fill-opacity:1;stroke:none">
      <path
         inkscape:connector-curvature="0"
         id="path853-0"
         d="m 54.738741,225.39731 c 0.728678,0.11532 1.365396,0.16659 2.133334,0.17177 2.238884,0.0151 4.03137,-0.5469 5.696136,-1.78597 0.572372,-0.42595 1.636308,-1.51931 2.097006,-2.15496 0.9411,-1.29835 1.750432,-2.83755 2.427789,-4.61721 0.479946,-1.26096 1.55711,-4.59201 2.089325,-6.46106 0.151812,-0.53305 0.235362,-0.51031 -0.747876,-0.20442 -2.58297,0.80258 -5.213132,1.70726 -6.551417,2.25347 -3.267587,1.33362 -5.253311,2.80409 -6.504855,4.81699 -0.860581,1.38409 -1.335222,3.20215 -1.33947,5.13064 -0.002,1.0163 0.138495,2.64273 0.236877,2.73787 0.02684,0.0259 0.235321,0.0769 0.463153,0.11292 z"
         style="opacity:1;fill:#000000;fill-opacity:1;fill-rule:nonzero;stroke:none;stroke-width:0.04009043;stroke-opacity:0" />
      <path
         inkscape:connector-curvature="0"
         id="path853-0-0"
         d="m 51.094728,225.39731 c -0.728678,0.11532 -1.365396,0.16659 -2.133334,0.17177 -2.238884,0.0151 -4.03137,-0.5469 -5.696136,-1.78597 -0.572372,-0.42595 -1.636308,-1.51931 -2.097006,-2.15496 -0.9411,-1.29835 -1.750431,-2.83755 -2.427788,-4.61721 -0.479946,-1.26096 -1.55711,-4.59201 -2.089324,-6.46106 -0.151812,-0.53305 -0.235362,-0.51031 0.747876,-0.20442 2.582968,0.80258 5.21313,1.70726 6.551415,2.25347 3.267587,1.33362 5.253311,2.80409 6.504855,4.81699 0.860581,1.38409 1.335222,3.20215 1.33947,5.13064 0.002,1.0163 -0.138495,2.64273 -0.236877,2.73787 -0.02684,0.0259 -0.235321,0.0769 -0.463153,0.11292 z"
         style="opacity:1;fill:#000000;fill-opacity:1;fill-rule:nonzero;stroke:none;stroke-width:0.04009043;stroke-opacity:0" />
      <path
         inkscape:connector-curvature="0"
         id="path853-0-8"
         d="m 54.738741,238.56216 c 0.728678,0.11532 1.365395,0.16659 2.133333,0.17177 2.238885,0.0151 4.031372,-0.5469 5.696138,-1.78597 0.572371,-0.42595 1.636308,-1.51931 2.097006,-2.15496 0.9411,-1.29835 1.75043,-2.83755 2.427787,-4.61721 0.479946,-1.26096 1.557113,-4.59201 2.089325,-6.46106 0.151813,-0.53305 0.235363,-0.51031 -0.747875,-0.20442 -2.58297,0.80258 -5.213131,1.70726 -6.551417,2.25347 -3.267587,1.33362 -5.253311,2.80409 -6.504854,4.81699 -0.860582,1.38409 -1.335222,3.20215 -1.339472,5.13064 -0.002,1.0163 0.138495,2.64273 0.236878,2.73787 0.02684,0.0259 0.235321,0.0769 0.463153,0.11292 z"
         style="opacity:1;fill:#000000;fill-opacity:1;fill-rule:nonzero;stroke:none;stroke-width:0.04009043;stroke-opacity:0" />
      <path
         inkscape:connector-curvature="0"
         id="path853-0-0-1"
         d="m 51.094727,238.56216 c -0.728677,0.11532 -1.365396,0.16659 -2.133334,0.17177 -2.238882,0.0151 -4.03137,-0.5469 -5.696136,-1.78597 -0.572372,-0.42595 -1.636308,-1.51931 -2.097006,-2.15496 -0.9411,-1.29835 -1.750431,-2.83755 -2.427788,-4.61721 -0.479946,-1.26096 -1.55711,-4.59201 -2.089324,-6.46106 -0.151812,-0.53305 -0.235362,-0.51031 0.747876,-0.20442 2.582968,0.80258 5.21313,1.70726 6.551415,2.25347 3.267587,1.33362 5.253311,2.80409 6.504856,4.81699 0.860581,1.38409 1.335222,3.20215 1.339469,5.13064 0.002,1.0163 -0.138495,2.64273 -0.236876,2.73787 -0.02684,0.0259 -0.235321,0.0769 -0.463153,0.11292 z"
         style="opacity:1;fill:#000000;fill-opacity:1;fill-rule:nonzero;stroke:none;stroke-width:0.04009043;stroke-opacity:0" />
      <path
         inkscape:connector-curvature="0"
         id="path853-0-3"
         d="m 54.738996,251.78494 c 0.728678,0.11532 1.365395,0.16659 2.133333,0.17177 2.238885,0.0151 4.031372,-0.5469 5.696138,-1.78597 0.572371,-0.42595 1.636308,-1.51931 2.097006,-2.15496 0.9411,-1.29835 1.75043,-2.83755 2.427787,-4.61721 0.479946,-1.26096 1.557113,-4.59201 2.089325,-6.46106 0.151813,-0.53305 0.235363,-0.51031 -0.747875,-0.20442 -2.58297,0.80258 -5.213131,1.70726 -6.551417,2.25347 -3.267587,1.33362 -5.253311,2.80409 -6.504854,4.81699 -0.860582,1.38409 -1.335222,3.20215 -1.339472,5.13064 -0.002,1.0163 0.138495,2.64273 0.236878,2.73787 0.02684,0.0259 0.235321,0.0769 0.463153,0.11292 z"
         style="opacity:1;fill:#000000;fill-opacity:1;fill-rule:nonzero;stroke:none;stroke-width:0.04009043;stroke-opacity:0" />
      <path
         inkscape:connector-curvature="0"
         id="path853-0-0-11"
         d="m 51.094982,251.78494 c -0.728677,0.11532 -1.365396,0.16659 -2.133334,0.17177 -2.238882,0.0151 -4.03137,-0.5469 -5.696136,-1.78597 -0.572372,-0.42595 -1.636308,-1.51931 -2.097006,-2.15496 -0.9411,-1.29835 -1.750431,-2.83755 -2.427788,-4.61721 -0.479946,-1.26096 -1.55711,-4.59201 -2.089324,-6.46106 -0.151812,-0.53305 -0.235362,-0.51031 0.747876,-0.20442 2.582968,0.80258 5.21313,1.70726 6.551415,2.25347 3.267587,1.33362 5.253311,2.80409 6.504856,4.81699 0.860581,1.38409 1.335222,3.20215 1.339469,5.13064 0.002,1.0163 -0.138495,2.64273 -0.236876,2.73787 -0.02684,0.0259 -0.235321,0.0769 -0.463153,0.11292 z"
         style="opacity:1;fill:#000000;fill-opacity:1;fill-rule:nonzero;stroke:none;stroke-width:0.04009043;stroke-opacity:0" />
      <path
         inkscape:connector-curvature="0"
         id="path853-0-03"
         d="m 54.738737,264.98494 c 0.728679,0.11532 1.365398,0.16659 2.133336,0.17177 2.238884,0.0151 4.03137,-0.5469 5.696136,-1.78597 0.572372,-0.42595 1.636308,-1.51931 2.097006,-2.15496 0.941099,-1.29835 1.750432,-2.83755 2.427794,-4.61721 0.47994,-1.26096 1.557108,-4.59201 2.08932,-6.46106 0.151812,-0.53305 0.235356,-0.51031 -0.747876,-0.20442 -2.582972,0.80258 -5.213132,1.70726 -6.551417,2.25347 -3.267587,1.33362 -5.253311,2.80409 -6.504856,4.81699 -0.860581,1.38409 -1.335221,3.20215 -1.339469,5.13064 -0.002,1.0163 0.138495,2.64273 0.236877,2.73787 0.02684,0.0259 0.235321,0.0769 0.463153,0.11292 z"
         style="opacity:1;fill:#000000;fill-opacity:1;fill-rule:nonzero;stroke:none;stroke-width:0.04009043;stroke-opacity:0" />
      <path
         inkscape:connector-curvature="0"
         id="path853-0-0-4"
         d="m 51.094726,264.98494 c -0.728678,0.11532 -1.365396,0.16659 -2.133336,0.17177 -2.238883,0.0151 -4.03137,-0.5469 -5.696136,-1.78597 -0.572371,-0.42595 -1.636308,-1.51931 -2.097006,-2.15496 -0.9411,-1.29835 -1.75043,-2.83755 -2.427787,-4.61721 -0.479946,-1.26096 -1.55711,-4.59201 -2.089325,-6.46106 -0.151812,-0.53305 -0.235362,-0.51031 0.747876,-0.20442 2.582969,0.80258 5.21313,1.70726 6.551416,2.25347 3.267587,1.33362 5.253311,2.80409 6.504856,4.81699 0.860581,1.38409 1.33522,3.20215 1.33947,5.13064 0.002,1.0163 -0.138496,2.64273 -0.236877,2.73787 -0.02684,0.0259 -0.235322,0.0769 -0.463154,0.11292 z"
         style="opacity:1;fill:#000000;fill-opacity:1;fill-rule:nonzero;stroke:none;stroke-width:0.04009043;stroke-opacity:0" />
      <path
         inkscape:connector-curvature="0"
         id="path853-0-8-0"
         d="m 54.738738,278.24971 c 0.728678,0.11532 1.365394,0.16659 2.133333,0.17177 2.238886,0.0151 4.031373,-0.5469 5.696139,-1.78597 0.572371,-0.42595 1.636308,-1.51931 2.097006,-2.15496 0.941098,-1.29835 1.750429,-2.83755 2.427781,-4.61721 0.479952,-1.26096 1.55712,-4.59201 2.089332,-6.46106 0.151812,-0.53305 0.235356,-0.51031 -0.747876,-0.20442 -2.582971,0.80258 -5.213131,1.70726 -6.551417,2.25347 -3.267587,1.33362 -5.253311,2.80409 -6.504856,4.81699 -0.860581,1.38409 -1.33522,3.20215 -1.339471,5.13064 -0.002,1.0163 0.138495,2.64273 0.236879,2.73787 0.02684,0.0259 0.235321,0.0769 0.463153,0.11292 z"
         style="opacity:1;fill:#000000;fill-opacity:1;fill-rule:nonzero;stroke:none;stroke-width:0.04009043;stroke-opacity:0" />
      <path
         inkscape:connector-curvature="0"
         id="path853-0-0-1-3"
         d="m 51.094724,278.24971 c -0.728676,0.11532 -1.365396,0.16659 -2.133334,0.17177 -2.238882,0.0151 -4.03137,-0.5469 -5.696136,-1.78597 -0.572372,-0.42595 -1.636308,-1.51931 -2.097006,-2.15496 -0.9411,-1.29835 -1.750431,-2.83755 -2.427788,-4.61721 -0.479946,-1.26096 -1.55711,-4.59201 -2.089324,-6.46106 -0.151812,-0.53305 -0.235362,-0.51031 0.747876,-0.20442 2.582968,0.80258 5.21313,1.70726 6.551415,2.25347 3.267587,1.33362 5.253311,2.80409 6.504857,4.81699 0.860581,1.38409 1.335221,3.20215 1.339468,5.13064 0.002,1.0163 -0.138495,2.64273 -0.236874,2.73787 -0.02684,0.0259 -0.235323,0.0769 -0.463155,0.11292 z"
         style="opacity:1;fill:#000000;fill-opacity:1;fill-rule:nonzero;stroke:none;stroke-width:0.04009043;stroke-opacity:0" />
      <path
         inkscape:connector-curvature="0"
         id="path853-0-3-9"
         d="m 54.738994,291.44356 c 0.728678,0.11532 1.365395,0.16659 2.133334,0.17177 2.238884,0.0151 4.031371,-0.5469 5.696137,-1.78597 0.572371,-0.42595 1.636308,-1.51931 2.097006,-2.15496 0.941101,-1.29835 1.75043,-2.83755 2.427787,-4.61721 0.479952,-1.26096 1.557108,-4.59201 2.08932,-6.46106 0.151812,-0.53305 0.235368,-0.51031 -0.747876,-0.20442 -2.582963,0.80258 -5.213125,1.70726 -6.551411,2.25347 -3.267587,1.33362 -5.253311,2.80409 -6.504854,4.81699 -0.860581,1.38409 -1.335222,3.20215 -1.339471,5.13064 -0.002,1.0163 0.138494,2.64273 0.236876,2.73787 0.02684,0.0259 0.235322,0.0769 0.463154,0.11292 z"
         style="opacity:1;fill:#000000;fill-opacity:1;fill-rule:nonzero;stroke:none;stroke-width:0.04009043;stroke-opacity:0" />
      <path
         inkscape:connector-curvature="0"
         id="path853-0-0-11-1"
         d="m 51.09498,291.44356 c -0.728677,0.11532 -1.365396,0.16659 -2.133336,0.17177 -2.238882,0.0151 -4.03137,-0.5469 -5.696136,-1.78597 -0.572371,-0.42595 -1.636308,-1.51931 -2.097006,-2.15496 -0.9411,-1.29835 -1.75043,-2.83755 -2.427787,-4.61721 -0.479946,-1.26096 -1.55711,-4.59201 -2.089325,-6.46106 -0.151812,-0.53305 -0.235362,-0.51031 0.747876,-0.20442 2.582969,0.80258 5.21313,1.70726 6.551416,2.25347 3.267587,1.33362 5.253311,2.80409 6.504857,4.81699 0.860581,1.38409 1.335221,3.20215 1.339469,5.13064 0.002,1.0163 -0.138496,2.64273 -0.236877,2.73787 -0.02684,0.0259 -0.235321,0.0769 -0.463153,0.11292 z"
         style="opacity:1;fill:#000000;fill-opacity:1;fill-rule:nonzero;stroke:none;stroke-width:0.04009043;stroke-opacity:0" />
      <path
         inkscape:connector-curvature="0"
         id="path853-3-8"
         d="m 53.245731,215.30876 c 0.4996,-0.35827 0.90717,-0.70068 1.36557,-1.14725 1.33646,-1.30194 2.07029,-2.68473 2.33196,-4.39421 0.09,-0.58771 0.0807,-1.85899 -0.0183,-2.50566 -0.202159,-1.32091 -0.62348,-2.70749 -1.26384,-4.15938 -0.45373,-1.02873 -1.765379,-3.63465 -2.544139,-5.05456 -0.22211,-0.40497 -0.1588,-0.44057 -0.563161,0.31668 -1.061709,1.98827 -2.09161,4.06471 -2.56537,5.17219 -1.15674,2.70402 -1.47323,4.73864 -1.03678,6.66504 0.30011,1.3246 1.08316,2.68056 2.20982,3.8266 0.59372,0.60394 1.62946,1.48598 1.74352,1.48479 0.0312,-3.4e-4 0.184531,-0.0922 0.34072,-0.20424 z"
         style="opacity:1;fill:#000000;fill-opacity:1;fill-rule:nonzero;stroke:none;stroke-width:0.03340869;stroke-opacity:0" />
    </g>
  </g>
</svg>
