<?xml version="1.0" encoding="UTF-8" standalone="no"?>
<!-- Created with Inkscape (http://www.inkscape.org/) -->

<svg
   xmlns:dc="http://purl.org/dc/elements/1.1/"
   xmlns:cc="http://creativecommons.org/ns#"
   xmlns:rdf="http://www.w3.org/1999/02/22-rdf-syntax-ns#"
   xmlns:svg="http://www.w3.org/2000/svg"
   xmlns="http://www.w3.org/2000/svg"
   xmlns:sodipodi="http://sodipodi.sourceforge.net/DTD/sodipodi-0.dtd"
   xmlns:inkscape="http://www.inkscape.org/namespaces/inkscape"
   width="400"
   height="400"
   viewBox="0 0 105.83333 105.83333"
   version="1.1"
   id="svg8"
   inkscape:version="0.92.3 (2405546, 2018-03-11)"
   sodipodi:docname="meteor.svg">
  <defs
     id="defs2" />
  <sodipodi:namedview
     id="base"
     pagecolor="#ffffff"
     bordercolor="#666666"
     borderopacity="1.0"
     inkscape:pageopacity="0.0"
     inkscape:pageshadow="2"
     inkscape:zoom="1.5220473"
     inkscape:cx="91.627679"
     inkscape:cy="211.22051"
     inkscape:document-units="mm"
     inkscape:current-layer="layer1"
     showgrid="true"
     units="px"
     showguides="true"
     inkscape:guide-bbox="true"
     inkscape:window-width="1920"
     inkscape:window-height="1052"
     inkscape:window-x="1920"
     inkscape:window-y="0"
     inkscape:window-maximized="1">
    <inkscape:grid
       type="xygrid"
       id="grid4530" />
  </sodipodi:namedview>
  <metadata
     id="metadata5">
    <rdf:RDF>
      <cc:Work
         rdf:about="">
        <dc:format>image/svg+xml</dc:format>
        <dc:type
           rdf:resource="http://purl.org/dc/dcmitype/StillImage" />
        <dc:title />
      </cc:Work>
    </rdf:RDF>
  </metadata>
  <g
     inkscape:label="Layer 1"
     inkscape:groupmode="layer"
     id="layer1"
     transform="translate(0,-191.16667)">
    <g
       id="g993"
       style="fill:#000000;fill-opacity:1;stroke:none">
      <ellipse
         ry="24.886164"
         rx="25.150747"
         cy="266.92001"
         cx="30.291664"
         id="path4540"
         style="opacity:1;fill:#000000;fill-opacity:1;fill-rule:nonzero;stroke:none;stroke-width:0.22767264;stroke-opacity:1" />
      <path
         inkscape:connector-curvature="0"
         id="path853-0-6"
         d="m 39.6875,235.48698 c -0.124855,-0.76052 -0.182483,-1.42541 -0.192945,-2.22769 -0.0305,-2.33902 0.543013,-4.21546 1.822511,-5.96295 0.439843,-0.60081 1.571551,-1.7196 2.230534,-2.20511 1.345999,-0.99182 2.943708,-1.84756 4.792728,-2.56701 1.310104,-0.50975 4.77223,-1.65716 6.715298,-2.22556 0.554173,-0.16211 0.52969,-0.2498 0.217827,0.78 -0.818845,2.70391 -1.743723,5.45778 -2.30376,6.8596 -1.367408,3.42267 -2.885792,5.50701 -4.973936,6.82789 -1.435834,0.90825 -3.326173,1.41616 -5.334641,1.43334 -1.058432,0.01 -2.753264,-0.12722 -2.852997,-0.22936 -0.02724,-0.0281 -0.08161,-0.24536 -0.120606,-0.48314 z"
         style="opacity:1;fill:#000000;fill-opacity:1;fill-rule:nonzero;stroke:none;stroke-width:0.04182006;stroke-opacity:0" />
      <path
         inkscape:connector-curvature="0"
         id="path853-0-6-7"
         d="m 60.854167,256.78698 c -0.124855,-0.76052 -0.182483,-1.42541 -0.192945,-2.22769 -0.0305,-2.33902 0.543013,-4.21546 1.822511,-5.96295 0.439843,-0.60081 1.571551,-1.7196 2.230534,-2.20511 1.345999,-0.99182 2.943708,-1.84756 4.792728,-2.56701 1.310105,-0.50975 4.772231,-1.65716 6.715299,-2.22556 0.554173,-0.16211 0.52969,-0.2498 0.217827,0.78 -0.818845,2.70391 -1.743723,5.45778 -2.303761,6.8596 -1.367407,3.42267 -2.885791,5.50701 -4.973936,6.82789 -1.435834,0.90825 -3.326173,1.41616 -5.334641,1.43334 -1.058432,0.01 -2.753264,-0.12722 -2.852997,-0.22936 -0.02724,-0.0281 -0.08161,-0.24536 -0.120606,-0.48314 z"
         style="opacity:1;fill:#000000;fill-opacity:1;fill-rule:nonzero;stroke:none;stroke-width:0.04182006;stroke-opacity:0" />
      <path
         inkscape:connector-curvature="0"
         id="path853-0-6-2"
         d="m 61.118739,235.34532 c -0.12486,-0.76052 -0.18249,-1.42541 -0.19295,-2.22769 -0.0305,-2.33902 0.54301,-4.21546 1.82251,-5.96295 0.43985,-0.60081 1.57155,-1.7196 2.23054,-2.20511 1.346,-0.99182 2.9437,-1.84756 4.79272,-2.56701 1.31011,-0.50975 4.77224,-1.65716 6.7153,-2.22556 0.55418,-0.16211 0.52969,-0.2498 0.21783,0.78 -0.81884,2.70391 -1.74372,5.45778 -2.30376,6.8596 -1.36741,3.42267 -2.88579,5.50701 -4.97394,6.82789 -1.43583,0.90825 -3.32617,1.41616 -5.33464,1.43334 -1.05843,0.01 -2.75326,-0.12722 -2.85299,-0.22936 -0.0272,-0.0281 -0.0816,-0.24536 -0.12061,-0.48314 z"
         style="opacity:1;fill:#000000;fill-opacity:1;fill-rule:nonzero;stroke:none;stroke-width:0.04182006;stroke-opacity:0" />
      <path
         inkscape:connector-curvature="0"
         id="path853-0-6-4"
         d="m 84.666657,211.68698 c -0.12485,-0.76052 -0.18248,-1.42541 -0.19294,-2.22769 -0.0305,-2.33902 0.54301,-4.21546 1.82251,-5.96295 0.43984,-0.60081 1.57155,-1.7196 2.23053,-2.20511 1.346,-0.99182 2.94371,-1.84756 4.79273,-2.56701 1.3101,-0.50975 4.77223,-1.65716 6.715303,-2.22556 0.55417,-0.16211 0.52969,-0.2498 0.21782,0.78 -0.818843,2.70391 -1.743723,5.45778 -2.303763,6.8596 -1.3674,3.42267 -2.88579,5.50701 -4.97393,6.82789 -1.43584,0.90825 -3.32618,1.41616 -5.33464,1.43334 -1.05844,0.01 -2.75327,-0.12722 -2.853,-0.22936 -0.0272,-0.0281 -0.0816,-0.24536 -0.12061,-0.48314 z"
         style="opacity:1;fill:#000000;fill-opacity:1;fill-rule:nonzero;stroke:none;stroke-width:0.04182006;stroke-opacity:0" />
      <path
         inkscape:connector-curvature="0"
         id="path853-0-6-0"
         d="m 63.5,211.78698 c -0.124855,-0.76052 -0.182483,-1.42541 -0.192945,-2.22769 -0.0305,-2.33902 0.543013,-4.21546 1.822512,-5.96295 0.439843,-0.60081 1.571551,-1.7196 2.230534,-2.20511 1.345998,-0.99182 2.943706,-1.84756 4.792726,-2.56701 1.31011,-0.50975 4.77223,-1.65716 6.7153,-2.22556 0.55417,-0.16211 0.52969,-0.2498 0.21783,0.78 -0.81885,2.70391 -1.74373,5.45778 -2.30376,6.8596 -1.36741,3.42267 -2.88579,5.50701 -4.97394,6.82789 -1.43583,0.90825 -3.326173,1.41616 -5.334641,1.43334 -1.058431,0.01 -2.753264,-0.12722 -2.852997,-0.22936 -0.02724,-0.0281 -0.08161,-0.24536 -0.120606,-0.48314 z"
         style="opacity:1;fill:#000000;fill-opacity:1;fill-rule:nonzero;stroke:none;stroke-width:0.04182006;stroke-opacity:0" />
      <path
         inkscape:connector-curvature="0"
         id="path853-0-6-6"
         d="m 84.666647,232.98698 c -0.12485,-0.76052 -0.18248,-1.42541 -0.19294,-2.22769 -0.0305,-2.33902 0.54301,-4.21546 1.82251,-5.96295 0.43984,-0.60081 1.57155,-1.7196 2.23053,-2.20511 1.346,-0.99182 2.94371,-1.84756 4.79273,-2.56701 1.31011,-0.50975 4.77223,-1.65716 6.715303,-2.22556 0.55417,-0.16211 0.52969,-0.2498 0.21783,0.78 -0.818853,2.70391 -1.743733,5.45778 -2.303763,6.8596 -1.36741,3.42267 -2.88579,5.50701 -4.97394,6.82789 -1.43583,0.90825 -3.32617,1.41616 -5.33464,1.43334 -1.05843,0.01 -2.75326,-0.12722 -2.853,-0.22936 -0.0272,-0.0281 -0.0816,-0.24536 -0.1206,-0.48314 z"
         style="opacity:1;fill:#000000;fill-opacity:1;fill-rule:nonzero;stroke:none;stroke-width:0.04182006;stroke-opacity:0" />
    </g>
  </g>
</svg>
