<?xml version="1.0" encoding="UTF-8" standalone="no"?>
<!-- Created with Inkscape (http://www.inkscape.org/) -->

<svg
   xmlns:dc="http://purl.org/dc/elements/1.1/"
   xmlns:cc="http://creativecommons.org/ns#"
   xmlns:rdf="http://www.w3.org/1999/02/22-rdf-syntax-ns#"
   xmlns:svg="http://www.w3.org/2000/svg"
   xmlns="http://www.w3.org/2000/svg"
   xmlns:sodipodi="http://sodipodi.sourceforge.net/DTD/sodipodi-0.dtd"
   xmlns:inkscape="http://www.inkscape.org/namespaces/inkscape"
   width="400"
   height="400"
   viewBox="0 0 105.83333 105.83333"
   version="1.1"
   id="svg8"
   inkscape:version="0.92.3 (2405546, 2018-03-11)"
   sodipodi:docname="plant.svg">
  <defs
     id="defs2" />
  <sodipodi:namedview
     id="base"
     pagecolor="#ffffff"
     bordercolor="#666666"
     borderopacity="1.0"
     inkscape:pageopacity="0.0"
     inkscape:pageshadow="2"
     inkscape:zoom="0.49497475"
     inkscape:cx="-386.36244"
     inkscape:cy="5.9836377"
     inkscape:document-units="mm"
     inkscape:current-layer="layer1"
     showgrid="true"
     units="px"
     showguides="true"
     inkscape:guide-bbox="true"
     inkscape:window-width="1920"
     inkscape:window-height="1052"
     inkscape:window-x="1920"
     inkscape:window-y="0"
     inkscape:window-maximized="1"
     inkscape:measure-start="0,0"
     inkscape:measure-end="0,0"
     inkscape:snap-grids="false"
     inkscape:snap-to-guides="false">
    <inkscape:grid
       type="xygrid"
       id="grid4530" />
  </sodipodi:namedview>
  <metadata
     id="metadata5">
    <rdf:RDF>
      <cc:Work
         rdf:about="">
        <dc:format>image/svg+xml</dc:format>
        <dc:type
           rdf:resource="http://purl.org/dc/dcmitype/StillImage" />
        <dc:title />
      </cc:Work>
    </rdf:RDF>
  </metadata>
  <g
     inkscape:label="Layer 1"
     inkscape:groupmode="layer"
     id="layer1"
     transform="translate(0,-191.16667)">
    <g
       id="g871"
       style="fill:#000000;fill-opacity:1;stroke:none">
      <path
         inkscape:connector-curvature="0"
         id="path853-0"
         d="m 63.971765,258.8929 c -0.221438,-1.22983 -0.332026,-2.30732 -0.370313,-3.61013 -0.1116,-3.79827 0.762076,-6.8722 2.776426,-9.76829 0.692435,-0.99565 2.48551,-2.86385 3.534016,-3.68208 2.141636,-1.67148 4.692367,-3.13323 7.651531,-4.38479 2.096706,-0.88682 7.642842,-2.90594 10.757532,-3.91636 0.88833,-0.28817 0.846551,-0.42952 0.371706,1.25733 -1.246772,4.42909 -2.662986,8.9441 -3.527647,11.24641 -2.111191,5.62128 -4.501308,9.07525 -7.829598,11.31456 -2.288581,1.53979 -5.319975,2.44959 -8.554742,2.56754 -1.704688,0.0617 -4.438345,-0.0832 -4.601713,-0.24475 -0.04459,-0.0443 -0.138019,-0.39489 -0.207178,-0.77942 z"
         style="opacity:1;fill:#000000;fill-opacity:1;fill-rule:nonzero;stroke:none;stroke-width:0.06766415;stroke-opacity:0" />
      <path
         inkscape:connector-curvature="0"
         id="path853-3-3-0"
         d="m 41.814708,259.625 c -1.213998,0.22756 -2.277185,0.34375 -3.562167,0.38898 -3.746322,0.13183 -6.772962,-0.72346 -9.618109,-2.71795 -0.978203,-0.68563 -2.810829,-2.46485 -3.61211,-3.50675 -1.636795,-2.12814 -3.064531,-4.66567 -4.282853,-7.61188 -0.863226,-2.08753 -2.82449,-7.61115 -3.804166,-10.71385 -0.279406,-0.88491 -0.419023,-0.84245 1.24192,-0.3777 4.36103,1.22037 8.805945,2.60921 11.07173,3.4596 5.532121,2.07648 8.925414,4.44297 11.115807,7.75223 1.506125,2.27545 2.386997,5.29558 2.485861,8.52294 0.05165,1.70077 -0.105993,4.42946 -0.266138,4.59338 -0.04363,0.045 -0.390185,0.13987 -0.769763,0.21097 z"
         style="opacity:1;fill:#000000;fill-opacity:1;fill-rule:nonzero;stroke:none;stroke-width:0.06712274;stroke-opacity:0" />
      <path
         inkscape:connector-curvature="0"
         id="path853-3-8"
         d="m 53.594177,259.31788 c 1.008631,-1.30473 1.831785,-2.54854 2.758017,-4.1675 2.700443,-4.72014 4.187756,-9.70323 4.726358,-15.83519 0.185248,-2.10814 0.175158,-6.65933 -0.01984,-8.97025 -0.398172,-4.72037 -1.237281,-9.66628 -2.517094,-14.83634 -0.906815,-3.66327 -3.53075,-12.93561 -5.089518,-17.9851 -0.444574,-1.44016 -0.316834,-1.57038 -1.136347,1.1586 -2.151759,7.16526 -4.240049,14.64481 -5.201709,18.63075 -2.348011,9.73211 -2.999222,17.03054 -2.133309,23.90851 0.595419,4.72932 2.163247,9.54969 4.424533,13.60335 1.191647,2.13615 3.271606,5.24864 3.501333,5.23937 0.06292,-0.003 0.372267,-0.33823 0.687579,-0.7462 z"
         style="opacity:1;fill:#000000;fill-opacity:1;fill-rule:nonzero;stroke:none;stroke-width:0.08970947;stroke-opacity:0" />
      <path
         id="path832"
         transform="matrix(0.26458333,0,0,0.26458333,0,191.16667)"
         d="M 200 274.99609 C 115.8268 275.07671 77.814548 341.87214 19.96875 380.00391 L 200 380.00391 L 380.0332 380.00391 C 322.1874 341.87214 284.1732 275.07671 200 274.99609 z "
         style="fill:#000000;fill-opacity:1;stroke:none;stroke-width:0.98652172px;stroke-linecap:butt;stroke-linejoin:miter;stroke-opacity:1" />
    </g>
  </g>
</svg>
