<?xml version="1.0" encoding="UTF-8" standalone="no"?>
<!-- Created with Inkscape (http://www.inkscape.org/) -->

<svg
   xmlns:dc="http://purl.org/dc/elements/1.1/"
   xmlns:cc="http://creativecommons.org/ns#"
   xmlns:rdf="http://www.w3.org/1999/02/22-rdf-syntax-ns#"
   xmlns:svg="http://www.w3.org/2000/svg"
   xmlns="http://www.w3.org/2000/svg"
   xmlns:sodipodi="http://sodipodi.sourceforge.net/DTD/sodipodi-0.dtd"
   xmlns:inkscape="http://www.inkscape.org/namespaces/inkscape"
   width="400"
   height="400"
   viewBox="0 0 105.83333 105.83333"
   version="1.1"
   id="svg8"
   inkscape:version="0.92.3 (2405546, 2018-03-11)"
   sodipodi:docname="rain.svg">
  <defs
     id="defs2" />
  <sodipodi:namedview
     id="base"
     pagecolor="#ffffff"
     bordercolor="#666666"
     borderopacity="1.0"
     inkscape:pageopacity="0.0"
     inkscape:pageshadow="2"
     inkscape:zoom="1.07625"
     inkscape:cx="130.94181"
     inkscape:cy="262.22338"
     inkscape:document-units="mm"
     inkscape:current-layer="layer1"
     showgrid="true"
     units="px"
     showguides="true"
     inkscape:guide-bbox="true"
     inkscape:window-width="1920"
     inkscape:window-height="1052"
     inkscape:window-x="1920"
     inkscape:window-y="0"
     inkscape:window-maximized="1">
    <inkscape:grid
       type="xygrid"
       id="grid4530" />
  </sodipodi:namedview>
  <metadata
     id="metadata5">
    <rdf:RDF>
      <cc:Work
         rdf:about="">
        <dc:format>image/svg+xml</dc:format>
        <dc:type
           rdf:resource="http://purl.org/dc/dcmitype/StillImage" />
        <dc:title />
      </cc:Work>
    </rdf:RDF>
  </metadata>
  <g
     inkscape:label="Layer 1"
     inkscape:groupmode="layer"
     id="layer1"
     transform="translate(0,-191.16667)">
    <g
       id="g964"
       style="fill:#000000;fill-opacity:1;stroke:none">
      <path
         inkscape:connector-curvature="0"
         id="path853-0-6"
         d="m 11.01866,269.26483 c -0.752841,-0.53718 -1.3674197,-1.05067 -2.0590164,-1.72052 -2.0163208,-1.95295 -3.1279622,-4.02857 -3.5325749,-6.59587 -0.139167,-0.88263 -0.133788,-2.79228 0.01056,-3.76383 0.294729,-1.98457 0.9182204,-4.06823 1.8703151,-6.25044 0.6746054,-1.54617 2.6272615,-5.46321 3.7874702,-7.59768 0.330898,-0.60875 0.23556,-0.66211 0.848076,0.47453 1.608262,2.98447 3.169333,6.10145 3.888474,7.76405 1.755823,4.05939 2.244989,7.115 1.602403,10.00953 -0.441853,1.99032 -1.608927,4.02874 -3.293558,5.75249 -0.886971,0.90918 -2.437647,2.23541 -2.608947,2.23387 -0.04697,-6.2e-4 -0.277848,-0.13814 -0.513192,-0.30614 z"
         style="opacity:1;fill:#000000;fill-opacity:1;fill-rule:nonzero;stroke:none;stroke-width:0.05018407;stroke-opacity:0" />
      <path
         inkscape:connector-curvature="0"
         id="path853-0-6-7"
         d="m 94.191654,269.48322 c -0.752839,-0.53719 -1.36742,-1.05068 -2.059016,-1.72053 -2.016323,-1.95295 -3.127965,-4.02857 -3.532579,-6.59587 -0.139166,-0.88263 -0.133787,-2.79227 0.01056,-3.76383 0.294732,-1.98457 0.918223,-4.06822 1.870318,-6.25045 0.674607,-1.54616 2.627263,-5.4632 3.787473,-7.59767 0.330898,-0.60876 0.235562,-0.66211 0.848076,0.47453 1.608264,2.98447 3.169334,6.10145 3.88847,7.76404 1.755804,4.05941 2.244984,7.11502 1.602384,10.00954 -0.44184,1.99032 -1.608914,4.02874 -3.293534,5.75248 -0.886972,0.9092 -2.437646,2.23541 -2.608948,2.23388 -0.04697,-6.2e-4 -0.277848,-0.13814 -0.513192,-0.30614 z"
         style="opacity:1;fill:#000000;fill-opacity:1;fill-rule:nonzero;stroke:none;stroke-width:0.05018407;stroke-opacity:0" />
      <path
         inkscape:connector-curvature="0"
         id="path853-0-6-2"
         d="m 52.472475,269.29872 c -0.752844,-0.53715 -1.367426,-1.05065 -2.059022,-1.72051 -2.016322,-1.95295 -3.127968,-4.02855 -3.532579,-6.59587 -0.139159,-0.88264 -0.133789,-2.79226 0.01056,-3.76384 0.294732,-1.98456 0.918216,-4.06821 1.870312,-6.25043 0.674609,-1.54617 2.62727,-5.46322 3.787472,-7.59768 0.330905,-0.60876 0.235561,-0.66211 0.848078,0.47455 1.608268,2.98445 3.169337,6.10143 3.888475,7.76403 1.755823,4.0594 2.244992,7.11501 1.602401,10.00953 -0.441849,1.99032 -1.608926,4.02873 -3.293558,5.75249 -0.886968,0.90919 -2.437644,2.23541 -2.608942,2.23387 -0.04693,-6.4e-4 -0.277839,-0.13815 -0.513195,-0.30614 z"
         style="opacity:1;fill:#000000;fill-opacity:1;fill-rule:nonzero;stroke:none;stroke-width:0.05018407;stroke-opacity:0" />
      <path
         inkscape:connector-curvature="0"
         id="path853-0-6-08"
         d="m 31.220583,291.17934 c -0.752845,-0.53718 -1.367425,-1.05067 -2.059021,-1.72052 -2.016325,-1.95295 -3.127958,-4.02857 -3.532574,-6.59587 -0.139164,-0.88263 -0.133788,-2.79228 0.0108,-3.76383 0.294732,-1.98457 0.918216,-4.06823 1.870309,-6.25044 0.674617,-1.54617 2.627269,-5.46321 3.787478,-7.59768 0.3309,-0.60875 0.23556,-0.66211 0.848076,0.47453 1.608264,2.98447 3.169332,6.10145 3.88848,7.76405 1.755816,4.05939 2.244984,7.115 1.602396,10.00953 -0.441852,1.99032 -1.608924,4.02874 -3.293556,5.75249 -0.886968,0.90918 -2.437644,2.23541 -2.608944,2.23387 -0.04692,-6.4e-4 -0.277849,-0.13814 -0.513192,-0.30614 z"
         style="opacity:1;fill:#000000;fill-opacity:1;fill-rule:nonzero;stroke:none;stroke-width:0.05018407;stroke-opacity:0" />
      <path
         inkscape:connector-curvature="0"
         id="path853-0-6-7-1"
         d="m 74.083079,291.17935 c -0.752844,-0.53719 -1.367424,-1.05068 -2.05902,-1.72053 -2.016324,-1.95295 -3.127956,-4.02857 -3.532572,-6.59587 -0.139164,-0.88263 -0.133788,-2.79227 0.0108,-3.76383 0.294732,-1.98457 0.918216,-4.06822 1.87032,-6.25045 0.674604,-1.54616 2.627256,-5.4632 3.787464,-7.59767 0.3309,-0.60876 0.23556,-0.66211 0.848076,0.47453 1.608264,2.98447 3.169344,6.10145 3.88848,7.76404 1.755798,4.05941 2.24498,7.11502 1.602393,10.00954 -0.441854,1.99032 -1.608921,4.02874 -3.293553,5.75248 -0.886968,0.9092 -2.437644,2.23541 -2.608944,2.23388 -0.04692,-6.4e-4 -0.277848,-0.13814 -0.513192,-0.30614 z"
         style="opacity:1;fill:#000000;fill-opacity:1;fill-rule:nonzero;stroke:none;stroke-width:0.05018407;stroke-opacity:0" />
      <path
         inkscape:connector-curvature="0"
         id="path853-0-6-3"
         d="m 10.933713,222.78277 c -0.752841,-0.53718 -1.3674196,-1.05067 -2.0590159,-1.72052 -2.016321,-1.95295 -3.127963,-4.02857 -3.532575,-6.59587 -0.139167,-0.88263 -0.133788,-2.79228 0.01056,-3.76383 0.294729,-1.98457 0.91822,-4.06823 1.870315,-6.25044 0.674605,-1.54617 2.6272623,-5.46321 3.7874699,-7.59768 0.330898,-0.60875 0.23556,-0.66211 0.848076,0.47453 1.608262,2.98447 3.169333,6.10145 3.888475,7.76405 1.755822,4.05939 2.244989,7.115 1.602403,10.00953 -0.441853,1.99032 -1.608928,4.02874 -3.293559,5.75249 -0.886971,0.90918 -2.437647,2.23541 -2.608947,2.23387 -0.04697,-5.3e-4 -0.277848,-0.13814 -0.513192,-0.30614 z"
         style="opacity:1;fill:#000000;fill-opacity:1;fill-rule:nonzero;stroke:none;stroke-width:0.05018407;stroke-opacity:0" />
      <path
         inkscape:connector-curvature="0"
         id="path853-0-6-7-9"
         d="m 93.906709,222.80178 c -0.75283,-0.53719 -1.36742,-1.05068 -2.05901,-1.72053 -2.01632,-1.95295 -3.12797,-4.02857 -3.53258,-6.59587 -0.13917,-0.88263 -0.13379,-2.79227 0.0106,-3.76383 0.29473,-1.98457 0.91822,-4.06822 1.87032,-6.25045 0.6746,-1.54616 2.62726,-5.4632 3.78747,-7.59767 0.3309,-0.60876 0.23556,-0.66211 0.84808,0.47453 1.60826,2.98447 3.16933,6.10145 3.88847,7.76404 1.755801,4.05941 2.244981,7.11502 1.602381,10.00954 -0.441841,1.99032 -1.608911,4.02874 -3.293531,5.75248 -0.88697,0.9092 -2.43765,2.23541 -2.60895,2.23388 -0.047,-5.3e-4 -0.27785,-0.13814 -0.51319,-0.30614 z"
         style="opacity:1;fill:#000000;fill-opacity:1;fill-rule:nonzero;stroke:none;stroke-width:0.05018407;stroke-opacity:0" />
      <path
         inkscape:connector-curvature="0"
         id="path853-0-6-2-1"
         d="m 52.38746,222.81676 c -0.75285,-0.53715 -1.36743,-1.05065 -2.05903,-1.72051 -2.01632,-1.95295 -3.12797,-4.02855 -3.53257,-6.59587 -0.13916,-0.88264 -0.13379,-2.79226 0.0106,-3.76384 0.29473,-1.98456 0.91821,-4.06821 1.87031,-6.25043 0.67461,-1.54617 2.62727,-5.46322 3.78747,-7.59768 0.3309,-0.60876 0.23556,-0.66211 0.84808,0.47455 1.60827,2.98445 3.16933,6.10143 3.88847,7.76403 1.75582,4.0594 2.24499,7.11501 1.6024,10.00953 -0.44185,1.99032 -1.60892,4.02873 -3.29355,5.75249 -0.88697,0.90919 -2.43765,2.23541 -2.60895,2.23387 -0.0469,-5.3e-4 -0.27784,-0.13815 -0.51319,-0.30614 z"
         style="opacity:1;fill:#000000;fill-opacity:1;fill-rule:nonzero;stroke:none;stroke-width:0.05018407;stroke-opacity:0" />
      <path
         inkscape:connector-curvature="0"
         id="path853-0-6-08-9"
         d="m 31.420523,245.14182 c -0.752845,-0.53718 -1.367425,-1.05067 -2.059021,-1.72052 -2.016325,-1.95295 -3.127958,-4.02857 -3.532574,-6.59587 -0.139164,-0.88263 -0.133788,-2.79228 0.0108,-3.76383 0.294732,-1.98457 0.918216,-4.06823 1.870309,-6.25044 0.674617,-1.54617 2.627269,-5.46321 3.787478,-7.59768 0.3309,-0.60875 0.23556,-0.66211 0.848076,0.47453 1.608264,2.98447 3.169332,6.10145 3.888481,7.76405 1.755816,4.05939 2.244984,7.115 1.602395,10.00953 -0.441851,1.99032 -1.608923,4.02874 -3.293556,5.75249 -0.886968,0.90918 -2.437644,2.23541 -2.608944,2.23387 -0.04692,-5.3e-4 -0.277849,-0.13814 -0.513192,-0.30614 z"
         style="opacity:1;fill:#000000;fill-opacity:1;fill-rule:nonzero;stroke:none;stroke-width:0.05018407;stroke-opacity:0" />
      <path
         inkscape:connector-curvature="0"
         id="path853-0-6-7-1-6"
         d="m 74.283022,245.14183 c -0.752845,-0.53719 -1.367427,-1.05068 -2.059022,-1.72053 -2.016323,-1.95295 -3.127957,-4.02857 -3.532573,-6.59587 -0.139163,-0.88263 -0.133787,-2.79227 0.0108,-3.76383 0.294732,-1.98457 0.918218,-4.06822 1.870321,-6.25045 0.674603,-1.54616 2.627257,-5.4632 3.787464,-7.59767 0.3309,-0.60876 0.23556,-0.66211 0.84807,0.47453 1.60827,2.98447 3.16935,6.10145 3.88849,7.76404 1.75579,4.05941 2.24497,7.11502 1.60239,10.00954 -0.44186,1.99032 -1.60892,4.02874 -3.29356,5.75248 -0.88696,0.9092 -2.43764,2.23541 -2.60894,2.23388 -0.0469,-5.3e-4 -0.27785,-0.13814 -0.51319,-0.30614 z"
         style="opacity:1;fill:#000000;fill-opacity:1;fill-rule:nonzero;stroke:none;stroke-width:0.05018407;stroke-opacity:0" />
    </g>
  </g>
</svg>
