<?xml version="1.0" encoding="UTF-8" standalone="no"?>
<!-- Created with Inkscape (http://www.inkscape.org/) -->

<svg
   xmlns:dc="http://purl.org/dc/elements/1.1/"
   xmlns:cc="http://creativecommons.org/ns#"
   xmlns:rdf="http://www.w3.org/1999/02/22-rdf-syntax-ns#"
   xmlns:svg="http://www.w3.org/2000/svg"
   xmlns="http://www.w3.org/2000/svg"
   xmlns:sodipodi="http://sodipodi.sourceforge.net/DTD/sodipodi-0.dtd"
   xmlns:inkscape="http://www.inkscape.org/namespaces/inkscape"
   width="400"
   height="400"
   viewBox="0 0 105.83333 105.83333"
   version="1.1"
   id="svg8"
   inkscape:version="0.92.3 (2405546, 2018-03-11)"
   sodipodi:docname="star-five-pointed.svg">
  <defs
     id="defs2" />
  <sodipodi:namedview
     id="base"
     pagecolor="#ffffff"
     bordercolor="#666666"
     borderopacity="1.0"
     inkscape:pageopacity="0.0"
     inkscape:pageshadow="2"
     inkscape:zoom="2"
     inkscape:cx="71.97777"
     inkscape:cy="194.82757"
     inkscape:document-units="mm"
     inkscape:current-layer="layer1"
     showgrid="true"
     units="px"
     showguides="true"
     inkscape:guide-bbox="true"
     inkscape:window-width="1920"
     inkscape:window-height="1052"
     inkscape:window-x="1920"
     inkscape:window-y="0"
     inkscape:window-maximized="1">
    <inkscape:grid
       type="xygrid"
       id="grid4530" />
  </sodipodi:namedview>
  <metadata
     id="metadata5">
    <rdf:RDF>
      <cc:Work
         rdf:about="">
        <dc:format>image/svg+xml</dc:format>
        <dc:type
           rdf:resource="http://purl.org/dc/dcmitype/StillImage" />
        <dc:title />
      </cc:Work>
    </rdf:RDF>
  </metadata>
  <g
     inkscape:label="Layer 1"
     inkscape:groupmode="layer"
     id="layer1"
     transform="translate(0,-191.16667)">
    <g
       id="g960"
       style="fill:#000000;fill-opacity:1;stroke:none">
      <path
         inkscape:connector-curvature="0"
         id="path853-3-3-0"
         d="m 34.660416,217.88958 c -0.614731,-0.007 -1.144977,-0.054 -1.77665,-0.1564 -1.841553,-0.29977 -3.235775,-1.01171 -4.430648,-2.26195 -0.41082,-0.42981 -1.132378,-1.47651 -1.422195,-2.06302 -0.592038,-1.19797 -1.042221,-2.57546 -1.35045,-4.13206 -0.218377,-1.10296 -0.638632,-3.98992 -0.815134,-5.59973 -0.05035,-0.45911 -0.122619,-0.45199 0.642955,-0.0636 2.010116,1.01973 4.044769,2.12991 5.068072,2.76536 2.49851,1.55154 3.924775,3.03666 4.672189,4.86502 0.513929,1.25719 0.650241,2.81706 0.384673,4.40205 -0.140184,0.83523 -0.482456,2.1519 -0.576568,2.21633 -0.02568,0.0179 -0.204065,0.0304 -0.396255,0.0281 z"
         style="opacity:1;fill:#000000;fill-opacity:1;fill-rule:nonzero;stroke:none;stroke-width:0.03340869;stroke-opacity:0" />
      <path
         transform="matrix(1.5603105,-0.06267366,0.05964701,1.6394852,-42.805019,-114.23582)"
         inkscape:transform-center-y="-4.4546816"
         inkscape:transform-center-x="-0.029093063"
         d="m 68.791665,244.08334 -16.332169,-12.47901 -17.284221,11.123 6.821327,-19.38904 -15.91972,-13.00107 20.547981,0.49592 7.445293,-19.15811 5.878023,19.69554 20.521164,1.16072 -16.915162,11.67659 z"
         inkscape:randomized="0"
         inkscape:rounded="0"
         inkscape:flatsided="false"
         sodipodi:arg2="1.6111123"
         sodipodi:arg1="0.98279372"
         sodipodi:r2="11.342707"
         sodipodi:r1="28.619064"
         sodipodi:cy="220.27084"
         sodipodi:cx="52.916664"
         sodipodi:sides="5"
         id="path872"
         style="opacity:1;fill:#000000;fill-opacity:1;fill-rule:nonzero;stroke:none;stroke-width:0.26458332;stroke-opacity:0"
         sodipodi:type="star" />
      <path
         inkscape:connector-curvature="0"
         id="path853-3-3-0-1"
         d="m 71.702084,217.88958 c 0.614731,-0.007 1.144977,-0.054 1.77665,-0.1564 1.841553,-0.29977 3.235775,-1.01171 4.430648,-2.26195 0.41082,-0.42981 1.132378,-1.47651 1.422195,-2.06302 0.592038,-1.19797 1.042221,-2.57546 1.35045,-4.13206 0.218377,-1.10296 0.638632,-3.98992 0.815134,-5.59973 0.05035,-0.45911 0.122619,-0.45199 -0.642955,-0.0636 -2.010116,1.01973 -4.044769,2.12991 -5.068072,2.76536 -2.49851,1.55154 -3.924775,3.03666 -4.672189,4.86502 -0.513929,1.25719 -0.650241,2.81706 -0.384673,4.40205 0.140184,0.83523 0.482455,2.1519 0.576567,2.21633 0.02568,0.0179 0.204066,0.0304 0.396256,0.0281 z"
         style="opacity:1;fill:#000000;fill-opacity:1;fill-rule:nonzero;stroke:none;stroke-width:0.03340869;stroke-opacity:0" />
      <path
         inkscape:connector-curvature="0"
         id="path853-3-3-3"
         d="m 83.905953,254.59205 c 0.176077,0.589 0.367117,1.08584 0.640186,1.66465 0.795941,1.6875 1.864442,2.83154 3.395601,3.63553 0.526391,0.27643 1.731435,0.6815 2.375106,0.79847 1.314748,0.23888 2.762953,0.29193 4.344233,0.15914 1.120419,-0.094 4.011424,-0.48547 5.607461,-0.75994 0.45522,-0.0783 0.46828,-0.006 -0.1161,-0.63557 -1.534292,-1.6512 -3.162298,-3.30101 -4.055197,-4.10952 -2.180104,-1.97403 -4.000842,-2.93572 -5.964369,-3.15019 -1.35015,-0.1475 -2.887186,0.15136 -4.337594,0.84354 -0.764129,0.36515 -1.935516,1.0569 -1.971518,1.16516 -0.0099,0.0296 0.02714,0.20447 0.08227,0.38863 z"
         style="opacity:1;fill:#000000;fill-opacity:1;fill-rule:nonzero;stroke:none;stroke-width:0.03340869;stroke-opacity:0" />
      <path
         inkscape:connector-curvature="0"
         id="path853-3-3-1"
         d="m 53.259066,274.20304 c 0.499567,0.35826 0.907152,0.70063 1.365531,1.14724 1.336438,1.30197 2.070281,2.68474 2.332037,4.39423 0.08996,0.58766 0.08066,1.85897 -0.0183,2.50565 -0.202167,1.32092 -0.623486,2.70748 -1.264272,4.15927 -0.453664,1.02875 -1.765027,3.63478 -2.544113,5.05455 -0.222188,0.40496 -0.158236,0.44077 -0.563147,-0.3167 -1.061708,-1.98826 -2.091617,-4.06473 -2.565366,-5.17218 -1.1567,-2.70401 -1.473226,-4.73864 -1.036763,-6.66506 0.300141,-1.32458 1.083091,-2.68059 2.20978,-3.82662 0.593868,-0.60379 1.629398,-1.48605 1.743476,-1.48487 0.03019,-0.006 0.184509,0.0922 0.340679,0.20427 z"
         style="opacity:1;fill:#000000;fill-opacity:1;fill-rule:nonzero;stroke:none;stroke-width:0.03340869;stroke-opacity:0" />
      <path
         inkscape:connector-curvature="0"
         id="path853-3-3-3-1"
         d="m 21.989347,254.56705 c -0.176077,0.589 -0.367117,1.08584 -0.640186,1.66465 -0.795941,1.6875 -1.864442,2.83154 -3.395601,3.63553 -0.526391,0.27643 -1.731435,0.6815 -2.375105,0.79847 -1.314749,0.23888 -2.762954,0.29193 -4.344234,0.15914 -1.120419,-0.094 -4.0114242,-0.48547 -5.6074612,-0.75994 -0.45522,-0.0783 -0.46828,-0.006 0.1161,-0.63557 1.534292,-1.6512 3.162298,-3.30101 4.0551972,-4.10952 2.180104,-1.97403 4.000842,-2.93572 5.964369,-3.15019 1.35015,-0.1475 2.887186,0.15136 4.337594,0.84354 0.764129,0.36515 1.935516,1.0569 1.971518,1.16516 0.0099,0.0296 -0.02714,0.20447 -0.08227,0.38863 z"
         style="opacity:1;fill:#000000;fill-opacity:1;fill-rule:nonzero;stroke:none;stroke-width:0.03340869;stroke-opacity:0" />
    </g>
  </g>
</svg>
