<?xml version="1.0" encoding="UTF-8" standalone="no"?>
<!-- Created with Inkscape (http://www.inkscape.org/) -->

<svg
   xmlns:dc="http://purl.org/dc/elements/1.1/"
   xmlns:cc="http://creativecommons.org/ns#"
   xmlns:rdf="http://www.w3.org/1999/02/22-rdf-syntax-ns#"
   xmlns:svg="http://www.w3.org/2000/svg"
   xmlns="http://www.w3.org/2000/svg"
   xmlns:sodipodi="http://sodipodi.sourceforge.net/DTD/sodipodi-0.dtd"
   xmlns:inkscape="http://www.inkscape.org/namespaces/inkscape"
   width="400"
   height="400"
   viewBox="0 0 105.83333 105.83333"
   version="1.1"
   id="svg8"
   inkscape:version="0.92.3 (2405546, 2018-03-11)"
   sodipodi:docname="sun.svg">
  <defs
     id="defs2" />
  <sodipodi:namedview
     id="base"
     pagecolor="#ffffff"
     bordercolor="#666666"
     borderopacity="1.0"
     inkscape:pageopacity="0.0"
     inkscape:pageshadow="2"
     inkscape:zoom="1.4"
     inkscape:cx="130.8005"
     inkscape:cy="205.87601"
     inkscape:document-units="mm"
     inkscape:current-layer="layer1"
     showgrid="true"
     units="px"
     showguides="true"
     inkscape:guide-bbox="true"
     inkscape:window-width="1920"
     inkscape:window-height="1052"
     inkscape:window-x="1920"
     inkscape:window-y="0"
     inkscape:window-maximized="1">
    <inkscape:grid
       type="xygrid"
       id="grid4530" />
  </sodipodi:namedview>
  <metadata
     id="metadata5">
    <rdf:RDF>
      <cc:Work
         rdf:about="">
        <dc:format>image/svg+xml</dc:format>
        <dc:type
           rdf:resource="http://purl.org/dc/dcmitype/StillImage" />
        <dc:title />
      </cc:Work>
    </rdf:RDF>
  </metadata>
  <g
     inkscape:label="Layer 1"
     inkscape:groupmode="layer"
     id="layer1"
     transform="translate(0,-191.16667)">
    <g
       id="g843"
       style="fill:#000000;fill-opacity:1;stroke:none">
      <ellipse
         ry="26.33849"
         rx="26.338488"
         cy="244.08334"
         cx="52.916664"
         id="path4540"
         style="opacity:1;fill:#000000;fill-opacity:1;fill-rule:nonzero;stroke:none;stroke-width:0.23968853;stroke-opacity:1" />
      <path
         inkscape:connector-curvature="0"
         id="path853-3"
         d="m 53.251731,274.15498 c 0.4996,0.35827 0.90717,0.70068 1.36557,1.14725 1.33646,1.30194 2.07029,2.68473 2.33196,4.39421 0.09,0.58771 0.0807,1.85899 -0.0183,2.50566 -0.20216,1.32091 -0.62348,2.70749 -1.26384,4.15938 -0.45373,1.02873 -1.76538,3.63465 -2.54414,5.05456 -0.22211,0.40497 -0.1588,0.44057 -0.56316,-0.31668 -1.06171,-1.98827 -2.09161,-4.06471 -2.56537,-5.17219 -1.15674,-2.70402 -1.47323,-4.73864 -1.03678,-6.66504 0.30011,-1.3246 1.08316,-2.68056 2.20982,-3.8266 0.59372,-0.60394 1.62946,-1.48598 1.74352,-1.48479 0.0312,3.4e-4 0.18453,0.0922 0.34072,0.20424 z"
         style="opacity:1;fill:#000000;fill-opacity:1;fill-rule:nonzero;stroke:none;stroke-width:0.03340869;stroke-opacity:0" />
      <path
         inkscape:connector-curvature="0"
         id="path853-1"
         d="m 22.845023,244.4174 c -0.35827,0.4996 -0.70068,0.90717 -1.14725,1.36557 -1.30194,1.33645 -2.68473,2.07029 -4.39421,2.33195 -0.58771,0.09 -1.85899,0.0807 -2.50566,-0.0183 -1.32091,-0.20216 -2.70749,-0.62347 -4.15938,-1.26383 -1.0287307,-0.45373 -3.6346507,-1.76538 -5.0545607,-2.54414 -0.40497,-0.22211 -0.44057,-0.1588 0.31668,-0.56316 1.98827,-1.06171 4.0647107,-2.09161 5.1721907,-2.56537 2.70402,-1.15674 4.73864,-1.47323 6.66504,-1.03678 1.3246,0.30011 2.68056,1.08316 3.8266,2.20981 0.60394,0.59373 1.48598,1.62947 1.48479,1.74352 -3.4e-4,0.0312 -0.0922,0.18454 -0.20424,0.34072 z"
         style="opacity:1;fill:#000000;fill-opacity:1;fill-rule:nonzero;stroke:none;stroke-width:0.03340869;stroke-opacity:0" />
      <path
         inkscape:connector-curvature="0"
         id="path853-3-1"
         d="m 83.004241,243.76827 c 0.35827,-0.4996 0.70068,-0.90717 1.14725,-1.36557 1.30194,-1.33646 2.68473,-2.07029 4.39421,-2.33196 0.58771,-0.09 1.85899,-0.0807 2.50566,0.0183 1.32091,0.20216 2.70749,0.62348 4.15938,1.26384 1.02873,0.45373 3.63465,1.76538 5.054559,2.54414 0.40497,0.22211 0.44057,0.1588 -0.316676,0.56316 -1.988273,1.06171 -4.064713,2.09161 -5.172193,2.56537 -2.70402,1.15674 -4.73864,1.47323 -6.66504,1.03678 -1.3246,-0.30011 -2.68056,-1.08316 -3.8266,-2.20982 -0.60394,-0.59372 -1.48598,-1.62946 -1.48479,-1.74352 2.7e-4,-0.0312 0.0922,-0.18453 0.20424,-0.34072 z"
         style="opacity:1;fill:#000000;fill-opacity:1;fill-rule:nonzero;stroke:none;stroke-width:0.03340869;stroke-opacity:0" />
      <path
         inkscape:connector-curvature="0"
         id="path853-0"
         d="m 73.71074,222.89165 c -0.0999,-0.6066 -0.14601,-1.13692 -0.154384,-1.77683 -0.0244,-1.86562 0.434478,-3.3623 1.45824,-4.75611 0.351934,-0.47921 1.257441,-1.37157 1.784709,-1.75883 1.076971,-0.79108 2.355342,-1.47363 3.83479,-2.04746 1.048253,-0.40659 3.818393,-1.32178 5.373091,-1.77514 0.443411,-0.1293 0.423819,-0.19924 0.174288,0.62214 -0.655178,2.15666 -1.395196,4.35318 -1.843299,5.47129 -1.094097,2.72996 -2.308997,4.39245 -3.979776,5.446 -1.14885,0.72443 -2.661366,1.12954 -4.268391,1.14325 -0.846884,0.007 -2.202961,-0.10147 -2.282761,-0.18295 -0.0218,-0.0223 -0.0653,-0.19569 -0.0965,-0.38535 z"
         style="opacity:1;fill:#000000;fill-opacity:1;fill-rule:nonzero;stroke:none;stroke-width:0.03340869;stroke-opacity:0" />
      <path
         inkscape:connector-curvature="0"
         id="path853-3-3"
         d="m 31.846723,265.74438 c 0.0999,0.6066 0.146017,1.13692 0.154385,1.77683 0.0244,1.86563 -0.434482,3.3623 -1.458231,4.75612 -0.351942,0.47921 -1.257441,1.37157 -1.78471,1.75883 -1.076967,0.79107 -2.355348,1.47361 -3.834801,2.04745 -1.048252,0.40659 -3.818391,1.32178 -5.373089,1.77514 -0.443412,0.1293 -0.42382,0.19924 -0.174288,-0.62214 0.65518,-2.15666 1.395194,-4.35318 1.843301,-5.47128 1.094095,-2.72997 2.308994,-4.39246 3.97978,-5.44601 1.148843,-0.72443 2.661359,-1.12954 4.268395,-1.14324 0.846872,-0.007 2.202951,0.10146 2.28276,0.18295 0.0219,0.0222 0.06529,0.19569 0.0965,0.38535 z"
         style="opacity:1;fill:#000000;fill-opacity:1;fill-rule:nonzero;stroke:none;stroke-width:0.03340869;stroke-opacity:0" />
      <path
         inkscape:connector-curvature="0"
         id="path853-0-4"
         d="m 74.545815,265.25007 c 0.606601,-0.0999 1.136918,-0.14601 1.776825,-0.15437 1.865608,-0.0244 3.362269,0.43447 4.756083,1.45824 0.479197,0.35193 1.371561,1.25744 1.758808,1.7847 0.791077,1.07698 1.473624,2.35536 2.047448,3.83479 0.4066,1.04827 1.321774,3.81841 1.775131,5.37309 0.12931,0.44342 0.19924,0.42382 -0.622137,0.1743 -2.156648,-0.65518 -4.353156,-1.3952 -5.471247,-1.84331 -2.729955,-1.09408 -4.392426,-2.30898 -5.44598,-3.97976 -0.724427,-1.14886 -1.129536,-2.66137 -1.143247,-4.26839 -0.007,-0.8469 0.101463,-2.20297 0.18295,-2.28278 0.02232,-0.0218 0.195685,-0.0653 0.385352,-0.0965 z"
         style="opacity:1;fill:#000000;fill-opacity:1;fill-rule:nonzero;stroke:none;stroke-width:0.03340869;stroke-opacity:0" />
      <path
         inkscape:connector-curvature="0"
         id="path853-3-3-0"
         d="m 31.693084,223.38606 c -0.6066,0.0999 -1.136918,0.14601 -1.776827,0.15438 -1.865635,0.0244 -3.362299,-0.43448 -4.75612,-1.45823 -0.479215,-0.35194 -1.371569,-1.25744 -1.758829,-1.78471 -0.79107,-1.07697 -1.473612,-2.35535 -2.047456,-3.83479 -0.406585,-1.04826 -1.321773,-3.8184 -1.775135,-5.3731 -0.129301,-0.44341 -0.199242,-0.42382 0.62214,-0.17429 2.156655,0.65519 4.353178,1.3952 5.471281,1.8433 2.729971,1.0941 4.392457,2.309 5.446009,3.97979 0.724427,1.14884 1.12954,2.66135 1.143238,4.26839 0.007,0.84687 -0.101456,2.20295 -0.182949,2.28276 -0.02221,0.0219 -0.195692,0.0653 -0.385352,0.0965 z"
         style="opacity:1;fill:#000000;fill-opacity:1;fill-rule:nonzero;stroke:none;stroke-width:0.03340869;stroke-opacity:0" />
      <path
         inkscape:connector-curvature="0"
         id="path853-3-8"
         d="m 53.239731,214.01576 c 0.4996,-0.35827 0.90717,-0.70068 1.36557,-1.14725 1.33646,-1.30194 2.07029,-2.68473 2.33196,-4.39421 0.09,-0.58771 0.0807,-1.85899 -0.0183,-2.50566 -0.20216,-1.32091 -0.62348,-2.70749 -1.26384,-4.15938 -0.45373,-1.02873 -1.76538,-3.63465 -2.54414,-5.05456 -0.22211,-0.40497 -0.1588,-0.44057 -0.56316,0.31668 -1.06171,1.98827 -2.09161,4.06471 -2.56537,5.17219 -1.15674,2.70402 -1.47323,4.73864 -1.03678,6.66504 0.30011,1.3246 1.08316,2.68056 2.20982,3.8266 0.59372,0.60394 1.62946,1.48598 1.74352,1.48479 0.0312,-3.4e-4 0.18453,-0.0922 0.34072,-0.20424 z"
         style="opacity:1;fill:#000000;fill-opacity:1;fill-rule:nonzero;stroke:none;stroke-width:0.03340869;stroke-opacity:0" />
    </g>
  </g>
</svg>
