<?xml version="1.0" encoding="UTF-8" standalone="no"?>
<!-- Created with Inkscape (http://www.inkscape.org/) -->

<svg
   xmlns:dc="http://purl.org/dc/elements/1.1/"
   xmlns:cc="http://creativecommons.org/ns#"
   xmlns:rdf="http://www.w3.org/1999/02/22-rdf-syntax-ns#"
   xmlns:svg="http://www.w3.org/2000/svg"
   xmlns="http://www.w3.org/2000/svg"
   xmlns:sodipodi="http://sodipodi.sourceforge.net/DTD/sodipodi-0.dtd"
   xmlns:inkscape="http://www.inkscape.org/namespaces/inkscape"
   width="400"
   height="400"
   viewBox="0 0 105.83333 105.83333"
   version="1.1"
   id="svg8"
   inkscape:version="0.92.3 (2405546, 2018-03-11)"
   sodipodi:docname="sunrise.svg">
  <defs
     id="defs2" />
  <sodipodi:namedview
     id="base"
     pagecolor="#ffffff"
     bordercolor="#666666"
     borderopacity="1.0"
     inkscape:pageopacity="0.0"
     inkscape:pageshadow="2"
     inkscape:zoom="1.4"
     inkscape:cx="107.21941"
     inkscape:cy="208.59875"
     inkscape:document-units="mm"
     inkscape:current-layer="layer1"
     showgrid="true"
     units="px"
     showguides="true"
     inkscape:guide-bbox="true"
     inkscape:window-width="1920"
     inkscape:window-height="1052"
     inkscape:window-x="1920"
     inkscape:window-y="0"
     inkscape:window-maximized="1">
    <inkscape:grid
       type="xygrid"
       id="grid4530" />
  </sodipodi:namedview>
  <metadata
     id="metadata5">
    <rdf:RDF>
      <cc:Work
         rdf:about="">
        <dc:format>image/svg+xml</dc:format>
        <dc:type
           rdf:resource="http://purl.org/dc/dcmitype/StillImage" />
        <dc:title />
      </cc:Work>
    </rdf:RDF>
  </metadata>
  <g
     inkscape:label="Layer 1"
     inkscape:groupmode="layer"
     id="layer1"
     transform="translate(0,-191.16667)">
    <g
       id="g837"
       style="fill:#000000;fill-opacity:1;stroke:none">
      <g
         id="g1040"
         style="fill:#000000;fill-opacity:1;stroke:none">
        <path
           style="opacity:1;fill:#000000;fill-opacity:1;fill-rule:nonzero;stroke:none;stroke-width:0.03340869;stroke-opacity:0"
           d="m 22.845023,236.47985 c -0.35827,0.4996 -0.70068,0.90717 -1.14725,1.36557 -1.30194,1.33645 -2.68473,2.07029 -4.39421,2.33195 -0.58771,0.09 -1.85899,0.0807 -2.50566,-0.0183 -1.32091,-0.20216 -2.70749,-0.62347 -4.15938,-1.26383 -1.0287307,-0.45373 -3.6346507,-1.76538 -5.0545607,-2.54414 -0.40497,-0.22211 -0.44057,-0.1588 0.31668,-0.56316 1.98827,-1.06171 4.0647107,-2.09161 5.1721907,-2.56537 2.70402,-1.15674 4.73864,-1.47323 6.66504,-1.03678 1.3246,0.30011 2.68056,1.08316 3.8266,2.20981 0.60394,0.59373 1.48598,1.62947 1.48479,1.74352 -3.4e-4,0.0312 -0.0922,0.18454 -0.20424,0.34072 z"
           id="path853-1"
           inkscape:connector-curvature="0" />
        <path
           style="opacity:1;fill:#000000;fill-opacity:1;fill-rule:nonzero;stroke:none;stroke-width:0.03340869;stroke-opacity:0"
           d="m 83.004241,235.83072 c 0.35827,-0.4996 0.70068,-0.90717 1.14725,-1.36557 1.30194,-1.33646 2.68473,-2.07029 4.39421,-2.33196 0.58771,-0.09 1.85899,-0.0807 2.50566,0.0183 1.32091,0.20216 2.70749,0.62348 4.15938,1.26384 1.02873,0.45373 3.63465,1.76538 5.054559,2.54414 0.40497,0.22211 0.44057,0.1588 -0.316676,0.56316 -1.988273,1.06171 -4.064713,2.09161 -5.172193,2.56537 -2.70402,1.15674 -4.73864,1.47323 -6.66504,1.03678 -1.3246,-0.30011 -2.68056,-1.08316 -3.8266,-2.20982 -0.60394,-0.59372 -1.48598,-1.62946 -1.48479,-1.74352 2.7e-4,-0.0312 0.0922,-0.18453 0.20424,-0.34072 z"
           id="path853-3-1"
           inkscape:connector-curvature="0" />
        <path
           style="opacity:1;fill:#000000;fill-opacity:1;fill-rule:nonzero;stroke:none;stroke-width:0.03340869;stroke-opacity:0"
           d="m 38.765551,216.51139 c -0.609992,-0.0766 -1.131569,-0.18291 -1.747504,-0.35662 -1.795737,-0.50647 -3.100438,-1.37154 -4.146103,-2.74899 -0.359524,-0.47355 -0.957954,-1.59521 -1.179513,-2.21075 -0.452617,-1.2573 -0.743972,-2.67689 -0.874002,-4.25839 -0.09212,-1.12057 -0.182858,-4.03656 -0.175988,-5.656 0.002,-0.46187 -0.07067,-0.46295 0.646029,0.01 1.881759,1.24072 3.777654,2.57412 4.722447,3.32133 2.306809,1.82439 3.555783,3.46144 4.09142,5.36264 0.368307,1.30729 0.327156,2.87255 -0.11613,4.41732 -0.233813,0.81397 -0.72295,2.08341 -0.823755,2.13679 -0.02752,0.0146 -0.206194,0.007 -0.396888,-0.017 z"
           id="path853-3-3-0"
           inkscape:connector-curvature="0" />
        <path
           style="opacity:1;fill:#000000;fill-opacity:1;fill-rule:nonzero;stroke:none;stroke-width:0.03340869;stroke-opacity:0"
           d="m 53.239731,214.01576 c 0.4996,-0.35827 0.90717,-0.70068 1.36557,-1.14725 1.33646,-1.30194 2.07029,-2.68473 2.33196,-4.39421 0.09,-0.58771 0.0807,-1.85899 -0.0183,-2.50566 -0.20216,-1.32091 -0.62348,-2.70749 -1.26384,-4.15938 -0.45373,-1.02873 -1.76538,-3.63465 -2.54414,-5.05456 -0.22211,-0.40497 -0.1588,-0.44057 -0.56316,0.31668 -1.06171,1.98827 -2.09161,4.06471 -2.56537,5.17219 -1.15674,2.70402 -1.47323,4.73864 -1.03678,6.66504 0.30011,1.3246 1.08316,2.68056 2.20982,3.8266 0.59372,0.60394 1.62946,1.48598 1.74352,1.48479 0.0312,-3.4e-4 0.18453,-0.0922 0.34072,-0.20424 z"
           id="path853-3-8"
           inkscape:connector-curvature="0" />
        <path
           style="fill:#000000;stroke:none;stroke-width:0.26458332px;stroke-linecap:butt;stroke-linejoin:miter;stroke-opacity:1;fill-opacity:1"
           d="M 26.458333,244.08334 H 79.374999 C 79.375,230.85417 70.114583,217.625 52.916666,217.625 c -17.197916,0 -26.458333,13.22917 -26.458333,26.45834 z"
           id="path830"
           inkscape:connector-curvature="0"
           sodipodi:nodetypes="cccc" />
        <path
           style="opacity:1;fill:#000000;fill-opacity:1;fill-rule:nonzero;stroke:none;stroke-width:0.03340869;stroke-opacity:0"
           d="m 29.255206,223.98203 c -0.06584,-0.61124 -0.163135,-1.13459 -0.326073,-1.75348 -0.475052,-1.80429 -1.317223,-3.12388 -2.676187,-4.19344 -0.467135,-0.36782 -1.578219,-0.98567 -2.189825,-1.21789 -1.249215,-0.47448 -2.663501,-0.79059 -4.242509,-0.94819 -1.118779,-0.11174 -4.032738,-0.25329 -5.652049,-0.27471 -0.461822,-0.006 -0.461617,-0.0789 -0.0017,0.64609 1.207673,1.90313 2.507793,3.82199 3.238408,4.77968 1.78386,2.33829 3.39886,3.61564 5.290417,4.18439 1.300576,0.39136 2.866422,0.37724 4.418664,-0.039 0.817943,-0.21958 2.095726,-0.6865 2.150847,-0.78634 0.01509,-0.0272 0.0106,-0.20605 -0.01,-0.39713 z"
           id="path853-3-3-0-6"
           inkscape:connector-curvature="0" />
        <path
           style="opacity:1;fill:#000000;fill-opacity:1;fill-rule:nonzero;stroke:none;stroke-width:0.03340869;stroke-opacity:0"
           d="m 66.687361,216.51139 c 0.609992,-0.0766 1.131569,-0.18291 1.747505,-0.35662 1.795736,-0.50647 3.100438,-1.37154 4.146103,-2.74899 0.359524,-0.47355 0.957954,-1.59521 1.179513,-2.21075 0.452616,-1.2573 0.743972,-2.67689 0.874002,-4.25839 0.09212,-1.12057 0.182858,-4.03656 0.175988,-5.656 -0.002,-0.46187 0.07067,-0.46295 -0.646029,0.01 -1.88176,1.24072 -3.777654,2.57412 -4.722448,3.32132 -2.306809,1.8244 -3.555783,3.46145 -4.09142,5.36265 -0.368307,1.30729 -0.327156,2.87255 0.116131,4.41732 0.233812,0.81397 0.722949,2.08341 0.823754,2.13679 0.02752,0.0146 0.206195,0.007 0.396888,-0.017 z"
           id="path853-3-3-0-2"
           inkscape:connector-curvature="0" />
        <path
           style="opacity:1;fill:#000000;fill-opacity:1;fill-rule:nonzero;stroke:none;stroke-width:0.03340869;stroke-opacity:0"
           d="m 76.639393,224.11601 c 0.05516,-0.61229 0.143309,-1.13726 0.295421,-1.7589 0.443491,-1.81231 1.262503,-3.14639 2.602594,-4.23951 0.460644,-0.37591 1.560776,-1.01306 2.168236,-1.25592 1.240744,-0.49621 2.649298,-0.83695 4.225315,-1.02209 1.116658,-0.13125 4.027703,-0.32363 5.646394,-0.37331 0.461647,-0.0141 0.460169,-0.0869 0.01297,0.64596 -1.174275,1.92392 -2.440708,3.86518 -3.154498,4.83547 -1.742779,2.36907 -3.33524,3.67441 -5.216583,4.27609 -1.293548,0.414 -2.859402,0.42721 -4.418672,0.0381 -0.82165,-0.20527 -2.107388,-0.64982 -2.164243,-0.74868 -0.01556,-0.027 -0.01419,-0.20584 0.0031,-0.39725 z"
           id="path853-3-3-0-6-9"
           inkscape:connector-curvature="0" />
        <path
           style="fill:#000000;fill-opacity:1;stroke:none;stroke-width:0.26458332px;stroke-linecap:butt;stroke-linejoin:miter;stroke-opacity:1"
           d="m 5.2916666,249.375 44.9791664,0 c 3.554886,16.78405 -0.574759,31.27905 -10.583333,42.33334 H 5.2916666 Z"
           id="path1013"
           inkscape:connector-curvature="0"
           sodipodi:nodetypes="ccccc" />
        <path
           style="fill:#000000;fill-opacity:1;stroke:none;stroke-width:0.26458332px;stroke-linecap:butt;stroke-linejoin:miter;stroke-opacity:1"
           d="M 100.54166,249.375 H 55.5625 c 4.890722,15.92068 2.411827,29.71577 -2.645833,42.33334 h 47.624993 z"
           id="path1013-1"
           inkscape:connector-curvature="0"
           sodipodi:nodetypes="ccccc" />
      </g>
    </g>
  </g>
</svg>
