<?xml version="1.0" encoding="UTF-8" standalone="no"?>
<!-- Created with Inkscape (http://www.inkscape.org/) -->

<svg
   xmlns:osb="http://www.openswatchbook.org/uri/2009/osb"
   xmlns:dc="http://purl.org/dc/elements/1.1/"
   xmlns:cc="http://creativecommons.org/ns#"
   xmlns:rdf="http://www.w3.org/1999/02/22-rdf-syntax-ns#"
   xmlns:svg="http://www.w3.org/2000/svg"
   xmlns="http://www.w3.org/2000/svg"
   xmlns:sodipodi="http://sodipodi.sourceforge.net/DTD/sodipodi-0.dtd"
   xmlns:inkscape="http://www.inkscape.org/namespaces/inkscape"
   width="400"
   height="400"
   viewBox="0 0 105.83333 105.83333"
   version="1.1"
   id="svg8"
   inkscape:version="0.92.3 (2405546, 2018-03-11)"
   sodipodi:docname="tree.svg">
  <defs
     id="defs2">
    <linearGradient
       id="linearGradient836"
       osb:paint="solid">
      <stop
         style="stop-color:#000000;stop-opacity:1;"
         offset="0"
         id="stop834" />
    </linearGradient>
  </defs>
  <sodipodi:namedview
     id="base"
     pagecolor="#ffffff"
     bordercolor="#666666"
     borderopacity="1.0"
     inkscape:pageopacity="0.0"
     inkscape:pageshadow="2"
     inkscape:zoom="1.979899"
     inkscape:cx="48.362624"
     inkscape:cy="193.88303"
     inkscape:document-units="mm"
     inkscape:current-layer="layer1"
     showgrid="true"
     units="px"
     showguides="true"
     inkscape:guide-bbox="true"
     inkscape:window-width="1920"
     inkscape:window-height="1052"
     inkscape:window-x="1920"
     inkscape:window-y="0"
     inkscape:window-maximized="1">
    <inkscape:grid
       type="xygrid"
       id="grid4530" />
  </sodipodi:namedview>
  <metadata
     id="metadata5">
    <rdf:RDF>
      <cc:Work
         rdf:about="">
        <dc:format>image/svg+xml</dc:format>
        <dc:type
           rdf:resource="http://purl.org/dc/dcmitype/StillImage" />
        <dc:title />
      </cc:Work>
    </rdf:RDF>
  </metadata>
  <g
     inkscape:label="Layer 1"
     inkscape:groupmode="layer"
     id="layer1"
     transform="translate(0,-191.16667)">
    <g
       id="g850"
       style="fill:#000000;fill-opacity:1;stroke:none">
      <path
         inkscape:connector-curvature="0"
         id="path853-1"
         d="m 22.845023,244.4174 c -0.35827,0.4996 -0.70068,0.90717 -1.14725,1.36557 -1.30194,1.33645 -2.68473,2.07029 -4.39421,2.33195 -0.58771,0.09 -1.85899,0.0807 -2.50566,-0.0183 -1.32091,-0.20216 -2.70749,-0.62347 -4.15938,-1.26383 -1.0287307,-0.45373 -3.6346507,-1.76538 -5.0545607,-2.54414 -0.40497,-0.22211 -0.44057,-0.1588 0.31668,-0.56316 1.98827,-1.06171 4.0647107,-2.09161 5.1721907,-2.56537 2.70402,-1.15674 4.73864,-1.47323 6.66504,-1.03678 1.3246,0.30011 2.68056,1.08316 3.8266,2.20981 0.60394,0.59373 1.48598,1.62947 1.48479,1.74352 -3.4e-4,0.0312 -0.0922,0.18454 -0.20424,0.34072 z"
         style="opacity:1;fill:#000000;fill-opacity:1;fill-rule:nonzero;stroke:none;stroke-width:0.03340869;stroke-opacity:0" />
      <path
         inkscape:connector-curvature="0"
         id="path853-3-1"
         d="m 83.004241,243.76827 c 0.35827,-0.4996 0.70068,-0.90717 1.14725,-1.36557 1.30194,-1.33646 2.68473,-2.07029 4.39421,-2.33196 0.58771,-0.09 1.85899,-0.0807 2.50566,0.0183 1.32091,0.20216 2.70749,0.62348 4.15938,1.26384 1.02873,0.45373 3.63465,1.76538 5.054559,2.54414 0.40497,0.22211 0.44057,0.1588 -0.316676,0.56316 -1.988273,1.06171 -4.064713,2.09161 -5.172193,2.56537 -2.70402,1.15674 -4.73864,1.47323 -6.66504,1.03678 -1.3246,-0.30011 -2.68056,-1.08316 -3.8266,-2.20982 -0.60394,-0.59372 -1.48598,-1.62946 -1.48479,-1.74352 2.7e-4,-0.0312 0.0922,-0.18453 0.20424,-0.34072 z"
         style="opacity:1;fill:#000000;fill-opacity:1;fill-rule:nonzero;stroke:none;stroke-width:0.03340869;stroke-opacity:0" />
      <path
         inkscape:connector-curvature="0"
         id="path853-0"
         d="m 73.71074,222.89165 c -0.0999,-0.6066 -0.14601,-1.13692 -0.154384,-1.77683 -0.0244,-1.86562 0.434478,-3.3623 1.45824,-4.75611 0.351934,-0.47921 1.257441,-1.37157 1.784709,-1.75883 1.076971,-0.79108 2.355342,-1.47363 3.83479,-2.04746 1.048253,-0.40659 3.818393,-1.32178 5.373091,-1.77514 0.443411,-0.1293 0.423819,-0.19924 0.174288,0.62214 -0.655178,2.15666 -1.395196,4.35318 -1.843299,5.47129 -1.094097,2.72996 -2.308997,4.39245 -3.979776,5.446 -1.14885,0.72443 -2.661366,1.12954 -4.268391,1.14325 -0.846884,0.007 -2.202961,-0.10147 -2.282761,-0.18295 -0.0218,-0.0223 -0.0653,-0.19569 -0.0965,-0.38535 z"
         style="opacity:1;fill:#000000;fill-opacity:1;fill-rule:nonzero;stroke:none;stroke-width:0.03340869;stroke-opacity:0" />
      <path
         inkscape:connector-curvature="0"
         id="path853-3-3-0"
         d="m 31.693084,223.38606 c -0.6066,0.0999 -1.136918,0.14601 -1.776827,0.15438 -1.865635,0.0244 -3.362299,-0.43448 -4.75612,-1.45823 -0.479215,-0.35194 -1.371569,-1.25744 -1.758829,-1.78471 -0.79107,-1.07697 -1.473612,-2.35535 -2.047456,-3.83479 -0.406585,-1.04826 -1.321773,-3.8184 -1.775135,-5.3731 -0.129301,-0.44341 -0.199242,-0.42382 0.62214,-0.17429 2.156655,0.65519 4.353178,1.3952 5.471281,1.8433 2.729971,1.0941 4.392457,2.309 5.446009,3.97979 0.724427,1.14884 1.12954,2.66135 1.143238,4.26839 0.007,0.84687 -0.101456,2.20295 -0.182949,2.28276 -0.02221,0.0219 -0.195692,0.0653 -0.385352,0.0965 z"
         style="opacity:1;fill:#000000;fill-opacity:1;fill-rule:nonzero;stroke:none;stroke-width:0.03340869;stroke-opacity:0" />
      <path
         inkscape:connector-curvature="0"
         id="path853-3-8"
         d="m 53.239731,214.01576 c 0.4996,-0.35827 0.90717,-0.70068 1.36557,-1.14725 1.33646,-1.30194 2.07029,-2.68473 2.33196,-4.39421 0.09,-0.58771 0.0807,-1.85899 -0.0183,-2.50566 -0.20216,-1.32091 -0.62348,-2.70749 -1.26384,-4.15938 -0.45373,-1.02873 -1.76538,-3.63465 -2.54414,-5.05456 -0.22211,-0.40497 -0.1588,-0.44057 -0.56316,0.31668 -1.06171,1.98827 -2.09161,4.06471 -2.56537,5.17219 -1.15674,2.70402 -1.47323,4.73864 -1.03678,6.66504 0.30011,1.3246 1.08316,2.68056 2.20982,3.8266 0.59372,0.60394 1.62946,1.48598 1.74352,1.48479 0.0312,-3.4e-4 0.18453,-0.0922 0.34072,-0.20424 z"
         style="opacity:1;fill:#000000;fill-opacity:1;fill-rule:nonzero;stroke:none;stroke-width:0.03340869;stroke-opacity:0" />
      <path
         sodipodi:nodetypes="cssccsccssscccccscscccsscccccsccscccssssccccc"
         inkscape:connector-curvature="0"
         id="path3421"
         d="m 41.03208,275.93654 c 0,0 0.0037,-11.30463 -0.09539,-17.31091 -0.0557,-3.37834 0.190688,-8.15767 -1.498727,-9.85321 -2.417953,-2.42672 -6.114616,-3.14727 -10.333796,-3.36617 h -3.96875 l 0.005,-1.34919 c 0.0018,-0.49042 -0.005,-1.03206 -0.005,-1.29664 0.12993,-0.002 2.172187,0.0997 3.96875,0 6.828666,-0.37905 10.057288,-1.23576 11.767875,-3.35841 0.534189,-0.66287 0.584716,-0.84429 0.579014,-2.07887 -0.0053,-1.14576 -0.09903,-1.53204 -0.612902,-2.52582 -1.043702,-2.01838 -3.388085,-4.59781 -6.681615,-7.35149 l -0.702308,-0.58719 1.12072,-1.10903 1.120719,-1.10902 0.89258,1.03475 c 4.454882,5.1645 7.873902,7.40578 10.535634,6.90643 0.815353,-0.15296 2.012887,-1.17737 2.647889,-2.26509 1.121537,-1.92112 1.984706,-6.87899 1.985153,-11.40234 l 2.3e-4,-2.3151 h 1.104429 1.104429 l 0.11992,3.16555 c 0.329727,8.70378 2.097794,12.89844 5.436756,12.89844 1.062395,0 2.578397,-0.58036 3.976807,-1.5224 1.131967,-0.76255 4.319759,-3.80054 5.911797,-5.63398 l 0.716616,-0.82528 1.107858,1.09629 1.107855,1.0963 -0.796583,0.66556 c -1.550596,1.29555 -4.525981,4.28831 -5.375595,5.40699 -4.20269,5.53362 -1.314548,8.97435 8.169788,9.73291 1.351264,0.10808 1.536181,0.12523 2.551339,0.11587 l 3.805345,-0.0351 v 1.32292 1.32291 l -3.815825,0.015 c -2.769746,0.0109 -9.141279,1.55262 -10.530223,3.32529 -1.52895,1.95135 -1.52895,4.59718 -1.540838,10.43227 -0.0024,1.1508 0.03525,16.65389 0.03355,17.03869 -0.02166,4.90747 -0.469692,9.30079 2.624169,15.49081 H 52.916671 38.364583 c 3.067611,-6.05812 2.645834,-10.58334 2.667497,-15.7718 z"
         style="opacity:1;fill:#000000;fill-opacity:1;fill-rule:nonzero;stroke:none;stroke-width:0.1889881;stroke-opacity:0" />
      <path
         inkscape:connector-curvature="0"
         id="path853-3-8-0"
         d="m 43.242615,220.26644 c 0.324466,-0.52219 0.569977,-0.9945 0.822587,-1.5825 0.736498,-1.71428 0.885298,-3.27264 0.47286,-4.95213 -0.141758,-0.57741 -0.636848,-1.74836 -0.975782,-2.30792 -0.692261,-1.143 -1.612132,-2.2628 -2.759361,-3.35912 -0.81287,-0.77678 -3.021919,-2.68239 -4.284776,-3.6962 -0.360178,-0.28915 -0.315311,-0.34626 -0.399103,0.50808 -0.220015,2.24323 -0.376899,4.55573 -0.390782,5.76021 -0.0339,2.94085 0.452312,4.94171 1.592741,6.55445 0.784168,1.10893 2.026515,2.06201 3.505984,2.68966 0.779643,0.33076 2.074084,0.7493 2.179007,0.70455 0.02869,-0.0122 0.1352,-0.1558 0.236625,-0.31908 z"
         style="opacity:1;fill:#000000;fill-opacity:1;fill-rule:nonzero;stroke:none;stroke-width:0.03340869;stroke-opacity:0" />
      <path
         inkscape:connector-curvature="0"
         id="path853-3-8-2"
         d="m 63.329502,220.54277 c 0.598674,-0.13981 1.106254,-0.30018 1.700656,-0.53734 1.732959,-0.69139 2.9401,-1.6881 3.836041,-3.16731 0.308056,-0.50854 0.785962,-1.6866 0.941968,-2.32194 0.31872,-1.29772 0.460091,-2.73999 0.42409,-4.32641 -0.02551,-1.12406 -0.240078,-4.03356 -0.416182,-5.64341 -0.05023,-0.45914 0.02189,-0.4678 -0.641481,0.0771 -1.741769,1.43062 -3.487893,2.95487 -4.349404,3.79675 -2.103472,2.05552 -3.174486,3.81415 -3.508461,5.76094 -0.229637,1.33861 -0.0251,2.89102 0.577232,4.38098 0.317407,0.78517 0.936764,1.99643 1.042597,2.03898 0.02896,0.0116 0.205768,-0.0146 0.392944,-0.0583 z"
         style="opacity:1;fill:#000000;fill-opacity:1;fill-rule:nonzero;stroke:none;stroke-width:0.03340869;stroke-opacity:0" />
      <path
         inkscape:connector-curvature="0"
         id="path853-3-1-8"
         d="m 75.39891,234.19965 c 0.139809,-0.59868 0.300185,-1.10626 0.537339,-1.70066 0.691395,-1.73296 1.688102,-2.9401 3.167319,-3.83604 0.508531,-0.30806 1.6866,-0.78596 2.321931,-0.94197 1.297725,-0.31872 2.73999,-0.46009 4.326416,-0.42409 1.124058,0.0255 4.033561,0.24008 5.643404,0.41619 0.459141,0.0502 0.467804,-0.0219 -0.07706,0.64147 -1.430626,1.74178 -2.954881,3.4879 -3.796759,4.34941 -2.055523,2.10347 -3.814152,3.17449 -5.760935,3.50846 -1.338618,0.22964 -2.891022,0.0251 -4.380979,-0.57723 -0.785175,-0.31741 -1.996434,-0.93677 -2.038984,-1.0426 -0.01169,-0.0289 0.01457,-0.20577 0.05831,-0.39294 z"
         style="opacity:1;fill:#000000;fill-opacity:1;fill-rule:nonzero;stroke:none;stroke-width:0.03340869;stroke-opacity:0" />
      <path
         inkscape:connector-curvature="0"
         id="path853-1-3"
         d="m 30.158086,234.93845 c -0.522187,0.32447 -0.994503,0.56998 -1.582502,0.82259 -1.714273,0.73649 -3.272632,0.8853 -4.952119,0.47285 -0.577415,-0.14176 -1.748365,-0.63685 -2.307925,-0.97578 -1.142998,-0.69226 -2.262803,-1.61212 -3.359119,-2.75935 -0.776789,-0.81287 -2.682398,-3.02192 -3.696205,-4.28478 -0.289146,-0.36018 -0.346264,-0.31531 0.508086,-0.3991 2.243221,-0.22002 4.555728,-0.3769 5.760206,-0.39079 2.940854,-0.0339 4.941713,0.45232 6.554453,1.59275 1.108923,0.78416 2.062007,2.02651 2.689659,3.50597 0.330757,0.77965 0.749296,2.07409 0.704551,2.17901 -0.01226,0.0287 -0.155802,0.13521 -0.319081,0.23662 z"
         style="opacity:1;fill:#000000;fill-opacity:1;fill-rule:nonzero;stroke:none;stroke-width:0.03340869;stroke-opacity:0" />
      <path
         inkscape:connector-curvature="0"
         id="path853-1-8"
         d="m 30.427083,253.34375 c -0.139843,0.59866 -0.300184,1.10626 -0.537337,1.70066 -0.691398,1.73295 -1.688103,2.9401 -3.167322,3.83603 -0.50853,0.30805 -1.686601,0.78596 -2.321932,0.94197 -1.297722,0.31871 -2.739982,0.4601 -4.326416,0.4241 -1.124059,-0.0255 -4.033555,-0.24007 -5.643401,-0.41619 -0.459142,-0.0502 -0.467805,0.0219 0.07706,-0.64147 1.430619,-1.74178 2.954873,-3.4879 3.79675,-4.34941 2.055524,-2.10347 3.814157,-3.17449 5.760935,-3.50846 1.338622,-0.22964 2.891022,-0.0251 4.380978,0.57722 0.785175,0.31744 1.996434,0.93678 2.038985,1.0426 0.01161,0.029 -0.01456,0.20578 -0.05831,0.39294 z"
         style="opacity:1;fill:#000000;fill-opacity:1;fill-rule:nonzero;stroke:none;stroke-width:0.03340869;stroke-opacity:0" />
      <path
         inkscape:connector-curvature="0"
         id="path853-3-1-8-0"
         d="m 75.675245,251.37614 c 0.522187,-0.32447 0.994503,-0.56998 1.582502,-0.82259 1.714276,-0.7365 3.272632,-0.8853 4.952123,-0.47286 0.577414,0.14176 1.748365,0.63685 2.307925,0.97578 1.142998,0.69226 2.262799,1.61213 3.359115,2.75936 0.776788,0.81287 2.682397,3.02192 3.696203,4.28478 0.289146,0.36018 0.346264,0.31531 -0.508082,0.3991 -2.243224,0.22002 -4.55573,0.3769 -5.760208,0.39078 -2.940854,0.0339 -4.941713,-0.45231 -6.554453,-1.59274 -1.108923,-0.78416 -2.062007,-2.02651 -2.689655,-3.50598 -0.330761,-0.77964 -0.7493,-2.07408 -0.704551,-2.17901 0.01219,-0.0287 0.155798,-0.1352 0.319081,-0.23662 z"
         style="opacity:1;fill:#000000;fill-opacity:1;fill-rule:nonzero;stroke:none;stroke-width:0.03340869;stroke-opacity:0" />
    </g>
  </g>
</svg>
