<?xml version="1.0" encoding="UTF-8" standalone="no"?>
<!-- Created with Inkscape (http://www.inkscape.org/) -->

<svg
   xmlns:dc="http://purl.org/dc/elements/1.1/"
   xmlns:cc="http://creativecommons.org/ns#"
   xmlns:rdf="http://www.w3.org/1999/02/22-rdf-syntax-ns#"
   xmlns:svg="http://www.w3.org/2000/svg"
   xmlns="http://www.w3.org/2000/svg"
   xmlns:sodipodi="http://sodipodi.sourceforge.net/DTD/sodipodi-0.dtd"
   xmlns:inkscape="http://www.inkscape.org/namespaces/inkscape"
   width="400"
   height="400"
   viewBox="0 0 105.83333 105.83333"
   version="1.1"
   id="svg8"
   inkscape:version="0.92.3 (2405546, 2018-03-11)"
   sodipodi:docname="flowers.svg">
  <defs
     id="defs2" />
  <sodipodi:namedview
     id="base"
     pagecolor="#ffffff"
     bordercolor="#666666"
     borderopacity="1.0"
     inkscape:pageopacity="0.0"
     inkscape:pageshadow="2"
     inkscape:zoom="0.7"
     inkscape:cx="-353.57143"
     inkscape:cy="106.40227"
     inkscape:document-units="mm"
     inkscape:current-layer="layer1"
     showgrid="true"
     units="px"
     showguides="true"
     inkscape:guide-bbox="true"
     inkscape:window-width="1920"
     inkscape:window-height="1006"
     inkscape:window-x="0"
     inkscape:window-y="0"
     inkscape:window-maximized="1"
     inkscape:measure-start="0,0"
     inkscape:measure-end="0,0"
     inkscape:snap-grids="false"
     inkscape:snap-to-guides="false">
    <inkscape:grid
       type="xygrid"
       id="grid4530" />
  </sodipodi:namedview>
  <metadata
     id="metadata5">
    <rdf:RDF>
      <cc:Work
         rdf:about="">
        <dc:format>image/svg+xml</dc:format>
        <dc:type
           rdf:resource="http://purl.org/dc/dcmitype/StillImage" />
        <dc:title />
      </cc:Work>
    </rdf:RDF>
  </metadata>
  <g
     inkscape:label="Layer 1"
     inkscape:groupmode="layer"
     id="layer1"
     transform="translate(0,-191.16667)">
    <g
       id="g1148"
       style="fill:#000000;fill-opacity:1;stroke:none">
      <circle
         r="8.0991468"
         transform="rotate(-22.539818)"
         cy="217.87662"
         cx="-55.68523"
         id="path4540"
         style="opacity:1;fill:#000000;fill-opacity:1;fill-rule:nonzero;stroke:none;stroke-width:0.07370479;stroke-opacity:1" />
      <path
         inkscape:connector-curvature="0"
         id="path853-3"
         d="m 36.106314,230.18346 c 0.676611,0.15751 1.250303,0.33834 1.922162,0.60586 1.958786,0.77992 3.323639,1.90525 4.337214,3.57606 0.348503,0.5744 0.889461,1.90524 1.066247,2.62304 0.361172,1.46618 0.522053,3.09583 0.482618,4.88852 -0.02799,1.2702 -0.26812,4.55811 -0.465853,6.37737 -0.0564,0.51886 0.02513,0.52859 -0.724934,-0.0866 -1.969323,-1.61523 -3.943639,-3.33627 -4.917806,-4.28692 -2.378537,-2.32107 -3.590164,-4.30749 -3.969084,-6.5071 -0.260542,-1.51245 -0.03062,-3.26682 0.648831,-4.95096 0.358054,-0.88748 1.056976,-2.25669 1.176534,-2.30486 0.0327,-0.0132 0.232534,0.0159 0.44407,0.0655 z"
         style="opacity:1;fill:#000000;fill-opacity:1;fill-rule:nonzero;stroke:none;stroke-width:0.03775182;stroke-opacity:0" />
      <path
         inkscape:connector-curvature="0"
         id="path853-1"
         d="m 23.835209,226.11095 c -0.157513,0.67661 -0.33834,1.25029 -0.605857,1.92216 -0.779921,1.95878 -1.905245,3.32364 -3.576061,4.3372 -0.574399,0.34852 -1.905242,0.88946 -2.623043,1.06625 -1.466178,0.36117 -3.095821,0.52206 -4.888511,0.48262 -1.270215,-0.0277 -4.55811,-0.26812 -6.3773707,-0.46585 -0.5188682,-0.0564 -0.5285741,0.0256 0.086576,-0.72492 1.615235,-1.96933 3.3362701,-3.94365 4.2869167,-4.91782 2.321087,-2.37854 4.307496,-3.59015 6.507098,-3.96908 1.512459,-0.26054 3.266834,-0.0306 4.950956,0.64883 0.8875,0.35805 2.256709,1.05697 2.304869,1.17653 0.01314,0.0328 -0.01631,0.23253 -0.06557,0.44407 z"
         style="opacity:1;fill:#000000;fill-opacity:1;fill-rule:nonzero;stroke:none;stroke-width:0.03775182;stroke-opacity:0" />
      <path
         inkscape:connector-curvature="0"
         id="path853-3-1"
         d="m 40.14465,219.34135 c 0.157515,-0.6766 0.33834,-1.2503 0.605859,-1.92215 0.779914,-1.95879 1.905244,-3.32364 3.576056,-4.33722 0.574399,-0.34851 1.90524,-0.88946 2.623041,-1.06625 1.466177,-0.36116 3.095827,-0.52205 4.888517,-0.48261 1.270214,0.0277 4.55811,0.26811 6.377371,0.46585 0.518869,0.0564 0.528574,-0.0256 -0.08657,0.72493 -1.615237,1.96933 -3.336275,3.94365 -4.28692,4.91782 -2.321089,2.37854 -4.307497,3.59016 -6.507101,3.96908 -1.512457,0.26054 -3.266835,0.0306 -4.950958,-0.64884 -0.887495,-0.35805 -2.256705,-1.05696 -2.304869,-1.17653 -0.01326,-0.0328 0.01631,-0.23252 0.06557,-0.44408 z"
         style="opacity:1;fill:#000000;fill-opacity:1;fill-rule:nonzero;stroke:none;stroke-width:0.03775182;stroke-opacity:0" />
      <path
         inkscape:connector-curvature="0"
         id="path853-0"
         d="m 35.591216,214.60439 c -0.367019,-0.58982 -0.644855,-1.12333 -0.930776,-1.78757 -0.833575,-1.93655 -1.002951,-3.69737 -0.538205,-5.59553 0.159733,-0.65256 0.718263,-1.97615 1.100819,-2.60871 0.781354,-1.29213 1.819917,-2.55823 3.115432,-3.79796 0.917925,-0.87842 3.412653,-3.0335 4.838888,-4.18009 0.406773,-0.32701 0.356032,-0.39152 0.451387,0.57383 0.250372,2.53467 0.429472,5.14768 0.446116,6.50873 0.04061,3.32313 -0.507238,5.58448 -1.79465,7.40776 -0.885242,1.25372 -2.288354,2.33168 -3.959639,3.04209 -0.880846,0.37414 -2.343145,0.84833 -2.461725,0.79784 -0.03241,-0.0139 -0.152917,-0.17595 -0.267633,-0.36038 z"
         style="opacity:1;fill:#000000;fill-opacity:1;fill-rule:nonzero;stroke:none;stroke-width:0.03775182;stroke-opacity:0" />
      <path
         inkscape:connector-curvature="0"
         id="path853-3-3"
         d="m 28.842854,230.30525 c 0.367016,0.58982 0.64486,1.12334 0.930776,1.78758 0.833579,1.93655 1.002945,3.69736 0.538219,5.59552 -0.159742,0.65259 -0.718264,1.97616 -1.100821,2.60872 -0.781354,1.29212 -1.819932,2.55822 -3.115448,3.79795 -0.917926,0.87842 -3.41265,3.03351 -4.838888,4.1801 -0.406774,0.327 -0.356031,0.39151 -0.451385,-0.57384 -0.250373,-2.53466 -0.429473,-5.14767 -0.446103,-6.50872 -0.04062,-3.32314 0.507229,-5.58449 1.794647,-7.40777 0.885236,-1.25371 2.288349,-2.33168 3.95965,-3.04208 0.880833,-0.37413 2.34313,-0.84833 2.461725,-0.79784 0.03247,0.0138 0.152906,0.17596 0.267632,0.36038 z"
         style="opacity:1;fill:#000000;fill-opacity:1;fill-rule:nonzero;stroke:none;stroke-width:0.03775182;stroke-opacity:0" />
      <path
         inkscape:connector-curvature="0"
         id="path853-0-4"
         d="m 40.466335,225.37375 c 0.589827,-0.36702 1.123338,-0.64485 1.787577,-0.93075 1.936534,-0.83358 3.697336,-1.00296 5.595491,-0.53821 0.652571,0.15974 1.976145,0.71827 2.608695,1.10082 1.292136,0.78136 2.558238,1.81995 3.797955,3.11545 0.878427,0.91793 3.033487,3.41267 4.18007,4.83888 0.327029,0.40678 0.391523,0.35603 -0.573814,0.4514 -2.534657,0.25032 -5.147657,0.42946 -6.50869,0.44613 -3.323118,0.0407 -5.584454,-0.50724 -7.40774,-1.79463 -1.25371,-0.88527 -2.331672,-2.28837 -3.042074,-3.95965 -0.374148,-0.88087 -0.848339,-2.34315 -0.797864,-2.46175 0.01385,-0.0323 0.175949,-0.15292 0.360387,-0.26763 z"
         style="opacity:1;fill:#000000;fill-opacity:1;fill-rule:nonzero;stroke:none;stroke-width:0.03775182;stroke-opacity:0" />
      <path
         inkscape:connector-curvature="0"
         id="path853-3-3-0"
         d="m 23.523429,220.13655 c -0.589825,0.367 -1.123337,0.64485 -1.787572,0.93077 -1.936563,0.83358 -3.697373,1.00294 -5.595527,0.53821 -0.652593,-0.15973 -1.976153,-0.71826 -2.608721,-1.10081 -1.292124,-0.78136 -2.558222,-1.81994 -3.797963,-3.11545 -0.878407,-0.91793 -3.0334817,-3.41267 -4.1800784,-4.83889 -0.3270155,-0.40677 -0.391526,-0.35603 0.5738222,-0.45138 2.5346682,-0.25033 5.1476802,-0.42947 6.5087212,-0.44614 3.323141,-0.0406 5.584494,0.50724 7.407785,1.79466 1.253701,0.88523 2.331666,2.28834 3.042064,3.95964 0.374134,0.88084 0.848337,2.34313 0.797853,2.46172 -0.01368,0.0325 -0.175954,0.15293 -0.360385,0.26765 z"
         style="opacity:1;fill:#000000;fill-opacity:1;fill-rule:nonzero;stroke:none;stroke-width:0.03775182;stroke-opacity:0" />
      <path
         inkscape:connector-curvature="0"
         id="path853-3-8"
         d="m 29.306864,214.67075 c 0.366237,-0.59034 0.643294,-1.12424 0.928283,-1.78887 0.830893,-1.93772 0.997814,-3.69878 0.530441,-5.59628 -0.160639,-0.65236 -0.721011,-1.97516 -1.104446,-2.60718 -0.783152,-1.29105 -1.823486,-2.55571 -3.120715,-3.79364 -0.919154,-0.87714 -3.416874,-3.02874 -4.844698,-4.17335 -0.407228,-0.32645 -0.356574,-0.39102 -0.450589,0.57446 -0.246854,2.53501 -0.422318,5.14826 -0.437059,6.50933 -0.036,3.3232 0.514994,5.58377 1.804945,7.40528 0.88698,1.25247 2.29158,2.32849 3.963873,3.03657 0.881256,0.37313 2.344301,0.84507 2.462829,0.79442 0.03241,-0.014 0.152655,-0.17616 0.267136,-0.36074 z"
         style="opacity:1;fill:#000000;fill-opacity:1;fill-rule:nonzero;stroke:none;stroke-width:0.03775182;stroke-opacity:0" />
      <circle
         r="8.0991468"
         transform="rotate(-22.539818)"
         cy="273.65231"
         cx="-33.676746"
         id="path4540-8"
         style="opacity:1;fill:#000000;fill-opacity:1;fill-rule:nonzero;stroke:none;stroke-width:0.07370479;stroke-opacity:1" />
      <path
         inkscape:connector-curvature="0"
         id="path853-3-4"
         d="m 77.813888,273.2622 c 0.67661,0.15751 1.250303,0.33834 1.922164,0.60586 1.958787,0.77992 3.323635,1.90525 4.337211,3.57606 0.348503,0.5744 0.889457,1.90524 1.066246,2.62304 0.36117,1.46618 0.52206,3.09583 0.482623,4.88852 -0.02802,1.2702 -0.268127,4.55811 -0.465854,6.37737 -0.05639,0.51886 0.02509,0.52859 -0.724929,-0.0866 -1.96933,-1.61523 -3.943644,-3.33627 -4.917817,-4.28692 -2.378533,-2.32107 -3.590161,-4.30749 -3.969082,-6.5071 -0.260542,-1.51245 -0.03062,-3.26682 0.648833,-4.95096 0.358055,-0.88748 1.056975,-2.25669 1.176534,-2.30486 0.0327,-0.0132 0.232534,0.0159 0.444071,0.0655 z"
         style="opacity:1;fill:#000000;fill-opacity:1;fill-rule:nonzero;stroke:none;stroke-width:0.03775182;stroke-opacity:0" />
      <path
         inkscape:connector-curvature="0"
         id="path853-1-7"
         d="m 65.542783,269.18969 c -0.157513,0.67661 -0.33834,1.25029 -0.605858,1.92216 -0.77992,1.95878 -1.905244,3.32364 -3.57606,4.3372 -0.574399,0.34852 -1.905242,0.88946 -2.623043,1.06625 -1.466178,0.36117 -3.095821,0.52206 -4.888511,0.48262 -1.270215,-0.0277 -4.55811,-0.26812 -6.377371,-0.46585 -0.518867,-0.0564 -0.528573,0.0256 0.08658,-0.72492 1.615235,-1.96933 3.336271,-3.94365 4.286917,-4.91782 2.321087,-2.37854 4.307496,-3.59015 6.507097,-3.96908 1.512458,-0.26054 3.266835,-0.0306 4.950956,0.64883 0.8875,0.35805 2.25671,1.05697 2.304869,1.17653 0.01314,0.0328 -0.01631,0.23253 -0.06557,0.44407 z"
         style="opacity:1;fill:#000000;fill-opacity:1;fill-rule:nonzero;stroke:none;stroke-width:0.03775182;stroke-opacity:0" />
      <path
         inkscape:connector-curvature="0"
         id="path853-3-1-2"
         d="m 81.85222,262.42009 c 0.157522,-0.6766 0.338345,-1.2503 0.605861,-1.92215 0.779915,-1.95879 1.905248,-3.32364 3.576055,-4.33722 0.574401,-0.34851 1.905236,-0.88946 2.623046,-1.06625 1.466175,-0.36116 3.095827,-0.52205 4.888516,-0.48261 1.27021,0.0277 4.558103,0.26811 6.377365,0.46585 0.518877,0.0564 0.528577,-0.0256 -0.0866,0.72493 -1.615227,1.96933 -3.336273,3.94365 -4.28692,4.91782 -2.321088,2.37854 -4.307492,3.59016 -6.507093,3.96908 -1.51246,0.26054 -3.266842,0.0306 -4.95096,-0.64884 -0.887491,-0.35805 -2.256712,-1.05696 -2.304872,-1.17653 -0.01322,-0.0328 0.01627,-0.23252 0.06554,-0.44408 z"
         style="opacity:1;fill:#000000;fill-opacity:1;fill-rule:nonzero;stroke:none;stroke-width:0.03775182;stroke-opacity:0" />
      <path
         inkscape:connector-curvature="0"
         id="path853-0-40"
         d="m 77.298789,257.68313 c -0.367018,-0.58982 -0.644854,-1.12333 -0.930775,-1.78757 -0.833575,-1.93655 -1.00295,-3.69737 -0.538206,-5.59553 0.159734,-0.65256 0.718265,-1.97615 1.100821,-2.60871 0.781352,-1.29213 1.819916,-2.55823 3.115431,-3.79796 0.917932,-0.87842 3.412656,-3.0335 4.838886,-4.18009 0.406777,-0.32701 0.356029,-0.39152 0.451389,0.57383 0.250374,2.53467 0.429468,5.14768 0.446113,6.50873 0.04057,3.32313 -0.507234,5.58448 -1.794643,7.40776 -0.885242,1.25372 -2.288352,2.33168 -3.959645,3.04209 -0.880843,0.37414 -2.343144,0.84833 -2.461722,0.79784 -0.03241,-0.0139 -0.152919,-0.17595 -0.267634,-0.36038 z"
         style="opacity:1;fill:#000000;fill-opacity:1;fill-rule:nonzero;stroke:none;stroke-width:0.03775182;stroke-opacity:0" />
      <path
         inkscape:connector-curvature="0"
         id="path853-3-3-6"
         d="m 70.550428,273.38399 c 0.367016,0.58982 0.64486,1.12334 0.930776,1.78758 0.833579,1.93655 1.002945,3.69736 0.538219,5.59552 -0.159742,0.65259 -0.718264,1.97616 -1.100821,2.60872 -0.781354,1.29212 -1.819932,2.55822 -3.115448,3.79795 -0.917926,0.87842 -3.41265,3.03351 -4.838888,4.1801 -0.406774,0.327 -0.356031,0.39151 -0.451385,-0.57384 -0.250373,-2.53466 -0.429473,-5.14767 -0.446103,-6.50872 -0.04062,-3.32314 0.507229,-5.58449 1.794647,-7.40777 0.885236,-1.25371 2.288349,-2.33168 3.95965,-3.04208 0.880833,-0.37413 2.34313,-0.84833 2.461725,-0.79784 0.03247,0.0138 0.152906,0.17596 0.267632,0.36038 z"
         style="opacity:1;fill:#000000;fill-opacity:1;fill-rule:nonzero;stroke:none;stroke-width:0.03775182;stroke-opacity:0" />
      <path
         inkscape:connector-curvature="0"
         id="path853-0-4-2"
         d="m 82.173912,268.45249 c 0.589826,-0.36702 1.123333,-0.64485 1.787569,-0.93075 1.936538,-0.83358 3.697338,-1.00296 5.5955,-0.53821 0.652564,0.15974 1.976144,0.71827 2.608696,1.10082 1.292132,0.78136 2.558229,1.81995 3.797952,3.11545 0.878429,0.91793 3.033487,3.41267 4.180071,4.83888 0.32702,0.40678 0.39152,0.35603 -0.573827,0.4514 -2.534642,0.25032 -5.147643,0.42946 -6.508682,0.44613 -3.323116,0.0407 -5.584449,-0.50724 -7.407738,-1.79463 -1.253712,-0.88527 -2.331676,-2.28837 -3.042073,-3.95965 -0.374143,-0.88087 -0.848336,-2.34315 -0.797859,-2.46175 0.01379,-0.0323 0.175941,-0.15292 0.360379,-0.26763 z"
         style="opacity:1;fill:#000000;fill-opacity:1;fill-rule:nonzero;stroke:none;stroke-width:0.03775182;stroke-opacity:0" />
      <path
         inkscape:connector-curvature="0"
         id="path853-3-3-0-9"
         d="m 65.231003,263.21529 c -0.589825,0.367 -1.123337,0.64485 -1.787572,0.93077 -1.936563,0.83358 -3.697373,1.00294 -5.595527,0.53821 -0.652593,-0.15973 -1.976153,-0.71826 -2.608721,-1.10081 -1.292124,-0.78136 -2.558222,-1.81994 -3.797962,-3.11545 -0.878408,-0.91793 -3.033483,-3.41267 -4.180079,-4.83889 -0.327015,-0.40677 -0.391526,-0.35603 0.573822,-0.45138 2.534668,-0.25033 5.14768,-0.42947 6.508721,-0.44614 3.323141,-0.0406 5.584494,0.50724 7.407785,1.79466 1.253701,0.88523 2.331666,2.28834 3.042064,3.95964 0.374134,0.88084 0.848337,2.34313 0.797853,2.46172 -0.01368,0.0325 -0.175954,0.15293 -0.360385,0.26765 z"
         style="opacity:1;fill:#000000;fill-opacity:1;fill-rule:nonzero;stroke:none;stroke-width:0.03775182;stroke-opacity:0" />
      <path
         inkscape:connector-curvature="0"
         id="path853-3-8-9"
         d="m 71.014438,257.74949 c 0.366237,-0.59034 0.643294,-1.12424 0.928283,-1.78887 0.830893,-1.93772 0.997814,-3.69878 0.530441,-5.59628 -0.160639,-0.65236 -0.721011,-1.97516 -1.104446,-2.60718 -0.783152,-1.29105 -1.823486,-2.55571 -3.120715,-3.79364 -0.919154,-0.87714 -3.416874,-3.02874 -4.844698,-4.17335 -0.407228,-0.32645 -0.356574,-0.39102 -0.450589,0.57446 -0.246854,2.53501 -0.422318,5.14826 -0.437059,6.50933 -0.036,3.3232 0.514994,5.58377 1.804945,7.40528 0.88698,1.25247 2.29158,2.32849 3.963873,3.03657 0.881256,0.37313 2.344301,0.84507 2.462829,0.79442 0.03241,-0.014 0.152655,-0.17616 0.267136,-0.36074 z"
         style="opacity:1;fill:#000000;fill-opacity:1;fill-rule:nonzero;stroke:none;stroke-width:0.03775182;stroke-opacity:0" />
      <path
         sodipodi:nodetypes="ccccccccccc"
         inkscape:connector-curvature="0"
         id="path853-1-0"
         d="m 39.158282,258.39135 c -0.109064,0.96181 -0.293996,1.7979 -0.619591,2.80138 -0.94924,2.92557 -1.011406,4.0817 -3.980962,6.14766 -4.336522,2.83242 -7.027341,1.26587 -15.838556,4.18153 -8.171791,2.52145 -8.165117,5.56851 -13.4349476,3.79494 2.2761117,-1.18476 2.47829,0.575 6.1454926,-5.71938 4.056474,-5.38369 8.241627,-9.30284 12.999074,-11.06922 2.881315,-1.0029 6.379989,-1.46376 9.873466,-1.30061 1.840998,0.086 4.724324,0.41205 4.853673,0.5489 0.03535,0.0376 0.03649,0.31407 0.0024,0.61477 z"
         style="opacity:1;fill:#000000;fill-opacity:1;fill-rule:nonzero;stroke:none;stroke-width:0.06214557;stroke-opacity:0" />
      <path
         sodipodi:nodetypes="ccccccsccccc"
         inkscape:connector-curvature="0"
         id="path853-3-3-03"
         d="m 24.736871,274.19809 c -0.241588,1.75801 -0.980582,3.14247 -2.002777,4.47229 -0.35141,0.45721 -1.20785,1.31251 -1.688004,1.6858 -0.980758,0.76255 -2.109016,1.42595 -3.384466,1.99006 -0.903716,0.39973 -3.269584,1.3059 -4.588947,1.75764 -0.376292,0.12877 -0.370256,0.19444 -0.05363,-0.58366 0.831309,-2.04301 1.736725,-4.12492 2.255306,-5.18582 1.266158,-2.59027 2.480386,-4.17632 3.97758,-5.19558 1.029489,-0.70087 2.308025,-1.10649 3.608081,-1.14466 0.685078,-0.0199 1.740246,0.22804 1.793294,0.30362 0.04275,0.18684 0.161828,1.32231 0.08357,1.90031 z"
         style="opacity:1;fill:#000000;fill-opacity:1;fill-rule:nonzero;stroke:none;stroke-width:0.0291089;stroke-opacity:0" />
      <path
         sodipodi:nodetypes="ccccccccccc"
         inkscape:connector-curvature="0"
         id="path853-1-0-9"
         d="m 38.599649,257.86183 c -0.96181,0.10906 -1.7979,0.29399 -2.80138,0.61959 -2.92557,0.94924 -4.0817,1.01141 -6.14766,3.98096 -2.83242,4.33652 -1.26587,7.02734 -4.18153,15.83856 -2.52145,8.17179 -5.56851,8.16512 -3.79494,13.43495 1.18476,-2.27611 -0.575,-2.47829 5.71938,-6.1455 5.38369,-4.05647 9.30284,-8.24162 11.06922,-12.99907 1.0029,-2.88132 1.46376,-6.37999 1.30061,-9.87347 -0.086,-1.84099 -0.41205,-4.72432 -0.5489,-4.85367 -0.0376,-0.0353 -0.31407,-0.0365 -0.61477,-0.002 z"
         style="opacity:1;fill:#000000;fill-opacity:1;fill-rule:nonzero;stroke:none;stroke-width:0.06214557;stroke-opacity:0" />
      <path
         sodipodi:nodetypes="ccccccccccc"
         inkscape:connector-curvature="0"
         id="path853-1-0-1"
         d="m 66.998238,230.19727 c 0.09484,-0.96332 0.2674,-1.80205 0.578135,-2.81023 0.905915,-2.93928 0.950994,-4.0962 3.889704,-6.20581 4.294201,-2.89617 7.007871,-1.36955 15.775049,-4.41507 8.133648,-2.6419 8.081958,-5.68853 13.377414,-3.99301 -2.258358,1.21826 -2.486513,-0.53832 -6.060323,5.80955 -3.976494,5.44303 -8.103289,9.42359 -12.834121,11.26006 -2.866183,1.04536 -6.357667,1.55786 -9.853174,1.44634 -1.842066,-0.0588 -4.729895,-0.34221 -4.861253,-0.47714 -0.0359,-0.0371 -0.04113,-0.31349 -0.01148,-0.61466 z"
         style="opacity:1;fill:#000000;fill-opacity:1;fill-rule:nonzero;stroke:none;stroke-width:0.06214557;stroke-opacity:0" />
      <path
         sodipodi:nodetypes="ccccccsccccc"
         inkscape:connector-curvature="0"
         id="path853-3-3-03-9"
         d="m 81.184547,214.17919 c 0.215589,-1.76139 0.934048,-3.15661 1.936485,-4.50139 0.344617,-0.46235 1.188328,-1.33021 1.662914,-1.71055 0.969385,-0.77696 2.087719,-1.45696 3.354696,-2.03985 0.897712,-0.41304 3.249935,-1.35406 4.56248,-1.82524 0.374348,-0.13432 0.367343,-0.19989 0.06225,0.5828 -0.801035,2.05507 -1.675594,4.15013 -2.178445,5.21857 -1.227753,2.6087 -2.418416,4.21251 -3.900388,5.25378 -1.019022,0.716 -2.291426,1.14047 -3.590776,1.19784 -0.68471,0.03 -1.743425,-0.2023 -1.797584,-0.27709 -0.04551,-0.18619 -0.181346,-1.31978 -0.111636,-1.89887 z"
         style="opacity:1;fill:#000000;fill-opacity:1;fill-rule:nonzero;stroke:none;stroke-width:0.0291089;stroke-opacity:0" />
      <path
         sodipodi:nodetypes="ccccccccccc"
         inkscape:connector-curvature="0"
         id="path853-1-0-9-6"
         d="m 67.564633,230.71848 c 0.960092,-0.12326 1.793359,-0.32052 2.791919,-0.66091 2.911226,-0.99236 4.066312,-1.07161 6.088175,-4.07135 2.768044,-4.3779 1.161911,-7.04528 3.947077,-15.89861 2.400446,-8.20815 5.447272,-8.2465 3.596039,-13.48955 -1.151003,2.29336 0.611551,2.46952 -5.627963,6.22932 -5.323172,4.13557 -9.180065,8.37816 -10.875966,13.16119 -0.960222,2.89582 -1.369342,6.40092 -1.154597,9.89161 0.113189,1.83952 0.481802,4.71771 0.620546,4.84503 0.03812,0.0347 0.314576,0.0319 0.614733,-0.007 z"
         style="opacity:1;fill:#000000;fill-opacity:1;fill-rule:nonzero;stroke:none;stroke-width:0.06214557;stroke-opacity:0" />
    </g>
  </g>
</svg>
