<?xml version="1.0" encoding="UTF-8" standalone="no"?>
<!-- Created with Inkscape (http://www.inkscape.org/) -->

<svg
   xmlns:dc="http://purl.org/dc/elements/1.1/"
   xmlns:cc="http://creativecommons.org/ns#"
   xmlns:rdf="http://www.w3.org/1999/02/22-rdf-syntax-ns#"
   xmlns:svg="http://www.w3.org/2000/svg"
   xmlns="http://www.w3.org/2000/svg"
   xmlns:sodipodi="http://sodipodi.sourceforge.net/DTD/sodipodi-0.dtd"
   xmlns:inkscape="http://www.inkscape.org/namespaces/inkscape"
   width="400"
   height="400"
   viewBox="0 0 105.83333 105.83333"
   version="1.1"
   id="svg8"
   inkscape:version="0.92.3 (2405546, 2018-03-11)"
   sodipodi:docname="flower.svg">
  <defs
     id="defs2" />
  <sodipodi:namedview
     id="base"
     pagecolor="#ffffff"
     bordercolor="#666666"
     borderopacity="1.0"
     inkscape:pageopacity="0.0"
     inkscape:pageshadow="2"
     inkscape:zoom="1.4"
     inkscape:cx="22.346736"
     inkscape:cy="132.32142"
     inkscape:document-units="mm"
     inkscape:current-layer="layer1"
     showgrid="true"
     units="px"
     showguides="true"
     inkscape:guide-bbox="true"
     inkscape:window-width="1920"
     inkscape:window-height="1052"
     inkscape:window-x="1920"
     inkscape:window-y="0"
     inkscape:window-maximized="1"
     inkscape:measure-start="0,0"
     inkscape:measure-end="0,0"
     inkscape:snap-grids="false"
     inkscape:snap-to-guides="false">
    <inkscape:grid
       type="xygrid"
       id="grid4530" />
  </sodipodi:namedview>
  <metadata
     id="metadata5">
    <rdf:RDF>
      <cc:Work
         rdf:about="">
        <dc:format>image/svg+xml</dc:format>
        <dc:type
           rdf:resource="http://purl.org/dc/dcmitype/StillImage" />
        <dc:title />
      </cc:Work>
    </rdf:RDF>
  </metadata>
  <g
     inkscape:label="Layer 1"
     inkscape:groupmode="layer"
     id="layer1"
     transform="translate(0,-191.16667)">
    <g
       id="g914"
       transform="translate(0,-0.0999537)"
       style="fill:#000000;fill-opacity:1;stroke:none">
      <circle
         r="14.400283"
         transform="rotate(-22.539818)"
         cy="245.8116"
         cx="-44.975636"
         id="path4540"
         style="opacity:1;fill:#000000;fill-opacity:1;fill-rule:nonzero;stroke:none;stroke-width:0.13104711;stroke-opacity:1" />
      <path
         inkscape:connector-curvature="0"
         id="path853-3"
         d="m 60.410676,258.4866 c 1.203014,0.28118 2.223039,0.60398 3.417604,1.08154 3.482721,1.39226 5.90943,3.40112 7.711566,6.38373 0.619639,1.02538 1.581462,3.4011 1.895788,4.68246 0.642163,2.61733 0.92821,5.52646 0.858094,8.72664 -0.04977,2.26748 -0.476717,8.13682 -0.828286,11.38444 -0.100279,0.92623 0.04468,0.9436 -1.288933,-0.1546 -3.501456,-2.88339 -7.01179,-5.95567 -8.743859,-7.6527 -4.229039,-4.14342 -6.383312,-7.68943 -7.057031,-11.61602 -0.463244,-2.69991 -0.05444,-5.83169 1.153621,-8.8381 0.63662,-1.58426 1.879304,-4.02848 2.091878,-4.11448 0.05814,-0.0236 0.413445,0.0284 0.789556,0.11693 z"
         style="opacity:1;fill:#000000;fill-opacity:1;fill-rule:nonzero;stroke:none;stroke-width:0.06725717;stroke-opacity:0" />
      <path
         inkscape:connector-curvature="0"
         id="path853-1"
         d="m 38.357342,250.98229 c -0.280058,1.20302 -0.601568,2.22302 -1.077213,3.4176 -1.3867,3.48272 -3.387526,5.90944 -6.358237,7.71155 -1.021281,0.61966 -3.38752,1.58146 -4.66377,1.89579 -2.606865,0.64216 -5.50437,0.92822 -8.691773,0.8581 -2.258442,-0.0493 -8.1043184,-0.47672 -11.3389607,-0.82828 -0.9225485,-0.10028 -0.939804,0.0455 0.1539393,-1.28891 2.871886,-3.50147 5.9318854,-7.01181 7.6221334,-8.74389 4.126893,-4.22904 7.658728,-6.38328 11.56962,-7.05702 2.689152,-0.46324 5.808431,-0.0544 8.8028,1.15362 1.577975,0.63661 4.012429,1.87929 4.098057,2.09187 0.02336,0.0583 -0.029,0.41344 -0.116583,0.78956 z"
         style="opacity:1;fill:#000000;fill-opacity:1;fill-rule:nonzero;stroke:none;stroke-width:0.06712274;stroke-opacity:0" />
      <path
         inkscape:connector-curvature="0"
         id="path853-3-1"
         d="m 67.351101,237.33247 c 0.280062,-1.203 0.601568,-2.22304 1.077217,-3.41759 1.386687,-3.48272 3.387524,-5.90943 6.358228,-7.71157 1.021281,-0.61965 3.387516,-1.58146 4.663767,-1.8958 2.606862,-0.64214 5.50438,-0.9282 8.691783,-0.85808 2.25844,0.0493 8.104319,0.4767 11.338965,0.82829 0.922549,0.10027 0.939799,-0.0455 -0.153921,1.28892 -2.871891,3.50147 -5.931897,7.01181 -7.622144,8.74389 -4.126896,4.22904 -7.658729,6.3833 -11.569625,7.05702 -2.689149,0.46324 -5.808433,0.0544 -8.802804,-1.15364 -1.577966,-0.63661 -4.012421,-1.87927 -4.098057,-2.09187 -0.02358,-0.0583 0.029,-0.41342 0.116584,-0.78957 z"
         style="opacity:1;fill:#000000;fill-opacity:1;fill-rule:nonzero;stroke:none;stroke-width:0.06712274;stroke-opacity:0" />
      <path
         inkscape:connector-curvature="0"
         id="path853-0"
         d="m 59.381034,229.46449 c -0.652559,-1.06568 -1.146552,-2.02963 -1.654919,-3.22977 -1.482097,-3.49896 -1.783247,-6.68041 -0.956929,-10.11001 0.284005,-1.17904 1.277072,-3.5705 1.957256,-4.7134 1.389248,-2.33462 3.235813,-4.62222 5.539238,-6.86215 1.632071,-1.58713 6.067698,-5.48093 8.603543,-7.55258 0.723243,-0.59084 0.633025,-0.7074 0.802566,1.03679 0.445162,4.57964 0.763602,9.30082 0.793195,11.75997 0.0722,6.00422 -0.901869,10.09002 -3.190888,13.38432 -1.57396,2.26522 -4.068693,4.21288 -7.040238,5.49645 -1.566144,0.67599 -4.166112,1.53276 -4.376947,1.44153 -0.05762,-0.0251 -0.271887,-0.3179 -0.475852,-0.65114 z"
         style="opacity:1;fill:#000000;fill-opacity:1;fill-rule:nonzero;stroke:none;stroke-width:0.06766415;stroke-opacity:0" />
      <path
         inkscape:connector-curvature="0"
         id="path853-3-3"
         d="m 46.781602,259.35945 c 0.652554,1.0529 1.146561,2.00529 1.65492,3.19105 1.482103,3.457 1.783236,6.60027 0.956953,9.98873 -0.284021,1.16495 -1.277073,3.5277 -1.95726,4.6569 -1.389247,2.3066 -3.235839,4.56676 -5.539266,6.77983 -1.632073,1.5681 -6.067692,5.41521 -8.603543,7.46202 -0.723244,0.58374 -0.633023,0.6989 -0.802563,-1.02438 -0.445163,-4.5247 -0.763603,-9.18925 -0.793171,-11.61891 -0.07222,-5.93223 0.901853,-9.96903 3.190883,-13.22382 1.573949,-2.23804 4.068684,-4.16235 7.040257,-5.43051 1.566121,-0.66786 4.166085,-1.51437 4.376947,-1.42424 0.05773,0.0246 0.271867,0.31411 0.47585,0.64333 z"
         style="opacity:1;fill:#000000;fill-opacity:1;fill-rule:nonzero;stroke:none;stroke-width:0.06725717;stroke-opacity:0" />
      <path
         inkscape:connector-curvature="0"
         id="path853-0-4"
         d="m 67.891219,249.73052 c 1.048712,-0.65256 1.997295,-1.14655 3.178312,-1.65488 3.443157,-1.4821 6.573863,-1.78326 9.948783,-0.95693 1.160271,0.28401 3.513586,1.27708 4.63826,1.95726 2.297417,1.38925 4.548547,3.23587 6.752764,5.53927 1.561843,1.63207 5.393539,6.06772 7.432164,8.60352 0.581458,0.72326 0.696138,0.63303 -1.020241,0.80259 -4.50662,0.44507 -9.152534,0.76358 -11.572451,0.79322 -5.908504,0.0724 -9.929159,-0.90187 -13.170962,-3.19085 -2.229096,-1.57401 -4.145713,-4.06872 -5.408807,-7.04026 -0.665236,-1.56618 -1.508347,-4.16612 -1.418603,-4.37699 0.02463,-0.0574 0.312838,-0.27189 0.640768,-0.47585 z"
         style="opacity:1;fill:#000000;fill-opacity:1;fill-rule:nonzero;stroke:none;stroke-width:0.06712274;stroke-opacity:0" />
      <path
         inkscape:connector-curvature="0"
         id="path853-3-3-0"
         d="m 37.827146,238.64224 c -1.048709,0.65252 -1.997293,1.14654 -3.178303,1.65491 -3.443209,1.4821 -6.573929,1.78322 -9.948847,0.95693 -1.160311,-0.284 -3.5136,-1.27706 -4.638306,-1.95724 -2.297397,-1.38925 -4.548519,-3.23585 -6.752778,-5.53927 -1.561808,-1.63208 -5.3935268,-6.06772 -7.4321757,-8.60354 -0.5814342,-0.72324 -0.6961327,-0.63302 1.020255,-0.80256 4.5066367,-0.44508 9.1525727,-0.76359 11.5725027,-0.79323 5.908545,-0.0722 9.929231,0.90187 13.171042,3.1909 2.229081,1.57394 4.145702,4.06867 5.40879,7.04024 0.66521,1.56614 1.508343,4.16609 1.418583,4.37694 -0.02432,0.0578 -0.312847,0.27191 -0.640765,0.47588 z"
         style="opacity:1;fill:#000000;fill-opacity:1;fill-rule:nonzero;stroke:none;stroke-width:0.06712274;stroke-opacity:0" />
      <path
         inkscape:connector-curvature="0"
         id="path853-3-8"
         d="m 47.254219,229.42631 c 0.651169,-1.06664 1.143777,-2.03128 1.650487,-3.23213 1.477328,-3.50107 1.774114,-6.68296 0.943124,-10.11135 -0.285616,-1.17869 -1.281957,-3.56872 -1.963705,-4.71066 -1.392444,-2.33266 -3.242158,-4.61765 -5.548631,-6.85434 -1.634256,-1.58481 -6.075202,-5.47232 -8.613873,-7.54039 -0.724051,-0.58983 -0.633989,-0.7065 -0.801147,1.03793 -0.438907,4.58025 -0.750882,9.30186 -0.777091,11.76104 -0.06401,6.00435 0.915659,10.08875 3.209192,13.37985 1.577051,2.26296 4.074429,4.20711 7.047766,5.48647 1.566873,0.67417 4.168167,1.52687 4.37891,1.43535 0.05763,-0.0253 0.271421,-0.31828 0.474968,-0.65177 z"
         style="opacity:1;fill:#000000;fill-opacity:1;fill-rule:nonzero;stroke:none;stroke-width:0.06766415;stroke-opacity:0" />
    </g>
  </g>
</svg>
