<?xml version="1.0" encoding="UTF-8" standalone="no"?>
<!-- Created with Inkscape (http://www.inkscape.org/) -->

<svg
   xmlns:dc="http://purl.org/dc/elements/1.1/"
   xmlns:cc="http://creativecommons.org/ns#"
   xmlns:rdf="http://www.w3.org/1999/02/22-rdf-syntax-ns#"
   xmlns:svg="http://www.w3.org/2000/svg"
   xmlns="http://www.w3.org/2000/svg"
   xmlns:sodipodi="http://sodipodi.sourceforge.net/DTD/sodipodi-0.dtd"
   xmlns:inkscape="http://www.inkscape.org/namespaces/inkscape"
   width="400"
   height="400"
   viewBox="0 0 105.83333 105.83333"
   version="1.1"
   id="svg8"
   inkscape:version="0.92.3 (2405546, 2018-03-11)"
   sodipodi:docname="leaves.svg">
  <defs
     id="defs2" />
  <sodipodi:namedview
     id="base"
     pagecolor="#ffffff"
     bordercolor="#666666"
     borderopacity="1.0"
     inkscape:pageopacity="0.0"
     inkscape:pageshadow="2"
     inkscape:zoom="1.4"
     inkscape:cx="3.7315257"
     inkscape:cy="195.84132"
     inkscape:document-units="mm"
     inkscape:current-layer="layer1"
     showgrid="true"
     units="px"
     showguides="true"
     inkscape:guide-bbox="true"
     inkscape:window-width="1920"
     inkscape:window-height="1006"
     inkscape:window-x="0"
     inkscape:window-y="0"
     inkscape:window-maximized="1">
    <inkscape:grid
       type="xygrid"
       id="grid4530" />
  </sodipodi:namedview>
  <metadata
     id="metadata5">
    <rdf:RDF>
      <cc:Work
         rdf:about="">
        <dc:format>image/svg+xml</dc:format>
        <dc:type
           rdf:resource="http://purl.org/dc/dcmitype/StillImage" />
        <dc:title />
      </cc:Work>
    </rdf:RDF>
  </metadata>
  <g
     inkscape:label="Layer 1"
     inkscape:groupmode="layer"
     id="layer1"
     transform="translate(0,-191.16667)">
    <g
       id="g855"
       style="fill:#000000;fill-opacity:1;stroke:none">
      <path
         inkscape:connector-curvature="0"
         id="path853-1"
         d="m 48.791502,227.24038 c -0.403701,0.4996 -0.789531,0.90717 -1.292729,1.36557 -1.467036,1.33645 -3.025174,2.07029 -4.951428,2.33195 -0.662236,0.09 -2.094724,0.0807 -2.823396,-0.0183 -1.488411,-0.20216 -3.050819,-0.62347 -4.68682,-1.26383 -1.159181,-0.45373 -4.095551,-1.76538 -5.695516,-2.54414 -0.456323,-0.22211 -0.496437,-0.1588 0.356838,-0.56316 2.240397,-1.06171 4.580146,-2.09161 5.828062,-2.56537 3.046909,-1.15674 5.339534,-1.47323 7.510216,-1.03678 1.492568,0.30011 3.020474,1.08316 4.31184,2.20981 0.680524,0.59373 1.674413,1.62947 1.673072,1.74352 -3.83e-4,0.0312 -0.103891,0.18454 -0.230139,0.34072 z"
         style="opacity:1;fill:#000000;fill-opacity:1;fill-rule:nonzero;stroke:none;stroke-width:0.03546372;stroke-opacity:0" />
      <path
         inkscape:connector-curvature="0"
         id="path853-3-1"
         d="m 57.175898,226.51827 c 0.403702,-0.4996 0.789532,-0.90717 1.29273,-1.36557 1.467036,-1.33646 3.025174,-2.07029 4.951428,-2.33196 0.662236,-0.09 2.094724,-0.0807 2.823396,0.0183 1.488411,0.20216 3.05082,0.62348 4.68682,1.26384 1.159181,0.45373 4.095551,1.76538 5.695515,2.54414 0.456323,0.22211 0.496437,0.1588 -0.356833,0.56316 -2.240401,1.06171 -4.580149,2.09161 -5.828065,2.56537 -3.04691,1.15674 -5.339535,1.47323 -7.510217,1.03678 -1.492569,-0.30011 -3.020474,-1.08316 -4.311841,-2.20982 -0.680524,-0.59372 -1.674413,-1.62946 -1.673072,-1.74352 3.04e-4,-0.0312 0.103892,-0.18453 0.230139,-0.34072 z"
         style="opacity:1;fill:#000000;fill-opacity:1;fill-rule:nonzero;stroke:none;stroke-width:0.03546372;stroke-opacity:0" />
      <path
         inkscape:connector-curvature="0"
         id="path853-0"
         d="m 56.072572,216.55756 c 0.16582,-0.59199 0.348153,-1.09211 0.611001,-1.6756 0.766331,-1.70114 1.81474,-2.86366 3.331634,-3.69422 0.521483,-0.28558 1.719279,-0.71165 2.360809,-0.83979 1.310392,-0.26182 2.757448,-0.34015 4.340794,-0.23498 1.121872,0.0745 4.019248,0.41578 5.619881,0.66194 0.456511,0.0702 0.468313,-0.001 -0.104969,0.63751 -1.505237,1.67771 -3.104211,3.35569 -3.982864,4.17966 -2.145319,2.0118 -3.948991,3.00509 -5.908481,3.25383 -1.347369,0.17103 -2.889381,-0.10103 -4.351634,-0.76776 -0.770496,-0.35157 -1.953678,-1.02298 -1.991566,-1.13055 -0.01033,-0.0294 0.02352,-0.20495 0.0754,-0.39003 z"
         style="opacity:1;fill:#000000;fill-opacity:1;fill-rule:nonzero;stroke:none;stroke-width:0.03340869;stroke-opacity:0" />
      <path
         inkscape:connector-curvature="0"
         id="path853-3-3-0"
         d="m 49.719991,217.22931 c -0.507546,0.3469 -0.968691,0.61281 -1.545108,0.89084 -1.680528,0.81056 -3.230897,1.02719 -4.926783,0.68841 -0.583053,-0.11644 -1.774481,-0.55997 -2.348292,-0.87418 -1.1721,-0.64175 -2.33096,-1.5119 -3.476277,-2.61021 -0.811505,-0.77821 -2.811659,-2.90204 -3.879589,-4.11948 -0.30458,-0.34722 -0.359689,-0.2999 0.490192,-0.42088 2.231489,-0.31764 4.534956,-0.57526 5.737677,-0.64167 2.93658,-0.16214 4.956743,0.23633 6.617692,1.30533 1.142075,0.73505 2.148446,1.93464 2.840025,3.38532 0.364247,0.76457 0.839057,2.03943 0.798928,2.14621 -0.01087,0.0292 -0.14976,0.14188 -0.308465,0.25031 z"
         style="opacity:1;fill:#000000;fill-opacity:1;fill-rule:nonzero;stroke:none;stroke-width:0.03340869;stroke-opacity:0" />
      <path
         inkscape:connector-curvature="0"
         id="path853-3-8"
         d="m 53.239731,214.01576 c 0.4996,-0.35827 0.90717,-0.70068 1.36557,-1.14725 1.33646,-1.30194 2.07029,-2.68473 2.33196,-4.39421 0.09,-0.58771 0.0807,-1.85899 -0.0183,-2.50566 -0.20216,-1.32091 -0.62348,-2.70749 -1.26384,-4.15938 -0.45373,-1.02873 -1.76538,-3.63465 -2.54414,-5.05456 -0.22211,-0.40497 -0.1588,-0.44057 -0.56316,0.31668 -1.06171,1.98827 -2.09161,4.06471 -2.56537,5.17219 -1.15674,2.70402 -1.47323,4.73864 -1.03678,6.66504 0.30011,1.3246 1.08316,2.68056 2.20982,3.8266 0.59372,0.60394 1.62946,1.48598 1.74352,1.48479 0.0312,-3.4e-4 0.18453,-0.0922 0.34072,-0.20424 z"
         style="opacity:1;fill:#000000;fill-opacity:1;fill-rule:nonzero;stroke:none;stroke-width:0.03340869;stroke-opacity:0" />
      <path
         sodipodi:nodetypes="ccccc"
         inkscape:connector-curvature="0"
         id="path849"
         d="m 51.59375,214.97917 -1.322917,76.72917 h 5.291666 l -1.322916,-76.72917 z"
         style="fill:#000000;fill-opacity:1;stroke:none;stroke-width:0.26926658px;stroke-linecap:butt;stroke-linejoin:miter;stroke-opacity:1" />
      <path
         inkscape:connector-curvature="0"
         id="path853-1-2"
         d="m 48.683335,238.79168 c -0.504626,0.4996 -0.986914,0.90717 -1.615912,1.36557 -1.833794,1.33645 -3.781466,2.07029 -6.189285,2.33195 -0.827794,0.09 -2.618404,0.0807 -3.529244,-0.0183 -1.860514,-0.20216 -3.813525,-0.62347 -5.858525,-1.26383 -1.448977,-0.45373 -5.119439,-1.76538 -7.119395,-2.54414 -0.570404,-0.22211 -0.620547,-0.1588 0.446047,-0.56316 2.800496,-1.06171 5.725182,-2.09161 7.285078,-2.56537 3.808636,-1.15674 6.674417,-1.47323 9.387769,-1.03678 1.865711,0.30011 3.775593,1.08316 5.389801,2.20981 0.850655,0.59373 2.093016,1.62947 2.09134,1.74352 -4.79e-4,0.0312 -0.129865,0.18454 -0.287674,0.34072 z"
         style="opacity:1;fill:#000000;fill-opacity:1;fill-rule:nonzero;stroke:none;stroke-width:0.03964964;stroke-opacity:0" />
      <path
         inkscape:connector-curvature="0"
         id="path853-1-2-4"
         d="m 57.15,238.79168 c 0.504626,0.4996 0.986914,0.90717 1.615912,1.36557 1.833794,1.33645 3.781466,2.07029 6.189285,2.33195 0.827794,0.09 2.618404,0.0807 3.529244,-0.0183 1.860514,-0.20216 3.813525,-0.62347 5.858525,-1.26383 1.448977,-0.45373 5.119439,-1.76538 7.119395,-2.54414 0.570404,-0.22211 0.620547,-0.1588 -0.446047,-0.56316 -2.800496,-1.06171 -5.725182,-2.09161 -7.285078,-2.56537 -3.808636,-1.15674 -6.674417,-1.47323 -9.387769,-1.03678 -1.865711,0.30011 -3.775593,1.08316 -5.389801,2.20981 -0.850655,0.59373 -2.093016,1.62947 -2.09134,1.74352 4.76e-4,0.0312 0.129865,0.18454 0.287674,0.34072 z"
         style="opacity:1;fill:#000000;fill-opacity:1;fill-rule:nonzero;stroke:none;stroke-width:0.03964964;stroke-opacity:0" />
      <path
         inkscape:connector-curvature="0"
         id="path853-1-2-0"
         d="m 48.618803,251.1273 c -0.565182,0.54559 -1.105344,0.99068 -1.809821,1.49128 -2.053849,1.45947 -4.235243,2.26087 -6.931999,2.54661 -0.927129,0.0983 -2.932612,0.0881 -3.952754,-0.02 -2.083775,-0.22077 -4.271147,-0.68086 -6.561547,-1.38017 -1.622854,-0.4955 -5.733772,-1.92789 -7.973722,-2.77834 -0.638853,-0.24255 -0.695013,-0.17342 0.499572,-0.615 3.136556,-1.15944 6.412204,-2.28415 8.159288,-2.80152 4.265672,-1.26322 7.475345,-1.60885 10.5143,-1.13222 2.089597,0.32774 4.228664,1.18287 6.036578,2.41323 0.952733,0.64839 2.344177,1.77947 2.342301,1.90402 -5.34e-4,0.0341 -0.14545,0.20153 -0.322196,0.37208 z"
         style="opacity:1;fill:#000000;fill-opacity:1;fill-rule:nonzero;stroke:none;stroke-width:0.04385006;stroke-opacity:0" />
      <path
         inkscape:connector-curvature="0"
         id="path853-1-2-0-6"
         d="m 57.214199,251.1273 c 0.565182,0.54559 1.105344,0.99068 1.809821,1.49128 2.053849,1.45947 4.235243,2.26087 6.931999,2.54661 0.927129,0.0983 2.932612,0.0881 3.952754,-0.02 2.083775,-0.22077 4.271147,-0.68086 6.561547,-1.38017 1.622854,-0.4955 5.733772,-1.92789 7.973722,-2.77834 0.638853,-0.24255 0.695013,-0.17342 -0.499572,-0.615 -3.136556,-1.15944 -6.412204,-2.28415 -8.159288,-2.80152 -4.265672,-1.26322 -7.475345,-1.60885 -10.5143,-1.13222 -2.089597,0.32774 -4.228664,1.18287 -6.036578,2.41323 -0.952734,0.64839 -2.344177,1.77947 -2.342302,1.90402 5.3e-4,0.0341 0.14545,0.20153 0.322197,0.37208 z"
         style="opacity:1;fill:#000000;fill-opacity:1;fill-rule:nonzero;stroke:none;stroke-width:0.04385006;stroke-opacity:0" />
      <path
         inkscape:connector-curvature="0"
         id="path853-1-2-0-2"
         d="m 48.518266,264.39211 c -0.666107,0.60621 -1.302727,1.10075 -2.133003,1.65697 -2.420608,1.62163 -4.991536,2.51208 -8.169855,2.82957 -1.092688,0.10922 -3.456293,0.0979 -4.658603,-0.0222 -2.455877,-0.2453 -5.033851,-0.75651 -7.733252,-1.53352 -1.912649,-0.55055 -6.757659,-2.14209 -9.3976,-3.08704 -0.752934,-0.2695 -0.819123,-0.19269 0.588781,-0.68333 3.696655,-1.28827 7.55724,-2.53794 9.616303,-3.1128 5.0274,-1.40357 8.810228,-1.78761 12.391853,-1.25802 2.46274,0.36416 4.983783,1.3143 7.114538,2.68137 1.122865,0.72043 2.76278,1.97718 2.76057,2.11557 -6.24e-4,0.0379 -0.171423,0.22392 -0.379732,0.41342 z"
         style="opacity:1;fill:#000000;fill-opacity:1;fill-rule:nonzero;stroke:none;stroke-width:0.05017953;stroke-opacity:0" />
      <path
         inkscape:connector-curvature="0"
         id="path853-1-2-0-2-9"
         d="m 57.278734,264.39211 c 0.666107,0.60621 1.302726,1.10075 2.133002,1.65697 2.420607,1.62163 4.991536,2.51208 8.169855,2.82957 1.092688,0.10922 3.456293,0.0979 4.658603,-0.0222 2.455877,-0.2453 5.033851,-0.75651 7.733253,-1.53352 1.912649,-0.55055 6.757659,-2.14209 9.3976,-3.08704 0.752934,-0.2695 0.819123,-0.19269 -0.588781,-0.68333 -3.696655,-1.28827 -7.55724,-2.53794 -9.616304,-3.1128 -5.0274,-1.40357 -8.810228,-1.78761 -12.391853,-1.25802 -2.46274,0.36416 -4.983782,1.3143 -7.114538,2.68137 -1.122865,0.72043 -2.762779,1.97718 -2.760569,2.11557 5.29e-4,0.0379 0.171423,0.22392 0.379732,0.41342 z"
         style="opacity:1;fill:#000000;fill-opacity:1;fill-rule:nonzero;stroke:none;stroke-width:0.05017953;stroke-opacity:0" />
      <path
         inkscape:connector-curvature="0"
         id="path853-1-2-0-2-90"
         d="m 48.059249,275.84104 c -0.590476,0.71968 -1.169545,1.32395 -1.940173,2.02464 -2.246717,2.0428 -4.777409,3.39321 -8.042009,4.29124 -1.122346,0.30879 -3.593074,0.73296 -4.869734,0.83612 -2.607744,0.21073 -5.389188,0.18209 -8.343619,-0.086 -2.093354,-0.18994 -7.430299,-0.86497 -10.35179,-1.30937 -0.833233,-0.12674 -0.889026,-0.0389 0.496321,-0.78138 3.637422,-1.94953 7.452775,-3.89123 9.503627,-4.83658 5.007361,-2.30814 8.891808,-3.38305 12.724753,-3.52114 2.635551,-0.0949 5.433751,0.37646 7.896703,1.33034 1.297923,0.50268 3.229037,1.43832 3.25076,1.57501 0.0061,0.0374 -0.140169,0.25208 -0.32484,0.47707 z"
         style="opacity:1;fill:#000000;fill-opacity:1;fill-rule:nonzero;stroke:none;stroke-width:0.05167776;stroke-opacity:0" />
      <path
         inkscape:connector-curvature="0"
         id="path853-1-2-0-2-90-8"
         d="m 57.679166,275.73304 c 0.590476,0.71968 1.169543,1.32395 1.940171,2.02464 2.246717,2.0428 4.777409,3.39321 8.04201,4.29124 1.122346,0.30879 3.593074,0.73296 4.869734,0.83612 2.607744,0.21073 5.389188,0.18209 8.343619,-0.086 2.093354,-0.18994 7.430299,-0.86497 10.35179,-1.30937 0.833233,-0.12674 0.889026,-0.0389 -0.496321,-0.78138 -3.637422,-1.94953 -7.452775,-3.89123 -9.503627,-4.83658 -5.007361,-2.30814 -8.891808,-3.38305 -12.724753,-3.52114 -2.635551,-0.0949 -5.433751,0.37646 -7.896702,1.33034 -1.297924,0.50268 -3.229038,1.43832 -3.250761,1.57501 -0.0061,0.0374 0.140169,0.25208 0.32484,0.47707 z"
         style="opacity:1;fill:#000000;fill-opacity:1;fill-rule:nonzero;stroke:none;stroke-width:0.05167776;stroke-opacity:0" />
    </g>
  </g>
</svg>
