<?xml version="1.0" encoding="UTF-8" standalone="no"?>
<!-- Created with Inkscape (http://www.inkscape.org/) -->

<svg
   xmlns:dc="http://purl.org/dc/elements/1.1/"
   xmlns:cc="http://creativecommons.org/ns#"
   xmlns:rdf="http://www.w3.org/1999/02/22-rdf-syntax-ns#"
   xmlns:svg="http://www.w3.org/2000/svg"
   xmlns="http://www.w3.org/2000/svg"
   xmlns:sodipodi="http://sodipodi.sourceforge.net/DTD/sodipodi-0.dtd"
   xmlns:inkscape="http://www.inkscape.org/namespaces/inkscape"
   width="400"
   height="400"
   viewBox="0 0 105.83333 105.83333"
   version="1.1"
   id="svg8"
   inkscape:version="0.92.3 (2405546, 2018-03-11)"
   sodipodi:docname="star-four-pointed.svg">
  <defs
     id="defs2" />
  <sodipodi:namedview
     id="base"
     pagecolor="#ffffff"
     bordercolor="#666666"
     borderopacity="1.0"
     inkscape:pageopacity="0.0"
     inkscape:pageshadow="2"
     inkscape:zoom="1.4"
     inkscape:cx="120.35881"
     inkscape:cy="149.35607"
     inkscape:document-units="mm"
     inkscape:current-layer="layer1"
     showgrid="true"
     units="px"
     showguides="true"
     inkscape:guide-bbox="true"
     inkscape:window-width="1920"
     inkscape:window-height="1052"
     inkscape:window-x="1920"
     inkscape:window-y="0"
     inkscape:window-maximized="1">
    <inkscape:grid
       type="xygrid"
       id="grid4530" />
  </sodipodi:namedview>
  <metadata
     id="metadata5">
    <rdf:RDF>
      <cc:Work
         rdf:about="">
        <dc:format>image/svg+xml</dc:format>
        <dc:type
           rdf:resource="http://purl.org/dc/dcmitype/StillImage" />
        <dc:title />
      </cc:Work>
    </rdf:RDF>
  </metadata>
  <g
     inkscape:label="Layer 1"
     inkscape:groupmode="layer"
     id="layer1"
     transform="translate(0,-191.16667)">
    <path
       style="opacity:1;fill:#000000;fill-opacity:1;fill-rule:nonzero;stroke:none;stroke-width:0.03340869;stroke-opacity:0"
       d="m 73.71074,222.89165 c -0.0999,-0.6066 -0.14601,-1.13692 -0.154384,-1.77683 -0.0244,-1.86562 0.434478,-3.3623 1.45824,-4.75611 0.351934,-0.47921 1.257441,-1.37157 1.784709,-1.75883 1.076971,-0.79108 2.355342,-1.47363 3.83479,-2.04746 1.048253,-0.40659 3.818393,-1.32178 5.373091,-1.77514 0.443411,-0.1293 0.423819,-0.19924 0.174288,0.62214 -0.655178,2.15666 -1.395196,4.35318 -1.843299,5.47129 -1.094097,2.72996 -2.308997,4.39245 -3.979776,5.446 -1.14885,0.72443 -2.661366,1.12954 -4.268391,1.14325 -0.846884,0.007 -2.202961,-0.10147 -2.282761,-0.18295 -0.0218,-0.0223 -0.0653,-0.19569 -0.0965,-0.38535 z"
       id="path853-0"
       inkscape:connector-curvature="0" />
    <path
       style="opacity:1;fill:#000000;fill-opacity:1;fill-rule:nonzero;stroke:none;stroke-width:0.03340869;stroke-opacity:0"
       d="m 31.846723,265.74438 c 0.0999,0.6066 0.146017,1.13692 0.154385,1.77683 0.0244,1.86563 -0.434482,3.3623 -1.458231,4.75612 -0.351942,0.47921 -1.257441,1.37157 -1.78471,1.75883 -1.076967,0.79107 -2.355348,1.47361 -3.834801,2.04745 -1.048252,0.40659 -3.818391,1.32178 -5.373089,1.77514 -0.443412,0.1293 -0.42382,0.19924 -0.174288,-0.62214 0.65518,-2.15666 1.395194,-4.35318 1.843301,-5.47128 1.094095,-2.72997 2.308994,-4.39246 3.97978,-5.44601 1.148843,-0.72443 2.661359,-1.12954 4.268395,-1.14324 0.846872,-0.007 2.202951,0.10146 2.28276,0.18295 0.0219,0.0222 0.06529,0.19569 0.0965,0.38535 z"
       id="path853-3-3"
       inkscape:connector-curvature="0" />
    <path
       style="opacity:1;fill:#000000;fill-opacity:1;fill-rule:nonzero;stroke:none;stroke-width:0.03340869;stroke-opacity:0"
       d="m 74.545815,265.25007 c 0.606601,-0.0999 1.136918,-0.14601 1.776825,-0.15437 1.865608,-0.0244 3.362269,0.43447 4.756083,1.45824 0.479197,0.35193 1.371561,1.25744 1.758808,1.7847 0.791077,1.07698 1.473624,2.35536 2.047448,3.83479 0.4066,1.04827 1.321774,3.81841 1.775131,5.37309 0.12931,0.44342 0.19924,0.42382 -0.622137,0.1743 -2.156648,-0.65518 -4.353156,-1.3952 -5.471247,-1.84331 -2.729955,-1.09408 -4.392426,-2.30898 -5.44598,-3.97976 -0.724427,-1.14886 -1.129536,-2.66137 -1.143247,-4.26839 -0.007,-0.8469 0.101463,-2.20297 0.18295,-2.28278 0.02232,-0.0218 0.195685,-0.0653 0.385352,-0.0965 z"
       id="path853-0-4"
       inkscape:connector-curvature="0" />
    <path
       style="opacity:1;fill:#000000;fill-opacity:1;fill-rule:nonzero;stroke:none;stroke-width:0.03340869;stroke-opacity:0"
       d="m 31.693084,223.38606 c -0.6066,0.0999 -1.136918,0.14601 -1.776827,0.15438 -1.865635,0.0244 -3.362299,-0.43448 -4.75612,-1.45823 -0.479215,-0.35194 -1.371569,-1.25744 -1.758829,-1.78471 -0.79107,-1.07697 -1.473612,-2.35535 -2.047456,-3.83479 -0.406585,-1.04826 -1.321773,-3.8184 -1.775135,-5.3731 -0.129301,-0.44341 -0.199242,-0.42382 0.62214,-0.17429 2.156655,0.65519 4.353178,1.3952 5.471281,1.8433 2.729971,1.0941 4.392457,2.309 5.446009,3.97979 0.724427,1.14884 1.12954,2.66135 1.143238,4.26839 0.007,0.84687 -0.101456,2.20295 -0.182949,2.28276 -0.02221,0.0219 -0.195692,0.0653 -0.385352,0.0965 z"
       id="path853-3-3-0"
       inkscape:connector-curvature="0" />
    <path
       sodipodi:type="star"
       style="opacity:1;fill:#000000;fill-opacity:1;fill-rule:nonzero;stroke:none;stroke-width:0.36634618;stroke-opacity:0"
       id="path849"
       sodipodi:sides="4"
       sodipodi:cx="52.916668"
       sodipodi:cy="244.08331"
       sodipodi:r1="47.625"
       sodipodi:r2="18.875402"
       sodipodi:arg1="1.5707963"
       sodipodi:arg2="2.3033157"
       inkscape:flatsided="false"
       inkscape:rounded="0"
       inkscape:randomized="0"
       d="M 52.916669,291.70831 40.293839,258.11702 5.2916679,244.08331 38.882958,231.46048 l 14.033709,-35.00217 12.62283,33.59129 35.002173,14.03371 -33.591292,12.62283 z" />
  </g>
</svg>
