<?xml version="1.0" encoding="UTF-8" standalone="no"?>
<!-- Created with Inkscape (http://www.inkscape.org/) -->

<svg
   xmlns:dc="http://purl.org/dc/elements/1.1/"
   xmlns:cc="http://creativecommons.org/ns#"
   xmlns:rdf="http://www.w3.org/1999/02/22-rdf-syntax-ns#"
   xmlns:svg="http://www.w3.org/2000/svg"
   xmlns="http://www.w3.org/2000/svg"
   xmlns:sodipodi="http://sodipodi.sourceforge.net/DTD/sodipodi-0.dtd"
   xmlns:inkscape="http://www.inkscape.org/namespaces/inkscape"
   width="400"
   height="400"
   viewBox="0 0 105.83333 105.83333"
   version="1.1"
   id="svg8"
   inkscape:version="0.92.3 (2405546, 2018-03-11)"
   sodipodi:docname="sunflower.svg">
  <defs
     id="defs2" />
  <sodipodi:namedview
     id="base"
     pagecolor="#ffffff"
     bordercolor="#666666"
     borderopacity="1.0"
     inkscape:pageopacity="0.0"
     inkscape:pageshadow="2"
     inkscape:zoom="1.4"
     inkscape:cx="91.054266"
     inkscape:cy="192.78687"
     inkscape:document-units="mm"
     inkscape:current-layer="layer1"
     showgrid="true"
     units="px"
     showguides="true"
     inkscape:guide-bbox="true"
     inkscape:window-width="1920"
     inkscape:window-height="1052"
     inkscape:window-x="1920"
     inkscape:window-y="0"
     inkscape:window-maximized="1"
     inkscape:measure-start="0,0"
     inkscape:measure-end="0,0"
     inkscape:snap-grids="false"
     inkscape:snap-to-guides="false">
    <inkscape:grid
       type="xygrid"
       id="grid4530" />
  </sodipodi:namedview>
  <metadata
     id="metadata5">
    <rdf:RDF>
      <cc:Work
         rdf:about="">
        <dc:format>image/svg+xml</dc:format>
        <dc:type
           rdf:resource="http://purl.org/dc/dcmitype/StillImage" />
        <dc:title />
      </cc:Work>
    </rdf:RDF>
  </metadata>
  <g
     inkscape:label="Layer 1"
     inkscape:groupmode="layer"
     id="layer1"
     transform="translate(0,-191.16667)">
    <g
       id="g866"
       style="fill:#000000;fill-opacity:1;stroke:none">
      <circle
         r="8.0991468"
         transform="rotate(-22.539818)"
         cy="225.95232"
         cx="-36.227634"
         id="path4540"
         style="opacity:1;fill:#000000;fill-opacity:1;fill-rule:nonzero;stroke:none;stroke-width:0.07370479;stroke-opacity:1" />
      <path
         inkscape:connector-curvature="0"
         id="path853-3"
         d="m 57.173098,230.18346 c 0.676611,0.15751 1.250303,0.33834 1.922162,0.60586 1.958786,0.77992 3.323639,1.90525 4.337214,3.57606 0.348503,0.5744 0.889461,1.90524 1.066247,2.62304 0.361172,1.46618 0.522053,3.09583 0.482618,4.88852 -0.02799,1.2702 -0.26812,4.55811 -0.465853,6.37737 -0.0564,0.51886 0.02513,0.52859 -0.724934,-0.0866 -1.969323,-1.61523 -3.943639,-3.33627 -4.917806,-4.28692 -2.378537,-2.32107 -3.590164,-4.30749 -3.969084,-6.5071 -0.260542,-1.51245 -0.03062,-3.26682 0.648831,-4.95096 0.358054,-0.88748 1.056976,-2.25669 1.176534,-2.30486 0.0327,-0.0132 0.232534,0.0159 0.44407,0.0655 z"
         style="opacity:1;fill:#000000;fill-opacity:1;fill-rule:nonzero;stroke:none;stroke-width:0.03775182;stroke-opacity:0" />
      <path
         inkscape:connector-curvature="0"
         id="path853-1"
         d="m 44.901993,226.11095 c -0.157513,0.67661 -0.33834,1.25029 -0.605857,1.92216 -0.779921,1.95878 -1.905245,3.32364 -3.576061,4.3372 -0.574399,0.34852 -1.905242,0.88946 -2.623043,1.06625 -1.466178,0.36117 -3.095821,0.52206 -4.888511,0.48262 -1.270215,-0.0277 -4.558112,-0.26812 -6.377373,-0.46585 -0.518868,-0.0564 -0.528574,0.0256 0.08658,-0.72492 1.615235,-1.96933 3.336271,-3.94365 4.286918,-4.91782 2.321087,-2.37854 4.307496,-3.59015 6.507098,-3.96908 1.512459,-0.26054 3.266834,-0.0306 4.950956,0.64883 0.8875,0.35805 2.256709,1.05697 2.304869,1.17653 0.01314,0.0328 -0.01631,0.23253 -0.06557,0.44407 z"
         style="opacity:1;fill:#000000;fill-opacity:1;fill-rule:nonzero;stroke:none;stroke-width:0.03775182;stroke-opacity:0" />
      <path
         inkscape:connector-curvature="0"
         id="path853-3-1"
         d="m 61.211434,219.34135 c 0.157515,-0.6766 0.33834,-1.2503 0.605859,-1.92215 0.779914,-1.95879 1.905244,-3.32364 3.576056,-4.33722 0.574399,-0.34851 1.90524,-0.88946 2.623041,-1.06625 1.466177,-0.36116 3.095827,-0.52205 4.888517,-0.48261 1.270214,0.0277 4.55811,0.26811 6.377371,0.46585 0.518869,0.0564 0.528574,-0.0256 -0.08657,0.72493 -1.615237,1.96933 -3.336275,3.94365 -4.28692,4.91782 -2.321089,2.37854 -4.307497,3.59016 -6.507101,3.96908 -1.512457,0.26054 -3.266835,0.0306 -4.950958,-0.64884 -0.887495,-0.35805 -2.256705,-1.05696 -2.304869,-1.17653 -0.01326,-0.0328 0.01631,-0.23252 0.06557,-0.44408 z"
         style="opacity:1;fill:#000000;fill-opacity:1;fill-rule:nonzero;stroke:none;stroke-width:0.03775182;stroke-opacity:0" />
      <path
         inkscape:connector-curvature="0"
         id="path853-0"
         d="m 56.658,214.60439 c -0.367019,-0.58982 -0.644855,-1.12333 -0.930776,-1.78757 -0.833575,-1.93655 -1.002951,-3.69737 -0.538205,-5.59553 0.159733,-0.65256 0.718263,-1.97615 1.100819,-2.60871 0.781354,-1.29213 1.819917,-2.55823 3.115432,-3.79796 0.917925,-0.87842 3.412653,-3.0335 4.838888,-4.18009 0.406773,-0.32701 0.356032,-0.39152 0.451387,0.57383 0.250372,2.53467 0.429472,5.14768 0.446116,6.50873 0.04061,3.32313 -0.507238,5.58448 -1.79465,7.40776 -0.885242,1.25372 -2.288354,2.33168 -3.959639,3.04209 -0.880846,0.37414 -2.343145,0.84833 -2.461725,0.79784 -0.03241,-0.0139 -0.152917,-0.17595 -0.267633,-0.36038 z"
         style="opacity:1;fill:#000000;fill-opacity:1;fill-rule:nonzero;stroke:none;stroke-width:0.03775182;stroke-opacity:0" />
      <path
         inkscape:connector-curvature="0"
         id="path853-3-3"
         d="m 49.909638,230.30525 c 0.367016,0.58982 0.64486,1.12334 0.930776,1.78758 0.833579,1.93655 1.002945,3.69736 0.538219,5.59552 -0.159742,0.65259 -0.718264,1.97616 -1.100821,2.60872 -0.781354,1.29212 -1.819932,2.55822 -3.115448,3.79795 -0.917926,0.87842 -3.41265,3.03351 -4.838888,4.1801 -0.406774,0.327 -0.356031,0.39151 -0.451385,-0.57384 -0.250373,-2.53466 -0.429473,-5.14767 -0.446103,-6.50872 -0.04062,-3.32314 0.507229,-5.58449 1.794647,-7.40777 0.885236,-1.25371 2.288349,-2.33168 3.95965,-3.04208 0.880833,-0.37413 2.34313,-0.84833 2.461725,-0.79784 0.03247,0.0138 0.152906,0.17596 0.267632,0.36038 z"
         style="opacity:1;fill:#000000;fill-opacity:1;fill-rule:nonzero;stroke:none;stroke-width:0.03775182;stroke-opacity:0" />
      <path
         inkscape:connector-curvature="0"
         id="path853-0-4"
         d="m 61.533119,225.37375 c 0.589827,-0.36702 1.123338,-0.64485 1.787577,-0.93075 1.936534,-0.83358 3.697336,-1.00296 5.595491,-0.53821 0.652571,0.15974 1.976145,0.71827 2.608695,1.10082 1.292136,0.78136 2.558238,1.81995 3.797955,3.11545 0.878427,0.91793 3.033487,3.41267 4.18007,4.83888 0.327029,0.40678 0.391523,0.35603 -0.573814,0.4514 -2.534657,0.25032 -5.147657,0.42946 -6.50869,0.44613 -3.323118,0.0407 -5.584454,-0.50724 -7.40774,-1.79463 -1.25371,-0.88527 -2.331672,-2.28837 -3.042074,-3.95965 -0.374148,-0.88087 -0.848339,-2.34315 -0.797864,-2.46175 0.01385,-0.0323 0.175949,-0.15292 0.360387,-0.26763 z"
         style="opacity:1;fill:#000000;fill-opacity:1;fill-rule:nonzero;stroke:none;stroke-width:0.03775182;stroke-opacity:0" />
      <path
         inkscape:connector-curvature="0"
         id="path853-3-3-0"
         d="m 44.590213,220.13655 c -0.589825,0.367 -1.123337,0.64485 -1.787572,0.93077 -1.936563,0.83358 -3.697373,1.00294 -5.595527,0.53821 -0.652593,-0.15973 -1.976153,-0.71826 -2.608721,-1.10081 -1.292124,-0.78136 -2.558222,-1.81994 -3.797963,-3.11545 -0.878408,-0.91793 -3.033483,-3.41267 -4.18008,-4.83889 -0.327016,-0.40677 -0.391527,-0.35603 0.573822,-0.45138 2.534669,-0.25033 5.147682,-0.42947 6.508723,-0.44614 3.323141,-0.0406 5.584494,0.50724 7.407785,1.79466 1.253701,0.88523 2.331666,2.28834 3.042064,3.95964 0.374134,0.88084 0.848337,2.34313 0.797853,2.46172 -0.01368,0.0325 -0.175954,0.15293 -0.360385,0.26765 z"
         style="opacity:1;fill:#000000;fill-opacity:1;fill-rule:nonzero;stroke:none;stroke-width:0.03775182;stroke-opacity:0" />
      <path
         inkscape:connector-curvature="0"
         id="path853-3-8"
         d="m 50.373648,214.67075 c 0.366237,-0.59034 0.643294,-1.12424 0.928283,-1.78887 0.830893,-1.93772 0.997814,-3.69878 0.530441,-5.59628 -0.160639,-0.65236 -0.721011,-1.97516 -1.104446,-2.60718 -0.783152,-1.29105 -1.823486,-2.55571 -3.120715,-3.79364 -0.919154,-0.87714 -3.416874,-3.02874 -4.844698,-4.17335 -0.407228,-0.32645 -0.356574,-0.39102 -0.450589,0.57446 -0.246854,2.53501 -0.422318,5.14826 -0.437059,6.50933 -0.036,3.3232 0.514994,5.58377 1.804945,7.40528 0.88698,1.25247 2.29158,2.32849 3.963873,3.03657 0.881256,0.37313 2.344301,0.84507 2.462829,0.79442 0.03241,-0.014 0.152655,-0.17616 0.267136,-0.36074 z"
         style="opacity:1;fill:#000000;fill-opacity:1;fill-rule:nonzero;stroke:none;stroke-width:0.03775182;stroke-opacity:0" />
      <path
         sodipodi:nodetypes="ccccc"
         inkscape:connector-curvature="0"
         id="path849"
         d="M 51.671917,245.5431 50.349,291.668 h 5.291666 L 54.31775,245.5431 Z"
         style="fill:#000000;fill-opacity:1;stroke:none;stroke-width:0.20877087px;stroke-linecap:butt;stroke-linejoin:miter;stroke-opacity:1" />
      <path
         inkscape:connector-curvature="0"
         id="path853-1-2-0-2-90"
         d="m 48.683865,278.50533 c -1.261514,0.66441 -2.373324,1.15222 -3.725162,1.63443 -3.941173,1.40578 -7.206745,1.45542 -10.377216,0.15762 -1.09009,-0.44602 -3.174052,-1.84059 -4.107627,-2.74836 -1.907004,-1.85415 -3.628145,-4.24066 -5.162867,-7.15911 -1.087439,-2.06785 -3.624259,-7.64758 -4.920477,-10.82281 -0.369699,-0.90558 -0.513395,-0.81079 1.278238,-0.84317 4.704241,-0.0851 9.511187,-0.008 11.973588,0.19227 6.012173,0.48886 9.792475,2.02283 12.383512,5.02506 1.78155,2.06444 2.966623,5.17941 3.344189,8.7909 0.198952,1.9032 0.263183,5.03777 0.108124,5.2766 -0.04235,0.0655 -0.399776,0.28883 -0.794193,0.4964 z"
         style="opacity:1;fill:#000000;fill-opacity:1;fill-rule:nonzero;stroke:none;stroke-width:0.07413382;stroke-opacity:0" />
      <path
         inkscape:connector-curvature="0"
         id="path853-1-2-0-2-90-5"
         d="m 57.422713,278.37043 c 1.261515,0.66441 2.373325,1.15222 3.725163,1.63443 3.941173,1.40578 7.206745,1.45542 10.377216,0.15762 1.09009,-0.44602 3.174052,-1.84059 4.107627,-2.74836 1.907005,-1.85415 3.628145,-4.24066 5.162868,-7.15911 1.087439,-2.06785 3.624259,-7.64758 4.920477,-10.82281 0.369699,-0.90558 0.513395,-0.81079 -1.278238,-0.84317 -4.704241,-0.0851 -9.511188,-0.008 -11.973589,0.19227 -6.012173,0.48886 -9.792475,2.02283 -12.383512,5.02506 -1.78155,2.06444 -2.966622,5.17941 -3.344188,8.7909 -0.198953,1.9032 -0.263183,5.03777 -0.108124,5.2766 0.04235,0.0655 0.399775,0.28883 0.794192,0.4964 z"
         style="opacity:1;fill:#000000;fill-opacity:1;fill-rule:nonzero;stroke:none;stroke-width:0.07413382;stroke-opacity:0" />
    </g>
  </g>
</svg>
